<?xml version="1.0" encoding="UTF-8" standalone="no"?>
<!-- Created with Inkscape (http://www.inkscape.org/) -->

<svg
   width="188mm"
   height="64mm"
   viewBox="0 0 188 64"
   version="1.1"
   id="svg9176"
   xmlns="http://www.w3.org/2000/svg"
   xmlnsSvg="http://www.w3.org/2000/svg">
  <defs
     id="defs9173" />
  <g
     id="layer1">
    <path
       d="m 67.470928,63.472537 c -0.05241,-0.04934 -2.67959,-0.217314 -5.838315,-0.373448 -3.158729,-0.156072 -7.270292,-0.535936 -9.13681,-0.844093 -1.866515,-0.308132 -4.333453,-0.682417 -5.482082,-0.831684 -1.148631,-0.149301 -3.56816,-0.636282 -5.376782,-1.082235 -1.80856,-0.445965 -3.57066,-0.866277 -3.915774,-0.934033 -0.34508,-0.06776 -1.567196,-0.387445 -2.715817,-0.710377 -1.148635,-0.322943 -2.811949,-0.711233 -3.696293,-0.862875 -0.884333,-0.151636 -2.533707,-0.602352 -3.665259,-1.001595 -1.131563,-0.399225 -3.344857,-0.899137 -4.918425,-1.110891 -1.573568,-0.211763 -3.095973,-0.56301 -3.383123,-0.780575 -0.287174,-0.217562 -1.428636,-0.559123 -2.536592,-0.758966 -2.2877,-0.412729 -6.600221,-2.379009 -6.600221,-3.009417 0,-0.229944 -0.2807498,-0.418093 -0.6239638,-0.418093 -1.034812,0 -7.2923757,-6.880634 -8.5468343,-9.397859 -0.96599277,-1.938354 -1.12700967,-2.943288 -0.92010237,-5.743135 0.1378765,-1.866517 0.5906359,-3.9223 1.00604567,-4.5684 0.4153832,-0.646103 0.5914352,-1.174734 0.3911475,-1.174734 -0.2002235,0 0.1087912,-0.528659 0.6866167,-1.174733 0.5779327,-0.646104 1.3452019,-1.921324 1.7050318,-2.833823 0.359883,-0.9125 1.1027348,-2.064909 1.6508371,-2.560912 0.5480835,-0.495977 0.9964878,-1.217824 0.9964878,-1.604056 0,-0.386211 0.2191544,-0.702229 0.4869104,-0.702229 0.2678062,0 0.6371266,-0.473284 0.8207494,-1.051789 0.1836243,-0.578488 0.5518473,-0.917038 0.8183463,-0.752342 0.438013,0.270715 0.7063,-0.445844 0.546357,-1.459017 -0.03389,-0.2154 0.290637,-0.391579 0.721343,-0.391579 0.4307358,0 0.7831548,-0.32726 0.7831548,-0.727298 0,-0.400025 0.352418,-0.862531 0.783153,-1.027819 0.430739,-0.165266 0.783156,-0.660317 0.783156,-1.100061 0,-0.439739 0.232909,-0.799547 0.517561,-0.799547 0.284646,0 1.182563,-0.695886 1.995372,-1.546409 1.306878,-1.367476 7.850759,-4.8763427 9.234394,-4.9515133 0.287173,-0.015359 1.107065,-0.5569645 1.82203,-1.203099 0.714971,-0.6461031 1.537283,-1.1938182 1.827365,-1.217146 4.54094,-0.3651846 8.90473,-1.1699108 9.244254,-1.7047377 0.199725,-0.314619 0.524348,-0.41094 0.721287,-0.21398 0.196948,0.196961 0.771563,0.136836 1.276906,-0.133631 1.128478,-0.603953 3.538553,-0.934445 9.647007,-1.322927 2.584412,-0.164339 5.638718,-0.42833001 6.787346,-0.58656401 3.314046,-0.456574 20.327617,-0.501157 26.627286,-0.06975 3.158704,0.216324 8.445002,0.50442701 11.747324,0.64026301 3.302261,0.135789 6.767757,0.477664 7.700997,0.759692 1.24504,0.376223 1.69896,0.348658 1.70481,-0.103415 0.006,-0.445597 0.11407,-0.454169 0.39158,-0.03084 0.34348,0.523666 1.30479,0.76563 5.86571,1.476106 0.71784,0.1118612 1.30523,0.2523974 1.30523,0.3123981 0,0.059815 0.46989,0.1774141 1.04424,0.2609707 0.5741,0.083558 2.33639,0.4038492 3.91577,0.7117706 1.57933,0.3079576 3.98743,0.6207642 5.35129,0.695164 1.3638,0.074377 2.47984,0.280641 2.47994,0.458362 2e-4,0.1777207 0.76386,0.2340201 1.69711,0.125182 0.93326,-0.1088379 2.04928,-0.037611 2.48002,0.1580472 0.85426,0.3883094 1.78164,0.5549303 4.95997,0.8911623 1.14864,0.1214847 2.14714,0.2747845 2.21897,0.3406418 0.0715,0.065867 0.77662,0.184936 1.56631,0.2646702 9.45369,0.9541282 18.33915,4.4118561 18.39612,7.1586891 0.0121,0.674933 -2.56616,0.201216 -2.84371,-0.522124 -0.34902,-0.909138 -3.28741,-2.127857 -7.99726,-3.316729 -3.47633,-0.87751 -5.26385,-1.1639834 -11.34043,-1.8174865 -1.1486,-0.1235217 -3.6743,-0.5454334 -5.61258,-0.9375964 -2.54446,-0.5147866 -3.52647,-0.5492573 -3.53221,-0.1239447 -0.006,0.4364079 -0.10734,0.4366538 -0.39158,9.856e-4 C 122.75943,7.6116204 117.49442,6.6563123 111.75457,6.0782275 110.60592,5.962537 108.25645,5.5255744 106.53352,5.1071903 104.81057,4.688788 101.63879,4.200858 99.485122,4.0228539 97.331443,3.8448246 94.512086,3.607597 93.21988,3.495612 87.180462,2.972316 81.935172,2.602889 81.342009,2.65911 80.983117,2.69302 80.278213,2.71029 79.775718,2.69673 74.391633,2.554343 59.901491,2.72263 57.455804,2.956281 c -1.722943,0.164463 -5.301283,0.32615 -7.951788,0.359326 -3.151155,0.03947 -4.704465,0.245985 -4.487741,0.5966167 0.182296,0.2949462 0.07937,0.3805394 -0.228666,0.1901157 -0.308071,-0.1904243 -1.930319,0.024669 -3.604914,0.4778478 -1.674593,0.4532433 -3.749535,0.9323859 -4.611008,1.064826 -5.783966,0.8892316 -9.601428,2.0664805 -10.572588,3.260465 -0.545682,0.6708983 -0.653936,0.6790756 -0.66062,0.049944 -0.0053,-0.4681659 -0.152937,-0.5463581 -0.391577,-0.2070139 -0.517375,0.7355804 -4.203823,2.8469907 -4.981861,2.8533247 -0.342492,0.0028 -1.654335,0.8251 -2.915161,1.827359 -1.260829,1.002277 -2.110188,1.822309 -1.887505,1.822309 0.22274,0 -0.272861,0.520275 -1.101223,1.156092 -2.355364,1.807848 -4.1919698,4.009544 -5.6540638,6.777806 C 7.8487668,24.24251 7.2373147,25.011975 7.0484185,24.895222 6.6911274,24.674397 3.418127,31.4889 3.418127,32.453563 c 0,0.302175 -0.2046523,0.549378 -0.4548484,0.549378 -0.9119612,0 -1.1493587,4.982248 -0.3458792,7.259515 0.898592,2.546874 2.8388853,5.200031 3.833646,5.242075 0.3759134,0.01594 0.53822,0.263815 0.3608077,0.550982 -0.1774795,0.287175 -0.1232243,0.522125 0.1206063,0.522125 0.2438226,0 1.4355218,0.897953 2.6482608,1.995459 2.1433888,1.939773 7.8201708,4.294941 10.3098228,4.277348 0.58866,-0.0038 1.293973,0.216067 1.56735,0.489442 0.273358,0.273358 1.37762,0.556347 2.453883,0.628816 1.076267,0.07245 1.956846,0.318689 1.956846,0.547159 0,0.228481 0.579163,0.415385 1.287039,0.415385 0.707809,0 2.2937,0.31893 3.524195,0.708759 1.230443,0.38985 3.764314,0.985178 5.63083,1.323027 1.866524,0.337865 3.863568,0.702878 4.437879,0.811188 0.574297,0.108269 1.722886,0.459285 2.552408,0.779997 0.829516,0.320663 1.617214,0.474023 1.750508,0.340767 0.133323,-0.13327 0.864285,-0.0016 1.624421,0.292164 2.307483,0.892402 2.574959,0.910253 25.137813,1.677882 2.153673,0.07326 4.209456,-0.08589 4.568403,-0.353715 0.404341,-0.301676 0.652626,-0.300617 0.652626,0.0027 0,0.693798 12.317566,0.280159 18.665253,-0.626779 1.507542,-0.215413 2.741045,-0.538096 2.741045,-0.717093 0,-0.179016 0.64607,-0.349459 1.43576,-0.378815 0.789688,-0.02962 2.610498,-0.234933 4.046318,-0.456944 2.6803,-0.414392 3.31534,-0.487156 9.13676,-1.047331 1.86657,-0.179639 3.74613,-0.448305 4.17687,-0.597106 0.43104,-0.148801 1.84041,-0.397807 3.13263,-0.553264 1.29219,-0.15546 2.60598,-0.48827 2.91955,-0.739546 0.31327,-0.251275 0.71902,-0.307945 0.90106,-0.125933 0.18192,0.181975 0.63028,0.09453 0.99614,-0.194422 0.3657,-0.288951 1.01773,-0.544753 1.44848,-0.568494 0.43043,-0.02338 1.48799,-0.179394 2.34946,-0.345946 0.86147,-0.166574 4.03325,-0.411312 7.04841,-0.543828 7.28717,-0.320357 10.25316,-0.639285 11.3556,-1.221031 0.50261,-0.265219 1.87859,-0.59119 3.05776,-0.724421 1.17918,-0.13327 2.47138,-0.446583 2.87155,-0.696296 0.40021,-0.249751 0.96259,-0.494686 1.2497,-0.544389 1.55608,-0.269181 2.15037,-0.535379 2.77787,-1.244301 0.38109,-0.430737 0.54451,-0.489441 0.36258,-0.130553 -0.18188,0.358959 -0.10115,0.652633 0.17885,0.652633 0.27997,0 0.58766,-0.220526 0.68349,-0.489998 0.0956,-0.269553 0.76139,-0.573857 1.47924,-0.6763 0.71791,-0.102411 1.77518,-0.441525 2.34947,-0.753463 0.57411,-0.311967 1.86655,-0.741974 2.87159,-0.9556 1.00502,-0.213604 1.94482,-0.570657 2.08843,-0.793462 0.14356,-0.2228 1.01054,-0.522983 1.92648,-0.667074 0.91601,-0.144114 2.46535,-0.872115 3.44294,-1.617775 0.97766,-0.745659 1.99718,-1.355748 2.2656,-1.355748 0.26824,0 0.82682,-0.469895 1.24071,-1.044205 0.41378,-0.574292 1.0532,-1.044202 1.42054,-1.044202 0.36754,0 0.67303,-0.176247 0.67938,-0.391577 0.006,-0.215413 1.00484,-1.060457 2.21892,-1.87797 1.21412,-0.817514 2.61473,-2.031301 3.1125,-2.697291 1.15045,-1.539219 1.4799,-5.350602 0.66696,-7.715379 -0.76677,-2.230399 -4.24363,-6.044906 -8.09829,-8.884849 -1.57934,-1.16359 -2.98904,-2.268059 -3.13261,-2.454363 -0.73325,-0.951455 -14.84885,-7.3980222 -15.02724,-6.8629005 -0.11035,0.3313926 -0.40885,0.6024735 -0.66299,0.6024735 -0.25404,0 -0.33791,-0.3244215 -0.18567,-0.7209332 0.32743,-0.85333 -2.71385,-2.1232687 -3.20027,-1.336296 -0.16708,0.2699703 -0.58335,0.4873445 -0.92525,0.4829049 -0.40637,-0.00517 -0.37123,-0.1665615 0.10115,-0.466008 0.57781,-0.365926 0.49888,-0.5779327 -0.39158,-1.0545831 -0.61296,-0.3281235 -1.11474,-0.4626166 -1.11474,-0.2988323 0,0.163783 -0.46186,0.050571 -1.02649,-0.2515345 -2.08331,-1.1149284 -6.72248,-1.1179808 -9.02409,-0.00596 -2.61901,1.2653689 -2.47989,1.2639317 -2.47989,0.025293 0,-0.5583215 0.56054,-1.6665593 1.24522,-2.4627998 1.07533,-1.250124 1.5563,-1.421302 3.52421,-1.254224 1.25339,0.106438 3.25852,0.210465 4.45577,0.231307 1.1973,0.02097 2.0645,0.219653 1.9271,0.441958 -0.13743,0.222306 0.0558,0.4312293 0.43352,0.4644044 1.19397,0.1052027 1.69222,0.2427789 3.20723,0.8856995 0.81381,0.345328 1.67863,0.5048571 1.92182,0.3545778 0.24359,-0.1503431 0.592,-0.030843 0.77545,0.265842 0.1832,0.296549 0.55191,0.4039713 0.81921,0.2387718 0.26764,-0.165204 0.48596,-0.051793 0.48596,0.252522 0,0.3040743 0.3663,0.5528945 0.81392,0.5528945 0.44769,0 0.66877,-0.234948 0.49146,-0.522124 -0.1775,-0.2871773 -0.0494,-0.5221235 0.28616,-0.5221235 0.33485,0 0.46991,0.3612995 0.30029,0.8029181 -0.18928,0.4930803 0.0433,0.9107294 0.59694,1.0823213 0.49763,0.1536733 1.31287,0.4972097 1.81142,0.7633907 0.49886,0.2662108 1.37972,0.4840144 1.9579,0.4840144 0.58642,0 1.05133,0.3463147 1.05133,0.7831552 0,0.4307348 0.45016,0.7831548 1.0007,0.7831548 0.55005,0 1.07897,0.228164 1.17475,0.507016 0.0956,0.278853 0.64391,0.58157 1.21821,0.67273 1.16973,0.185613 6.74087,3.643458 7.28267,4.520082 0.19238,0.310978 0.84468,0.565412 1.44986,0.565412 0.60557,0 0.95193,0.148549 0.77041,0.330036 -0.18133,0.181542 1.18897,1.737364 3.04553,3.457406 1.85664,1.720042 3.37573,3.343129 3.37573,3.606861 0,0.263742 0.49269,1.146285 1.09541,1.961236 0.60248,0.814949 1.13113,2.097474 1.17473,2.850054 0.0433,0.752582 0.2479,1.368501 0.45447,1.368704 0.2066,1.97e-4 0.23991,0.352787 0.0745,0.783518 -0.16517,0.430734 -0.0494,0.783155 0.26456,0.783155 0.64519,0 0.21642,3.01797 -0.57165,4.023431 -0.27132,0.346377 -0.33853,0.880823 -0.14872,1.18767 0.18991,0.306853 0.037,0.493326 -0.33426,0.414455 -0.3737,-0.07895 -0.75971,0.385166 -0.85825,1.031268 -0.16159,1.060034 -0.67832,1.414218 -1.80346,1.236566 -0.37679,-0.05918 -0.59632,0.775852 -0.44031,1.673818 0.0433,0.236742 -0.13807,0.298651 -0.39897,0.137626 -0.26023,-0.161016 -1.06693,0.173969 -1.79206,0.744355 -0.7252,0.570409 -1.44718,1.037089 -1.6045,1.037089 -0.15721,0 -1.17381,0.602411 -2.25887,1.338764 -1.08502,0.736317 -2.74006,1.702879 -3.67788,2.147904 -0.93788,0.445041 -1.7051,1.031171 -1.7051,1.302556 0,0.271393 -0.21584,0.359946 -0.48038,0.196763 -0.26395,-0.163179 -0.79753,0.0209 -1.18558,0.408902 -0.38788,0.388066 -1.1335,0.642806 -1.65648,0.566033 -0.52292,-0.07679 -2.00591,0.312706 -3.29552,0.865502 -1.28957,0.552771 -2.79514,1.00506 -3.34562,1.00506 -0.55068,0 -1.00092,0.224271 -1.00092,0.498442 0,0.274169 -0.88106,0.657197 -1.95788,0.851228 -1.07686,0.194079 -2.19283,0.514478 -2.48,0.712123 -0.28737,0.197635 -1.21376,0.40311 -2.05922,0.456576 -0.84539,0.05363 -1.66769,0.272329 -1.82733,0.486293 -0.1597,0.213977 -0.5254,0.398113 -0.81239,0.409155 -0.95152,0.03638 -5.20989,1.459502 -5.87367,1.962597 -0.39834,0.302113 -0.65261,0.30495 -0.65261,0.0074 0,-0.491539 -6.20684,-0.415812 -11.35113,0.138458 -1.50506,0.162173 -2.79728,0.261663 -2.87159,0.221118 -0.0745,-0.04069 -0.7512,0.160523 -1.50408,0.446768 -2.51621,0.95665 -13.7488,2.798343 -21.34257,3.499304 -1.86649,0.172281 -4.09849,0.516018 -4.95996,0.763846 -0.86147,0.247848 -3.32841,0.688997 -5.482077,0.980388 -2.153679,0.291353 -5.090511,0.691304 -6.526271,0.888696 -2.21368,0.304327 -23.642253,0.658887 -23.92163,0.395831 z m 76.915042,-48.77428 c 0,-0.304074 0.23494,-0.407735 0.52231,-0.230261 0.28736,0.177475 0.52231,0.426295 0.52231,0.552896 0,0.126655 -0.23493,0.230261 -0.52231,0.230261 -0.28733,0 -0.52231,-0.24882 -0.52231,-0.552896 z m 21.92835,-1.013278 c -0.4705,-0.304076 -0.53464,-0.509299 -0.16157,-0.514108 0.34223,-0.0044 0.76699,0.226929 0.94447,0.514108 0.40082,0.648204 0.22015,0.648204 -0.78316,0 z"
       style="fill:#000000;stroke-width:0.999998"
       id="path21216" />
  </g>
</svg>
