<?xml version="1.0" encoding="UTF-8" standalone="no"?>
<!-- Created with Inkscape (http://www.inkscape.org/) -->

<svg
   width="533mm"
   height="77mm"
   viewBox="0 0 533 77"
   version="1.1"
   id="svg5"
   xmlSpace="preserve"
   xmlns="http://www.w3.org/2000/svg"
   xmlnsSvg="http://www.w3.org/2000/svg"><defs
     id="defs2" /><g
     id="layer1"><g
       id="g431"
       transform="translate(1.0504047,-5.2520233)"><path
         style="fill:#695a00;fill-opacity:1;stroke-width:1.4;stroke-dasharray:none"
         d="m 200.37643,74.3791 c -3.64735,0.82458 -6.46879,1.13316 -6.46879,0.70752 0,-0.35801 -1.4675,-0.29372 -2.12534,0.0932 -0.70335,0.41364 -5.89044,1.01286 -7.78941,0.89985 -1.00041,-0.0596 -1.91043,0.17542 -2.24627,0.58013 -0.89789,1.08192 -6.41471,0.47036 -7.22825,-0.80124 -0.18448,-0.28861 -0.50232,-0.53505 -0.7057,-0.54783 -2.60888,-0.16302 -3.55988,-2.49644 -3.5246,-8.64779 0.0334,-5.39193 -0.99642,-6.53921 0.39945,-9.96763 1.1944,-2.93303 2.68541,-4.24857 5.44544,-7.19704 1.81356,-1.9373 2.59076,-2.01042 5.07595,-1.91562 1.42111,0.0545 2.95279,0.25588 3.40364,0.4482 0.68686,0.29289 0.79315,0.13175 0.65552,-0.99318 -0.0906,-0.73849 -0.49899,-2.31679 -0.90807,-3.50724 -0.66506,-1.9358 -1.13476,-4.28512 -1.46572,-7.33174 -0.0611,-0.56534 -0.33172,-1.30631 -0.60027,-1.6466 -0.40564,-0.5137 -0.72052,-1.39876 -1.30797,-3.67663 -0.0334,-0.12936 -0.52344,-1.16755 -1.0891,-2.307 -0.56572,-1.13946 -1.13778,-2.72727 -1.27135,-3.52841 -0.13328,-0.80119 -0.32951,-1.98594 -0.43509,-2.63283 -0.10552,-0.64688 -0.4234,-1.77212 -0.70585,-2.50054 -0.28283,-0.72842 -0.51399,-2.87309 -0.51399,-4.76594 v -3.44155 l 4.35172,0.0201 c 2.39345,0.0114 5.14641,-0.10416 6.11766,-0.25621 3.02468,-0.47349 3.4048,0.28954 3.92885,7.88606 0.19614,2.84629 0.37173,5.3162 0.38897,5.48871 0.0166,0.17249 0.17614,0.45781 0.35229,0.63405 0.17614,0.17626 0.20115,0.63158 0.0555,1.01186 -0.14607,0.38029 -0.05,1.15352 0.21393,1.71826 0.26338,0.56474 0.72825,1.97946 1.03242,3.14384 0.30451,1.16439 0.76421,2.75219 1.02226,3.52844 0.25782,0.77626 0.54676,1.94065 0.64162,2.58754 0.0951,0.64687 0.59517,3.2932 1.1117,5.88074 0.51676,2.58752 1.05321,6.60995 1.19234,8.93873 0.13892,2.32877 0.55915,5.08096 0.93323,6.11596 0.37397,1.03502 0.89844,4.06868 1.16545,6.74151 0.28506,2.8546 0.78871,5.32268 1.22067,5.98178 1.06826,1.63043 0.9349,2.97402 -0.32339,3.25845 z m -3.98315,-5.39641 c -0.11441,-1.944951 -0.50231,-4.16357 -0.73169,-4.93982 -1.20728,-4.08698 -1.37975,-7.8506 -1.58452,-10.58534 -0.27339,-3.64832 -1.88213,-12.67647 -2.58065,-14.48023 -0.27283,-0.70408 -0.58844,-1.99883 -0.70175,-2.87718 -0.11334,-0.87835 -0.42785,-2.46616 -0.69885,-3.52845 -0.27116,-1.0623 -0.69574,-2.88411 -0.94386,-4.0485 -0.73029,-3.42682 -0.74741,-3.49729 -1.02668,-4.23413 -0.29283,-0.77212 -0.76021,-5.4523 -0.78715,-7.88019 l -0.0166,-1.52899 h -3.30795 c -2.51709,0 -3.3732,0.16998 -3.58079,0.71082 -0.33006,0.86023 0.72376,6.73067 1.26869,7.06747 0.21282,0.13164 0.30673,0.65827 0.20781,1.17031 -0.0989,0.51211 0.0223,0.93103 0.26394,0.93103 0.24394,0 0.40618,0.15883 0.36007,0.35287 -0.13162,0.55936 1.0202,4.34958 2.18048,7.1745 0.58448,1.42313 1.34291,4.27826 1.68532,6.3447 0.34227,2.0665 0.90033,4.28941 1.23978,4.93983 0.33951,0.65046 0.61857,1.73322 0.62011,2.40622 0,0.67294 0.23783,1.89679 0.52455,2.71962 0.4012,1.15151 0.37562,1.84486 -0.11168,3.01057 -0.34841,0.833 -0.5744,1.69924 -0.50233,1.92508 0.0723,0.22582 -0.21227,0.27872 -0.63234,0.11763 -0.42008,-0.16114 -0.94351,-0.29293 -1.16367,-0.29293 -0.22003,0 -0.52621,-0.39687 -0.68018,-0.88198 -0.28339,-0.89274 -3.54084,-1.80468 -5.17253,-1.80468 -1.21568,0 -4.66516,3.0958 -6.24608,6.09748 -1.20434,2.28656 -1.30735,2.91479 -1.38815,8.46329 l 1.12588,5.99332 1.39825,1.39829 c 0.76907,0.769096 0.83655,0.17845 0.89129,0.17018 0.26116,-0.0389 1.80889,1.05026 2.58165,1.49752 0.56705,0.32817 0.76758,0.33512 0.57272,0.02 -0.16502,-0.26682 0.95608,0.39226 1.74927,-0.0179 0.9533,-0.49292 6.99603,-1.21779 7.17989,-2.13711 0.22894,-1.14491 0.51177,-1.3911 1.59952,-1.3911 1.09171,0 1.3472,0.22482 1.47023,1.29376 0.13776,1.19906 0.31562,1.29997 2.42946,1.37869 1.2543,0.0466 -2.87358,0.20186 -2.50089,0.34489 1.7294,-0.70369 2.19116,-1.01205 3.82272,-0.82521 1.52123,0.17881 2.50604,0.12898 2.35951,-0.11935 -0.13843,-0.23437 -1.05837,-2.009619 -1.17278,-3.95464 z m -11.72705,-8.79288 c -0.1975,0.158001 0.24149,0.69548 0.19315,1.14816 -0.30172,2.80426 -1.96432,4.56388 -5.18293,5.60354 -1.98415,0.64091 -2.92783,-1.90056 -1.72615,-4.14592 0.82899,-1.54895 2.42678,-3.20802 2.84226,-2.95124 0.21226,0.1313 0.93423,-0.1203 1.60397,-0.5591 1.06903,-0.70046 1.30175,-0.71377 1.90636,-0.10924 0.37896,0.37879 0.5609,0.855746 0.36339,1.01376 z m -4.16667,2.97724 c -0.38841,0.14897 -0.7057,0.48577 -0.7057,0.74851 0,0.27533 0.29895,0.22966 0.7057,-0.10786 0.3884,-0.32212 0.70568,-0.65897 0.70568,-0.74856 0,-0.0896 -0.31783,-0.0412 -0.70568,0.10798 z M 162.02667,75.1395 c -0.15671,0.7812 -3.48228,2.78192 -4.62409,2.78192 -0.36341,0 -0.66125,0.19854 -0.66125,0.44125 0,0.24267 -0.37062,0.46776 -0.82332,0.50021 -0.45287,0.0322 -2.0935,0.16798 -3.64602,0.30112 -4.17318,0.35801 -5.12759,0.31116 -5.3184,-0.26128 -0.0951,-0.28422 -0.36173,-0.39975 -0.59278,-0.25682 -0.72742,0.44959 -2.32188,-0.71567 -2.32188,-1.69676 0,-0.51649 -0.31785,-1.06098 -0.70569,-1.20993 -0.38842,-0.14898 -0.7057,-0.56569 -0.7057,-0.92615 0,-0.3604 -0.17113,-0.65535 -0.37951,-0.65535 -0.88711,0 -2.15462,-6.89238 -2.1054,-11.44849 0.05,-4.41794 0.63212,-10.6631 1.42693,-10.6631 0.19226,0 0.47899,-0.51443 0.63657,-1.14327 0.15787,-0.62877 0.55922,-1.42267 0.89189,-1.76422 0.33285,-0.34151 1.09688,-2.0314 1.698,-3.01391 0.73179,-1.196 2.14885,-1.26972 3.0589,-1.4517 0.74759,-0.14953 1.35927,-0.57343 1.35927,-0.94199 0,-0.5076 0.59786,-0.60616 2.4699,-0.56916 3.03094,0.0598 3.24167,0.24285 5.91884,2.81179 0.79109,0.75912 1.22885,1.94719 1.72918,2.10596 0.50008,0.15881 0.80037,0.39804 0.66678,0.53155 -0.13328,0.13358 0.29062,0.80228 0.94213,1.48605 1.76389,1.85068 2.08828,3.04392 1.57014,5.77583 -0.25229,1.32962 -0.45842,2.4835 -0.45842,2.56423 0,0.0807 -1.10723,1.29377 -1.71961,1.9543 -1.08532,1.17111 -2.5835,0.8454 -9.58994,1.19147 -0.76903,0.0383 -0.77119,3.06031 -0.005,4.68735 0.40174,0.85077 1.10177,1.34437 2.23471,1.57523 2.4553,0.50031 3.27689,0.54487 3.04224,0.16513 -0.33285,-0.53844 0.97635,-0.86555 1.69254,-0.42292 0.37785,0.23362 0.89855,0.19154 1.25118,-0.10111 0.42842,-0.35578 0.78698,-0.34913 1.23517,0.0228 0.34729,0.28823 0.77065,0.38469 0.9409,0.21443 0.17004,-0.17024 0.30952,0.14914 0.30952,0.70975 0,0.56065 0.0445,1.17812 0.0995,1.37218 0.27838,0.98863 0.61189,4.68221 0.4812,5.3335 z m -3.58812,-21.57372 c -0.61902,-0.96513 -1.5717,-2.22235 -2.11708,-2.79373 -0.5451,-0.57137 -0.99152,-1.25942 -0.99152,-1.52899 0,-0.26954 -0.1617,-0.49015 -0.35896,-0.49015 -0.19726,0 -0.56788,-0.46458 -0.82332,-1.03242 -0.70274,-1.5623 -2.66089,-1.86574 -4.89792,-0.75894 -2.05461,1.01652 -4.30948,4.77357 -5.6918,8.26969 -1.38499,3.50266 -1.50773,12.89285 0.21937,16.03269 0.37729,0.68598 0.95619,1.77645 1.28641,2.42334 1.39299,2.72876 3.02908,3.52238 6.97294,3.38218 2.81848,-0.10017 3.50777,-0.29639 4.17095,-1.18716 0.43674,-0.58657 0.7962,-0.70927 1.12238,-0.38307 0.81176,0.81172 1.76356,-0.64092 1.76356,-2.6915 0,-1.0382 -0.18837,-2.00402 -0.41842,-2.14619 -0.23004,-0.14218 -1.41666,-0.072 -2.63683,0.15598 -2.59682,0.48516 -5.03256,-0.0545 -6.27696,-1.38993 -1.00219,-1.07574 -1.93204,-4.71099 -1.77539,-6.94078 0.06,-0.85586 -0.0555,-1.65733 -0.2545,-1.78101 -0.50899,-0.31451 0.52621,-2.43703 1.34069,-2.74965 0.36953,-0.14181 1.30547,0.0699 2.08001,0.47043 1.08265,0.55984 2.15769,0.6544 4.64972,0.40885 2.80081,-0.27601 3.26817,-0.45543 3.43771,-1.31964 0.37617,-1.91666 0.31728,-2.20599 -0.80116,-3.94994 z m -4.64555,-0.0807 c -0.57777,0.85491 -1.62069,1.70622 -2.3175,1.89172 -1.12161,0.29866 -1.30052,0.18414 -1.5603,-0.9986 -0.52343,-2.38425 1.36921,-4.47596 3.3672,-3.72077 1.55202,0.5866 1.65182,1.13911 0.51065,2.82765 z m -16.55653,-3.97266 c -1.08006,-0.04696 -2.73603,1.5016 -3.18233,1.53628 -1.19989,0.0934 -3.90479,1.69705 -4.97316,3.45731 -1.21084,1.99503 -2.53331,7.88682 -2.51025,11.18348 0.0111,1.42315 0.27727,3.90525 0.59439,5.51577 0.51843,2.63472 0.49287,3.02048 -0.25672,3.84878 -0.45842,0.50631 -1.184,0.91993 -1.61286,0.91914 -1.26896,0 -2.21575,0.29167 -3.41431,1.05975 -1.59142,1.01981 -2.55432,1.32142 -3.07309,0.96261 -0.93362,-0.64575 -3.46643,-14.8725 -3.46643,-19.47072 0,-1.15728 -0.20782,-2.71789 -0.4612,-3.46809 -0.59344,-1.75467 -1.3577,-8.23694 -1.06375,-9.02294 0.1239,-0.33184 0.59755,-0.48392 1.05464,-0.33883 0.49898,0.15841 0.93945,-0.0234 1.10565,-0.45643 0.1517,-0.39585 0.71675,-0.7197 1.25524,-0.7197 1.25102,0 3.75505,-1.28408 3.75505,-1.92564 0,-0.72686 1.98776,-0.0233 2.89821,1.02559 1.02175,1.17734 1.10543,1.16167 3.36631,-0.62895 1.47417,-1.16759 2.37984,-1.52475 3.83139,-1.51102 3.62925,0.0344 4.35633,0.47448 5.88984,3.56523 0.7817,1.57552 2.02784,3.03042 2.02784,3.23315 0,0.2027 -0.68415,1.2822 -1.76423,1.23524 z m -4.22091,-5.08035 c -1.30119,-0.91504 -5.3354,0.84075 -7.91255,3.44381 -2.33895,2.36241 -3.17494,2.36627 -3.17494,0.0144 0,-0.99191 -0.73436,-1.32462 -0.89051,-1.48077 -0.15614,-0.15614 -0.59305,-0.44559 -1.71226,0.0983 -1.86452,0.90588 -2.05867,1.16923 -2.31849,3.14587 -0.15615,1.18645 0.54154,2.89676 0.80826,3.80071 0.26672,0.90393 0.48509,3.69527 0.48509,6.20296 0,2.50768 0.22671,5.15544 0.50343,5.88385 0.27672,0.72842 0.60606,2.48878 0.73131,3.91191 0.42397,4.81539 0.77453,6.51535 1.71665,4.99096 0.17615,-0.28521 1.05042,-0.21692 1.94259,-0.58967 1.50684,-0.62962 0.9908,-0.785 0.66713,-2.1867 -0.99047,-4.29011 0.7238,-14.23638 2.59555,-17.85558 0.96057,-1.85756 4.87486,-5.49134 6.2913,-5.84038 0.6469,-0.15942 1.32691,-0.37402 1.51129,-0.47688 0.39118,-0.2182 -0.57278,-2.59062 -1.24435,-3.06287 z m -27.0309,8.28112 c -0.83227,0.89807 -1.458,1.18707 -2.11707,0.9779 -0.57595,-0.18281 -0.93557,-0.0817 -0.93557,0.26283 0,0.39969 -0.17114,0.41769 -0.59844,0.063 -0.44842,-0.37206 -1.19734,0.11525 -2.984957,1.94183 -2.159298,2.20646 -2.41657,2.69939 -2.703123,5.17994 -0.173923,1.50774 -0.113354,3.51895 0.135023,4.46938 0.248381,0.95036 1.123326,3.40856 1.203008,5.46268 0.161149,4.15759 -0.149253,4.34836 -4.628157,6.24922 -2.326662,0.9874 -3.125704,-0.20305 -3.125704,-2.89057 0,-1.08097 -0.860499,-2.21943 -1.171114,-2.52994 -0.310614,-0.3105 -0.363401,-0.56779 -0.117806,-0.57175 0.245601,-0.004 0.129473,-0.21243 -0.258939,-0.46325 -0.397298,-0.2566 -0.198605,-0.15886 -0.160583,-0.46325 0.08661,-0.69337 0.24838,-0.62214 -0.321172,-1.80125 -0.764367,-1.58201 -1.283076,-3.8844 -1.556573,-6.90946 -0.04445,-0.51747 -0.217819,-1.15262 -0.380628,-1.41138 -0.319505,-0.50904 -0.714467,-2.86254 -1.104931,-6.58641 -0.135588,-1.29377 0.124805,-3.06561 -0.162137,-3.93738 -0.483983,-1.46957 -0.42397,-1.66546 0.826599,-2.68825 0.741807,-0.60671 1.598304,-1.11075 1.903251,-1.12002 0.305057,-0.009 0.849661,-0.31217 1.210562,-0.67304 0.421747,-0.42164 1.484559,-0.61513 2.973953,-0.54138 3.835169,0.18993 3.737929,0.14814 2.788305,1.19746 -0.801428,0.88564 -0.803098,0.94091 -0.02778,0.94091 0.452864,0 1.38554,-0.29666 2.072391,-0.6593 0.686799,-0.36256 2.20142,-0.9371 3.365802,-1.27673 1.9521,-0.56934 2.56471,-0.62975 4.7888,-0.4722 0.53344,0.0378 1.02998,0.88169 1.52901,2.59826 0.99624,3.42691 0.93868,4.16176 -0.4423,5.65205 z m -2.55388,-4.98969 c -0.48953,-0.60171 -4.958491,0.67272 -6.297966,1.79604 -1.454165,1.21952 -1.990765,1.36169 -2.43385,0.64481 -0.160035,-0.25878 -1.230957,-0.47048 -2.380007,-0.47048 -1.811455,0 -2.08934,-0.13192 -2.08934,-0.99192 0,-0.84701 -0.188924,-0.94449 -1.292801,-0.66744 -0.711023,0.17843 -1.382595,0.4143 -1.492338,0.52405 -0.422302,0.42219 3.706817,21.7206 4.334547,22.54121 0.197815,0.25878 -0.42289,1.36088 0.113468,2.11707 1.47611,2.08116 0.533461,1.45714 0.563993,1.05853 0.02614,-0.34137 0.81049,-0.58807 1.551906,-0.58807 h 1.34809 l -0.234488,-2.70514 c -0.12891,-1.48783 -0.433971,-3.76368 -0.678186,-5.05745 -0.597945,-3.16947 -0.216151,-7.42822 0.810432,-9.03549 0.461754,-0.72304 1.70399,-2.16859 2.760635,-3.21236 1.626085,-1.60628 2.229805,-1.90131 3.930905,-1.92092 1.13817,-0.0133 2.17687,-0.2935 2.39502,-0.64649 0.34062,-0.55112 -0.18059,-2.48926 -0.91007,-3.38597 z M 76.955513,70.10476 c -0.637787,0.41786 -1.478337,0.7598 -1.867909,0.7598 -0.389521,0 -1.865411,0.52926 -3.279621,1.17615 -2.64095,1.208 -4.51346,1.51347 -4.51346,0.73632 0,-0.24194 -0.22061,-1.02024 -0.4901,-1.72965 l -0.49065,-1.2898 -1.34519,1.37679 c -2.069419,2.118031 -2.76825,2.59393 -3.07665,2.09495 -0.15226,-0.24671 -0.69297,-0.0328 -1.20101,0.47514 -1.05285,1.05289 -1.96169,1.15674 -3.39775,0.38814 -1.46251,-0.78266 -3.21711,-2.50388 -3.3328,-3.26927 -0.0555,-0.36546 -0.85105,-0.89463 -1.02719,-1.17597 -1.77967,-2.84411 -2.0315,-17.13074 -0.30174,-17.13074 0.22728,0 0.37897,-0.15881 0.33729,-0.35285 -0.1867,-0.86766 1.72134,-3.66063 2.55444,-3.87846 0.50565,-0.13231 1.04325,-0.6299 1.19433,-1.10582 0.15115,-0.47593 1.55809,-1.50664 3.12671,-2.29052 3.09031,-1.54423 5.54694,-1.0225 7.63106,0.34306 0.70352,0.46098 1.6881,0.60652 2.92878,0.43298 2.2946,-0.32095 3.27012,0.57856 3.60396,3.32317 0.51287,4.21815 2.958558,16.56441 3.631797,18.33508 0.665181,1.74965 0.621895,1.92569 -0.684241,2.7815 z m -2.3505,-4.81783 c -0.64823,-2.5042 -0.86489,-3.63694 -1.45294,-7.59524 -0.54788,-3.68939 -1.31731,-7.34011 -1.70999,-8.11543 -0.28728,-0.56704 -0.9748,-0.8233 -2.20937,-0.8233 -1.19489,0 -2.07623,-0.31367 -2.64389,-0.94092 -1.06748,-1.17958 -3.52371,-0.65446 -5.78998,0.43647 -2.35822,1.13523 -3.98748,2.81575 -5.02218,5.15121 -1.05192,2.37427 -2.45435,8.03978 -1.6043,11.69491 0.5646,2.42668 2.2487,5.52663 3.00701,6.01144 0.87667,0.56045 4.4694,0.96519 4.46936,0.35552 0,-0.31857 0.52731,-0.71144 1.17143,-0.87312 0.88789,-0.22289 1.29319,-0.76592 1.6746,-2.24369 0.27672,-1.07231 0.61073,-2.32011 0.74215,-2.77293 0.14225,-0.4907 0.69763,-0.82329 1.37436,-0.82329 1.17917,0 1.25379,0.15691 1.85796,3.90603 0.3334,2.06889 1.3112,2.66035 2.54788,1.54118 0.47564,-0.43059 1.63225,-0.90732 2.56998,-1.05953 1.946652,-0.31588 1.93937,-0.28826 1.01764,-3.84934 z m -10.27617,-4.43846 c -1.15844,2.22061 -2.37973,2.61613 -4.02921,2.20212 -2.04139,-0.5123 -1.70305,-4.74264 0.20537,-6.32659 0.4312,-0.35762 1.41161,-1.04642 2.78631,-0.84021 2.50625,0.3758 2.69702,1.7835 1.03747,4.9647 z m -2.15402,-2.24549 c -1.02852,0.55048 -1.60953,1.7677 -1.01819,2.13314 0.80665,0.49855 1.90375,-0.34562 1.90375,-1.46473 0,-0.97276 -0.1317,-1.07198 -0.88556,-0.66841 z m -20.06019,13.44727 c -0.59889,1.7565 -1.72032,3.45365 -4.30025,4.78852 -2.74264,1.41911 -4.60378,1.5298 -9.56799,0.7909 -5.5705,-0.82914 -8.43181,-1.71694 -9.40917,-2.91954 -0.12947,-0.1592 -0.71035,-0.43769 -1.29102,-0.61893 -0.58072,-0.18114 -2.85354,-2.11509 -5.05079,-4.29751 -2.19725,-2.18246 -4.7915297,-4.57465 -5.0237897,-4.57465 -0.23227,0 -1.6017733,-2.05092 -1.7499133,-2.61738 -0.39674,-1.51719 4.1250933,-6.280927 5.352923,-6.280927 1.668908,0.38045 0.816998,0.189842 1.69128,0.623024 0.93951,-0.50276 2.528072,1.397191 3.24855,2.185163 0.681527,0.745373 8.40549,4.58396 11.05005,5.08006 1.53117,0.28727 0.97833,0.84817 1.69291,-1.34734 0.40231,-1.23646 0.0511,-2.59421 -0.0393,-3.75859 -0.4673,-6.01686 -1.2963,-13.65133 -1.68575,-15.52517 -0.24172,-1.16438 -0.0674,-3.47499 -0.35334,-5.13464 -0.28618,-1.65969 -0.81349,-3.77675 -1.17228,-4.70458 -0.94696,-2.44884 -3.0582,-9.07 -3.06931,-13.68375 l -0.0114,-3.9989 5.17361,-0.0934 c 2.01266,-0.03633 4.26682,-0.47444 4.72623,-0.13608 0.42286,0.31133 1.07454,2.64548 1.45528,4.46371 0.37951,1.81126 1.02069,4.66932 1.42538,6.35121 1.69371,7.03891 2.07106,9.45624 2.31343,14.81946 0.20004,4.4315 0.59611,6.85955 1.84069,11.29104 2.33522,8.31485 3.56268,16.92157 2.75229,19.2984 z m -3.53816,-12.2415 c -0.48288,-1.81127 -1.29597,-4.56344 -1.80641,-6.11596 -1.37949,-4.19565 -2.40768,-10.23956 -2.40768,-14.15237 0,-4.05197 -0.882197,-8.85074 -3.23611,-17.60365 l -0.82238,-3.05798 -1.96776,-0.0759 c -1.082268,-0.04175 -2.0964,0.13241 -2.25365,0.38685 -0.50454,0.81652 0.75698,9.91525 1.91392,13.80275 1.65697,5.56779 2.61266,12.6898 3.35686,25.01645 0.3095,5.12656 0.89272,5.91722 -0.33755,8.0163 -0.69381,1.18392 -1.41134,1.5622 -1.59453,1.58202 -0.18336,0.0199 -0.7492,0.11359 -1.2579,0.20848 -0.50899,0.0949 -1.17517,-0.035 -1.48101,-0.289 -0.55066,-0.45714 -2.1822,-0.76863 -4.65434,-1.23039 -0.70323,-0.13135 -1.52305,-0.53339 -1.82184,-0.89336 -0.29895,-0.36 -0.83482,-0.6545 -1.19129,-0.6545 -0.35672,0 -0.64806,-0.19359 -0.64806,-0.43024 0,-0.23666 -1.00563,-0.99385 -2.23469,-1.68269 -1.74451,-0.97772 -2.119099,-1.002479 -2.712514,-1.461748 -0.796966,-0.616806 -0.802898,-0.489018 -1.619919,-0.59424 -0.641601,-0.08263 -0.694247,-0.121255 -0.943737,-0.121255 -0.58878,0 -1.4293797,1.165613 -1.4227197,2.259803 0.005,1.23891 6.3143267,6.893643 9.4049567,8.970763 3.36219,2.25967 3.38981,2.26885 9.51137,3.16376 5.04373,0.73736 4.638973,0.73312 6.499763,-0.23677 1.04188,-0.54304 2.1388,-0.98735 2.43758,-0.98735 0.29894,0 1.05314,-1.005476 1.67631,-1.587706 1.09371,-1.02183 0.592713,-0.155217 0.283103,-4.469557 -0.17615,-2.45815 -0.186803,-5.95132 -0.669843,-7.76258 z"
         id="path332" /><path
         style="fill:#695a00;fill-opacity:1;stroke-width:1.4;stroke-dasharray:none"
         d="m 527.64117,22.66169 c -0.23656,0.14625 -0.43045,0.68603 -0.43045,1.19944 0,0.51337 -0.1386,1.07196 -0.30782,1.24127 -0.29669,0.29647 -0.34176,0.44874 -0.46781,1.5733 -0.0388,0.34088 -0.159,0.36774 -0.3592,0.08 -0.19681,-0.283 -0.5504,-0.17636 -1.0198,0.30782 -0.39507,0.40744 -0.61171,0.74083 -0.48136,0.74083 0.13034,0 -0.31365,0.4629 -0.98575,1.02866 -0.72589,0.6108 -1.48896,0.92642 -1.87841,0.77694 -0.36065,-0.13844 -0.65598,-0.047 -0.65598,0.20263 0,0.2499 -0.23075,0.40817 -0.51302,0.35175 -0.28213,-0.0564 -0.47263,0.11105 -0.42319,0.37224 0.12743,0.67286 -0.68851,0.47191 -2.41434,-0.59475 -1.72813,-1.06798 -2.77783,-2.50748 -2.89936,-3.97592 -0.0484,-0.56902 -0.21039,-1.03457 -0.3626,-1.03457 -0.58079,0 -0.76651,-1.36366 -0.26953,-1.97774 0.42416,-0.52396 0.4198,-0.58212 -0.0242,-0.31549 -0.44647,0.26871 -0.45035,0.17786 -0.0194,-0.51032 0.28746,-0.46052 0.70199,-0.72655 0.92091,-0.59127 0.22976,0.14204 0.28745,-0.0427 0.1357,-0.43696 -0.14397,-0.37564 -0.0679,-0.68296 0.16967,-0.68296 0.23751,0 0.35775,-0.22202 0.26709,-0.49329 -0.1687,-0.50545 0.86612,-1.96929 1.3918,-1.96929 0.16094,0 0.81245,-0.21353 1.44792,-0.47458 0.63548,-0.26104 1.49878,-0.43071 1.9185,-0.37704 0.51418,0.0657 0.66087,-0.0679 0.44985,-0.40968 -0.20748,-0.33555 -0.14439,-0.40273 0.18614,-0.19841 0.28213,0.17447 0.87621,-0.0208 1.36524,-0.44961 0.47603,-0.41719 0.73213,-0.53012 0.56906,-0.25101 -0.21621,0.36963 0.0573,0.46624 1.00646,0.35571 1.00684,-0.11725 1.34895,0.0238 1.50513,0.62124 0.11106,0.42513 0.46876,0.77295 0.79414,0.77295 0.32575,0 0.47797,0.1847 0.33835,0.41045 -0.13961,0.22575 -0.0387,0.41045 0.22881,0.41045 0.29328,0 0.40575,0.4022 0.28649,1.02607 -0.10757,0.56434 -0.0242,1.02608 0.18179,1.02608 0.20796,0 0.25838,0.19279 0.11294,0.42838 -0.14543,0.23564 -0.0552,0.6809 0.20117,0.98955 0.31994,0.38572 0.33109,0.64425 0.0339,0.8271 z m -5.96521,-2.65549 c 0.31788,0.03179 -0.76907,0.32324 -0.99914,0.71826 -0.23025,0.39503 -0.42416,0.55112 -0.43095,0.3468 -0.004,-0.20428 -0.34952,-0.0665 -0.76127,0.30622 -0.56643,0.51263 -0.72839,1.19217 -0.66489,2.79015 0.1096,2.75837 0.91314,3.27683 2.27193,1.46585 1.89084,-2.52017 -1.03692,-5.789404 0.58422,-5.62729 z m 4.09507,31.26317 c -0.078,0.078 -0.20167,1.55373 -0.27535,3.27938 -0.0732,1.72571 -0.24189,3.07073 -0.37423,2.98905 -0.1328,-0.0817 -0.26953,0.53644 -0.30395,1.37362 -0.0339,0.8372 -0.23948,2.13301 -0.45519,2.87958 -0.21572,0.74658 -0.29037,1.62387 -0.16531,1.94955 0.12512,0.32566 0.0242,0.59212 -0.22686,0.59212 -0.25013,0 -0.45422,0.45083 -0.45422,1.00186 0,0.55101 -0.1444,1.09105 -0.32091,1.2001 -0.17646,0.10903 -0.36697,0.80728 -0.42369,1.55171 -0.0567,0.7444 -0.51263,2.17676 -1.01314,3.18302 -1.05819,2.12742 -1.46286,2.25814 -7.06655,2.28215 -3.34294,0.0145 -3.78568,-0.0759 -4.65981,-0.95014 -1.42388,-1.42391 -1.88164,-5.12349 -0.77827,-6.28985 0.28213,-0.29832 0.54787,-1.09642 0.59044,-1.77363 0.15269,-2.43028 0.19778,-4.54248 0.13135,-6.15646 -0.16142,-3.90007 0.37521,-10.19299 0.89754,-10.52413 0.29473,-0.18683 0.38392,-0.34253 0.19826,-0.34597 -0.18566,-0.004 -0.0291,-0.3133 0.34515,-0.6885 0.53852,-0.53848 0.75118,-0.57066 1.00952,-0.15265 0.17984,0.29129 0.50254,0.42126 0.7167,0.28892 0.66205,-0.40914 2.15744,0.90882 1.87279,1.65059 -0.18179,0.47371 -0.10424,0.57681 0.26322,0.3497 0.41447,-0.25624 0.42222,-0.13767 0.0387,0.57986 -0.31073,0.58072 -0.49984,3.44018 -0.53087,8.02803 -0.0291,4.51833 -0.19487,7.03542 -0.44889,6.87839 -0.23267,-0.14388 -0.29085,0.0388 -0.1386,0.43536 0.1444,0.37613 0.0635,0.68296 -0.17935,0.68296 -0.24287,0 -0.33158,0.28664 -0.19681,0.63695 0.13614,0.35465 0.0697,0.52912 -0.14931,0.39362 -0.4227,-0.26133 -0.89754,1.23979 -0.71236,2.25286 0.28552,1.56251 0.50531,1.61685 5.14176,1.27134 0.3626,-0.0271 0.4741,-0.44215 0.34321,-1.27368 -0.12265,-0.77707 -0.0387,-1.13775 0.22444,-0.97465 0.26323,0.16273 0.31703,-0.0626 0.1444,-0.6065 -0.15124,-0.47598 0.0145,-1.99157 0.36648,-3.36798 0.35242,-1.37643 0.64114,-3.42328 0.64114,-4.54856 0,-1.12527 0.16386,-2.35705 0.36406,-2.73723 0.48282,-0.91695 0.82628,-4.56728 0.45131,-4.79893 -0.16239,-0.10025 -0.21038,-0.62471 -0.10714,-1.16541 0.16336,-0.8553 -0.004,-1.01923 -1.29329,-1.26101 -0.81474,-0.1528 -1.61668,-0.19594 -1.78213,-0.0958 -0.43871,0.2656 -1.10243,-0.61881 -1.24675,-1.66155 -0.17258,-1.24701 2.70229,-2.81161 3.52964,-1.92094 0.34224,0.36847 1.07315,0.50656 2.05212,0.38776 0.85319,-0.1035 1.81742,0.0368 2.1968,0.3198 0.61952,0.46207 2.11316,4.52647 1.78434,4.85535 z M 503.68146,13.215547 c 0.67027,0.424049 -0.97383,3.19724 -0.38442,3.57106 0.44502,0.28218 0.4455,0.34534 0.004,0.35053 -0.29619,0.004 -0.48563,0.32949 -0.42077,0.72453 0.065,0.39503 -0.0291,0.94912 -0.20359,1.23129 -0.19586,0.31252 -0.11193,0.5155 0.21571,0.51932 0.42222,0.005 0.42756,0.076 0.0242,0.33182 -0.79883,0.50721 -1.55041,17.18311 -0.90418,20.06023 0.1624,0.72235 0.18906,1.41926 0.0596,1.54871 -0.12947,0.12944 -0.19924,1.10833 -0.1556,2.17528 0.0436,1.067 -0.084,3.04815 -0.28408,4.40257 -0.20021,1.35442 -0.26225,2.63401 -0.13773,2.84358 0.31897,0.53676 0.34903,4.70591 0.0339,4.5101 -0.14353,-0.0887 -0.25886,2.74553 -0.25644,6.29814 0.0102,13.39767 -0.0291,13.97498 -0.92894,14.26048 -0.44646,0.14164 -0.81129,0.45237 -0.81129,0.6905 0,0.27316 -0.18955,0.29435 -0.51308,0.0574 -0.59717,-0.4372 -0.0103,-0.3928 -4.5528,0.19328 -4.06437,0.52444 -5.36703,0.37118 -6.60728,-0.49753 -0.92681,-0.64913 -0.95571,-0.85956 -1.03627,-7.5346 -0.0436,-3.77673 -0.0892,-7.14381 -0.0974,-7.48241 -0.0819,-3.48129 0.68075,-20.98655 1.01058,-23.18933 0.13527,-0.90295 0.30395,-2.56519 0.37473,-3.69387 0.0707,-1.12868 0.41931,-2.74475 0.77488,-3.59126 0.35533,-0.84651 0.4644,-1.53911 0.24238,-1.53911 -0.26275,0 -0.26031,-0.26827 0.004,-0.76689 0.22591,-0.42179 0.28456,-0.89286 0.13048,-1.04681 -0.15416,-0.15396 -0.30685,-1.14789 -0.33982,-2.20873 -0.0339,-1.06084 -0.19438,-2.85228 -0.35872,-3.98096 -0.41399,-2.84691 -0.48762,-6.40407 -0.13671,-6.62082 0.16094,-0.0993 0.0902,-0.62398 -0.15658,-1.16583 -0.54361,-1.19312 -0.15174,-2.44162 0.66756,-2.1272 0.34273,0.13136 0.68666,-0.0742 0.81846,-0.48932 0.18373,-0.57847 -0.4185,-0.69781 1.31442,-0.62064 1.30571,0.0582 1.20841,-0.095 1.39694,-0.39169 0.22541,-0.3543603 0.31121,-0.3582303 0.31607,-0.0145 0.004,0.27147 0.60686,0.45519 1.41718,0.43241 0.776,-0.0242 -0.79749,-0.18857 -0.90961,-0.36987 -0.11193,-0.1813003 -0.55337,-0.3296403 -0.33237,-0.3296403 0.2201,0 0.99262,0.18857 1.06925,0.4188303 0.14785,0.44356 1.85304,-0.3921703 1.859,-0.8935103 0.004,-0.26661 1.27856,-0.0766 2.46578,0.36745 0.33886,0.12653 1.5142,0.29861 1.96567,0.3815103 0.99138,0.18275 2.90527,1.24375 2.90527,2.29068 0,0.42175 0.18469,0.65249 0.4106,0.51303 0.22589,-0.13962 0.41059,-0.16143 0.41059,-0.0485 0,0.11295 -0.56291,0.304177 -0.36406,0.42998 z m -5.35074,0.81661 c -0.0484,-0.65688 -3.58498,-0.30661 -4.28836,0.39678 -0.31074,0.31054 -0.45035,0.67893 -0.31074,0.81868 0.13962,0.13971 0.0494,0.25407 -0.20069,0.25407 -0.25013,0 -0.0605,-0.21858 -0.22571,-0.48579 -0.53827,-0.87098 -0.8238,0.84179 -0.5487,3.29145 0.14353,1.27861 0.18616,4.81808 0.095,7.86552 -0.0916,3.04745 -0.15221,6.00255 -0.13483,6.56689 0.0194,0.56434 -0.26418,2.20963 -0.62548,3.65619 -0.36162,1.44656 -0.57454,3.06263 -0.4736,3.59126 0.10076,0.52864 0.0707,0.96115 -0.0674,0.96115 -0.26856,0 -0.34176,1.05255 -0.54428,7.79818 -0.0713,2.37023 -0.0102,4.90977 0.1415,5.64341 0.14882,0.73365 0.13381,1.3339 -0.0339,1.3339 -0.16723,0 -0.24866,1.98546 -0.1808,4.41214 0.24238,8.67156 0.75603,11.40925 0.45597,12.78801 -0.2865,1.31683 -0.77786,1.38401 0.11793,1.14974 0.5233,-0.13685 1.27158,-0.0775 1.66288,0.1319 0.49232,0.26352 0.32846,0.20457 0.65713,-0.19153 0.3437,-0.41403 -1.30735,-0.47627 -0.43188,-0.22522 0.79312,0.22745 1.20991,0.19817 1.20991,-0.085 0,-0.28596 0.18955,-0.27456 0.56121,0.0335 1.20443,0.99961 2.69566,-0.5625 2.61669,-5.62339 -0.0387,-2.63857 -0.0747,-5.07443 -0.0736,-5.41304 0,-0.3386 -0.0291,-1.35441 -0.0689,-2.25736 -0.12946,-3.03986 -0.0145,-11.45298 0.22444,-16.72755 0.13817,-3.02749 0.0712,-5.67707 -0.15899,-6.28254 -0.26323,-0.69219 -0.25936,-0.9613 0.0101,-0.7941 0.22492,0.13908 0.40914,-0.13831 0.40914,-0.61642 0,-0.47812 -0.18277,-0.75646 -0.40574,-0.61856 -0.22833,0.14121 -0.30395,-0.0145 -0.17259,-0.35693 0.33934,-0.88369 0.42369,-6.8227 0.097,-6.8227 -0.15221,0 -0.0145,-0.52707 0.30784,-1.17125 0.70634,-1.4159 0.97393,-3.71825 0.53584,-4.61081 -0.17838,-0.36357 -1.05833,-1.99675 -0.65015,-3.69387 0.40041,-1.6732 0.68201,-3.31924 0.62583,-3.65784 -0.0562,-0.33861 -0.11642,-0.8152 -0.13338,-1.05907 z m -19.00617,0.631883 c -0.25013,0.004 -0.40234,0.86433 -0.36453,2.05843 0.0339,1.12868 -0.10033,2.05215 -0.30298,2.05215 -0.20262,0 -0.17645,0.35819 0.0577,0.79595 0.30056,0.56155 0.29183,0.87886 -0.0291,1.07738 -0.31849,0.19671 -0.28796,0.38761 0.10134,0.63428 0.30637,0.19405 0.37229,0.35591 0.1464,0.35969 -0.22591,0.004 -0.49484,1.34568 -0.59799,2.98194 -0.17889,2.83464 -0.14543,6.24695 0.22541,23.08608 0.49499,22.46897 0.0736,29.45983 -1.73263,28.76661 -0.30929,-0.11876 -0.56267,-0.0519 -0.56267,0.14863 0,0.2005 -0.87732,0.28102 -1.94956,0.17893 -4.16331,-0.39639 -7.63813,-0.22745 -8.67309,0.42164 -0.37519,0.23516 -0.69151,0.13335 -0.93432,-0.3006 -0.20215,-0.3609 -0.60862,-0.56361 -0.90364,-0.45039 -0.59636,0.22886 -0.58656,0.26749 -0.92944,-3.67627 -0.18615,-2.14281 -0.11105,-2.90416 0.31316,-3.16827 0.45374,-0.28228 0.46198,-0.50335 0.0436,-1.17547 -0.63382,-1.02275 -0.66751,-1.80376 -0.0616,-1.42928 0.31703,0.19599 0.33351,0.0506 0.0552,-0.48883 -0.21766,-0.42227 -0.31898,-0.98121 -0.22494,-1.24208 0.0941,-0.26085 -0.12555,-1.61977 -0.48859,-3.01983 -0.644,-2.48519 -0.54836,-4.59504 0.44598,-9.84487 0.10671,-0.56434 0.27244,-2.39489 0.36843,-4.06793 0.0955,-1.67304 0.3272,-3.15059 0.51501,-3.28345 0.1876,-0.13287 0.3558,-0.70331 0.37326,-1.26765 0.0194,-0.56435 0.25838,-2.0419 0.53503,-3.28344 0.75908,-3.40875 0.82341,-7.82465 0.13034,-8.96114 -0.51361,-0.84244 -0.9259,-3.05774 -1.04398,-5.60914 -0.0563,-1.2127 0.58433,-6.92235 0.8209,-7.31904 0.54864,-0.91985 0.89301,-8.07874 0.42077,-8.74442 -0.55141,-0.77706 0.52024,-2.51638 1.6906,-2.74392 0.59421,-0.11538 1.13957,-0.0485 1.2119,0.15076 0.0722,0.19827 0.65016,0.25692 1.28408,0.12991 0.63402,-0.127 1.25678,-0.062 1.38404,0.14398 0.12701,0.20603 0.74988,0.33061 1.3837,0.27777 4.23264,-0.35484 4.39212,-0.32964 5.78038,0.90258 0.76669,0.6806 0.9779,1.31201 1.02963,3.07821 0.0339,1.2221 0.25497,2.35768 0.48713,2.52353 0.28698,0.2052 0.28455,0.30356 -0.0102,0.30783 z m -4.26981,47.20576 c -0.10468,-2.1445 -0.25547,-7.77765 -0.33546,-12.51812 -0.08,-4.74047 -0.23025,-9.81955 -0.33448,-11.28684 -0.10424,-1.46729 -0.0145,-2.89866 0.19391,-3.18083 0.24528,-0.32867 0.22734,-0.51304 -0.0509,-0.51304 -0.41836,0 -0.3791,-3.66333 0.0877,-8.2086 0.10424,-1.01582 0.2002,-2.77041 0.21329,-3.89909 0.0291,-2.44629 0.0291,-2.45117 0.17063,-6.36167 0.1415,-3.89346 -1.38457,-5.09808 -3.08836,-5.22666 -1.17351,-0.0886 -1.2592,-0.01 -1.06918,0.98445 0.1328,0.69417 0.0523,0.98532 -0.22493,0.81397 -0.26807,-0.16584 -0.35145,0.0407 -0.21911,0.54608 0.11685,0.44704 -0.191,1.49638 -0.68371,2.33186 -0.77077,1.30632 -0.82365,1.65477 -0.37763,2.48819 0.43629,0.81548 0.40477,1.16176 -0.19924,2.18427 -0.39459,0.6683 -0.60391,1.39944 -0.46488,1.62473 0.13918,0.22522 0.097,0.40957 -0.0935,0.40957 -0.19052,0 -0.36794,0.32324 -0.39363,0.71825 -0.2608,3.97892 -0.20748,6.32773 0.16725,7.32463 0.24624,0.65549 0.58525,1.56119 0.75321,2.01266 0.51923,1.39587 0.62597,2.40401 0.3243,3.0623 -0.31848,0.69437 -0.34611,0.84959 -0.74667,4.12023 -0.51505,4.20806 -0.63353,5.12849 -0.7922,6.15645 -0.0873,0.56434 -0.26709,1.9841 -0.39944,3.15506 -0.1328,1.17096 -0.4421,3.0179 -0.68826,4.10431 -0.24577,1.08641 -0.52345,2.71409 -0.61661,3.61704 -0.0931,0.90295 -0.23851,2.14232 -0.32286,2.75419 -0.0844,0.61183 0.18034,2.10181 0.58875,3.31102 0.40816,1.20925 0.67638,2.74028 0.59596,3.40231 -0.74683,6.14685 -0.7333,7.48325 0.08,7.91859 0.46295,0.24772 1.30032,0.29697 1.97617,0.11625 0.64507,-0.17253 1.9659,-0.19333 2.93522,-0.0461 1.59531,0.24209 2.82292,0.1861 2.84424,-0.59093 0.0389,-1.48306 0.39217,-4.48934 0.54265,-4.63967 0.079,-0.0792 0.0703,-0.73833 -0.0194,-1.46479 -0.0896,-0.72646 -0.24868,-3.07543 -0.35339,-5.21994 z m -19.00243,1.23129 c -0.065,0.79008 -0.23027,1.71355 -0.36697,2.05215 -0.13672,0.33861 -0.20505,1.15056 -0.15222,1.80438 0.0529,0.65377 -0.0887,1.57724 -0.31412,2.05215 -0.50304,1.05817 -0.80761,2.01636 -0.74047,2.32923 0.0291,0.12899 -0.2734,0.55806 -0.66853,0.95343 -1.02435,1.02439 -4.95697,1.60117 -7.00019,1.02674 -1.46412,-0.41161 -2.11427,-0.15571 -2.66273,1.04803 -0.64536,1.41627 -6.44692,3.98712 -7.23016,3.20386 -0.13135,-0.13118 -0.8395,-0.30361 -1.57405,-0.38321 -0.76907,-0.0834 -1.63622,-0.53372 -2.04463,-1.0619 -0.47652,-0.6163 -0.71211,-0.72195 -0.71827,-0.32203 -0.0102,0.77629 -0.52388,0.22837 -1.59684,-1.70903 -0.52451,-0.94707 -0.687,-1.62153 -0.42901,-1.7809 0.2734,-0.16904 0.25642,-0.44782 -0.0505,-0.81762 -0.25595,-0.30865 -0.32722,-0.78532 -0.15803,-1.05928 0.21232,-0.34326 0.0955,-0.41665 -0.37521,-0.23608 -0.43483,0.16681 -0.68292,0.0552 -0.68292,-0.30714 0,-0.31306 -0.12454,-0.89343 -0.27632,-1.28966 -0.20361,-0.5304 -0.11497,-0.65845 0.33643,-0.48533 0.51627,0.19812 0.54622,0.0228 0.1905,-1.11416 -0.28116,-0.89838 -0.6151,-1.27524 -0.99929,-1.12786 -0.42367,0.16259 -0.50667,0 -0.31266,-0.61162 0.14543,-0.4581 0.25934,-1.8251 0.25303,-3.03768 -0.0145,-2.52854 -0.0145,-3.3526 -0.0101,-4.35946 0.004,-0.39503 -0.0102,-1.22648 -0.0291,-1.84764 -0.0194,-0.62119 0.0926,-1.52163 0.24479,-2.00097 0.20263,-0.63797 0.1386,-0.78643 -0.23753,-0.55392 -0.38926,0.24049 -0.44162,0.0286 -0.21621,-0.87208 0.16386,-0.65431 0.32867,-1.8361 0.36745,-2.62618 0.0389,-0.79008 0.2545,-1.71383 0.4804,-2.05281 0.60605,-0.91013 2.33785,-1.67492 3.33627,-1.47332 0.4804,0.097 1.38578,-0.0893 2.0117,-0.41403 0.62593,-0.32474 1.50227,-0.47478 1.94748,-0.33352 0.83606,0.26541 1.87758,0.49363 2.50248,0.54842 0.19681,0.0175 0.15221,0.27927 -0.0989,0.5822 -0.2516,0.30292 -0.32577,0.68213 -0.16531,0.84261 0.16045,0.1605 0.34418,0.97465 0.40865,1.80918 0.10076,1.3114 0.32381,3.30798 0.477,4.27487 0.0824,0.51809 1.27812,-0.15555 1.27812,-0.71997 0,-0.29832 0.32333,-0.8656 0.71823,-1.26064 0.39507,-0.39503 0.6773,-0.82382 0.62722,-0.95281 -0.47263,-1.21787 1.45685,-6.05426 2.3366,-5.85627 0.30346,0.0684 0.67347,-0.0719 0.82157,-0.31155 0.14833,-0.23972 1.04146,-0.48035 1.98504,-0.53471 0.94364,-0.0544 1.71664,-0.2225 1.7178,-0.3736 0.004,-0.34253 2.91452,0.43047 3.54137,0.94013 0.25352,0.20617 0.73101,0.27127 1.06104,0.14461 0.33012,-0.12663 1.04601,0.16127 1.59113,0.63981 0.54511,0.47856 0.74047,0.74054 0.43435,0.58224 -0.40187,-0.20782 -0.49417,-0.0737 -0.33109,0.48176 0.65049,2.2173 1.11998,12.32316 0.76979,16.5712 z m -4.65468,-13.25123 c -0.0436,-1.45711 -0.25352,-2.06989 -0.81982,-2.37299 -0.77338,-0.41394 -3.61883,-0.40802 -3.54927,0.007 0.0542,0.32339 -1.0465,3.10909 -2.35956,5.97181 -0.31074,0.67721 -0.88664,2.01624 -1.27997,2.97562 -0.39363,0.95938 -0.8952,1.74433 -1.11509,1.74433 -0.22008,0 -0.2831,0.11688 -0.14005,0.25972 0.14295,0.14281 -0.20554,0.62579 -0.77455,1.07324 -0.92439,0.72712 -1.22077,0.76131 -2.79082,0.32169 -2.12543,-0.59509 -2.92683,-1.79407 -3.30069,-4.93809 -0.59537,-5.00771 -0.68569,-5.3356 -1.46887,-5.3356 -0.62005,0 -0.79966,0.45039 -1.02307,2.56519 -0.1595,1.51075 -0.0931,3.02914 0.16239,3.69387 0.27292,0.71075 0.28503,1.1287 0.0339,1.1287 -0.22008,0 -0.4004,-0.1847 -0.4004,-0.41045 0,-0.22575 -0.21329,-0.41045 -0.47362,-0.41045 -0.76926,0 -0.15366,10.9231 0.66141,11.73834 0.34805,0.34825 0.6332,1.25555 0.6332,2.01615 0,0.76066 0.19341,1.50259 0.42998,1.64879 0.23656,0.1462 0.3752,0.59048 0.30782,0.98737 -0.0674,0.39687 0.0242,0.74329 0.20021,0.76984 0.17741,0.0267 0.60784,0.33361 0.95658,0.68234 0.34854,0.34874 0.78454,0.54107 0.9684,0.42741 0.18372,-0.11363 0.4421,0.0744 0.574,0.41797 0.20361,0.53003 0.55375,0.46536 2.31555,-0.42742 1.20639,-0.61129 1.96208,-1.23613 1.80414,-1.49171 -0.17694,-0.28654 0.0242,-0.34612 0.57497,-0.17102 0.76714,0.24345 0.8445,0.10433 0.82268,-1.47862 -0.0145,-0.96106 0.1687,-1.81164 0.40429,-1.89019 0.41254,-0.13753 0.33498,-3.72236 -0.12366,-5.70921 -0.22008,-0.9529 0.8282,-2.35493 1.46597,-1.96079 0.20553,0.1272 0.68346,0.0581 1.06156,-0.15353 1.22912,-0.68784 2.13494,0.69072 2.39157,3.6397 0.38635,4.4404 0.58715,5.21497 1.40683,5.42929 0.42076,0.1101 1.01664,0.0412 1.32382,-0.15371 0.30734,-0.19459 0.38491,-0.35669 0.17209,-0.36013 -0.21232,-0.004 -0.0896,-0.23715 0.27342,-0.51932 0.36259,-0.28218 0.72839,-0.88242 0.81269,-1.3339 0.13034,-0.6983 0.0484,-11.99711 -0.13715,-18.38161 z m -9.38675,23.92242 c -0.22589,0 -0.41059,0.1956 -0.41059,0.43464 0,0.23908 0.1847,0.32052 0.41059,0.18101 0.22591,-0.13952 0.4106,-0.33512 0.4106,-0.43464 0,-0.0996 -0.18469,-0.18101 -0.4106,-0.18101 z m -21.32476,0.67437 c -1.03341,1.15992 -1.31209,1.24582 -4.3118,1.32914 -1.7639,0.049 -3.63938,0.25348 -4.16782,0.45441 -1.38084,0.52498 -3.29292,-0.0829 -3.31168,-1.05292 -0.0102,-0.43453 -0.12077,-0.97456 -0.25015,-1.20001 -0.12889,-0.22547 -0.2608,-1.14872 -0.29231,-2.05166 -0.0765,-2.18854 -0.35241,-4.19998 -0.6392,-4.66413 -0.12845,-0.20772 -0.31462,-0.99784 -0.41351,-1.75586 -0.0989,-0.75798 -0.35775,-2.20931 -0.57506,-3.22512 -0.35533,-1.66032 -0.66873,-6.70307 -0.54884,-8.82425 0.0242,-0.45146 0.0567,-2.06562 0.0693,-3.587 0.0145,-1.52139 0.1556,-2.73696 0.31751,-2.70133 0.1624,0.0359 1.01238,-0.0838 1.88911,-0.26546 1.29368,-0.26807 1.6668,-0.20035 1.98001,0.35936 0.26807,0.47933 0.6566,0.60374 1.27346,0.40792 0.48811,-0.15488 1.35171,-0.32532 1.91907,-0.3786 0.56736,-0.0533 1.90886,-0.23268 2.98109,-0.39856 1.22377,-0.18935 1.94957,-0.14931 1.94957,0.10751 0,0.22503 0.34418,0.49921 0.76524,0.60929 0.98677,0.25803 1.34258,2.10538 1.52151,7.89901 0.41156,13.32532 0.57459,17.09237 0.75259,17.38037 0.10816,0.17481 -0.30055,0.87586 -0.90844,1.55792 z m -3.11128,-3.95757 c -0.0387,-0.56434 0.0639,-1.42263 0.22493,-1.90735 0.16094,-0.48467 0.17694,-0.99698 0.0339,-1.13841 -0.1415,-0.14146 -0.32091,-1.77651 -0.39848,-3.63346 -0.0776,-1.85699 -0.28406,-3.9304 -0.45858,-4.60761 -0.17451,-0.67721 -0.18856,-1.97006 -0.0291,-2.87301 0.15707,-0.90295 0.20311,-2.01111 0.10221,-2.46259 -0.2734,-1.22366 -0.47361,-2.02728 -0.56184,-2.25736 -0.0436,-0.11285 -0.0436,-0.52971 -0.004,-0.92626 0.0387,-0.39659 -0.22299,-0.83494 -0.58598,-0.97412 -0.73059,-0.28038 -5.00313,0.93791 -5.36975,1.53111 -0.41931,0.67889 -0.48185,4.38549 -0.11105,6.60527 0.38393,2.29721 0.55631,4.08899 0.94101,9.77078 0.33013,4.87587 0.66834,5.94389 1.89459,5.9828 0.54715,0.0174 1.28666,-0.11091 1.64344,-0.28499 0.37084,-0.18092 1.12388,-0.07 1.75784,0.25896 0.61008,0.31654 1.00777,0.41132 0.88383,0.21077 -0.1241,-0.20059 -0.0242,-0.48854 0.21958,-0.63986 0.24481,-0.15129 0.31946,-0.57961 0.16628,-0.95183 -0.15319,-0.37215 -0.30976,-1.13845 -0.34708,-1.70279 z m 0.67731,-43.30039 c -0.99154,0.28329 -1.7972,2.59699 -3.23676,3.34385 -1.3087,0.67893 -5.70733,0.61199 -7.1746,-0.10927 -1.53349,-0.75379 -3.65213,-3.30811 -3.65213,-4.40309 0,-1.06047 1.33008,-3.98405 2.58436,-5.68056 1.41689,-1.91651 5.64357,-2.65204 6.46113,-1.12438 0.36889,0.68911 -0.36116,1.25777 -2.30597,1.79662 -0.808,0.22386 -2.63525,3.21625 -2.63525,4.31559 0,0.96094 2.15946,3.09206 3.40742,3.36266 1.02256,0.22178 1.45404,0.062 2.40786,-0.89191 1.23528,-1.23527 1.59444,-3.50163 0.69713,-4.39895 -0.57977,-0.57978 -0.12801,-1.88404 0.56777,-1.63922 0.28213,0.0992 0.92501,0.0281 1.42883,-0.15808 0.70164,-0.2593 1.01372,-0.1558 1.33387,0.44234 0.42561,0.79496 1.59074,4.72314 0.11641,5.14438 z m -17.05564,45.55776 c -0.96408,1.88387 -2.56715,3.42134 -4.0921,3.92462 -1.63156,0.53848 -4.2511,0.67527 -4.92729,0.25735 -0.26372,-0.16297 -0.58055,-0.13262 -0.70416,0.0673 -0.1299,0.21044 -0.96332,0.21189 -1.97792,0.004 -0.96425,-0.19807 -2.35787,-0.47594 -3.09704,-0.61749 -0.73907,-0.1415 -1.4426,-0.41714 -1.56331,-0.61245 -0.12076,-0.19531 -0.49881,-0.35508 -0.84018,-0.35508 -0.72593,0 -1.79342,-0.9705 -1.79342,-1.6304 0,-0.25173 -0.32333,-0.40346 -0.71827,-0.3371 -0.47168,0.0792 -0.69869,-0.12603 -0.66127,-0.59767 0.0291,-0.39503 -0.13033,-0.71825 -0.3592,-0.71825 -0.23898,0 -0.31607,-0.49933 -0.18179,-1.17145 0.13324,-0.66555 0.0242,-1.39665 -0.25644,-1.69303 -0.38149,-0.40521 -0.37616,-0.56355 0.0242,-0.70967 0.66718,-0.24466 0.67212,-1.06203 0.004,-0.83966 -0.28649,0.0955 -0.74993,-0.47128 -1.06279,-1.29971 -0.70742,-1.87312 -0.94741,-8.73986 -0.32042,-9.16457 0.31944,-0.21625 0.286,-0.41631 -0.11106,-0.67237 -0.31122,-0.20049 -0.45471,-0.54419 -0.31897,-0.76381 0.1357,-0.2196 0.34417,-1.38041 0.46391,-2.5796 0.11932,-1.1992 0.4581,-2.47157 0.75254,-2.82745 0.29475,-0.35591 0.74896,-1.14839 1.00975,-1.76104 0.47604,-1.11748 4.25068,-3.41777 4.76486,-2.90359 0.14063,0.14039 0.25499,0.0654 0.25499,-0.16642 0,-0.76459 4.06936,-0.98827 5.14597,-0.28285 0.53198,0.34859 1.06929,0.61889 1.19406,0.60075 0.12454,-0.0179 0.36551,-0.0122 0.5347,0.0145 0.16917,0.0257 0.631,0.0145 1.02603,-0.0257 0.39508,-0.0402 0.71827,0.13413 0.71827,0.38742 0,0.25324 0.15658,0.36357 0.34807,0.24519 0.47312,-0.29231 2.11427,1.28341 2.11427,2.02974 0,0.32978 0.16676,0.59964 0.37036,0.59964 0.59417,0 1.18282,2.18152 0.83063,3.07823 -0.17742,0.45146 -0.33545,1.77732 -0.35144,2.94631 -0.0387,2.91423 -0.74358,3.5703 -3.48295,3.24564 -2.75136,-0.32609 -3.31752,0.0831 -3.18411,2.301 0.11106,1.84394 0.79555,4.02517 1.26334,4.02517 0.1493,0 0.78594,0.41554 1.41462,0.92347 0.62874,0.50791 2.19253,1.15647 3.47515,1.44127 1.28263,0.28479 2.78964,0.61925 3.34887,0.7432 0.55928,0.12401 1.10027,0.30885 1.2022,0.41079 0.47459,0.47463 0.30831,3.38083 -0.25642,4.48465 z m -4.11735,-2.6992 c -1.2465,0.086 -1.42583,-0.0702 -4.52015,-0.90804 -2.60612,-0.70556 -3.4246,-1.39722 -4.82685,-4.07902 -1.04704,-2.00244 -1.08383,-2.51618 -0.40478,-5.65273 0.25013,-1.15481 0.75103,-2.01943 1.05968,-1.82866 0.20942,0.12944 0.38102,0.0398 0.38102,-0.19929 0,-0.23903 0.1386,-0.39542 0.30784,-0.34742 0.16917,0.048 0.69485,-0.12798 1.16783,-0.39092 0.47313,-0.26293 1.34719,-0.56648 1.94277,-0.67446 1.80128,-0.32663 1.93564,-0.56751 1.65386,-2.96516 -0.31849,-2.71036 -1.66127,-4.37408 -4.0699,-5.04279 -2.37358,-0.65899 -3.54477,-0.53852 -4.70407,0.48403 -2.00357,1.76711 -2.62458,3.82288 -3.05137,10.10061 -0.11338,1.6693 -0.28455,3.11312 -0.37957,3.2085 -0.0955,0.0953 0.17742,1.17215 0.60663,2.39285 0.42901,1.22074 0.78012,2.80295 0.78012,3.51603 0,3.03936 2.12364,6.30315 4.04659,6.21909 0.37036,-0.016 1.41215,0.30079 2.31507,0.70446 4.05449,1.81242 8.79548,-0.11353 8.81822,-3.58223 0.004,-0.72774 -0.23492,-1.01609 -1.12265,-0.95487 z m -23.87101,0.976827 c -0.28941,0.71978 -0.71357,0.93041 -1.92352,0.95487 -2.30432,0.0465 -4.06749,0.23967 -5.32345,1.16825 -0.8081,0.59746 -1.48933,0.77136 -2.34843,0.59955 -1.15775,-0.23157 -1.20195,-0.32018 -1.02206,-2.04669 0.13135,-1.25985 0.0339,-1.80466 -0.31897,-1.80466 -0.27874,0 -0.38975,-0.11711 -0.24675,-0.26017 0.14295,-0.14309 -0.10323,-0.72207 -0.54729,-1.28665 -0.44404,-0.56455 -0.80737,-1.56654 -0.80737,-2.22663 0,-0.6601 -0.16142,-1.10044 -0.35872,-0.97855 -0.1973,0.12187 -0.37472,-0.5746 -0.39411,-1.54773 -0.0436,-2.20434 -0.68638,-3.96102 -1.44788,-3.96102 -0.5345,0 -1.90385,2.28712 -1.90385,3.17981 0,0.21339 -0.26274,0.92424 -0.58443,1.5797 -0.47021,0.95938 -0.51505,2.10698 -0.22881,5.88648 0.19536,2.58213 0.25596,4.856 0.13425,5.05309 -0.29812,0.48219 -2.11892,1.15438 -3.63036,1.3401 -0.67721,0.0832 -2.2301,0.28353 -3.45087,0.44515 -2.1199,0.28068 -2.20944,0.25499 -1.99313,-0.57215 0.12454,-0.47632 0.0145,-0.96722 -0.24287,-1.09092 -0.30685,-0.14708 -0.32285,-0.29736 -0.0484,-0.4344 0.48185,-0.23845 -0.15222,-5.9972 -0.70218,-6.37837 -0.17935,-0.12444 -0.43046,-2.43311 -0.55703,-5.13038 -0.127,-2.69727 -0.33061,-5.91997 -0.45277,-7.16151 -0.12221,-1.24155 -0.24965,-2.85762 -0.2831,-3.59127 -0.0339,-0.73364 -0.22299,-1.3339 -0.42125,-1.3339 -0.19827,0 -0.26371,-0.36938 -0.14543,-0.82086 0.11831,-0.45146 0.0697,-0.82086 -0.10757,-0.82086 -0.17743,0 -0.50833,-0.73356 -0.73587,-1.63015 -0.6234,-2.45585 -0.10671,-2.69156 5.70592,-2.60307 2.67195,0.0407 5.08819,0.21611 5.3693,0.38985 0.82976,0.51279 2.02314,0.46779 2.23503,-0.0843 0.10815,-0.28199 1.83918,-0.8145 3.84667,-1.18343 3.27756,-0.60231 3.7728,-0.60724 4.8543,-0.048 2.31899,1.1992 5.88814,4.97852 6.6671,8.44251 0.10076,0.44928 0.60159,5.71125 0.80969,8.51191 0.12164,1.63408 0.40187,3.44688 0.62282,4.02841 0.49232,1.29499 0.48088,4.16628 -0.0194,5.416 z m -4.33274,-3.59126 c -0.5502,0 -1.11733,-2.16194 -1.13216,-4.31637 -0.0291,-4.15955 -0.59106,-8.65289 -1.25688,-10.04246 -0.37715,-0.78666 -1.28563,-2.30846 -2.01932,-3.38186 -0.73363,-1.07335 -1.33386,-2.13813 -1.33386,-2.36617 0,-0.51279 -0.18858,-0.51337 -2.84928,-0.009 -2.46031,0.46663 -4.48277,1.8684 -4.51578,3.12999 -0.0389,1.44073 -1.57262,3.03099 -2.92554,3.03099 -0.66081,0 -1.20879,-0.13855 -1.21777,-0.30784 -0.16965,-3.20307 -0.3272,-4.58737 -0.56546,-4.97297 -0.15997,-0.25843 -1.10603,-0.4391 -2.10289,-0.40138 -1.60539,0.0607 -1.79226,0.16651 -1.63569,0.92581 0.097,0.47152 0.28844,3.62767 0.42563,7.01372 0.32139,7.95463 0.50469,10.17896 0.99139,12.02971 0.2191,0.83297 0.38974,2.715 0.38004,4.18228 -0.0101,1.4673 0,2.89502 0.0194,3.17275 0.0291,0.33953 0.5883,0.45214 1.714,0.3437 1.97449,-0.19022 1.84903,-0.0896 2.2095,-1.77211 0.19003,-0.8867 0.13034,-1.3339 -0.1779,-1.3339 -0.52341,0 -0.39219,-2.74644 0.17499,-3.66424 0.23753,-0.38447 0.19778,-0.47265 -0.12367,-0.27404 -0.61502,0.3801 -0.65394,-2.69476 -0.0436,-3.30683 0.23752,-0.23759 0.4897,-0.8748 0.56023,-1.41599 0.0708,-0.5412 0.366,-1.53809 0.6569,-2.2153 0.29086,-0.67721 0.56378,-1.64004 0.60683,-2.13961 0.1125,-1.30463 1.87171,-2.65586 2.64537,-2.03171 0.45859,0.37006 0.52254,0.36206 0.2836,-0.0359 -0.22444,-0.37346 0.10424,-0.51304 1.20807,-0.51304 1.11054,0 1.7842,0.28916 2.51765,1.0805 1.35577,1.46294 1.6539,2.42088 1.57969,5.07595 -0.0339,1.24156 0.0387,2.34972 0.16529,2.46258 0.4901,0.44031 2.37489,3.54288 2.62134,4.3149 0.2007,0.62833 0.63485,0.81996 1.89241,0.83502 1.50131,0.0179 1.61319,-0.056 1.39543,-0.92347 -0.13715,-0.54652 1.00743,-0.943 1.26387,-0.943 0.24336,0 0.33594,-0.27704 0.20603,-0.61565 -0.1299,-0.3386 -1.4413,-0.61564 -1.62094,-0.61564 z M 336.02616,64.49529 c -0.22637,0.81482 -0.28988,3.50729 -0.1459,6.22154 0.24965,4.72278 0.24043,4.79185 -0.71348,5.3089 -0.53158,0.28795 -1.79768,0.5599 -2.81349,0.60392 -1.01581,0.0436 -2.86276,0.2099 -4.10432,0.3689 l -2.25734,0.28843 -0.69849,-1.70093 c -0.65677,-1.599339 -0.75482,-1.67004 -1.64169,-1.18299 -0.51878,0.28495 -1.31267,0.57651 -1.76414,0.64801 -0.4513,0.0718 -1.65749,0.40526 -2.68,0.7413 -2.32742,0.76524 -6.46276,1.04005 -7.63225,0.5072 -0.48641,-0.22153 -1.11267,-0.82957 -1.39174,-1.35093 -0.27923,-0.5214 -0.72415,-0.86477 -0.98921,-0.76306 -0.5261,0.2019 -2.09431,-2.55341 -1.99964,-3.51337 0.0339,-0.32736 -0.17694,-1.06613 -0.46537,-1.64172 -0.57889,-1.15639 -0.52461,-3.26046 0.16483,-6.38219 0.24916,-1.12868 0.50981,-3.3556 0.57919,-4.94873 0.0693,-1.59308 0.46924,-3.8094 0.88918,-4.92515 1.35418,-3.6001 5.01044,-7.03655 7.57376,-7.11855 0.33885,-0.0107 1.5949,-0.24747 2.79174,-0.52589 1.58017,-0.36764 2.37125,-0.38436 2.88882,-0.0611 0.39217,0.24481 1.50209,0.5785 2.46685,0.74148 1.37681,0.23259 1.92183,0.14471 2.53327,-0.4086 0.50473,-0.45679 1.21471,-0.64109 2.01646,-0.52342 0.68059,0.0999 1.31974,-0.0165 1.42028,-0.25886 0.11584,-0.27898 0.19489,-0.26013 0.21524,0.0513 0.0194,0.27049 1.13536,0.80128 2.48342,1.17953 1.46747,0.41171 2.53366,0.95557 2.65693,1.35512 0.11338,0.36711 0.30055,2.69903 0.41689,5.18215 0.11584,2.48309 0.29862,5.89992 0.40526,7.59295 0.10714,1.69302 0.0145,3.72465 -0.20456,4.51473 z m -3.53137,-8.20861 c -0.11874,-2.1445 -0.26759,-4.36081 -0.33109,-4.92515 -0.0635,-0.56435 -0.13918,-1.41202 -0.16822,-1.88368 -0.0984,-1.59239 -3.18492,-2.39375 -4.0269,-1.04545 -0.54264,0.86884 -2.32515,1.51026 -2.07007,0.74489 0.13672,-0.40982 -2.38881,-1.34075 -4.62713,-1.70571 -0.33886,-0.0552 -0.94111,-0.23903 -1.33895,-0.40845 -0.398,-0.16943 -1.59831,-0.16342 -2.66779,0.013 -1.06947,0.17679 -2.07181,0.29347 -2.22742,0.25934 -0.52378,-0.11469 -3.28852,3.39459 -4.05202,5.14324 -0.41592,0.95322 -0.86679,3.07718 -1.00146,4.71993 -0.13483,1.64275 -0.5267,4.33205 -0.87131,5.9762 -0.94218,4.49577 -0.0389,7.96037 2.74457,10.53673 1.04688,0.9687 1.73238,1.23257 3.40092,1.30916 1.14937,0.0528 2.28003,-0.0572 2.51248,-0.24403 0.23267,-0.18702 1.47346,-0.57214 2.75765,-0.85583 2.68416,-0.59299 2.99917,-1.07286 3.35847,-5.11638 0.22202,-2.49636 1.14771,-3.89909 2.57358,-3.89909 0.89652,0 1.01213,0.77136 0.63839,4.2594 -0.29861,2.7858 -0.23948,3.4294 0.43918,4.80155 0.77437,1.56498 0.80757,1.5817 2.69702,1.35726 3.17131,-0.37666 3.08971,-0.28359 2.75329,-3.14226 -0.42804,-3.63867 -0.38296,-7.887 0.0931,-8.7377 0.26128,-0.46735 0.26806,-1.17822 0.0194,-1.99239 -0.21378,-0.69621 -0.48578,-3.0204 -0.60455,-5.1649 z m -9.09153,6.63518 c -0.15658,0.37618 -0.80398,1.26437 -1.43838,1.97384 -1.10153,1.23179 -1.26993,1.28264 -3.73964,1.12934 -3.60811,-0.224 -4.33642,-0.96065 -4.28892,-4.33792 0.0242,-1.59505 0.25112,-2.77245 0.60736,-3.12875 0.31413,-0.31422 0.57702,-0.72305 0.58399,-0.90848 0.0194,-0.56074 3.39686,-2.87728 4.61308,-3.16561 1.11145,-0.26352 3.06936,0.40055 2.59104,0.8789 -0.1328,0.13268 0.0242,0.53659 0.35291,0.89761 0.6519,0.7203 1.17476,5.56621 0.71875,6.66107 z m -2.65789,-5.90506 c -0.23463,-1.23528 -0.67978,-1.30735 -1.77286,-0.28708 -1.74864,1.63212 -2.73982,3.95224 -2.41994,5.66435 0.48578,2.59988 1.68096,3.17649 3.76024,1.81406 1.02512,-0.67166 1.05542,-0.80518 0.81575,-3.59126 -0.13715,-1.59153 -0.30927,-3.21154 -0.38296,-3.60005 z m 2.30144,-5.75789 c -0.35436,0.50792 -0.99109,0.92348 -1.41501,0.92348 -0.9721,0 -1.0101,-0.77255 -0.0523,-1.06894 0.39507,-0.12226 1.04146,-0.39508 1.43649,-0.60624 0.85627,-0.45771 0.85735,-0.4328 0.0291,0.7517 z m -24.45668,22.0197 c -1.28841,0.64967 -5.40774,1.64242 -8.15348,1.96493 -2.68639,0.31558 -2.84961,0.16821 -3.0232,-2.73022 -0.0668,-1.11973 -0.35,-2.31076 -0.62888,-2.64674 -0.28892,-0.34816 -0.40623,-1.11407 -0.27292,-1.78122 0.1299,-0.65058 0.0242,-1.37934 -0.23609,-1.64074 -0.35338,-0.35344 -0.33545,-0.47027 0.0728,-0.47027 0.44452,0 0.44694,-0.11547 0.0145,-0.63884 -0.29183,-0.35135 -0.59218,-1.22866 -0.66791,-1.94954 -0.0757,-0.72088 -0.31073,-1.81455 -0.52164,-2.43032 -0.24917,-0.72617 -0.23851,-1.2095 0.0291,-1.37539 0.22785,-0.14068 0.29182,-0.56036 0.14295,-0.93258 -0.14883,-0.37215 -0.33837,-1.0461 -0.42078,-1.49757 -0.0824,-0.45146 -0.36793,-1.74434 -0.63454,-2.87302 -0.26662,-1.12868 -0.50523,-2.60623 -0.53053,-3.28344 -0.0436,-1.12302 0.0621,-1.2235 1.1852,-1.14268 0.69446,0.05 1.55653,0.48745 1.97738,1.00338 l 0.74614,0.91472 -0.26371,-1.05033 c -0.17403,-0.69388 -0.079,-1.12113 0.27971,-1.25891 0.29909,-0.11474 0.63591,-0.24849 0.74881,-0.29721 0.7144,-0.3085 3.69386,-0.67885 3.69386,-0.45916 0,0.14707 0.3694,0.30253 0.82086,0.34553 1.76331,0.16792 2.0087,0.24636 1.80466,0.57657 -0.11642,0.18809 -0.0194,0.342 0.21474,0.342 0.90835,0 2.04031,3.17981 2.20644,6.19825 0.0921,1.67004 0.27195,3.31347 0.39993,3.65208 0.22493,0.59373 0.74832,5.65979 0.89079,8.61903 0.0387,0.79008 0.28989,1.83992 0.55952,2.33301 0.71972,1.31572 0.60401,1.98571 -0.43289,2.50868 z m -2.79494,-4.22604 c -0.63711,-2.5184 -0.83752,-3.88595 -0.96361,-6.57755 -0.0639,-1.36029 -0.30685,-2.83784 -0.54074,-3.28344 -0.23366,-0.4456 -0.42175,-1.56222 -0.41786,-2.48137 0.0145,-3.78369 -1.24041,-5.41728 -3.79902,-4.94205 -0.56436,0.10481 -1.37304,0.20428 -1.7971,0.22105 -0.70761,0.0281 -0.75071,0.29188 -0.52418,3.21133 0.4324,5.57159 1.48685,13.38918 2.2283,16.51982 0.37569,1.58685 0.52461,1.61332 4.29987,0.76607 2.13148,-0.47836 2.21463,-0.66691 1.51458,-3.43387 z m -3.15632,-31.13089 c -1.90462,1.76965 -6.23634,3.47479 -7.69557,3.02926 -0.35388,-0.10805 -1.33333,-0.27064 -2.34396,-0.38907 -0.80165,-0.0939 -1.88799,-1.85514 -1.75605,-2.84707 0.0794,-0.59742 0.15707,-1.39817 0.17259,-1.7795 0.0339,-0.81577 3.17759,-4.58225 3.98627,-4.77499 0.30637,-0.073 0.55671,-0.28576 0.55671,-0.47288 0,-0.18711 0.51869,-0.521 1.1527,-0.74201 0.96085,-0.33497 1.26668,-0.26139 1.83748,0.4421 0.65274,0.80443 0.63237,0.87634 -0.43434,1.5368 -2.6624,1.64825 -4.85139,4.61812 -4.35582,5.90963 0.16483,0.42983 0.77358,0.64162 1.84404,0.64162 0.99076,0 1.6077,0.19493 1.62385,0.51304 0.0145,0.28218 0.19729,0.0856 0.40671,-0.43677 0.20941,-0.52243 0.56556,-0.83575 0.79122,-0.69633 0.38247,0.23656 2.42832,-0.96508 2.45682,-1.44319 0.004,-0.11902 -0.54119,-0.823 -1.2184,-1.56448 -1.45646,-1.59461 -1.48197,-1.76424 -0.41058,-2.73392 0.51524,-0.46629 0.82088,-0.55609 0.82088,-0.24117 0,0.28683 0.30734,0.4088 0.71823,0.28465 0.54676,-0.1652 0.98769,0.3149 1.84693,2.01107 0.62079,1.22546 1.12871,2.33531 1.12871,2.46631 0,0.13103 -0.50792,0.71017 -1.12871,1.28695 z m -17.61249,34.51714 c -0.11396,0.28218 -0.43387,0.51303 -0.71105,0.51303 -0.27727,0 -0.86209,0.3309 -1.29968,0.73529 -2.14846,1.98542 -9.17976,3.78064 -15.36594,3.92318 -1.46726,0.0335 -2.8035,0.24616 -2.96934,0.47191 -0.18664,0.25416 -0.30394,0.21509 -0.30782,-0.10263 -0.004,-0.28217 -0.42901,-0.51303 -0.94557,-0.51303 -1.52371,0 -5.90016,-2.46365 -5.35137,-3.01244 0.14931,-0.14906 -0.1464,-0.27103 -0.6567,-0.27103 -0.56209,0 -1.00704,-0.30346 -1.12906,-0.77 -0.11047,-0.42354 -0.62122,-0.99472 -1.13439,-1.26938 -0.51317,-0.27462 -1.37492,-1.23384 -1.91494,-2.13157 -0.54008,-0.89774 -1.21282,-1.88322 -1.49495,-2.18998 -0.28213,-0.30676 -0.51308,-0.68094 -0.51308,-0.83153 0,-0.15056 -0.36793,-0.79061 -0.81779,-1.42226 -0.44986,-0.63169 -0.90577,-1.83561 -1.01329,-2.67543 -0.10757,-0.83983 -0.32043,-1.92008 -0.47264,-2.40061 -0.1527,-0.48054 -0.2928,-1.93699 -0.31122,-3.23656 -0.0194,-1.2996 -0.14106,-2.3629 -0.27244,-2.3629 -0.43627,0 -0.127,-11.26364 0.34951,-12.72334 0.25789,-0.79008 0.55177,-2.31002 0.65312,-3.37767 0.10134,-1.06766 0.27584,-2.08955 0.38781,-2.27083 0.11192,-0.18135 0.30637,-1.20084 0.43144,-2.26562 0.12512,-1.06478 0.57832,-2.6286 1.00689,-3.47519 0.42853,-0.8466 0.90873,-2.1395 1.06705,-2.87314 0.15852,-0.73364 0.46878,-1.3339 0.69002,-1.3339 0.22105,0 0.28746,-0.18522 0.14785,-0.41161 -0.39169,-0.63358 1.82813,-4.40038 3.464,-5.87826 0.80402,-0.72642 1.29587,-0.919639 1.33353,-1.102889 0,0 -0.25436,0.571918 2.52634,-1.328871 0.85603,-0.59533 0.80789,-0.617381 1.17452,-1.018063 0.70121,-0.387652 0.49006,-0.2915 1.07949,-0.56733 0.51224,-0.196521 0.64975,0.07507 1.69068,-0.356547 1.74313,-0.636275 1.17458,-0.429663 1.95676,-0.727444 0.77693,0.02759 1.47117,0.08044 1.96169,-0.103176 0.45132,-0.16899 1.03531,-0.13641 1.29738,0.0724 0.29764,0.237 0.57646,0.2179 0.74249,-0.0507 l 1.30464,-0.226049 c 0,0 1.44032,0.476489 2.0906,0.965369 0.57772,0.199323 0.32706,0.71965 1.0592,0.775267 2.66963,1.016152 1.36433,1.467342 2.22827,1.25678 0.71308,-0.17452 1.32373,-0.009 1.94204,0.52765 0.49606,0.43022 0.79792,0.88616 0.6709,1.01322 -0.127,0.12706 0.51467,0.102863 0.77496,0.592993 0.26224,0.49014 0.56923,0.79882 0.68214,0.68595 l 0.31795,0.332017 c 0.004,-0.54841 0.0805,-0.57665 0.36066,-0.13452 1.14583,-0.413756 0.66978,0.714452 1.30797,0.9564 0.45664,0.15221 1.39282,0.02179 -0.27568,3.823893 -0.42611,0.97059 -0.66596,1.94023 -0.53333,2.15476 0.1328,0.21456 -0.0101,0.39014 -0.31316,0.39014 -0.74154,0 -2.01053,2.77339 -1.3867,3.0306 0.3083,0.12715 0.29618,0.19851 -0.0387,0.22042 -0.27195,0.0175 -0.95613,0.49412 -1.52049,1.05846 -1.12523,1.12524 -2.74574,1.33722 -3.61059,0.47236 -0.8256,-0.82555 -3.57003,-1.64715 -5.66143,-1.69479 -2.17376,-0.0495 -4.21576,1.29116 -4.98014,3.26977 -0.26273,0.67983 -0.51292,1.32844 -0.55615,1.44131 -0.0436,0.11285 -0.40817,0.94399 -0.81106,1.84693 -0.40284,0.90295 -1.00161,3.11927 -1.33062,4.92516 -0.32914,1.8059 -0.76549,3.60055 -0.96986,3.98812 -0.21959,0.41636 -0.22153,1.09942 -0.004,1.66934 0.20166,0.53052 0.31218,2.52209 0.24577,4.42567 -0.13628,3.90004 0.5662,6.7066 1.97982,7.90883 0.48752,0.41461 0.62703,0.61695 0.30976,0.44961 -0.39315,-0.20738 -0.47798,-0.1447 -0.26663,0.19686 0.17016,0.27564 0.40575,0.40536 0.52272,0.2882 0.11729,-0.11718 0.48897,0.0631 0.82637,0.40041 0.60726,0.60727 2.40219,0.57562 3.43142,-0.0605 0.33351,-0.20596 0.39267,-0.13641 0.17888,0.20942 -0.22881,0.37026 -0.10076,0.44904 0.44986,0.27651 0.42319,-0.13273 1.91679,-0.32692 3.31892,-0.43149 1.40211,-0.10456 2.91257,-0.38451 3.35657,-0.62217 0.44404,-0.23762 1.73961,-0.47259 2.87908,-0.52219 1.1882,-0.0517 2.15461,-0.30588 2.2659,-0.59607 l 1.24609,0.15 c 0.13033,0.5192 0.47021,0.944 0.75515,0.944 0.83151,0 2.08055,5.24062 2.0299,8.51642 -0.0101,0.50791 0.15075,0.92347 0.35289,0.92347 0.39169,0 0.43484,0.69769 0.095,1.53912 z m -3.86718,-3.87237 c -0.38199,-0.99185 -0.59582,-2.14721 -0.75054,-4.05764 -0.0389,-0.46077 -3.60522,-0.17117 -6.81524,0.55318 -2.81156,0.6344 -7.48615,0.59053 -9.76346,-0.0917 -2.35929,-0.70676 -2.86435,-1.26626 -4.50968,-4.99547 -1.04408,-2.36633 -1.10864,-2.87477 -1.1212,-8.82426 -0.0145,-6.47806 0.60638,-10.95163 1.84795,-13.33237 0.34127,-0.65418 0.62147,-1.42034 0.62282,-1.70251 0,-0.28218 0.18712,-0.51303 0.41302,-0.51303 0.2259,0 0.41059,-0.48001 0.41059,-1.06668 0,-0.58662 0.29183,-1.64861 0.64842,-2.35997 0.72903,-1.45423 3.21425,-3.68746 4.10354,-3.68746 0.32091,0 0.58365,-0.14038 0.58365,-0.31194 0,-0.62595 1.45744,-0.62066 2.22529,0.008 0.43386,0.35523 0.6538,0.415 0.48884,0.13283 -0.35872,-0.61372 -0.38346,-0.61126 1.29023,-0.13128 0.73219,0.20999 1.3312,0.23123 1.3312,0.047 l 1.27527,-0.31644 c 0.0887,0.0509 0.65723,0.52937 1.26366,1.06314 1.06943,0.94132 1.79172,1.28396 1.57159,0.44219 l 0.4106,-0.18101 c 0,0.3422 0.17819,-0.61597 0.4041,-0.61597 0.22589,0 0.48735,-0.167187 0.48735,-0.746727 0,0 -0.52013,0.638064 1.01228,-1.407583 -1.01228,1.407583 0.0737,-0.31437 -0.20506,-0.14229 -0.26079,0.16104 0,0.22024 0,0 0,-0.22028 -0.24285,-0.58879 0.0394,-0.68751 0.36551,-0.12788 0.27824,-0.44341 -0.30298,-1.09827 -1.17514,-0.148855 -1.25083,-2.371675 -1.9255,-2.988303 -0.2196,0.13583 -0.72598,-0.11372 -1.12494,-0.55457 -0.39895,-0.44084 -0.90601,-0.68985 -1.12682,-0.55338 -0.22057,0.13645 -0.5503,0.007 -0.73223,-0.28707 -0.18179,-0.2944 -0.74349,-0.59825 -1.24788,-0.6752 -0.50434,-0.077 -1.1625,-0.46004 -1.46242,-0.85124 -0.47749,-0.6225 -0.59684,-0.63444 -0.95736,-0.0956 -0.2763,0.41316 -0.41397,0.4469 -0.41834,0.10263 -0.004,-0.32978 -0.62932,-0.51119 -1.75062,-0.50782 -2.1598,0.007 -7.1904,2.999053 -8.85947,4.857073 -2.0249,2.25412 -4.87732,8.62038 -5.46756,12.20282 -0.4009,2.43336 -0.97767,5.31364 -1.56147,7.79818 -0.79234,3.37181 -0.9798,11.66533 -0.30103,13.31371 0.2734,0.6633 0.44743,1.58676 0.38732,2.05214 -0.0602,0.46537 0.0339,1.07701 0.21038,1.35918 0.17548,0.28218 0.1415,0.51304 -0.0757,0.51304 -0.54153,0 0.89535,3.68041 1.61465,4.13574 0.44452,0.28141 0.45422,0.36789 0.0436,0.37273 -0.2957,0.004 -0.42125,0.19396 -0.27923,0.42339 0.1415,0.22944 0.4295,0.31088 0.63984,0.18101 0.2099,-0.12987 0.38199,0.0451 0.38199,0.38931 0,0.34399 0.36261,0.81943 0.80557,1.05657 0.44308,0.2371 0.71391,0.66995 0.60193,0.96189 -0.11192,0.29187 0.17161,0.96377 0.63092,1.49302 0.45906,0.52925 0.83462,1.12963 0.83462,1.33415 0,0.20452 0.18516,0.25741 0.41155,0.1175 0,0 1.23677,1.618241 3.2341,2.9065 1.81587,1.14912 2.0883,1.19772 6.61436,1.17929 5.5282,-0.0228 7.79674,-0.24577 7.79791,-0.76746 0,-0.2069 0.12077,-0.25644 0.2671,-0.1101 0.1464,0.1464 0.60808,-0.12807 1.02604,-0.61002 0.41786,-0.4819 0.75991,-0.65004 0.75991,-0.37365 0,0.36778 0.15076,0.35203 0.56135,-0.0588 0.3088,-0.30874 1.32455,-0.81323 2.25738,-1.12105 1.82307,-0.60169 2.03453,-1.13792 1.25087,-3.17205 z m -4.47345,-39.32542 c -0.22589,-0.13951 -0.4106,-0.0581 -0.4106,0.18101 0,0.23904 0.18471,0.43464 0.4106,0.43464 0.22591,0 0.41059,-0.0814 0.41059,-0.18101 0,-0.0995 -0.18468,-0.29513 -0.41059,-0.43464 z m -8.80796,-14.4281 2.5e-4,10e-6 z"
         id="path332-7" /></g></g></svg>
