<?xml version="1.0" encoding="UTF-8" standalone="no"?>
<!-- Created with Inkscape (http://www.inkscape.org/) -->

<svg
   width="150mm"
   height="100mm"
   viewBox="0 0 150 100"
   version="1.1"
   id="svg72087"
   xmlns="http://www.w3.org/2000/svg"
   xmlnsSvg="http://www.w3.org/2000/svg">
  <defs
     id="defs72084" />
  <g
     id="layer1">
    <path
       style="color:#000000;opacity:1;fill:#c19400;fill-opacity:1;stroke:#c19400;stroke-width:7;stroke-linecap:round;stroke-linejoin:round;stroke-dasharray:none;stroke-opacity:1"
       d="m 86.972284,4.5515917 c -0.637044,-0.106623 -1.293569,0.138352 -1.777258,0.553635 -0.483701,0.415226 -0.867681,0.98388 -1.2276,1.701247 -1.439665,2.869491 -2.53404,8.3026143 -3.466581,16.2791693 -0.932529,7.976574 -1.652983,18.443982 -2.132718,31.132113 -0.238961,6.320081 -0.584384,10.283776 -0.982065,12.341379 -0.07393,0.382337 -0.08626,0.321759 -0.168489,0.568296 C 76.825225,66.25155 76.306529,64.766128 75.755469,62.397673 75.113,59.636405 74.431356,56.185646 73.732676,52.630176 72.335317,45.519189 70.913754,38.051421 69.485568,34.44808 69.128527,33.54725 68.830529,32.875704 68.250651,32.39851 67.960702,32.159913 67.478404,31.973147 67.02305,32.094191 c -0.455355,0.121082 -0.737142,0.437059 -0.949097,0.766308 -0.423928,0.658461 -0.693895,1.569879 -0.974744,2.947847 -0.28085,1.377969 -0.542842,3.2067 -0.784198,5.569392 -1.914179,18.738095 -3.675297,27.421449 -4.914043,31.315424 -0.437211,1.374308 -0.666952,1.606315 -0.908795,1.987226 -0.565414,-1.410107 -4.416867,-11.319016 -9.754801,-40.404637 -1.436646,-7.8282 -2.43445,-13.667594 -3.17707,-17.478107 -0.371321,-1.905266 -0.673895,-3.293933 -0.956434,-4.220125 -0.141278,-0.463096 -0.255483,-0.79931 -0.472709,-1.121951 -0.108636,-0.161254 -0.248935,-0.36364 -0.597308,-0.48031 -0.348393,-0.116764 -0.814949,0.05087 -1.007729,0.238335 -0.38556,0.37509 -0.411001,0.674134 -0.516688,1.088929 -0.105634,0.414813 -0.199722,0.931674 -0.293157,1.580259 -0.18687,1.297172 -0.372501,3.108895 -0.582656,5.466725 -0.420306,4.715642 -0.93872,11.607848 -1.736952,20.759613 -0.798024,9.149547 -1.476423,15.560831 -2.118066,19.590023 -0.320812,2.014597 -0.641005,3.443118 -0.927108,4.26045 -0.04784,0.136475 -0.06867,0.137976 -0.113509,0.238334 -0.110508,-0.213424 -0.222425,-0.429081 -0.355467,-0.788309 -0.357942,-0.966497 -0.761401,-2.410881 -1.201934,-4.245788 -0.881084,-3.669776 -1.921045,-8.912197 -3.199079,-15.307554 -0.643369,-3.219502 -1.222779,-5.476131 -1.791925,-7.002982 -0.284564,-0.763435 -0.564963,-1.346186 -0.886807,-1.800254 -0.321826,-0.454047 -0.724834,-0.836197 -1.300867,-0.920278 -0.576051,-0.08409 -1.095797,0.217834 -1.432819,0.564637 -0.337004,0.346818 -0.591624,0.773646 -0.842829,1.283279 -0.502392,1.019246 -0.963637,2.382422 -1.447454,3.95613 -0.967653,3.147378 -2.004312,7.126054 -3.25771,10.438459 -0.62669,1.65622 -1.31006,3.142149 -2.033768,4.249475 -0.72371,1.107328 -1.482034,1.798263 -2.158368,2.023888 -0.773146,0.257933 -1.315313,0.183782 -1.857893,-0.11376 -0.54256,-0.297354 -1.085422,-0.881832 -1.575711,-1.726909 -0.98058,-1.690134 -1.702187,-4.34589 -2.17302,-7.094655 C 9.7806683,42.215793 9.7732383,36.347208 9.7732383,36.347208 A 0.84429204,0.8447573 0 0 0 8.9304099,35.500254 0.84429204,0.8447573 0 0 0 8.0875812,36.347208 c 0,0 -0.0075,5.959181 0.9674084,11.652095 0.4875687,2.846437 1.2024214,5.628944 2.3782394,7.655611 0.587908,1.013333 1.303023,1.854261 2.227992,2.361209 0.924988,0.506949 2.059097,0.616184 3.202738,0.234655 1.240471,-0.413819 2.200488,-1.42289 3.034179,-2.69853 0.833711,-1.275621 1.551171,-2.858528 2.202346,-4.57943 1.302348,-3.441811 2.341522,-7.453864 3.290693,-10.541133 0.474567,-1.543634 0.932436,-2.859016 1.348522,-3.703153 0.208034,-0.422079 0.411452,-0.723394 0.538658,-0.854294 0.127208,-0.130844 0.07486,-0.05557 -0.02195,-0.06965 -0.09681,-0.01502 -0.0094,-0.02985 0.172235,0.227334 0.182367,0.2572 0.423403,0.728763 0.677929,1.411589 0.509052,1.365654 1.084146,3.567617 1.718641,6.742666 1.277695,6.393667 2.317769,11.641796 3.213732,15.373558 0.447982,1.86588 0.857294,3.347566 1.260566,4.436439 0.201636,0.544438 0.399218,0.991633 0.626634,1.360266 0.227414,0.368634 0.472297,0.719245 0.989397,0.879957 0.25856,0.08035 0.578603,0.06158 0.828175,-0.04393 0.249573,-0.105502 0.427306,-0.267394 0.567983,-0.436308 0.281376,-0.337828 0.456294,-0.731729 0.633952,-1.239278 0.355334,-1.015116 0.6723,-2.493497 1.000392,-4.553767 0.656203,-4.120557 1.333437,-10.543311 2.13272,-19.707351 0.799113,-9.161789 1.318671,-16.062912 1.736952,-20.755952 0.190191,-2.13365 0.35766,-3.673981 0.520366,-4.88741 0.179552,0.758274 0.336872,1.340818 0.564324,2.50786 0.734909,3.770884 1.734889,9.621391 3.173431,17.459784 5.758373,31.376641 10.278806,42.043564 10.278806,42.043564 a 0.84437647,0.84484178 0 0 0 0.230866,0.31532 c 0,0 0.13021,0.10024 0.24552,0.15036 0.115387,0.0501 0.268035,0.0908 0.439727,0.0916 0.343383,0.002 0.704271,-0.16463 0.993074,-0.43264 0.577609,-0.53618 1.089457,-1.47189 1.747949,-3.541828 1.316983,-4.139893 3.067913,-12.867005 4.987327,-31.656406 0.237845,-2.328263 0.491958,-4.114381 0.75489,-5.4044 0.227096,-1.114254 0.459727,-1.689553 0.63761,-2.04955 0.146156,0.21577 0.301956,0.402067 0.527682,0.971601 1.26732,3.197501 2.761192,10.774656 4.15917,17.888778 0.69898,3.557047 1.380906,7.016478 2.033769,9.822499 0.652881,2.806021 1.192402,4.87699 1.923841,6.03504 0.18293,0.289509 0.374472,0.567997 0.787858,0.744287 0.413408,0.176274 1.032798,-0.0013 1.311884,-0.285977 0.558182,-0.569274 0.693256,-1.260078 0.912456,-2.394212 0.438411,-2.268267 0.771154,-6.240672 1.01138,-12.594374 0.478659,-12.659428 1.197377,-23.097195 2.121729,-31.003766 0.924363,-7.906591 2.102081,-13.3308353 3.298025,-15.7145513 0.29898,-0.59593 0.597972,-0.992422 0.817172,-1.180597 0.219211,-0.188174 0.291463,-0.186784 0.399417,-0.168576 0.21594,0.03605 0.956849,0.621386 1.736953,2.170557 1.560231,3.0983273 3.376875,9.4501693 5.287819,19.1720313 3.824925,19.459175 7.33007,45.532204 10.46936,58.847044 0.78482,3.3287 1.52442,5.840601 2.33426,7.384291 0.40492,0.77185 0.78864,1.39973 1.58673,1.62792 0.39903,0.11414 0.88206,0.0245 1.21658,-0.19433 0.33455,-0.21889 0.56437,-0.51622 0.77321,-0.86895 0.83536,-1.41098 1.42559,-3.96751 2.04843,-8.275251 0.62286,-4.30776 1.21005,-10.31235 1.76995,-18.339758 1.11827,-16.032968 1.88043,-27.768307 2.52848,-36.008522 0.64805,-8.240213 1.22381,-13.056607 1.82855,-14.933563 0.10004,-0.310459 0.16286,-0.389884 0.23453,-0.516992 0.0634,0.06251 0.054,0.03435 0.14296,0.157688 0.21358,0.296434 0.47887,0.752997 0.76953,1.330944 1.16266,2.311781 2.77316,6.579645 5.01661,11.872069 2.25673,5.323775 4.42016,9.062202 6.44944,11.52741 2.02928,2.465227 3.95444,3.726149 5.81914,3.776478 1.86472,0.05031 3.3791,-1.241493 4.29476,-3.123837 0.91565,-1.882363 1.37783,-4.423844 1.37783,-7.391628 v -2.559191 a 0.84429204,0.8447573 0 0 0 -0.84282,-0.843293 0.84429204,0.8447573 0 0 0 -0.84649,0.843293 v 2.559203 c 0,2.787287 -0.45905,5.119943 -1.20561,6.654661 -0.74654,1.534718 -1.63303,2.200161 -2.73003,2.170557 -1.09697,-0.02966 -2.69306,-0.889774 -4.56223,-3.1605 -1.86919,-2.270726 -3.98081,-5.885912 -6.19658,-11.113122 -2.2291,-5.258539 -3.81465,-9.482721 -5.06792,-11.974717 -0.31333,-0.622999 -0.60427,-1.137043 -0.90512,-1.554598 -0.30086,-0.417553 -0.58964,-0.76657 -1.08468,-0.96428 -0.49506,-0.197693 -1.20464,0.0075 -1.55008,0.381323 -0.34542,0.373495 -0.53365,0.823638 -0.72189,1.407929 -0.75299,2.337106 -1.25573,7.059825 -1.90553,15.322227 -0.64978,8.262386 -1.40683,19.994363 -2.52482,36.023183 -0.55822,8.003516 -1.14634,13.978236 -1.75894,18.215086 -0.61258,4.236841 -1.31616,6.790161 -1.82855,7.655611 -0.0773,0.13065 -0.10474,0.14155 -0.15029,0.19065 -0.0113,-0.0344 -0.2023,-0.14887 -0.48003,-0.67828 -0.64524,-1.22993 -1.41146,-3.711531 -2.18403,-6.988321 C 102.74313,72.910036 99.217336,46.779958 95.37511,27.232515 93.45243,17.45109 91.67499,11.06814 89.940702,7.6241767 89.073559,5.9022057 88.246597,4.7649557 86.972486,4.5516637 Z"
       id="path458" />
  </g>
</svg>
