<?xml version="1.0" encoding="UTF-8" standalone="no"?>
<!-- Created with Inkscape (http://www.inkscape.org/) -->

<svg
   width="160mm"
   height="88mm"
   viewBox="0 0 160 88"
   version="1.1"
   id="svg10238"
   xmlns="http://www.w3.org/2000/svg"
   xmlnsSvg="http://www.w3.org/2000/svg">
  <defs
     id="defs10235" />
  <g
     id="layer1">
    <path
       d="m 0.90691486,85.536295 c -0.91318203,-2.054615 -0.91936403,-6.301539 -0.01046,-6.969652 0.82245704,-0.604544 1.35893204,-2.638426 0.69592804,-2.638426 -0.84919904,0 -0.184628,-5.085311 0.829956,-6.350981 0.460212,-0.574165 1.015058,-2.394633 1.232946,-4.045586 0.217874,-1.651029 0.715388,-3.290438 1.10556,-3.643367 0.390167,-0.353158 0.786005,-2.329698 0.879637,-4.392972 0.09367,-2.063274 0.477915,-4.764204 0.853911,-6.002001 0.376017,-1.237873 0.60804,-2.797536 0.515551,-3.46603 -0.121692,-0.879854 0.09047,-1.107393 0.76819,-0.823957 1.09588,0.457966 1.290014,-0.590874 0.198637,-1.073141 -0.58936,-0.260501 -0.588872,-0.441257 0.0024,-0.897097 0.407102,-0.313663 0.690909,-1.276529 0.630691,-2.138765 -0.05994,-0.862386 0.324023,-3.014747 0.853863,-4.783038 0.5298378,-1.768293 0.9580941,-3.9385 0.9516121,-4.822685 -0.0065,-0.884183 0.159816,-2.475669 0.369605,-3.536661 0.209719,-1.060989 0.417627,-2.435417 0.462023,-3.054315 0.04461,-0.618974 0.488439,-1.148103 0.986852,-1.176051 0.540782,-0.03038 0.626022,-0.17544 0.211462,-0.359234 -0.482166,-0.214172 -0.532766,-0.83831 -0.165462,-2.039046 0.291126,-0.951701 0.636268,-2.598401 0.767055,-3.659392 0.138419,-1.123419 0.546287,-1.850847 0.976571,-1.741634 0.496454,0.126073 0.64477,-0.3486 0.452127,-1.446805 -0.157656,-0.898842 -0.04252,-1.634244 0.256416,-1.634244 0.298723,0 0.379014,-0.289361 0.178426,-0.643279 -0.20059,-0.353915 -0.08364,-0.643277 0.25997,-0.643277 0.343608,0 0.625186,-0.45113 0.625186,-1.002434 0,-0.631127 -0.273214,-0.823503 -0.737607,-0.519483 -0.571379,0.374422 -0.583158,0.274171 -0.04879,-0.444295 0.377063,-0.50961 1.007963,-2.8080932 1.40238,-5.1068812 0.394477,-2.298787 0.795167,-4.505146 0.890583,-4.902961 0.248819,-1.03851009 3.87796,-1.47817109 5.236152,-0.63416409 1.640676,1.01929509 4.472757,4.17128009 4.472757,4.97799809 0,0.375181 0.47673,1.450375 1.060167,2.389165 1.121151,1.8050502 3.730899,9.5880282 3.992821,11.9078522 0.322699,2.856853 0.871984,5.505911 1.966999,9.483448 0.6217,2.259067 1.302155,5.843574 1.511596,7.965555 0.209789,2.121982 0.667004,5.51981 1.016466,7.550729 0.477427,2.774828 0.462093,3.920652 -0.06273,4.61003 -0.545033,0.716188 -0.517154,1.034865 0.12894,1.451666 0.455124,0.293917 1.418899,3.283071 2.14166,6.642849 0.722692,3.359854 1.718806,7.844949 2.213448,9.966931 1.062048,4.556031 1.091113,5.894839 0.154729,7.124661 -0.947605,1.244176 -1.369205,1.162001 -3.347982,-0.652391 -1.936122,-1.77528 -2.945131,-5.394951 -3.327769,-11.938081 -0.326184,-5.575554 -1.133,-7.716294 -2.908889,-7.716294 -0.765346,0 -1.566308,-0.190629 -1.780001,-0.423029 -0.517154,-0.564293 -8.102385,-0.533913 -12.342702,0.04557 -3.511868,0.482267 -4.38712,0.391889 -4.135952,-0.429106 0.08112,-0.265058 -0.224844,-0.482268 -0.679897,-0.482268 -0.455124,0 -1.139127,0.940386 -1.520079,2.089855 -0.845903,2.552225 -3.3484351,16.067588 -4.4351061,23.952639 -0.438676,3.182972 -0.81808,5.85208 -0.84315,5.931446 C 5.7487919,85.597965 2.3378129,87.5 2.0353469,87.5 1.8974859,87.5 1.3914129,86.61513 0.91074586,85.533637 Z M 36.449571,66.797244 c 0,-1.038739 -0.174244,-1.224507 -0.65655,-0.69872 -0.361032,0.393409 -0.478123,1.030156 -0.25997,1.414679 0.610548,1.076181 0.916938,0.836945 0.916938,-0.715428 z M 19.982528,49.134068 c 2.777439,-0.171642 4.043769,-0.03797 3.792441,0.407839 -0.207698,0.366069 -0.09618,0.665304 0.247425,0.665304 0.343608,0 0.625186,-0.299995 0.625186,-0.667582 0,-0.876134 4.55493,-0.283285 5.686606,0.740491 1.631266,1.47521 1.928525,-0.281007 1.084978,-6.40931 -0.455123,-3.308209 -1.063511,-6.3465 -1.351431,-6.751757 -0.499033,-0.702517 -1.993483,-9.495675 -1.789549,-10.530844 0.05576,-0.271892 -0.07458,-0.928537 -0.285062,-1.459032 -0.935896,-2.360989 -2.755554,-8.649693 -2.755554,-9.523244 0,-1.371541 -2.884216,-7.8384192 -3.49595,-7.8384192 -0.28088,0 -0.644003,1.085141 -0.806676,2.4113422 -0.512973,4.180318 -0.944748,6.601761 -1.283686,7.199394 -0.381245,0.671378 -1.28954,5.699349 -1.831785,10.136142 -0.207002,1.69432 -0.591035,3.369879 -0.852678,3.723569 -0.262062,0.353917 -0.801938,2.523821 -1.200119,4.822685 -0.397971,2.298786 -1.090686,5.10331 -1.538966,6.232122 -0.448294,1.128887 -1.038859,3.357878 -1.312401,4.953313 -0.416163,2.427292 -0.342004,2.93956 0.454009,3.137556 0.523218,0.129871 1.287059,-0.03798 1.697388,-0.37746 0.410517,-0.337969 2.622432,-0.729859 4.915824,-0.871881 z m 48.506924,34.25731 c -2.62689,-1.708446 -5.48518,-4.339352 -5.48518,-5.048933 0,-0.1162 1.19496,-0.232399 2.65547,-0.257463 1.4605,-0.02278 2.65546,0.21949 2.65546,0.543786 0,0.325056 0.24743,0.423789 0.54923,0.220249 0.30178,-0.203541 0.72624,-0.06076 0.94244,0.323538 0.21607,0.381257 1.0792,0.977296 1.91759,1.324681 1.30536,0.540748 1.72117,0.382017 2.8932,-1.104205 0.7528,-0.954665 1.39932,-1.473767 1.4366,-1.153495 0.0697,0.575684 0.67328,-1.975933 1.57997,-6.651735 1.00121,-5.163006 -0.94405,-10.503729 -5.60979,-15.401906 -0.74194,-0.778844 -1.34893,-1.71923 -1.34893,-2.089855 0,-0.370625 -0.5973,-0.694162 -1.32773,-0.719226 -1.27679,-0.04556 -1.28244,-0.06835 -0.14777,-0.656188 0.99919,-0.517205 0.95388,-0.549863 -0.29481,-0.214173 -0.81142,0.21873 -1.97035,0.431384 -2.57539,0.472395 -0.93785,0.06076 -5.53775,4.300999 -4.66965,4.300999 0.16936,0 0.0349,0.361512 -0.30388,0.804135 -0.35267,0.462522 -0.54295,3.260819 -0.44955,6.589534 0.11988,4.259379 -0.0697,6.167339 -0.70791,7.233646 -1.03585,1.7228 -2.99839,1.905833 -3.46257,0.322778 -0.18121,-0.618975 -0.58964,-1.721357 -0.90628,-2.449848 -0.31711,-0.728339 -0.65794,-2.03054 -0.75781,-2.89361 -0.0997,-0.862994 -0.58059,-2.793968 -1.06812,-4.291049 -0.48787,-1.497159 -0.62518,-2.545998 -0.30597,-2.330838 0.35058,0.236198 0.42864,-0.13063 0.19794,-0.924057 -1.06818,-3.66729 -1.36223,-7.649308 -1.60052,-21.673217 -0.10246,-6.012255 0.0488,-11.33779 0.33663,-11.834489 0.35058,-0.606062 0.30806,-0.758717 -0.12894,-0.46404 -0.40704,0.274172 -0.77064,-0.352397 -0.96893,-1.668952 -0.17494,-1.159267 -0.60428,-3.95445 -0.95507,-6.211542 -0.45233,-2.909939 -0.45442,-4.303581 -0.007,-4.790557 0.44676,-0.486826 0.63007,-0.337209 0.63007,0.513406 0,0.659986 0.19933,0.983296 0.44257,0.717707 0.24325,-0.265059 0.44258,-0.815832 0.44258,-1.223595 0,-1.393642 2.13176,-1.26453 2.47112,0.149618 0.17703,0.738212 0.49973,1.341996 0.71684,1.341996 0.21745,0 0.43421,0.506571 0.48231,1.125319 0.21257,2.721057 0.72081,6.010128 1.00719,6.515029 0.50182,0.885095 1.01689,10.566691 1.12394,21.132394 0.0557,5.391836 0.0997,9.803415 0.0997,9.803415 0,-0.260502 6.07328,-3.209781 6.60967,-3.209781 0.44188,0 0.95597,-0.432143 1.14206,-0.960891 0.1861,-0.528597 0.57501,-0.801401 0.86439,-0.606823 0.28925,0.195185 1.12457,0.499737 1.85604,0.676695 0.73148,0.177718 1.72822,0.428345 2.21505,0.557456 0.48718,0.129111 1.36196,0.256704 1.9447,0.284045 1.41896,0.06836 4.12838,3.08386 3.60189,4.012093 -0.23836,0.419992 -0.15892,0.562774 0.18469,0.331133 2.06137,-1.38825 6.26601,9.573142 6.17261,16.091891 -0.0488,3.609722 -0.35685,4.834077 -1.97202,7.907001 -0.27878,0.530874 -0.78137,1.718773 -1.11676,2.640627 -0.33524,0.92193 -1.32738,2.078919 -2.20439,2.571061 -0.87699,0.492142 -1.77372,1.166709 -1.99278,1.49883 -0.84313,1.278428 -3.82088,0.763502 -6.80378,-1.176433 z m 28.88175,-3.537952 c -2.82734,-1.608725 -5.46567,-5.697298 -5.88741,-9.12391 -0.48161,-3.914501 2.04694,-8.983179 5.24995,-10.523097 3.316198,-1.594373 6.418708,-1.525943 8.630558,0.190628 0.98168,0.761681 1.94309,1.384909 2.13642,1.384909 0.74862,0 2.85341,2.78417 3.62392,4.793596 0.44467,1.159799 0.67119,2.942977 0.50321,3.962576 -0.36661,2.226561 -3.00786,7.319466 -3.79634,7.319466 -0.30876,0 -1.24842,0.650873 -2.08889,1.446806 -1.79541,1.699864 -5.878698,1.967807 -8.371698,0.549103 z m 7.289078,-4.889745 c 0.81142,-0.884184 1.75714,-1.607587 2.10165,-1.607587 0.36383,0 0.44956,-0.471636 0.20422,-1.125242 -0.23209,-0.618975 -0.68374,-2.113096 -1.00266,-3.320361 -0.70019,-2.64754 -1.33729,-3.353855 -3.94369,-4.372542 -2.353888,-0.919955 -4.199398,-0.154174 -4.199398,1.742167 0,0.68125 -0.36661,1.611156 -0.81449,2.067146 -0.5743,0.584038 -0.66003,1.272201 -0.29064,2.329926 0.28785,0.8254 0.3464,1.83824 0.12964,2.250637 -0.21676,0.412395 -0.17563,0.534672 0.0906,0.271892 0.26624,-0.262779 0.86843,0.119238 1.33798,0.849932 0.84389,1.312909 2.664518,2.402 4.147338,2.481062 0.42027,0.02278 1.42831,-0.68277 2.23972,-1.566802 z m 15.3413,0.316702 c -2.41788,-1.683991 -4.5074,-4.495805 -4.88997,-6.580343 -0.17912,-0.975931 -0.5541,-1.774369 -0.83414,-1.774369 -0.39658,0 -2.29458,-4.002447 -2.29458,-4.83833 0,-0.09874 0.73029,-0.436699 1.62283,-0.751123 2.26204,-0.795553 4.27824,-0.33265 4.27824,0.981474 0,0.599228 0.51576,2.139145 1.14666,3.421296 0.63076,1.282149 0.99939,2.491618 0.8195,2.687715 -0.35197,0.383537 2.64704,3.642835 3.35251,3.642835 0.90105,0 3.36137,-4.949061 3.7332,-7.509337 0.299,-2.059095 0.16101,-2.936444 -0.59104,-3.755769 -0.82925,-0.903703 -0.85211,-1.157975 -0.14775,-1.64389 2.25519,-1.555562 7.0294,0.274171 7.0294,2.694551 0,0.666822 -0.24046,1.212126 -0.53458,1.212126 -0.29412,0 -0.40843,0.526319 -0.2537,1.170204 0.15472,0.643278 -0.13591,1.547133 -0.6454,2.007832 -0.50949,0.460244 -0.92614,1.380048 -0.92614,2.043072 0,1.773303 -4.10831,6.500294 -5.2388,6.02752 -0.50669,-0.211896 -0.7344,-0.181516 -0.506,0.06835 0.529,0.575685 -1.34592,2.155018 -2.51677,2.119931 -0.48719,-0.01519 -1.65824,-0.565052 -2.60319,-1.223215 z m 23.99449,-0.701758 c -0.90816,-0.368346 -1.32773,-1.065244 -1.32773,-2.204917 0,-0.946991 -0.2544,-1.494651 -0.59035,-1.268782 -0.33453,0.225564 -0.59033,-0.314424 -0.59033,-1.248126 0,-1.91996 0.18052,-1.999781 1.4348,-0.633405 0.84528,0.921096 0.96475,0.910767 1.32571,-0.113921 0.37357,-1.061446 -0.60777,-11.739401 -1.3681,-14.883867 -0.36521,-1.511437 -2.74294,-2.064108 -3.45782,-0.803755 -0.51994,0.916765 -3.09024,0.796845 -3.44486,-0.16101 -0.23836,-0.643277 -0.30667,-0.643277 -0.3443,0 -0.0871,1.50369 -2.14877,0.810819 -3.16497,-1.063725 -0.55687,-1.027193 -1.01241,-2.007071 -1.01241,-2.177573 0,-0.170124 1.26138,-0.507332 2.80302,-0.748087 4.32618,-0.675935 7.13289,-1.723179 7.51295,-2.802625 0.19027,-0.539988 0.0941,-1.1519 -0.21397,-1.359313 -0.30806,-0.207338 -0.96587,-2.707691 -1.4617,-5.555961 -0.49554,-2.848269 -1.50301,-6.897425 -2.23818,-8.997988 -0.73517,-2.10064 -1.2814,-4.036397 -1.21385,-4.301682 0.0697,-0.265058 -0.10037,-0.482269 -0.37219,-0.482269 -0.27252,0 -0.81142,-0.75568 -1.19768,-1.679509 -0.98336,-2.351799 0.0627,-3.588533 2.82275,-3.336461 1.89256,0.173159 2.26753,0.532392 3.55254,3.408384 2.87933,6.443714 3.1476,7.198179 2.87585,8.086616 -0.15194,0.497457 0.0997,1.314276 0.55967,1.815303 0.46,0.501256 0.71892,1.578575 0.5757,2.394634 -0.14288,0.816059 -0.0279,1.567562 0.253,1.670091 0.28228,0.102528 0.80863,1.921099 1.16966,4.041258 l 0.65655,3.854958 4.46893,-0.215692 c 3.32114,-0.160251 4.62796,0.01519 5.08825,0.68277 0.34082,0.494421 1.084,1.088864 1.65197,1.321112 0.56803,0.2324 1.03263,0.737452 1.03263,1.12342 0,0.385814 -0.26554,0.52252 -0.59033,0.30379 -0.3248,-0.218729 -0.59034,-0.11468 -0.59034,0.230123 0,0.344803 0.31224,0.741249 0.69488,0.879702 0.4133,0.150376 0.49973,0.595431 0.21328,1.100712 -0.38752,0.682771 -0.57989,0.656189 -0.98831,-0.138984 -0.30458,-0.593152 -0.9789,-0.852818 -1.68863,-0.650873 -0.66142,0.188351 -1.18158,0.02278 -1.18158,-0.381258 0,-0.394928 -0.41401,-0.717707 -0.92001,-0.717707 -0.506,0 -0.75774,0.286324 -0.55967,0.635683 0.20283,0.356955 -0.0209,0.476193 -0.50878,0.271893 -0.47813,-0.199742 -1.43855,-0.03038 -2.13372,0.373664 -0.97736,0.569608 -1.48135,0.544545 -2.22202,-0.111645 -0.82522,-0.730617 -0.90433,-0.692643 -0.57082,0.277211 0.22094,0.641759 0.11012,1.125242 -0.25718,1.125242 -0.45653,0 -0.45095,0.252906 0.0209,0.86869 0.36382,0.477712 0.82864,2.196486 1.03278,3.819414 0.35824,2.846751 0.322,2.940092 -1.03194,2.649895 -1.35067,-0.290121 -1.35548,-0.277969 -0.12685,0.318221 1.65845,0.80535 1.92378,1.975401 1.73288,7.641031 -0.138,4.09799 -0.33455,4.825873 -1.56449,5.78722 -2.1266,1.662573 -3.08544,1.949199 -4.54232,1.358173 z m 1.03271,-1.865429 c 0,-0.353917 -0.28088,-0.643277 -0.62519,-0.643277 -0.34361,0 -0.4607,0.28936 -0.25997,0.643277 0.20073,0.353916 0.48161,0.643278 0.62519,0.643278 0.14288,0 0.25997,-0.289362 0.25997,-0.643278 z"
       style="fill:#c19400;stroke-width:0.999996"
       id="path10367" />
  </g>
</svg>
