<?xml version="1.0" encoding="UTF-8" standalone="no"?>
<!-- Created with Inkscape (http://www.inkscape.org/) -->

<svg
   width="332mm"
   height="83mm"
   viewBox="0 0 332 83"
   version="1.1"
   id="svg9176"
   xmlns="http://www.w3.org/2000/svg"
   xmlnsSvg="http://www.w3.org/2000/svg">
  <defs
     id="defs9173" />
  <g
     id="layer1">
    <path
       d="m 7.4990337,82.543007 c 0.194083,-0.279488 0.008,-0.69835 -0.41318,-0.93035 -0.421258,-0.231774 -0.713206,-0.901191 -0.648678,-1.487214 0.260321,-2.36402 -0.102948,-3.90827 -1.135971,-4.828548 -0.811569,-0.72335 -1.145378,-2.82022 -1.315515,-8.264942 -0.125418,-4.01279 -0.4823843,-7.662699 -0.7932063,-8.110874 -0.310906,-0.448399 -0.221387,-1.121227 0.198946,-1.495623 0.5390063,-0.480209 0.4460013,-1.229008 -0.315751,-2.541331 -0.593927,-1.02329 -0.875579,-2.43408 -0.625894,-3.135086 0.671803,-1.885701 0.971157,-13.411075 0.3484,-13.411075 -0.294243,0 -0.283702,-1.224009 0.02306,-2.719935 0.30708,-1.496002 0.350185,-3.011014 0.0959,-3.36678 C 2.6627734,31.895253 2.3991374,30.88295 2.3311214,30.001146 2.0221694,25.993958 1.2783004,18.600521 1.0083484,16.854719 0.84477741,15.796586 0.48455941,12.281953 0.20791641,9.0445444 c -0.600731,-7.030251 -0.217652,-7.594689 5.51110629,-8.12170697 12.9572203,-1.192047 14.3507213,-1.207045 16.1215523,-0.173447 1.026323,0.59912397 1.924015,0.76720097 2.173879,0.40673897 0.692037,-0.99746197 6.473262,1.375873 10.147262,4.165719 1.85022,1.404883 4.525781,4.1415564 5.945648,6.0814896 2.30752,3.152505 2.589352,4.003858 2.654048,8.016122 0.102024,6.341441 -1.961926,11.474703 -5.961029,14.823304 -0.890726,0.746071 -1.619575,1.625145 -1.619575,1.954024 0,1.485775 -9.699563,8.403167 -12.828265,9.148555 -1.060329,0.252982 -1.927755,0.798332 -1.927755,1.212497 0,0.872864 8.217041,6.487017 14.183943,9.690799 2.252858,1.20977 3.93432,2.43287 3.736401,2.718195 -0.198089,0.285551 0.08502,0.367354 0.622321,0.1833 1.664933,-0.569596 3.875877,4.469215 2.686237,6.122007 -0.486292,0.675628 -0.695435,0.71653 -0.703087,0.137852 -0.0083,-0.624883 -0.358771,-0.658208 -1.450642,-0.137852 -1.169489,0.55747 -1.439588,0.487785 -1.439588,-0.372658 0,-0.784016 -0.467592,-0.979585 -1.799549,-0.752886 -0.989681,0.16815 -1.799467,0.115892 -1.799467,-0.1174 0,-0.232533 -1.214718,-0.798258 -2.699281,-1.256275 -1.48464,-0.458247 -4.394849,-1.814577 -6.467217,-3.014653 -2.072369,-1.199998 -4.096789,-2.181855 -4.498833,-2.181855 -0.402129,0 -0.730889,-0.43325 -0.730889,-0.961938 0,-0.529446 -0.258621,-0.889829 -0.574799,-0.801588 -0.608976,0.169663 -6.060047,-3.558336 -7.970076,-5.451007 -0.622919,-0.617305 -1.30352,-1.122132 -1.512457,-1.121982 -0.4677623,3.79e-4 -0.2637213,14.104051 0.255135,17.635272 0.758861,5.16439 1.40225,7.704286 2.047468,8.082472 1.694273,0.993063 0.734034,7.526743 -1.133298,7.710948 -0.456116,0.04547 -1.5496863,0.149973 -2.4300963,0.232534 -0.880407,0.08256 -1.441976,-0.07877 -1.247926,-0.358266 z M 19.669431,40.87892 c 1.603297,-0.633215 3.886763,-1.921832 5.074448,-2.863696 1.187684,-0.941867 3.04496,-2.179736 4.127308,-2.750841 1.082264,-0.571101 2.502979,-2.043246 3.157096,-3.271267 0.65378,-1.228099 1.793005,-2.810221 2.53095,-3.51592 0.737945,-0.705926 1.341651,-1.534252 1.341651,-1.84124 0,-0.306759 0.277154,-0.405225 0.616371,-0.218897 0.339216,0.186328 0.595968,-1.816396 0.570463,-4.451271 -0.0255,-2.634876 -0.30266,-4.7906 -0.616373,-4.7906 -0.313711,0 -0.570461,-0.395379 -0.570461,-0.878923 0,-0.483243 -1.334594,-1.998407 -2.96581,-3.366783 C 31.303771,11.561185 29.464519,9.9514149 28.847723,9.3522124 28.231351,8.7530834 27.423861,8.4292824 27.054379,8.6326544 26.684556,8.8364134 26.17573,8.7493004 25.92306,8.4395034 23.43513,5.3897044 4.6835507,5.2200404 6.7968647,8.2668144 c 0.215694,0.311305 0.517837,2.9476946 0.67129,5.8592616 0.153468,2.91164 0.327825,5.293836 0.387338,5.293836 0.05952,0 0.212285,1.358757 0.339471,3.019424 0.127089,1.660592 0.418452,3.289372 0.647317,3.619309 0.228858,0.33024 0.461218,4.259717 0.516139,8.732727 l 0.09999,8.132765 3.6479753,-0.446884 c 2.006388,-0.246166 4.959743,-0.964969 6.563015,-1.598106 z M 281.75467,75.040048 c -3.57537,-0.742281 -11.91596,-6.658729 -11.91596,-8.452326 0,-0.614276 -0.6189,-1.615599 -1.37487,-2.225257 -0.75582,-0.609732 -1.58999,-1.880929 -1.85287,-2.824916 -0.5713,-2.05241 -3.089,-4.60215 -4.54389,-4.60215 -0.80596,0 -0.85483,-0.201477 -0.21594,-0.887028 0.63932,-0.686233 0.56451,-0.976481 -0.33156,-1.282861 -1.57289,-0.537776 -0.99172,-1.738759 1.41926,-2.932696 1.19755,-0.593073 2.37657,-1.97167 2.94244,-3.440406 1.18379,-3.072897 2.60015,-4.025519 7.45518,-5.014799 4.9088,-1.000189 10.56513,-0.05301 14.13528,2.377044 2.21092,1.502365 2.52173,2.062411 2.52173,4.543449 0,1.923804 -0.34516,2.948001 -1.07971,3.198938 -0.59341,0.202992 -1.0797,0.915431 -1.0797,1.583106 0,0.667298 -0.48543,1.21401 -1.0797,1.21401 -0.59428,0 -1.07973,0.40447 -1.07973,0.89915 0,0.991627 -3.95235,2.559587 -5.93842,2.355912 -0.69291,-0.06816 -1.25961,0.158303 -1.25961,0.508992 0,0.351448 -0.64783,0.821586 -1.43967,1.045484 -2.32556,0.65745 -1.69065,1.977423 2.50307,5.203098 4.94695,3.80503 7.4279,4.567007 13.70945,4.210634 4.68289,-0.265856 4.93005,-0.213587 3.95505,0.833026 -0.63163,0.678657 -1.1444,0.837261 -1.30625,0.404463 -0.14606,-0.39159 -0.58238,-0.711983 -0.96862,-0.711983 -0.38595,0 -0.51943,0.264344 -0.29501,0.586252 0.22366,0.322664 -0.76599,1.232416 -2.19971,2.021736 -2.08171,1.146294 -2.98845,1.310733 -4.50335,0.816887 -1.30118,-0.42416 -2.34859,-0.386289 -3.3363,0.121938 -0.79151,0.406741 -2.06984,0.608974 -2.84007,0.449158 z m -2.5585,-2.959512 c 0,-0.135582 -0.64783,-0.396891 -1.44059,-0.581705 -0.79237,-0.184817 -1.25911,-0.07574 -1.03721,0.246165 0.38768,0.558226 2.4778,0.841657 2.4778,0.33554 z m 3.05986,-18.769069 c 1.08377,-2.119365 -1.1212,-4.088838 -4.94535,-4.417033 -4.03591,-0.346147 -4.71869,0.256011 -4.45674,3.931296 0.20913,2.928152 0.37066,3.164319 2.38334,3.48259 2.71833,0.43022 5.97796,-0.961938 7.01875,-2.996853 z M 105.42047,72.607179 c -0.62573,-0.557469 -1.15232,-0.776596 -1.17017,-0.48703 -0.017,0.2901 -0.45314,-0.33857 -0.96657,-1.397081 -1.09322,-2.251689 -0.36811,-4.859451 2.05095,-7.374878 2.25975,-2.349932 3.1571,-2.244117 2.76832,0.326453 -0.36642,2.421584 0.89514,4.48952 2.72879,4.47354 1.75253,-0.01519 6.26633,-3.337622 7.55807,-5.563028 0.96009,-1.654157 0.9992,-2.25495 0.23806,-3.654304 -0.90424,-1.662409 -1.06824,-2.153225 -1.27908,-3.828359 -0.0765,-0.598372 -0.67248,-0.745312 -1.90914,-0.468852 -1.31547,0.293884 -1.79955,0.145425 -1.79955,-0.551411 0,-0.55368 -0.42253,-0.809613 -1.00685,-0.609729 -0.55347,0.189357 -1.20198,0.06058 -1.44037,-0.280251 -0.23804,-0.343873 -1.07699,-0.47491 -1.86356,-0.291611 -0.89072,0.207538 -1.59169,-0.04545 -1.85838,-0.661236 -0.2355,-0.546867 -0.8846,-0.838174 -1.44232,-0.647604 -0.5577,0.190872 -1.21267,-0.11437 -1.45548,-0.677901 -0.24315,-0.563528 -0.73114,-0.865137 -1.08575,-0.670326 -0.35452,0.195415 -0.64442,-0.04545 -0.64442,-0.533232 0,-0.488543 -0.81022,-1.565762 -1.79956,-2.394163 -1.776167,-1.48661 -2.279387,-3.465629 -1.248207,-4.90929 0.290747,-0.4075 2.567927,-1.352772 5.059767,-2.100661 4.19583,-1.259306 4.70321,-1.286799 6.86544,-0.372656 2.86881,1.212797 3.64263,4.476947 1.20741,5.092815 -0.79576,0.201477 -2.13554,0.540806 -2.97686,0.755161 -1.01808,0.25904 -1.36503,0.152241 -1.03729,-0.320395 0.27121,-0.390077 0.12243,-0.709713 -0.32986,-0.709713 -2.07339,0 0.14198,1.566822 4.62244,3.26983 4.56327,1.734366 5.70242,2.416886 10.15797,6.086262 2.05681,1.693919 2.90774,5.910463 1.7976,8.907391 -0.45994,1.241809 -1.13523,2.257827 -1.50038,2.257827 -0.36557,0 -0.66397,0.557467 -0.66397,1.23893 0,0.681685 -0.98314,1.862597 -2.18485,2.624878 -1.77303,1.124857 -2.38659,1.236807 -3.25555,0.594582 -0.87363,-0.646089 -0.99546,-0.61655 -0.66143,0.158303 0.63507,1.473961 -1.39045,2.515353 -5.22802,2.688274 -1.92469,0.08636 -3.86172,0.356753 -4.30449,0.600645 -0.44293,0.243892 -1.31699,-0.01519 -1.94271,-0.570348 z m 18.10211,-16.700523 c -0.23889,-0.212839 -0.86003,-0.235562 -1.37958,-0.05302 -0.57385,0.204507 -0.40382,0.356747 0.43444,0.387804 0.75921,0.03031 1.18394,-0.123461 0.94471,-0.337058 z m -42.262344,16.42603 c -0.527955,-0.290854 -1.398951,-0.378715 -1.934728,-0.196165 -0.535607,0.1833 -1.441798,-0.01519 -2.013198,-0.435524 -0.57131,-0.422645 -1.37142,-0.585494 -1.777631,-0.361293 -1.029893,0.567313 -5.642734,-2.361444 -5.267979,-3.344438 0.19639,-0.515811 -0.283107,-0.745314 -1.340968,-0.641542 -1.21183,0.11969 -1.923421,-0.346148 -2.691206,-1.761484 -0.573865,-1.058141 -1.281204,-2.068178 -1.571538,-2.244506 -0.289906,-0.176481 -1.015864,-1.365194 -1.612341,-2.641843 -0.680984,-1.456618 -1.90123,-2.643059 -3.277057,-3.185681 -2.897456,-1.142584 -3.436972,-2.999957 -1.142115,-3.931521 0.958567,-0.389319 1.759337,-0.877636 1.779485,-1.085549 0.332416,-3.433438 0.882476,-6.405977 1.375742,-7.432219 0.339217,-0.705168 0.800859,-1.794125 1.025388,-2.419386 0.224447,-0.624881 0.983048,-1.328838 1.684865,-1.563489 0.701385,-0.234805 1.599927,-0.773489 1.995767,-1.197273 1.605709,-1.718989 9.339344,-2.873542 13.676407,-2.041731 0.791506,0.151486 1.856259,1.034272 2.365507,1.960915 0.817863,1.489034 0.711592,2.041428 -0.919031,4.755452 -3.541627,5.895166 -7.153666,9.511824 -10.624052,10.63782 -1.941612,0.630184 -1.508963,2.552542 1.345392,5.979161 4.460419,5.354508 12.143046,8.545792 16.067841,6.674484 2.051034,-0.977921 2.344339,-0.680932 1.253665,1.267941 -1.005835,1.797307 -6.882708,4.041727 -8.398215,3.207269 z M 69.496194,50.098822 c -0.261854,-0.233285 0.251651,-0.746823 1.139733,-1.141295 0.888426,-0.39462 1.615318,-1.057222 1.615318,-1.472522 0,-0.415071 0.521154,-1.128193 1.159036,-1.584319 2.432753,-1.740348 1.991603,-3.71497 -0.829763,-3.71497 -0.932296,0 -3.573424,2.680169 -3.188217,3.235441 0.181924,0.262072 -0.158127,1.516679 -0.754096,2.788709 -0.995123,2.121718 -0.984836,2.312667 0.124987,2.312667 0.664833,0 0.995291,-0.190875 0.733693,-0.423405 z M 319.85818,69.75083 c -0.24824,-0.358263 -0.7507,-0.487028 -1.11619,-0.286312 -0.69033,0.380233 -4.29242,-2.467177 -4.25227,-3.361704 0.008,-0.280248 0.4616,-1.025788 0.99858,-1.656121 0.91997,-1.080478 1.14486,-1.085702 3.93464,-0.0909 4.10209,1.462295 5.31068,0.956028 4.24907,-1.779889 -0.45058,-1.162278 -1.29856,-2.430143 -1.88338,-2.817569 -0.58489,-0.387047 -0.83314,-1.036694 -0.55089,-1.442905 0.30267,-0.436281 0.0511,-0.738495 -0.60958,-0.738495 -0.61721,0 -1.12214,-0.254499 -1.12214,-0.565045 0,-0.310545 -1.4576,-0.892176 -3.23913,-1.291799 -1.78152,-0.399923 -3.23913,-1.023666 -3.23913,-1.386778 0,-0.36281 -0.40468,-0.600645 -0.89982,-0.527931 -3.41005,0.502177 -7.327,-2.760003 -8.02738,-6.686073 -0.36132,-2.027793 -0.11804,-2.671309 1.62951,-4.30039 1.13032,-1.053663 2.55214,-1.915695 3.15966,-1.915695 0.60786,0 1.28767,-0.424162 1.51118,-0.943455 0.5679,-1.319446 5.29903,-1.116758 5.69476,0.243892 0.4115,1.415714 -0.13867,2.623437 -1.19585,2.623437 -0.48802,0 -1.59178,1.11691 -2.45296,2.482026 l -1.56568,2.481951 3.68852,1.3658 c 2.02874,0.751371 4.10988,1.365725 4.62472,1.365725 1.80223,0 10.02401,6.449904 11.26985,8.841038 1.81927,3.491986 1.53185,8.003852 -0.55518,8.717428 -0.62657,0.214348 -0.82974,0 -0.57215,-0.596858 0.22016,-0.511264 0.0423,-0.92929 -0.39617,-0.92929 -0.43783,0 -0.79663,0.425676 -0.79663,0.9455 0,1.949402 -7.14718,3.890848 -8.28504,2.250556 z m -76.04461,-2.366897 c -4.06397,-0.555954 -9.14237,-6.694858 -10.34215,-12.502612 -0.41402,-2.005526 -0.14359,-2.83317 1.74269,-5.322847 1.22825,-1.621435 2.23322,-3.090394 2.23322,-3.264527 0,-0.174212 0.76005,-1.046848 1.68931,-1.939556 2.51375,-2.415298 11.01885,-3.080018 9.34441,-0.730162 -0.56534,0.792726 -0.68777,1.133344 -0.86647,2.409389 -0.0511,0.35296 -0.67251,0.641542 -1.38492,0.641542 -0.82636,0 -1.62452,0.811741 -2.20604,2.244496 -0.50072,1.234462 -1.21393,2.244498 -1.58427,2.244498 -0.95039,0 -0.83827,4.294708 0.15644,5.974084 0.45569,0.770459 1.60807,2.051354 2.55984,2.8465 0.95185,0.795154 1.54823,1.708616 1.32534,2.029919 -0.69802,1.006246 3.00866,-0.199206 4.77165,-1.551749 1.46611,-1.124787 5.92115,-2.885812 7.30055,-2.885812 0.26864,0 0.48885,0.594582 0.48885,1.320428 0,0.726377 -0.32393,1.142056 -0.72009,0.924066 -0.39619,-0.218141 -0.72008,0.197689 -0.72008,0.924142 0,0.726376 -0.4472,1.32043 -0.99428,1.32043 -0.54667,0 -1.86569,1.017912 -2.93087,2.262068 -1.06511,1.244081 -2.31824,2.207836 -2.78471,2.141637 -0.46675,-0.06816 -1.75995,0.214347 -2.87444,0.623366 -1.11449,0.409011 -2.08622,0.700623 -2.15942,0.648361 -0.0765,-0.05302 -0.99324,-0.213588 -2.04467,-0.35751 z M 137.39391,63.885358 c -2.49524,-0.624121 -3.91902,-1.691721 -7.03037,-5.27293 -3.81819,-4.394768 -0.29587,-15.029785 5.00841,-15.122797 0.66909,-0.01517 1.41741,-0.30979 1.66209,-0.662752 1.13089,-1.630295 5.73659,0.293885 5.03257,2.102707 -0.16749,0.430977 1.13624,1.78784 2.89753,3.015864 2.75974,1.924101 5.07473,5.0913 4.78433,6.545341 -0.0512,0.242376 -0.16408,1.324896 -0.25591,2.404842 -0.0927,1.079946 -0.42253,1.963488 -0.73455,1.963488 -0.31201,0 -0.56706,0.433253 -0.56706,0.961937 0,0.529446 -0.47523,0.961939 -1.05709,0.961939 -0.58151,0 -0.90074,0.362809 -0.70989,0.806741 0.2066,0.479452 -0.82636,1.259757 -2.54684,1.923875 -3.2361,1.24908 -3.02286,1.236809 -6.48356,0.371897 z m 4.30643,-7.110232 c -0.006,-0.793637 -0.8153,-2.121489 -1.7969,-2.950875 -0.98144,-0.829388 -1.57052,-1.81632 -1.30909,-2.193218 0.3018,-0.434765 0.0255,-0.530958 -0.76006,-0.26283 -0.67928,0.232531 -1.05538,0.162846 -0.8357,-0.153757 0.53049,-0.764399 -0.32476,-2.691683 -1.0231,-2.306984 -0.50074,0.275705 -0.44294,1.700129 0.17004,4.18034 0.99333,4.018699 5.58372,7.065921 5.55465,3.687475 z m 59.87401,4.653658 c -1.82922,-2.204203 -2.61615,-5.123115 -3.33429,-12.367261 -0.16662,-1.685359 -0.71669,-4.081871 -1.2216,-5.325726 -0.73879,-1.819425 -0.74049,-2.359247 -0.009,-2.761668 0.49991,-0.274949 4.53913,-0.532476 8.9765,-0.57262 7.23839,-0.06816 8.45634,0.09393 11.84641,1.544176 2.53782,1.08555 3.91688,2.107247 4.1999,3.111906 0.23211,0.822647 1.0401,1.639839 1.79633,1.816018 1.38159,0.321907 2.61486,2.122929 1.89358,2.76553 -0.21253,0.18936 -1.16916,-0.112847 -2.12586,-0.671082 -0.95668,-0.55823 -1.95451,-0.823858 -2.21745,-0.590041 -0.26271,0.234046 -1.04682,-0.0077 -1.742,-0.54156 -1.87421,-1.434198 -3.66303,-2.034992 -7.68041,-2.578979 -2.96378,-0.401438 -5.63516,7.085844 -4.19091,11.74594 0.86334,2.785602 -0.1122,4.800445 -2.7167,5.609231 -1.73366,0.538535 -2.16699,0.390833 -3.47413,-1.184471 z m -36.10791,-3.064416 c 0,-0.787349 -0.18874,-0.804997 -1.13454,-0.106033 -0.94028,0.695322 -1.2466,0.680932 -1.78848,-0.08181 -0.35965,-0.505965 -0.65889,-1.461009 -0.66486,-2.121413 -0.009,-0.994506 -0.19638,-1.063585 -1.09067,-0.402197 -0.88434,0.653663 -1.07972,0.609732 -1.07972,-0.242376 0,-0.572619 -0.32392,-1.04041 -0.72009,-1.04041 -0.39618,0 -0.72009,-0.482482 -0.72009,-1.071838 0,-0.589282 -0.5441,-1.607422 -1.2091,-2.262069 -1.19772,-1.179092 -2.53675,-10.807861 -1.67559,-12.049139 0.39022,-0.562772 2.94643,-0.929369 5.2241,-0.749101 1.01577,0.0803 1.2597,0.717287 1.2597,3.287935 0,3.380111 2.4773,9.304283 4.5188,10.806269 0.63422,0.466578 2.02927,0.755159 3.10073,0.641543 2.56471,-0.271919 3.72289,-3.660738 3.38878,-9.914544 l -0.24486,-4.577468 2.66545,-0.277219 c 1.89052,-0.196931 3.03125,0.04547 3.92378,0.843778 2.35265,2.09604 2.57465,8.895954 0.40638,12.436185 -0.43188,0.705169 -0.70395,1.643249 -0.60278,2.084151 0.10051,0.440821 -0.31797,0.801661 -0.92872,0.801661 -0.61127,0 -1.11125,0.48097 -1.11125,1.068813 0,0.587766 -0.21936,0.873772 -0.48629,0.635484 -0.2678,-0.23859 -1.19203,0.156791 -2.05436,0.878848 -2.04141,1.708614 -8.97615,2.798707 -8.97615,1.411018 z"
       style="fill:#c19400;stroke-width:0.999993"
       id="path10609" />
  </g>
</svg>
