<?xml version="1.0" encoding="UTF-8" standalone="no"?>
<!-- Created with Inkscape (http://www.inkscape.org/) -->

<svg
   width="116mm"
   height="115mm"
   viewBox="0 0 116 115"
   version="1.1"
   id="svg9300"
   xmlns="http://www.w3.org/2000/svg"
   xmlnsSvg="http://www.w3.org/2000/svg">
  <defs
     id="defs9297" />
  <g
     id="layer1">
    <path
       d="M 83.063437,113.2839 C 80.2629,112.02751 71.80266,103.54862 71.80266,101.99825 c 0,-0.48413 -0.793324,-1.30554 -1.76296,-1.82457 -0.984528,-0.526676 -2.024066,-2.335176 -2.354288,-4.095482 -0.325265,-1.733594 -0.939737,-3.367276 -1.365589,-3.630513 -0.729694,-0.45114 -2.950664,-7.00609 -3.036021,-8.960679 -0.06699,-1.532282 -5.945983,-3.647537 -10.0751,-3.62498 -2.160217,0.01068 -3.927661,-0.278771 -3.92765,-0.645856 1.1e-5,-0.367083 -1.722877,-0.422412 -3.828636,-0.123425 -5.216751,0.741617 -7.437327,0.638407 -20.494642,-0.943777 C 19.117621,77.4414 14.841529,76.523583 14.147421,75.829528 13.899719,75.581614 12.886216,74.934695 11.89526,74.391836 9.0300468,72.821781 5.0350238,66.508788 4.9469778,63.412196 c -0.04469,-1.559416 -0.398686,-2.638855 -0.787368,-2.398601 -0.388684,0.240466 -0.3557,-0.787369 0.07342,-2.283155 0.429008,-1.495895 0.556052,-2.719933 0.282175,-2.719933 -0.27377,0 -0.04681,-0.54371 0.505512,-1.20893 0.551797,-0.665007 0.823439,-1.388854 0.603507,-1.608892 -0.472424,-0.472421 -0.653625,-11.952466 -0.239937,-15.199403 0.157792,-1.238723 0.617765,-3.372278 1.022195,-4.741235 0.404431,-1.368957 0.379853,-2.990511 -0.05427,-3.603488 -0.767897,-1.083377 -0.781197,-6.006664 -0.02873,-10.5734 0.204184,-1.238723 0.09789,-2.657582 -0.236742,-3.153092 -0.334419,-0.495829 -0.572864,-1.306181 -0.529878,-1.801691 0.120658,-1.392259 2.664901,-6.7564717 3.204654,-6.7564717 0.264087,0 1.7783562,-1.1857352 3.3650102,-2.6348123 3.822173,-3.4910206 10.523573,-4.85859492 19.72924,-4.02600622 3.886039,0.35112402 10.308635,0.71182332 14.272433,0.80120092 3.963787,0.085121 7.409598,0.2734506 7.65734,0.4085798 0.247697,0.1361936 7.13933,0.3415485 15.314669,0.4575258 13.161619,0.1862018 24.811649,1.3782142 28.827619,2.9496518 0.74321,0.2904759 1.65533,0.4649734 2.02694,0.3862368 0.371643,-0.074477 0.675633,0.2266344 0.675633,0.6788392 0,0.4522042 1.52021,1.0851842 3.37824,1.4071552 4.83223,0.837377 7.13277,3.0821207 7.76081,7.5722497 0.2941,2.102805 0.80855,4.266366 1.14311,4.807735 0.39017,0.630959 0.18556,0.722464 -0.57095,0.255363 -0.83578,-0.517109 -0.96357,-0.379851 -0.43891,0.469229 0.66427,1.074865 0.85643,2.894005 1.39984,13.256519 0.0841,1.603358 0.40901,2.757172 0.72203,2.564161 0.31304,-0.192586 0.58926,2.954441 0.61383,6.994386 0.0245,4.039839 0.3656,10.385602 0.7579,14.101663 0.85855,8.133409 0.75215,12.860706 -0.35495,15.77248 -0.93166,2.450311 -7.39641,6.246173 -10.80756,6.345763 -1.23869,0.03192 -4.388903,0.589463 -7.000503,1.229785 -4.74445,1.163071 -6.44894,2.776751 -7.2154,6.830953 -0.31548,1.668796 -0.52455,17.045888 -0.29878,21.980028 0.10836,2.36667 -1.34024,4.61558 -2.93722,4.56014 -0.55871,-0.0212 -2.23194,-0.58095 -3.71836,-1.24766 z M 81.184248,97.731144 c -0.26739,-2.81857 -0.543288,-5.352194 -0.613078,-5.630433 -0.195251,-0.777793 2.067327,-10.134177 3.063507,-12.667588 0.90322,-2.297094 7.9028,-6.350978 10.91478,-6.321399 0.86707,0.009 1.57652,-0.358571 1.57652,-0.816096 0,-0.457526 2.2288,-0.793753 4.952903,-0.749065 2.72409,0.04257 5.147,-0.111726 5.38421,-0.348995 0.77417,-0.7746 0.83556,-8.283861 0.12522,-15.325914 -0.38251,-3.792244 -0.80981,-10.301334 -0.94951,-14.464492 -0.13971,-4.163157 -0.72992,-8.458784 -1.31166,-9.545779 -0.5817,-1.086887 -0.73939,-1.976188 -0.35028,-1.976081 0.90451,0 0.84845,-10.926227 -0.0638,-12.402118 -0.37762,-0.610742 -1.29696,-1.110934 -2.04295,-1.110934 -0.74598,0 -3.255733,-0.809713 -5.577223,-1.79903 -2.32148,-0.989532 -5.63974,-1.975551 -7.3739,-2.191332 -1.73418,-0.215994 -3.35573,-0.468165 -3.60346,-0.55967 -0.24771,-0.09577 -0.85163,-0.08512 -1.34206,0.01068 -1.42311,0.285155 -15.096316,0.07448 -29.73776,-0.469228 -36.853468,-1.355445 -34.280646,-1.4271597 -36.930939,1.028898 -1.838164,1.703589 -2.27576,2.784624 -1.89196,4.674096 1.166848,5.744491 1.283197,7.424033 0.479868,6.927565 -0.464547,-0.287282 -0.875575,0.009 -0.913453,0.65756 -0.03831,0.649046 -0.264301,1.99002 -0.503172,2.981041 -0.23887,0.990595 -0.47806,3.524537 -0.531686,5.630323 -0.0532,2.105785 -0.333781,3.831505 -0.622872,3.834909 -0.288985,0 -0.592867,4.958188 -0.675329,11.010498 -0.08193,6.052309 -0.535835,11.132857 -1.007725,11.290118 -1.028579,0.342612 0.636172,5.615746 2.47122,7.826868 2.089208,2.517239 6.192483,4.181034 9.788615,3.96887 1.869257,-0.110659 3.872034,0.09577 4.450628,0.449012 0.578605,0.357509 6.335733,0.708633 12.79369,0.778857 6.457958,0.07448 11.743048,0.359636 11.744666,0.641599 0.0022,0.281963 2.907423,0.610742 6.45734,0.729912 4.877345,0.164922 6.826519,0.617127 7.977389,1.85255 1.61295,1.731253 3.529235,6.768815 3.900539,10.253772 0.478063,4.486723 7.66441,16.776162 9.018265,15.422212 0.313665,-0.31388 0.570309,-0.0958 0.570309,0.48093 0,0.57776 0.19333,1.05125 0.42954,1.05125 0.23621,0 0.210785,-2.30604 -0.05643,-5.124504 z M 0.03389381,27.593953 c 0,-0.7214 0.337824,-1.311714 0.750767,-1.311714 0.41294299,0 0.75076699,0.380917 0.75076699,0.848017 0,0.466038 -0.337824,1.056564 -0.75076699,1.311714 -0.412943,0.255363 -0.750767,-0.126617 -0.750767,-0.848017 z"
       style="fill:#c19400;stroke-width:0.999994"
       id="path10830" />
  </g>
</svg>
