<?xml version="1.0" encoding="UTF-8" standalone="no"?>
<!-- Created with Inkscape (http://www.inkscape.org/) -->

<svg
   width="98mm"
   height="117mm"
   viewBox="0 0 98 117"
   version="1.1"
   id="svg9300"
   xmlns="http://www.w3.org/2000/svg"
   xmlnsSvg="http://www.w3.org/2000/svg">
  <defs
     id="defs9297" />
  <g
     id="layer1">
    <path
       d="m 79.525266,115.14524 c -0.70089,-0.76587 -1.64492,-1.16421 -2.09783,-0.88432 -0.45294,0.27972 -2.28697,0.44654 -4.07567,0.36903 -2.37815,-0.10193 -2.96463,0.0505 -2.1822,0.57629 0.92491,0.61925 0.90642,0.71698 -0.13622,0.72709 -0.66341,0.006 -1.4127,-0.32352 -1.66505,-0.73131 -0.25234,-0.40862 -1.07379,-0.54679 -1.82544,-0.30836 -0.75163,0.23843 -1.36664,0.12728 -1.36664,-0.24686 0,-0.37408 -0.94605,-0.81895 -2.10235,-0.98897 -1.24036,-0.18197 -1.92792,-0.0252 -1.67694,0.37999 0.26531,0.42969 -0.35286,0.47518 -1.6427,0.12221 -3.34896,-0.91734 -8.84346,-0.9657 -8.85569,-0.0758 -0.006,0.43643 -0.3221,0.31173 -0.70242,-0.2772 -0.56263,-0.87048 -0.69356,-0.88313 -0.70241,-0.0674 -0.008,0.78776 -0.29707,0.7431 -1.34946,-0.20895 -1.24022,-1.1224 -1.37183,-1.1246 -1.79178,-0.0336 -0.31586,0.82316 -0.72103,0.9695 -1.33647,0.48277 -1.28975,-1.0192 -4.8066,-1.52488 -4.8066,-0.69087 0,0.43727 -1.38154,0.55018 -3.566686,0.29152 -2.208501,-0.26119 -3.566684,-0.1474 -3.566684,0.29909 0,0.39683 0.370625,0.49289 0.823568,0.21316 0.525903,-0.32522 0.629282,-0.19462 0.285868,0.36144 -0.405676,0.65633 -0.859636,0.57883 -1.84861,-0.31594 -0.721033,-0.65212 -1.652139,-0.97547 -2.069197,-0.71783 -0.41705,0.2578 -0.758273,0.20052 -0.758273,-0.12727 0,-0.32776 -2.216363,-0.58725 -4.925265,-0.57714 -2.708903,0.009 -4.776467,-0.22158 -4.594591,-0.51564 0.181901,-0.29404 -0.16977,-0.53501 -0.781443,-0.53501 -0.611673,0 -1.112107,0.33197 -1.112107,0.73891 0,0.4735 -0.576287,0.42968 -1.605009,-0.12042 -0.882756,-0.47266 -1.68526,-0.80461 -1.783347,-0.73805 -0.539048,0.36396 -4.622656,0.0505 -4.245677,-0.33028 0.247787,-0.2477 0.1295,-1.05029 -0.262867,-1.78337 -0.476364,-0.89013 -0.475522,-1.33287 0.0028,-1.33287 0.393797,0 0.531297,-0.48193 0.305415,-1.07001 -0.225796,-0.58892 -0.108928,-1.07001 0.259835,-1.07001 0.752122,0 0.730807,-2.55588 -0.0278,-3.3144 -0.725078,-0.72542 -0.595497,-2.54164 0.148531,-2.0818 0.351249,0.21738 0.829046,-0.10194 1.061835,-0.708572 0.242394,-0.63188 0.121913,-0.91674 -0.281908,-0.66728 -0.387814,0.23929 -0.705194,0.096 -0.705194,-0.31931 0,-0.98188 0.790036,-0.92484 2.202621,0.15923 0.622963,0.47773 0.982552,1.314942 0.799135,1.859972 -0.183417,0.54511 -0.03538,0.80629 0.329681,0.58133 0.377029,-0.23253 0.647817,1.15266 0.627512,3.21095 -0.02528,2.52935 0.286962,3.78429 1.034393,4.16291 1.317894,0.66729 11.2135,2.20255 16.050097,2.4895 1.961677,0.11625 3.887687,0.2772 4.280027,0.35808 0.392364,0.0841 0.87384,0.0934 1.07001,0.0336 0.19614,-0.0674 5.17169,-0.25696 11.05672,-0.42969 8.15828,-0.23927 12.53095,-0.009 18.40743,0.96832 6.56075,1.09157 7.7907,1.13346 8.26752,0.2814 0.30811,-0.55016 0.84425,-0.94809 1.19152,-0.88356 0.34729,0.0674 0.7464,-0.22747 0.887,-0.64958 0.14069,-0.4221 -0.30619,-0.7667 -0.99274,-0.7667 -0.68657,0 -1.03712,-0.21147 -0.77899,-0.46928 0.25816,-0.25781 0.11175,-0.90015 -0.32512,-1.42674 -0.586,-0.70603 -0.58009,-0.95727 0.0228,-0.95727 0.52624,0 0.41233,-0.61757 -0.32007,-1.7356 -0.88626,-1.35259 -1.05121,-2.88733 -0.74748,-6.955042 0.81521,-10.91836 1.304,-15.24124 1.84046,-16.27612 0.63342,-1.2219 0.46331,-7.07164 -0.30651,-10.54495 -0.28543,-1.28789 -0.62202,-3.6954 -0.74807,-5.35004 -0.12593,-1.65463 -0.70739,-3.97148 -1.29207,-5.14849 -2.09428,-4.21616 -2.05734,-4.94015 0.39118,-7.66521 1.27791,-1.42218 3.20925,-2.80266 4.29188,-3.06764 1.08263,-0.2654 2.14484,-0.76753 2.36045,-1.11625 0.2156,-0.34881 1.41633,-0.65718 2.66828,-0.68413 1.25193,-0.0253 2.89583,-0.29321 3.65309,-0.58978 1.24594,-0.48781 1.0933,-0.81471 -1.60501,-3.43303 -1.64018,-1.59153 -2.98202,-3.18735 -2.98202,-3.54619 0,-0.35892 -2.45649,-3.12501 -5.45889,-6.14689 -3.00242,-3.02188 -5.29912,-5.49435 -5.10382,-5.49435 0.29421,0 -1.20524,-1.74681 -5.68577,-6.62393 -2.02841,-2.20792 -17.36856,-16.7479738 -18.46522,-17.5021158 -2.81571,-1.9362 -1.04254,-5.13324699 2.83828,-5.11740799 0.76804,0.0029 19.85268,18.41894379 25.17903,24.29656379 5.74155,6.33579 16.683126,19.5004 16.683126,20.07265 0,0.35217 1.10761,1.1032 2.46136,1.66887 2.35277,0.98306 2.42756,1.12544 1.69473,3.22763 -0.54713,1.56946 -0.98642,1.97952 -1.53404,1.43187 -0.92686,-0.92687 -2.15254,-1.02561 -1.59825,-0.1289 0.60637,0.9812 -1.4572,1.49607 -2.363556,0.58976 -0.59145,-0.59145 -0.80023,-0.48781 -0.80023,0.39852 0,1.30557 -2.88661,2.35317 -4.63509,1.68226 -0.64125,-0.24601 -1.0716,-0.007 -1.0716,0.59567 0,0.61925 -0.54344,0.90201 -1.41168,0.73468 -0.77648,-0.14912 -1.6108,0.0505 -1.85417,0.44402 -0.26875,0.43473 -0.97636,0.23253 -1.80272,-0.51478 -1.46327,-1.32428 -1.84356,-1.24669 -2.08151,0.42463 -0.33887,2.38038 0.081,3.56724 1.26503,3.57761 0.90624,0.008 1.00029,0.1685 0.34316,0.58555 -0.72085,0.4575 -0.67334,1.21778 0.23347,3.73416 0.62624,1.7377 1.19605,5.24606 1.26619,7.79622 0.0699,2.55023 0.38873,5.04352 0.70797,5.54078 0.70915,1.10454 -0.0984,8.1315 -1.34166,11.67559 -0.66895,1.90697 -0.69919,2.80333 -0.11431,3.38829 0.50788,0.50804 0.52944,0.79535 0.0597,0.79535 -1.20773,0 -0.81532,15.631452 0.45664,18.190112 1.0304,2.07278 1.11461,6.12464 0.12474,6.00391 -0.26816,-0.0336 -1.06106,-0.68665 -1.76197,-1.45268 z M 13.434818,97.437968 c -1.097853,-0.27803 -1.928827,-1.15459 -2.256659,-2.38047 -0.285364,-1.06714 -0.297918,-1.94025 -0.02781,-1.94025 0.270114,0 0.540816,-2.64831 0.601478,-5.88504 0.158226,-8.43794 0.379811,-11.21464 0.870919,-10.91116 0.597687,0.36902 0.297074,-10.1836 -0.364814,-12.80731 -0.296906,-1.177 -0.535509,-3.97781 -0.530284,-6.22407 0.0083,-3.51703 -0.12023,-3.91311 -0.925143,-2.8533 -0.514277,0.6774 -0.9449253,0.85122 -0.9574113,0.38673 -0.01267,-0.46423 -0.669301,-1.04886 -1.459716,-1.29968 -0.856073,-0.27214 -1.233297,-0.79619 -0.933071,-1.29639 0.363549,-0.60578 0.204733,-0.59819 -0.569715,0.0253 -1.343296,1.08652 -6.10164083,0.40778 -6.62044383,-0.94388 -0.92766,-2.41746 4.08005383,-2.68765 10.48320813,-0.56534 1.880768,0.62347 3.877746,1.20044 4.437705,1.28266 1.654465,0.24265 2.166021,1.17011 1.038765,1.88304 -0.577129,0.36482 -0.68927,0.66814 -0.249134,0.67488 0.449739,0.007 0.794079,1.18255 0.786243,2.68596 -0.01854,3.46741 0.691376,8.52063 1.344771,9.57783 0.349817,0.56617 0.110377,0.67486 -0.753722,0.34374 -0.945836,-0.36313 -1.156054,-0.21316 -0.830393,0.59229 0.239867,0.59314 0.626839,1.63982 0.860049,2.32647 0.356979,1.05105 0.302298,1.07919 -0.345772,0.17862 -0.665341,-0.92493 -0.771163,-0.90075 -0.780598,0.17861 -0.0057,0.68666 0.229841,1.24837 0.52405,1.24837 0.294294,0 0.535003,0.80208 0.535003,1.78329 0,0.99401 -0.413344,1.78337 -0.93377,1.78337 -0.531887,0 -0.711513,0.35975 -0.417386,0.83579 0.284015,0.46001 0.450328,2.30531 0.369615,4.10175 -0.08089,1.79643 -0.13725,3.98842 -0.125625,4.87118 0.01178,0.88272 -0.335578,1.60501 -0.771585,1.60501 -0.577045,0 -0.579404,0.25697 -0.0086,0.9449 0.695672,0.8383 0.70216,9.48935 0.0074,10.03253 -0.143151,0.11208 -1.042297,0.006 -1.998058,-0.23675 z m 1.73774,-34.28086 c -0.242477,-0.39263 -0.823146,-0.70857 -1.290443,-0.70267 -0.510487,0.007 -0.422527,0.28729 0.220404,0.70267 1.370409,0.88566 1.617353,0.88566 1.070007,0 z M 4.0106897,47.621858 c -1.7797988,-0.35554 -2.0254798,-2.63557 -0.5286,-4.90609 0.735693,-1.11585 1.360097,-1.70781 1.387545,-1.31544 0.0278,0.39262 0.351418,-0.0421 0.719938,-0.95896 0.36852,-0.91979 1.304911,-1.83831 2.080877,-2.04127 0.801662,-0.20979 2.25126,-2.02872 3.3571323,-4.2127 1.070461,-2.11415 2.199436,-3.84386 2.508828,-3.84386 0.309376,0 2.666565,-2.1144 5.238186,-4.69876 2.801564,-2.81538 5.075092,-4.54542 5.672165,-4.31634 0.64866,0.24939 0.860101,0.0253 0.605775,-0.63611 -0.218804,-0.57039 0.557751,-1.96662 1.764804,-3.1737 1.185533,-1.185516 2.00316,-2.15552 1.816963,-2.15552 -0.186198,0 0.480491,-0.759114 1.481546,-1.686814 1.001055,-0.927712 1.820098,-2.104718 1.820098,-2.615541 0,-0.510561 0.203722,-0.725409 0.452772,-0.476023 0.249051,0.249386 1.368682,-0.7405738 2.488162,-2.1994168 1.119488,-1.45874 2.372912,-3.053468 2.785395,-3.543903 0.4125,-0.490355 0.49658,-0.893253 0.186872,-0.895192 -0.309712,-0.0023 0.370118,-0.750685 1.510738,-1.662969 2.05222,-1.64216499 4.94808,-1.80805899 5.85813,-0.335326 0.5168,0.836627 -2.47919,4.142101 -3.75393,4.142101 -0.52759,0 -0.74732,0.458337 -0.51268,1.070005 0.2258,0.58893 0.0556,1.070015 -0.37905,1.070015 -0.43432,0 -0.7897,0.423788 -0.7897,0.94135 0,1.4078628 -3.541458,4.2143058 -4.738408,3.7549648 -0.573338,-0.219898 -0.864169,-0.111175 -0.646384,0.240959 0.662223,1.071521 -0.440978,3.016501 -1.483999,2.616294 -0.863671,-0.331108 -1.053678,-0.05051 -0.950518,1.390756 0.0497,0.69003 -4.533972,4.96593 -5.322602,4.96593 -0.422525,0 -0.768213,0.48107 -0.768213,1.07 0,1.17482 -3.293253,4.87636 -4.020596,4.51905 -0.24964,-0.12301 -0.629282,0.44738 -0.843654,1.26741 -0.214423,0.81979 -0.732323,1.2787 -1.151108,1.01988 -0.418735,-0.25866 -0.766444,-0.0505 -0.772763,0.46339 -0.0064,0.51394 -0.969284,2.02054 -2.140014,3.34878 -1.170747,1.32825 -2.128622,2.85304 -2.128622,3.38838 0,1.18695 -0.858743,1.25596 -1.957437,0.15755 -0.6126,-0.61251 -0.726678,-0.47433 -0.45766,0.55439 0.248882,0.95163 -0.396913,2.00049 -2.112286,3.43076 -1.5773743,1.31518 -2.3282413,2.46877 -2.0766883,3.19047 0.319906,0.91785 0.213328,0.96275 -0.567019,0.23844 -1.426673,-1.32369 -2.429866,-1.08003 -1.298002,0.3151 0.553792,0.68245 0.613864,0.98795 0.138337,0.70267 -0.501386,-0.30078 -0.933239,0.008 -1.070005,0.77259 -0.134135,0.74648 -0.717327,1.17954 -1.404463,1.04237 z"
       style="fill:#c19400;stroke-width:1"
       id="path9452" />
  </g>
</svg>
