<?xml version="1.0" encoding="UTF-8" standalone="no"?>
<!-- Created with Inkscape (http://www.inkscape.org/) -->

<svg
   width="159mm"
   height="112mm"
   viewBox="0 0 159 112"
   version="1.1"
   id="svg9300"
   xmlns="http://www.w3.org/2000/svg"
   xmlnsSvg="http://www.w3.org/2000/svg">
  <defs
     id="defs9297" />
  <g
     id="layer1">
    <path
       d="m 124.93236,110.39686 c -4.50349,-3.4789 -6.24547,-19.740426 -3.78731,-35.355459 0.75981,-4.82662 1.59602,-13.777806 1.85821,-19.89148 0.26217,-6.113809 0.77254,-12.958835 1.1342,-15.211212 0.36167,-2.252376 0.6288,-4.885078 0.59384,-5.850403 -0.0346,-0.966015 -0.24351,-8.073619 -0.46338,-15.79621 -0.21973,-7.722593 -0.80404,-14.9625917 -1.29852,-16.0887809 -0.7619,-1.73551034 -0.26245,-2.04770334 3.27653,-2.04770334 3.83878,0 4.27117,0.355173 5.36333,4.41160734 1.22375,4.5446935 0.70149,68.5095369 -0.5763,70.5770029 -1.10643,1.790238 -1.49681,19.736558 -0.5767,26.516348 0.67897,5.00366 0.46766,6.80343 -1.00513,8.56092 -1.78464,2.12979 -1.97903,2.13739 -4.51886,0.17551 z m -76.253079,-2.30047 c -0.809435,-1.76978 -1.90428,-7.80593 -2.432921,-13.413926 -0.528614,-5.607863 -1.298247,-10.741562 -1.710344,-11.408375 -0.411973,-0.666123 -0.228306,-1.212011 0.408242,-1.212011 0.701915,0 0.801419,-1.265907 0.252628,-3.217701 -0.795891,-2.830603 -0.88503,-23.109318 -0.100884,-23.109318 0.165701,0 0.440857,-1.31566 0.611256,-2.925271 0.170539,-1.60878 0.663497,-5.294563 1.095508,-8.190536 0.901753,-6.044573 1.0148,-8.338271 0.691966,-14.041077 -0.127138,-2.252514 0.132672,-5.938297 0.576846,-8.190674 0.444725,-2.252376 0.878533,-6.976867 0.963941,-10.498883 0.148841,-6.1317767 0.294642,-6.4145328 3.434941,-6.6627399 1.971765,-0.1561657 3.538106,0.4145985 3.927976,1.4307805 0.35669,0.9287013 1.412975,1.6897659 2.347426,1.6897659 0.934504,0 1.368319,0.5348326 0.964082,1.189898 -0.404237,0.6536845 -1.169993,0.9204095 -1.701579,0.5914955 -1.621803,-1.0019475 -1.995327,1.745184 -2.220117,16.330904 -0.118866,7.709188 -0.677589,15.870564 -1.241853,18.136484 -1.185613,4.76139 -1.098278,2.965486 -1.168753,24.011208 -0.03047,9.009784 0.204394,17.960971 0.521282,19.891618 0.316888,1.930649 0.874939,7.854159 1.239927,13.163508 0.660598,9.60902 0.650782,9.65325 -2.161805,9.65325 -1.945485,0 -3.283843,-1.00195 -4.297211,-3.21785 z m 37.134596,-4.88024 c -3.287945,-3.840014 -4.528031,-6.959594 -3.864703,-9.721926 1.264796,-5.266924 2.590502,-41.330657 1.615272,-43.94097 -1.249597,-3.344844 0.791192,-6.889526 4.502715,-7.820991 3.791721,-0.952195 6.958848,1.072429 7.670883,4.902078 0.854213,4.594583 1.650326,7.363411 3.388609,11.785936 1.289397,3.280305 1.256087,4.017185 -0.22362,4.940635 -1.343568,0.838871 -1.886684,0.3607 -2.388401,-2.100358 -0.575188,-2.82162 -0.73536,-2.918222 -1.401907,-0.845781 -2.779883,8.644798 -3.342326,18.052734 -1.437989,24.052946 0.580438,1.828933 0.977208,13.788032 0.647879,19.532851 -0.131267,2.28886 -6.369624,1.7134 -8.508764,-0.78497 z M 1.2883105,99.751762 C 0.04216419,97.341838 -0.21299271,95.384932 0.47804639,93.536098 1.0327788,92.051973 1.0971802,89.784532 0.62108279,88.49748 0.14498529,87.210842 0.15009879,85.367397 0.63282429,84.402073 1.1150035,83.436059 1.3742648,73.169212 1.2088404,61.585324 0.94460289,43.080123 1.1466501,40.310604 2.8774202,38.768573 5.8334684,36.134074 9.734151,34.088306 11.801313,34.088306 c 1.1606,0 1.515594,-0.54036 0.961317,-1.462704 -0.700949,-1.166404 -0.515485,-1.169168 0.916124,-0.01161 0.98716,0.798793 2.141333,1.105595 2.564791,0.682705 0.423444,-0.422891 0.76991,-0.199007 0.76991,0.497519 0,0.696526 -0.550726,1.451095 -1.223896,1.675531 -0.673169,0.223883 -1.44232,4.085595 -1.709308,8.580674 -0.267001,4.49494 -0.804736,11.33195 -1.194873,15.193246 -0.390138,3.861297 -0.860016,13.339024 -1.043959,21.061616 -0.272116,11.422196 -0.767146,14.804907 -2.653972,18.136347 -3.0200336,5.33229 -5.5970825,5.75933 -7.8986299,1.308749 z M 150.63714,100.54917 c -0.77226,-0.772532 -1.40411,-2.088606 -1.40411,-2.925129 0,-0.836107 -0.48011,-1.521162 -1.06704,-1.521162 -1.16903,0 -0.85739,-25.91933 0.50954,-42.382908 0.7073,-8.517931 1.21035,-10.320745 3.04258,-10.90215 3.15158,-1.000564 6.85519,0.458823 6.99706,2.757496 0.8368,13.556273 -1.36568,52.487923 -3.13113,55.344513 -0.903,1.4609 -3.29461,1.2811 -4.94702,-0.37038 z"
       style="fill:#c19400;stroke-width:0.999999"
       id="path10742" />
  </g>
</svg>
