<?xml version="1.0" encoding="UTF-8" standalone="no"?>
<!-- Created with Inkscape (http://www.inkscape.org/) -->

<svg
   width="198mm"
   height="84mm"
   viewBox="0 0 198 84"
   version="1.1"
   id="svg9176"
   xmlns="http://www.w3.org/2000/svg"
   xmlnSvg="http://www.w3.org/2000/svg">
  <defs
     id="defs9173" />
  <g
     id="layer1">
    <path
       d="m 116.81387,82.554556 c -0.54114,-0.875183 0.81237,-1.816443 1.75593,-1.221239 0.46185,0.291046 0.82357,0.773093 0.80438,1.070983 -0.0448,0.700811 -2.14396,0.824074 -2.56031,0.15032 z M 26.723778,80.605768 c -0.0054,-0.418978 -0.513651,-0.660449 -1.22687,-0.582731 -0.670232,0.07357 -2.193392,-0.302559 -3.384887,-0.835651 -1.191432,-0.532838 -2.846105,-0.981559 -3.676954,-0.997103 -0.947407,-0.01919 -1.257128,-0.184862 -0.830734,-0.448401 0.478471,-0.295523 0.284014,-0.574415 -0.65565,-0.94094 -0.734587,-0.286567 -1.88706,-1.043861 -2.561134,-1.683393 -0.674072,-0.639661 -1.482409,-1.004074 -1.79636,-0.810066 -0.337733,0.208529 -0.500852,-0.05117 -0.399143,-0.636461 0.118331,-0.680726 -0.164396,-0.993265 -0.904802,-1.002156 -0.752817,-0.0064 -1.181259,-0.501494 -1.4252209,-1.63753 -0.191904,-0.893605 -0.378041,-1.32013 -0.413221,-0.947783 -0.03841,0.372281 -0.246909,0.666653 -0.470151,0.654051 -0.596164,-0.03198 -2.843294,-3.708428 -2.843294,-4.650009 0,-0.443923 -0.19829,-0.684435 -0.44008,-0.534756 -0.241798,0.149681 -0.904864,-1.115565 -1.47314,-2.811369 -1.4535,-4.337214 -2.225184,-5.764999 -2.638474,-4.881629 -0.184222,0.393391 -0.232832,0.166951 -0.108734,-0.502773 0.124088,-0.669915 0.0044,-1.355055 -0.266743,-1.522583 -0.27121295,-0.16759 -0.34989495,-0.87224 -0.175909,-1.566143 0.173993,-0.693967 0.0761,-1.410386 -0.21812395,-1.592114 -0.294242,-0.181663 -0.415776,-0.786014 -0.269936,-1.342903 0.145846,-0.556503 0.01916,-1.895056 -0.276972,-2.973843 -0.298082,-1.078787 -0.35565,-2.076528 -0.127928,-2.217189 0.441366,-0.273135 0.710344,-2.382414 0.779294,-6.116302 0.02554,-1.265951 0.19126395,-2.301689 0.37292195,-2.301689 0.181666,0 0.36013,-0.792091 0.396588,-1.760152 0.09211,-2.451881 1.040538,-6.685279 1.821304,-8.131422 0.359492,-0.66595 0.686936,-1.820089 0.727678,-2.564781 0.0384,-0.744628 0.386998,-1.93171 0.76919,-2.63783 0.507256,-0.936783 0.519408,-1.175375 0.0448,-0.882411 -0.500213,0.308955 -0.506608,0.134328 -0.02554,-0.758189 0.341573,-0.637741 0.449677,-1.436101 0.241151,-1.773777 -0.244354,-0.39595 -0.135611,-0.463754 0.306394,-0.189979 0.398504,0.246269 0.875565,0.117057 1.138272,-0.308316 0.271861,-0.440087 0.193819,-0.896356 -0.195735,-1.144288 -0.438803,-0.278892 -0.342213,-0.414501 0.299359,-0.420257 0.610242,-0.0055 0.947788,-0.428572 0.947788,-1.18836 0,-2.941349 3.2683479,-10.0899336 5.5375379,-12.1117709 0.821513,-0.7318987 1.983131,-1.3308127 2.581407,-1.3308127 0.59808,0 1.08787,-0.2270796 1.08787,-0.5053318 0,-0.4791046 1.243306,-1.0292764 3.181026,-1.40674002 0.484228,-0.0946697 0.880817,-0.2104484 0.880817,-0.25778282 0,-0.43049105 3.459789,-0.4816637 4.554125,-0.0678056 0.771746,0.29168472 2.316337,0.6818135 3.432344,0.86654744 3.595657,0.5955228 6.305264,4.2435041 7.454092,10.0360094 0.383798,1.936124 0.903259,3.786403 1.153946,4.111671 0.25075,0.324947 0.337104,0.710342 0.191256,0.855609 -0.1452,0.145203 0.0902,1.46335 0.52324,2.928876 1.051288,3.555933 1.206016,6.570459 0.379965,7.396708 -0.538595,0.538593 -0.773484,0.514926 -1.164245,-0.117697 -0.269297,-0.435609 -0.658851,-0.623029 -0.86578,-0.41578 -0.47911,0.478466 -2.126936,-2.57188 -2.630865,-4.869348 -0.211728,-0.964671 -0.609594,-1.892945 -0.884515,-2.062839 -0.275055,-0.17015 -0.500222,-1.51318 -0.500222,-2.98491 0,-1.471794 -0.243706,-2.675953 -0.541788,-2.675953 -0.298082,0 -0.541788,-0.738807 -0.541788,-1.641752 0,-0.902944 -0.314076,-1.7623273 -0.698254,-1.9096399 C 30.509147,9.6546754 30.137698,8.7860816 30.068039,7.8721989 29.894053,5.591683 28.508607,3.0774354 27.379995,2.9948552 c -2.509322,-0.1835824 -4.121523,0.07036 -4.529368,0.7130934 -0.247547,0.3901927 -0.453518,0.4982949 -0.457998,0.2405121 -0.01277,-0.6332639 -2.787188,1.1931577 -3.799322,2.4996636 -0.447124,0.5769729 -1.342328,1.6057385 -1.99011,2.2865283 -1.417042,1.4895764 -4.51223,7.4909304 -4.864102,9.4312754 -0.138814,0.764522 -0.574422,2.126806 -0.968066,3.027319 -0.8006019,1.830834 -2.1559059,5.28308 -2.2374699,5.699179 -0.03194,0.149041 -0.200214,0.636461 -0.379956,1.0832 -0.459276,1.139426 -1.907853,8.401359 -2.323114,11.643923 -0.465032,3.630072 -0.294888,9.60552 0.36077,12.669428 0.293602,1.372134 0.617906,2.982222 0.721468,3.577937 0.512365,2.956189 1.52386,5.731418 2.745674,7.531869 0.7441859,1.096634 1.3530779,2.167552 1.3530779,2.379728 0,0.212366 0.820108,1.13853 1.82245,2.058489 1.00235,0.919895 1.916297,1.929726 2.03092,2.243928 0.1145,0.314073 1.420814,1.569086 2.902656,2.788597 3.000069,2.468961 6.768114,3.95489 9.28549,3.661799 1.695486,-0.197656 5.080054,-1.917254 5.080054,-2.581412 0,-0.202133 0.605123,-0.941899 1.344572,-1.643352 0.73951,-0.701514 1.345076,-1.519128 1.345644,-1.817018 5.15e-4,-0.298081 -0.225796,-0.182943 -0.503406,0.255864 -0.431768,0.683285 -0.555227,0.664352 -0.860858,-0.132409 -0.196373,-0.511088 -0.539872,-0.816399 -0.763238,-0.678168 -0.223881,0.138167 -0.294889,-0.334543 -0.158,-1.049937 0.198936,-1.039832 1.713838,-2.411839 1.97981,-1.79284 0.03202,0.08124 0.518769,0.689106 1.074759,1.350387 1.545931,1.837999 1.705394,5.01244 0.365888,7.282849 -1.152669,1.95365 -4.572097,4.057428 -7.075085,4.352951 -0.744629,0.08763 -1.532954,0.403625 -1.75184,0.70145 -0.24243,0.330065 -0.401068,0.261622 -0.406186,-0.173987 z m 84.781682,-3.659815 c -0.55266,-0.404265 -1.25034,-0.58273 -1.55034,-0.397869 -0.3096,0.191259 -0.37804,0.06652 -0.15928,-0.287846 0.22772,-0.367805 0.0448,-0.624949 -0.43881,-0.624949 -0.8215,0 -2.36961,-2.158788 -1.55942,-2.174588 0.23411,-0.0055 0.10938,-0.208529 -0.27634,-0.453519 -0.64612,-0.410021 -1.31802,-8.045643 -1.19257,-13.552924 0.0383,-1.582711 -0.10682,-1.790025 -1.06312,-1.540046 -0.60767,0.158635 -1.10476,0.09659 -1.10476,-0.138806 0,-0.542432 -1.67897,-0.992177 -2.57584,-0.690385 -0.37421,0.126013 -0.51045,0.513007 -0.30257,0.859575 0.2079,0.346696 -0.0321,0.296162 -0.53795,-0.11258 -0.776668,-0.630065 -1.055568,-0.630065 -1.830058,0 -0.7994,0.650215 -0.86976,0.625588 -0.56163,-0.196376 0.39531,-1.054416 -1.38774,-2.341859 -2.38728,-1.724075 -0.77417,0.478465 -1.48899,-0.713798 -1.16673,-1.946102 0.31663,-1.209533 1.62915,-1.46642 7.154908,-1.400152 3.82447,0.04478 4.37375,-0.06652 4.37368,-0.895332 -6e-5,-0.521323 0.30448,-0.951494 0.67683,-0.956036 0.42282,-0.0055 0.47206,-0.157356 0.13113,-0.406184 -0.3192,-0.232196 -0.6096,-4.226809 -0.69832,-9.604752 -0.0839,-5.06374 -0.24243,-12.74062 -0.35182,-17.059733 -0.20533,-8.076731 -5.1e-4,-10.504049 0.84167,-9.983494 0.2661,0.164393 0.48358,0.03839 0.48358,-0.274414 0,-0.80354 3.00173,-0.718594 3.65412,0.103626 0.29553,0.372281 0.68393,1.530002 0.86317,2.572521 0.46567,2.709791 0.59552,16.50681 0.16118,17.208709 -0.20021,0.323668 -0.17462,0.705481 0.0575,0.848317 0.23156,0.142644 0.36844,4.558538 0.30511,9.812578 -0.0856,7.067347 0.0512,9.599634 0.53604,9.733322 2.04187,0.566099 8.09547,1.474928 10.23438,1.536272 2.479,0.071 2.48597,0.07675 1.59863,1.283605 -1.27971,1.740451 -3.20303,2.703843 -3.93564,1.97124 -0.36717,-0.367164 -1.15964,-0.420896 -2.12565,-0.143922 -1.03548,0.296801 -1.62474,0.234755 -1.79802,-0.188701 -0.16759,-0.410662 -0.2725,-0.371003 -0.30064,0.11258 -0.0385,0.615353 -0.18999,0.62111 -0.89643,0.03198 -0.70336,-0.58401 -0.93102,-0.583371 -1.29339,0.0055 -0.24178,0.391472 -0.71219,0.543071 -1.0452,0.337101 -0.80565,-0.497656 -0.52644,14.175633 0.2968,15.611926 1.22285,2.132882 -0.36204,4.079752 -2.2166,2.723481 z m 47.64879,0.426653 c -0.15032,-0.15032 -1.3138,-0.377399 -2.58526,-0.504052 -1.27144,-0.126653 -2.69648,-0.578253 -3.16676,-1.002924 -1.1826,-1.068424 -1.92518,-0.968125 -2.87533,0.388275 -0.70631,1.008296 -1.14793,1.114991 -3.36096,0.811664 -2.72981,-0.374201 -4.01107,-1.111921 -4.01107,-2.309621 0,-0.410661 -0.18293,-0.717186 -0.40617,-0.681941 -1.22386,0.193178 -2.32223,-0.134329 -2.03092,-0.605758 0.18422,-0.298082 -0.0448,-0.541793 -0.50982,-0.541793 -0.46439,0 -0.79605,-0.182942 -0.73701,-0.406183 0.20661,-0.780961 -0.79106,-3.121478 -1.70072,-3.991159 -0.70267,-0.671771 -1.11166,-0.735225 -1.74673,-0.270576 -0.45607,0.333263 -0.81519,0.827528 -0.7981,1.09804 0.0511,0.847614 -2.56573,3.986426 -4.07726,4.885916 -1.28898,0.766952 -1.53442,0.771622 -2.26305,0.04478 -0.97088,-0.970876 -1.80916,-1.052242 -2.0922,-0.203413 -0.19573,0.587209 -0.69185,0.204052 -2.36387,-1.825589 -0.32046,-0.388914 -0.47206,-1.040792 -0.33582,-1.448126 0.14968,-0.449042 0.005,-0.591046 -0.36845,-0.360129 -0.33965,0.209808 -0.7354,0 -0.88266,-0.466312 -0.14648,-0.465672 -0.4209,-1.273243 -0.60895,-1.794503 -0.76145,-2.11011 -0.6753,-3.988791 0.284,-6.200864 0.96857,-2.232668 3.8118,-5.494103 3.88312,-4.454271 0.0192,0.275053 0.25715,-0.05117 0.529,-0.731964 0.6128,-1.526485 4.7379,-3.37088 7.53879,-3.37088 1.13039,0 2.90712,0.35565 3.94817,0.790811 1.04111,0.434969 2.03379,0.649959 2.20612,0.477826 0.77776,-0.777826 1.02339,2.807148 0.28145,4.109688 -0.7209,1.265823 -0.67459,1.683905 0.51365,4.630499 0.71827,1.781517 1.38979,3.674527 1.49232,4.206659 0.10234,0.532198 0.56865,1.34994 1.03612,1.817403 0.4676,0.467591 1.4826,1.679363 2.2559,2.693225 0.77327,1.013797 1.62261,1.709491 1.88731,1.545866 0.82478,-0.509808 0.53028,-1.17755 -0.65629,-1.487849 -0.65699,-0.17207 -0.98053,-0.552028 -0.76574,-0.899363 0.20469,-0.331343 -0.0128,-1.18772 -0.48102,-1.903691 -0.53539,-0.816782 -0.65021,-1.427273 -0.30896,-1.638425 0.29936,-0.184862 0.41066,-0.552667 0.24755,-0.816719 -0.40426,-0.654499 1.0399,-3.993972 2.26261,-5.23114 0.54755,-0.553945 1.36081,-1.563456 1.80762,-2.24367 0.44712,-0.680215 1.17793,-1.293713 1.62473,-1.363371 0.44712,-0.06972 1.52533,-0.599363 2.39667,-1.177807 2.06252,-1.368296 7.57761,-1.937466 9.01544,-0.930385 2.09143,1.464885 0.7326,3.919452 -2.16967,3.919452 -0.61535,0 -1.11877,0.204692 -1.11877,0.454799 0,0.250107 -0.9621,0.772454 -2.13806,1.160535 -1.17594,0.388273 -2.26497,1.036376 -2.42009,1.440578 -0.15543,0.404265 -0.71623,0.738807 -1.24681,0.743348 -0.82101,0.0064 -0.84371,0.08635 -0.15225,0.533478 0.44648,0.288486 0.54691,0.528998 0.22261,0.533475 -0.74994,0.0128 -1.84709,2.387148 -1.84709,4.001203 0,4.063823 8.16904,5.91193 13.32688,3.014974 1.01053,-0.567379 1.83735,-0.876592 1.83735,-0.686549 0,0.189979 0.46184,-0.07293 1.02697,-0.584009 0.7983,-0.722495 1.09062,-0.771367 1.31271,-0.219403 0.22836,0.566738 0.39595,0.551387 0.83285,-0.07675 0.30063,-0.432411 0.42857,-0.978104 0.284,-1.212348 -0.14456,-0.234116 0.11514,-0.280811 0.57762,-0.102986 0.46247,0.177187 0.84051,0.520045 0.84051,0.7619 0,0.241791 0.13561,0.792858 0.30128,1.224949 0.17334,0.451601 -0.48743,1.622242 -1.55572,2.754696 -1.74678,1.852199 -3.55625,2.555826 -6.57365,2.556209 -0.5821,6.4e-5 -1.31316,0.199575 -1.62474,0.443925 -0.71827,0.562261 -3.43088,1.06433 -3.79326,0.701963 z M 130.5942,67.366148 c 0.82522,-0.994287 2.17165,-6.344851 1.87861,-7.465407 -0.19254,-0.736378 -0.55074,-0.607038 -2.08651,0.752495 -1.01974,0.902817 -1.85405,2.100068 -1.85405,2.660538 0,0.560342 -0.26418,1.513244 -0.58784,2.117147 -0.32303,0.603838 -0.43881,1.689918 -0.25779,2.413438 0.26867,1.070918 0.51237,1.21804 1.30919,0.791451 0.53859,-0.288487 1.25751,-0.859512 1.59788,-1.269662 z m -73.789705,8.861146 c -0.166951,-0.269936 -0.754094,-0.372921 -1.30516,-0.228998 -0.551387,0.143924 -1.345016,-0.08124 -1.764445,-0.500214 -0.419616,-0.419617 -1.064967,-0.661792 -1.434687,-0.538593 -0.369728,0.123453 -0.672094,-0.05117 -0.672094,-0.394671 0,-0.3403 -0.20277,-0.493178 -0.450965,-0.3403 -0.718656,0.443926 -4.453499,-3.95444 -5.232483,-6.162292 -0.409379,-1.159767 -0.518122,-2.322989 -0.257136,-2.745356 0.248825,-0.402986 0.335817,-0.92239 0.192533,-1.154011 -0.495733,-0.80239 1.365355,-5.19583 2.875981,-6.78852 0.83469,-0.880044 2.265482,-1.895121 3.179554,-2.255697 1.500709,-0.592325 2.29676,-0.573775 5.920119,0.137527 0.595526,0.117058 2.17983,0.393391 3.520241,0.614074 2.961501,0.488061 6.297512,2.758214 6.760442,4.600114 0.747565,2.974419 0.904536,6.498947 0.289762,6.498947 -0.338381,0 -0.483581,0.212366 -0.323665,0.471429 0.160555,0.259702 -0.183582,1.019554 -0.76433,1.689086 -0.580818,0.669532 -1.20244,1.679364 -1.381667,2.244119 -0.179103,0.564819 -0.515568,0.909596 -0.746864,0.766441 -0.231563,-0.143284 -0.943504,0.340939 -1.58214,1.075332 -0.638378,0.734521 -1.420875,1.335483 -1.738339,1.335483 -0.317269,0 -0.447762,0.209168 -0.289123,0.465672 0.157991,0.255864 -0.314075,0.399788 -1.048858,0.31855 -0.735093,-0.0806 -1.467249,0.06461 -1.62697,0.323029 -0.159917,0.258422 -0.688213,0.317271 -1.174357,0.131131 -0.591046,-0.226441 -0.754032,-0.129212 -0.492531,0.294242 0.21556,0.348616 0.269936,0.633904 0.120895,0.633904 -0.149041,0 -0.407463,-0.220683 -0.574414,-0.49062 z m 3.45813,-6.518903 c 2.148614,-2.160004 2.734994,-3.157298 3.035826,-5.163336 0.349256,-2.330985 0.258423,-2.597594 -1.46316,-4.269346 -1.009766,-0.980727 -2.13538,-1.683329 -2.50133,-1.561282 -0.365878,0.122175 -0.665371,-0.04478 -0.665371,-0.37548 0,-0.3774 -0.534754,-0.462475 -1.453243,-0.232197 -1.918471,0.481664 -4.017065,1.587124 -3.670435,1.933756 0.151604,0.151599 -0.09594,0.58401 -0.549462,0.960705 -0.454166,0.37676 -0.825482,0.940748 -0.825482,1.253095 0,0.312153 -0.344138,0.952837 -0.764401,1.423051 -0.420255,0.47015 -0.836544,1.719789 -0.924752,2.776828 -0.129215,1.548872 0.193819,2.310772 1.663757,3.926425 2.699557,2.96668 4.659985,2.804206 8.118372,-0.672346 z m 15.4657,3.760178 c -0.184221,-0.298081 -0.937232,-0.541792 -1.673673,-0.541792 -0.780962,0 -1.484716,-0.39531 -1.6887,-0.947784 -0.192542,-0.521324 -0.523241,-1.069575 -0.735927,-1.218553 -0.212367,-0.14904 -0.527081,-3.134398 -0.699026,-6.634298 -0.308957,-6.291311 -0.299359,-6.364297 0.888365,-6.427687 1.54075,-0.08252 1.397528,-0.09531 3.773545,0.347335 1.536528,0.286568 2.032456,0.198935 2.037184,-0.358849 0.0062,-0.771302 2.994566,-2.36009 5.544953,-2.948321 0.819154,-0.1887 1.489325,-0.524521 1.489325,-0.74546 0,-0.572495 5.100261,0.307676 6.598351,1.138915 0.69,0.382516 1.42336,0.704714 1.62972,0.715268 0.90212,0.04478 2.6212,2.559791 3.04586,4.453505 0.82114,3.662245 -0.0575,8.451507 -1.79807,9.822171 -0.72352,0.569298 -1.16124,1.188936 -0.97274,1.37738 0.18871,0.188699 -0.0639,0.342858 -0.55969,0.342858 -0.49639,0 -0.9064,-0.304479 -0.91094,-0.677016 -0.006,-0.450961 -0.18294,-0.406185 -0.53348,0.135607 -0.42218,0.653604 -0.52645,0.568019 -0.53348,-0.438166 -0.006,-0.823819 0.22261,-1.133478 0.66871,-0.907614 0.37227,0.188699 0.22579,-0.02558 -0.32496,-0.473348 -0.59871,-0.487422 -0.83373,-1.08883 -0.584,-1.492519 0.73925,-1.196165 0.70375,-6.097431 -0.0575,-7.918991 -0.46695,-1.116782 -1.11736,-1.767062 -1.76833,-1.767062 -1.504167,0 -4.441102,1.109492 -4.441102,1.677702 0,0.268656 -0.372916,0.4887 -0.829326,0.4887 -0.456072,0 -0.991019,0.420896 -1.188546,0.936015 -0.197651,0.514925 -1.037273,1.506527 -1.86602,2.203884 -0.828739,0.697357 -1.460659,1.433797 -1.404305,1.636505 0.05756,0.202773 -0.16311,0.855994 -0.48806,1.451709 -0.472706,0.866868 -0.846839,3.012991 -1.251047,7.175962 -0.0384,0.374202 -1.075584,0.06525 -1.367076,-0.406184 z M 185.6267,73.276671 c -1.8032,-1.005226 -2.93655,-2.35702 -2.93655,-3.502523 0,-0.585289 -0.31407,-1.184266 -0.69754,-1.33158 -0.38509,-0.147761 -0.64739,-0.961408 -0.58529,-1.817977 0.15799,-2.186295 0.15352,-2.179514 0.80092,-1.27964 0.4823,0.670172 0.52644,0.634542 0.25266,-0.205332 -0.18229,-0.559702 -0.59808,-2.075376 -0.92367,-3.368449 -0.78551,-3.119686 -1.53448,-3.694164 -3.49183,-2.678704 -0.84775,0.440086 -2.03822,0.684628 -2.64545,0.543712 -0.60704,-0.140726 -1.68691,-0.335182 -2.39917,-0.433051 -0.71233,-0.09723 -1.61392,-0.612794 -2.00355,-1.145887 -0.96204,-1.315588 -0.31918,-1.865697 4.46848,-3.824783 l 3.87775,-1.586741 -0.79274,-1.532945 c -0.43624,-0.843199 -0.74219,-1.946294 -0.68046,-2.451433 0.0639,-0.505331 -0.0256,-1.28399 -0.19638,-1.730792 -0.30704,-0.807316 -0.94573,-4.450691 -1.23436,-7.040547 -0.28017,-2.511689 -2.9496,-12.54514 -3.5354,-13.287081 -0.47846,-0.606398 -0.3825,-2.178491 0.16631,-2.727575 0.18743,-0.18742 1.29334,-0.179104 2.45815,0.01919 2.0459,0.345417 2.17594,0.498935 3.82722,4.521821 0.94017,2.290174 1.92922,5.260692 2.19781,6.6011 0.26865,1.340407 0.7791,3.777512 1.13444,5.415809 0.82151,3.788195 0.95135,4.526363 1.40526,7.988266 l 0.37293,2.843289 h 2.50068 c 1.37533,0 3.32239,0.236035 4.32686,0.523882 1.00439,0.287846 2.77708,0.579533 3.93934,0.648423 1.70354,0.100427 2.17402,0.367166 2.42712,1.375717 0.4804,1.914311 -1.04762,3.860796 -2.89209,3.684122 -0.83417,-0.07996 -1.96779,-0.331983 -2.5191,-0.559702 -0.62623,-0.258423 -1.16253,-0.155438 -1.42881,0.275693 -0.26482,0.428573 -0.70575,0.514927 -1.16392,0.228359 -0.40555,-0.253946 -1.28585,-0.537315 -1.95609,-0.629426 -1.57504,-0.216844 -1.55527,0.432411 0.17334,5.670777 3.42608,10.383922 3.57641,12.48706 0.78583,10.993582 -0.73824,-0.395309 -1.09432,-0.402986 -1.09432,-0.02559 0,0.686482 -0.47144,0.644393 -1.93766,-0.172709 z m -6.18601,-13.921048 c 0,-0.315354 0.2437,-0.422816 0.54178,-0.238594 0.29808,0.184222 0.5418,0.442005 0.5418,0.573775 0,0.13113 -0.24372,0.238593 -0.5418,0.238593 -0.29808,0 -0.54178,-0.257783 -0.54178,-0.573774 z"
       style="fill:#c19400;stroke-width:1"
       id="path10786" />
  </g>
</svg>
