<?xml version="1.0" encoding="UTF-8" standalone="no"?>
<!-- Created with Inkscape (http://www.inkscape.org/) -->

<svg
   width="142mm"
   height="117mm"
   viewBox="0 0 142 117"
   version="1.1"
   id="svg10436"
   xmlns="http://www.w3.org/2000/svg"
   xmlnsSvg="http://www.w3.org/2000/svg">
  <defs
     id="defs10433" />
  <g
     id="layer1">
    <path
       d="m 92.556472,115.82481 c -2.14898,-0.62305 -3.64719,-0.77829 -3.32936,-0.34448 0.31789,0.43379 0.12806,0.78892 -0.42163,0.78892 -1.79797,0 -3.5666,-2.55796 -3.21042,-4.64319 0.47066,-2.7554 3.49261,-3.15178 21.693018,-2.84536 22.81374,0.38384 26.45916,0.63157 26.93353,1.82975 0.33076,0.83571 0.8971,0.84847 2.40432,0.0531 2.2148,-1.1667 5.34662,0.32535 5.34662,2.54701 0,1.79529 -4.63703,2.56231 -15.63397,2.58634 -5.46998,0.0106 -9.50687,0.37533 -9.17895,0.82721 0.33781,0.46569 -0.72277,0.50397 -2.50868,0.0851 -3.34563,-0.77511 -3.42116,-0.77617 -12.24144,-0.168 -3.344588,0.23072 -7.655128,-0.0851 -9.853028,-0.723 z M 27.246957,105.67103 c -1.17389,-0.22646 -2.47461,-0.86868 -2.8904,-1.42624 -0.5545,-0.74321 -1.09588,-0.72726 -2.03113,0.0638 -0.82839,0.69855 -1.90599,0.79105 -3.07594,0.26262 -0.99049,-0.44656 -2.717789,-0.81125 -3.838554,-0.80807 -8.6160657,0.0213 -12.4063347,-0.41785 -13.7898357,-1.58434 -1.64221599,-1.38508 -2.19983199,-4.801299 -0.78767999,-4.825529 2.89269799,-0.0531 3.47365899,-1.55628 1.85807599,-4.8179 -0.912595,-1.84217 -1.402006,-3.70051 -1.087677,-4.12953 0.314366,-0.42955 0.619027,-2.53786 0.677261,-4.68658 0.191091,-7.05985 4.077799,-15.12679 9.3356547,-19.37637 2.605118,-2.10556 5.146606,-3.61451 5.647776,-3.35316 0.501169,0.26155 0.911209,0 0.911209,-0.58054 0,-0.65922 1.19356,-0.90801 3.17559,-0.6624 1.74658,0.21584 3.33686,-0.0106 3.53394,-0.51355 0.21819,-0.55183 2.11511,-0.31366 4.85011,0.60924 2.47048,0.83359 5.84398,1.51608 7.49668,1.51608 3.0802,0 12.96013,5.69624 12.96013,7.47207 0,0.51143 0.29734,0.67942 0.66062,0.37321 1.53204,-1.29238 6.26843,5.00458 5.3247,7.07909 -0.3203,0.70386 -0.17408,1.28004 0.3247,1.28004 1.11919,0 3.57001,7.89821 2.78372,8.97145 -0.3131,0.42742 -0.0845,0.91334 0.50887,1.08026 0.59306,0.16693 1.34838,2.93573 1.67855,6.15333 0.33013,3.21759 1.02327,6.2137 1.54033,6.658029 1.28087,1.10089 -2.92511,3.75666 -7.19487,4.54314 -4.1287,0.76023 -25.55023,1.28898 -28.57181,0.70495 z m 25.57588,-15.980589 c -2.94012,-9.95665 -5.63441,-16.62713 -6.72109,-16.64 -0.39163,-0.009 -3.3535,-1.30089 -6.58182,-2.88044 -3.22832,-1.57956 -6.56952,-2.97018 -7.42487,-3.09011 -0.85537,-0.12015 -2.65134,-0.71238 -3.99105,-1.31758 -1.93735,-0.87505 -3.31489,-0.85485 -6.731,0.0957 -2.36234,0.65816 -4.718286,1.63538 -5.235465,2.17264 -2.021498,2.10013 -6.6425167,9.7085 -6.1492987,10.12456 0.2870127,0.24241 0.1172247,1.63111 -0.378021,3.0867 -0.494869,1.45558 -1.198853,4.76716 -1.56442,7.35904 -0.365542,2.59177 -0.92104,5.45169 -1.234398,6.35533 -0.516549,1.4893 0.112184,1.62497 6.7312307,1.45177 7.496102,-0.1967 15.002452,0.5667 19.392032,1.97125 1.36736,0.43699 4.96921,0.59648 8.00411,0.353 3.03491,-0.24349 7.19888,-0.10633 9.25327,0.30621 2.05438,0.41148 4.08337,0.4976 4.50884,0.19033 0.42541,-0.30729 -0.41962,-4.59928 -1.87808,-9.53817 z m -43.7185387,4.07341 c 0.362769,-0.49547 1.1398607,-0.90057 1.7267957,-0.90057 0.58701,0 0.770411,0.4051 0.407642,0.90057 -0.362769,0.49548 -1.139861,0.90057 -1.7267947,0.90057 -0.58701,0 -0.770412,-0.40509 -0.407643,-0.90057 z M 122.98536,87.447431 c -3.07677,-0.9144 -5.31769,-1.28452 -4.97985,-0.82296 0.33781,0.46144 0.10588,0.83784 -0.51592,0.83784 -0.62155,0 -1.13016,-0.45507 -1.13016,-1.01009 0,-0.6709 -0.44773,-0.71875 -1.33401,-0.14247 -0.73373,0.4774 -4.2155,0.74108 -7.73731,0.58478 -3.5218,-0.15523 -8.013458,0.1563 -9.981448,0.69324 -4.44858,1.21306 -6.68802,-0.2775 -5.83986,-3.88765 0.45858,-1.95158 1.31,-2.51255 4.45878,-2.93775 5.740038,-0.7751 25.123568,-0.70387 34.307638,0.12546 7.69389,0.69537 8.0172,0.81871 8.34181,3.19878 0.18579,1.36159 -0.17445,2.52627 -0.80042,2.58815 -2.16268,0.21371 -2.74419,0.36788 -4.07293,1.07963 -0.73373,0.3934 -1.33403,0.4742 -1.33403,0.17968 0,-0.29451 -0.85234,-0.14992 -1.89406,0.32004 -1.31507,0.59329 -3.60415,0.34662 -7.48818,-0.807 z M 96.720372,49.114751 c -4.05132,-0.65921 -7.74005,-1.0037 -8.19717,-0.76553 -0.45719,0.23816 -1.13331,0.0213 -1.50271,-0.48378 -0.60919,-0.83146 2.85568,-2.48948 6.92738,-3.31467 2.07813,-0.42104 7.836468,-0.55714 13.873798,-0.32748 2.64135,0.0957 7.0296,-0.1967 9.75168,-0.65921 5.99656,-1.020716 17.84866,0.17756 20.03987,2.02623 1.35334,1.1416 1.30516,1.5332 -0.38206,3.10574 -1.40153,1.3063 -2.42814,1.57488 -3.74616,0.98031 -0.99856,-0.45082 -3.0461,-0.95905 -4.5501,-1.12842 -1.50404,-0.17012 -3.50807,-0.8506 -4.45342,-1.51226 -1.61269,-1.12895 -2.21771,-0.72407 -1.78503,1.19509 0.1021,0.45507 -0.56091,0.30409 -1.47444,-0.33492 -0.92785,-0.64964 -1.66104,-0.76022 -1.66104,-0.24986 0,2.29448 -12.73648,3.11403 -22.840648,1.46961 z m -76.456175,-3.80067 c -3.511195,-1.30471 -9.893535,-7.10004 -12.0748367,-10.9643 -4.327628,-7.666534 -1.814841,-21.680644 4.7114707,-26.2765248 1.976347,-1.391681 3.186531,-2.530418 2.689331,-2.530418 -0.497263,0 0.435248,-0.888873 2.072235,-1.974765 4.08836,-2.71255304 12.02394,-4.35069604 15.45423,-3.18995104 1.46742,0.496536 4.15156,0.84102804 5.96477,0.76447404 3.91999,-0.16374004 7.43325,1.974978 11.62603,7.078346 l 3.05191,3.7148728 -2.27412,1.918203 -2.27408,1.918201 -3.22774,-3.089367 c -1.77525,-1.699066 -3.2354,-3.3741028 -3.24479,-3.7222108 -0.0227,-0.846343 -7.27614,-2.506495 -10.97564,-2.512768 -3.41477,-0.009 -12.46736,3.7603818 -15.231723,6.3370508 -1.038392,0.967554 -1.594809,1.759778 -1.236414,1.759778 0.358483,0 -0.04034,1.653559 -0.885243,3.674577 -0.845284,2.021018 -1.617838,5.601817 -1.716674,7.957225 -0.150628,3.590155 0.407516,4.952812 3.45194,8.427712 1.997404,2.27981 4.832254,4.521665 6.299674,4.981837 3.07758,0.965427 9.05349,0.93034 10.22747,-0.06379 0.44029,-0.371072 1.58626,-0.675161 2.54673,-0.675161 0.96049,0 3.76192,-1.25027 6.22542,-2.778474 2.46351,-1.528203 4.4791,-2.478957 4.4791,-2.112882 0,0.365757 1.00864,-0.307278 2.24149,-1.497475 2.14364,-2.068757 2.3758,-5.566517 0.77129,-11.621807 -0.60276,-2.274814 4.36832,-2.156262 6.75374,0.161613 1.74648,1.696621 2.01389,2.781558 1.40411,5.696658 -0.41432,1.980508 -0.85121,4.208539 -0.97096,4.951217 -0.66869,4.14687 -2.13019,5.371943 -10.62391,8.904895 -10.89759,4.532834 -20.81288,6.403184 -25.23481,4.760044 z M 99.284642,13.007355 c -2.72492,-2.053766 -3.31222,-3.0536408 -2.71927,-4.6294778 0.58537,-1.555742 1.27062,-1.87227 3.0319,-1.40072 2.111788,0.565647 25.577418,0.882494 27.967858,0.378515 2.48235,-0.52418 6.66919,0.07442 8.52331,1.21816 1.93723,1.194876 1.93022,1.298862 -0.24453,3.6310918 -1.23138,1.320445 -2.52741,2.007089 -2.88002,1.525864 -0.35269,-0.481651 -1.71159,-0.611367 -3.01993,-0.289204 -1.30834,0.322164 -7.66151,0.600734 -14.11816,0.619873 -6.45665,0.02126 -12.03776,0.379579 -12.40247,0.800624 -0.36466,0.421045 -2.22713,-0.412539 -4.138668,-1.853556 z"
       style="fill:#c19400;stroke-width:0.999998"
       id="path10565" />
  </g>
</svg>
