<?xml version="1.0" encoding="UTF-8" standalone="no"?>
<!-- Created with Inkscape (http://www.inkscape.org/) -->

<svg
   width="180.39301mm"
   height="27.891001mm"
   viewBox="0 0 180.39301 27.891001"
   version="1.1"
   id="svg5"
   xmlSpace="preserve"
   xmlns="http://www.w3.org/2000/svg"
   xmlnsSvg="http://www.w3.org/2000/svg"><defs
     id="defs2" /><g
     id="layer1"><path
       id="path332"
       style="fill:#c1bc01;stroke:#8b8715;stroke-width:0.600001;stroke-dasharray:none;stroke-opacity:1;fill-opacity:1"
       d="m 62.45591,0.30202673 c -0.07751,0.008 -0.162488,0.029 -0.253555,0.065 -0.300578,0.11918 -0.341345,0.28776 -0.2233,0.91400997 0.127169,0.67464 0.441476,3.39689 0.568935,4.9295 0.02447,0.29331 0.16538,0.66261 0.314102,0.82159 0.188283,0.20132 0.205665,0.3697 0.05798,0.55338 -0.116562,0.14513 -0.149023,0.32921 -0.07196,0.40883 0.07715,0.0796 0.161921,0.31019 0.187969,0.51301 0.100289,0.7806698 0.316658,1.6245103 0.514681,2.0064303 0.113548,0.21895 0.150819,0.49185 0.08197,0.60674 -0.06883,0.11491 -0.04135,0.20963 0.06184,0.20963 0.179303,0 0.288355,0.71163 0.30276,1.97259 0.0036,0.32265 0.06533,0.58722 0.136234,0.58722 0.07088,0 0.117887,0.40756 0.104749,0.90622 -0.02363,0.90201 -0.02784,0.90667 -0.778325,0.88148 -0.415163,-0.0126 -0.755627,0.0557 -0.755627,0.1537 0,0.0979 -0.129387,0.12698 -0.288885,0.0637 -0.450312,-0.17839 -1.902972,0.68532 -2.543146,1.51296 -0.422829,0.54663 -0.637136,1.15053 -0.798515,2.25252 -0.121251,0.82794 -0.144563,1.55401 -0.05171,1.61322 0.09282,0.0592 0.169044,0.447 0.169044,0.86195 0,0.85891 0.461185,1.80839 1.299334,2.677 0.527397,0.54657 0.811834,0.68958 1.232469,0.62104 0.08522,-0.0126 0.155159,0.0872 0.155159,0.22401 0,0.13706 0.06147,0.18644 0.136234,0.10933 0.07473,-0.0774 0.252145,-0.0419 0.393586,0.0793 0.141429,0.12119 0.671623,0.27324 1.178215,0.33723 0.833254,0.10534 0.962847,0.058 1.361146,-0.48956 0.914884,-1.25765 0.900491,-1.25224 1.203456,-0.47265 0.357653,0.92036 1.173948,1.36242 1.636145,0.88538 0.251578,-0.25966 0.265416,-0.36997 0.06184,-0.49998 -0.143382,-0.0914 -0.287801,-0.43672 -0.320419,-0.7682 -0.03255,-0.33145 -0.190645,-1.27496 -0.351952,-2.09628 -0.161306,-0.82129 -0.340633,-1.85466 -0.397359,-2.29679 -0.05677,-0.44208 -0.221612,-0.95187 -0.367091,-1.13277 -0.16027,-0.1993 -0.256942,-0.87171 -0.244732,-1.70566 0.01085,-0.7571 -0.05617,-1.32816 -0.150132,-1.2682 -0.210378,0.13431 -0.64966,-1.68124 -0.618127,-2.55587 0.01266,-0.35198 -0.07944,-1.0611 -0.205605,-1.57547 -0.126132,-0.51435 -0.26491,-1.1865 -0.309063,-1.49345 -0.04412,-0.30693 -0.142985,-0.7977705 -0.218238,-1.0911005 -0.07522,-0.29331 -0.206303,-0.8771198 -0.291404,-1.2968098 -0.0851,-0.41969 -0.208956,-0.85505 -0.276265,-0.96742 -0.06726,-0.11238 -0.187041,-0.77664 -0.26491,-1.47651 -0.07787,-0.69984 -0.168876,-1.32125 -0.203097,-1.38146 -0.03423,-0.0602 -0.12136,-0.70151 -0.192996,-1.42443 C 63.228088,0.96547673 62.998412,0.25350673 62.455911,0.30175673 Z m 37.172093,0.24616 c -0.69589,0.0101 -1.44773,0.14362 -1.92502,0.39843 -0.34977,0.18568997 -0.69445,0.27928997 -0.76573,0.20559997 -0.0712,-0.0736 -0.12987,-0.0202 -0.12987,0.1159 0,0.13706 -0.0988,0.24868 -0.22067,0.24868 -0.48182,0 -2.29049,2.05485 -2.80176,3.18348 -0.29628,0.65406 -0.6557,1.33294 -0.7985,1.50906 -0.29724,0.36617 -0.65911,1.49918 -0.79728,2.4947 -0.0519,0.37413 -0.15616,0.7812498 -0.23085,0.9062198 -0.32359,0.5402605 -0.50832,4.5742405 -0.2548,5.5596805 0.0755,0.29331 0.19697,0.81673 0.26996,1.16403 0.073,0.34735 0.30292,0.97136 0.51089,1.38666 0.20791,0.4153 0.4311,1.07914 0.49701,1.47391 0.0659,0.39477 0.2556,1.05251 0.42135,1.46217 0.16526,0.40966 0.2507,0.83006 0.18796,0.93487 -0.0627,0.1051 -0.0219,0.19149 0.0908,0.19149 0.11259,0 0.26567,0.1993 0.34061,0.44269 0.075,0.24364 0.187,0.39028 0.24851,0.32679 0.0616,-0.0635 0.29569,0.12648 0.52101,0.42188 0.22519,0.29545 0.46,0.48479 0.52225,0.42055 0.0622,-0.0643 0.2143,0.0895 0.33806,0.34112 0.12382,0.25171 0.40811,0.56395 0.63074,0.69269 0.22254,0.12875 0.53625,0.35852 0.69761,0.51171 0.18162,0.17234 0.63723,0.24691 1.19715,0.19527 0.49718,-0.0459 0.90324,0.007 0.90324,0.11987 0,0.11285 0.23532,0.15697 0.52225,0.10026 0.2869,-0.0567 0.569137,-0.0226 0.628217,0.0769 0.13401,0.2235 1.96178,-0.007 2.31227,-0.29166 v -0.001 c 0.14207,-0.11539 0.25862,-0.37364 0.25862,-0.5742 0,-0.29877 -0.19652,-0.3604 -1.08613,-0.35284 -0.59678,0.005 -1.59627,-0.069 -2.221487,-0.16528 -0.62517,-0.0965 -1.43147,-0.18671 -1.79256,-0.1993 -0.36116,-0.0126 -0.6249,-0.0764 -0.58658,-0.14059 0.13085,-0.21846 -0.40883,-0.79178 -1.08237,-1.15101 -0.42517,-0.22677 -0.67236,-0.51853 -0.67236,-0.79422 0,-0.33808 -0.0915,-0.40429 -0.41126,-0.29948 -0.31739,0.10401 -0.38403,0.0574 -0.28761,-0.20182 0.0688,-0.18519 0.0193,-0.46922 -0.11101,-0.63149 -0.13037,-0.16226 -0.22274,-0.37755 -0.20564,-0.47783 0.0745,-0.42894 -0.03,-0.94594 -0.17281,-0.85675 -0.25583,0.16 -0.60913,-0.37796 -0.54372,-0.8268 0.0335,-0.23028 -0.12018,-0.94575 -0.34061,-1.59107 -0.2205,-0.64532 -0.42745,-1.41366 -0.46041,-1.70697 -0.0329,-0.29334 -0.12267,-0.637 -0.19932,-0.76299 -0.0776,-0.12598 -0.10741,-0.50943 -0.0681,-0.85283 0.0393,-0.34344 0.14769,-1.24901 0.24094,-2.01167 0.0933,-0.76262 0.17569,-1.48147 0.18546,-1.5988805 0.008,-0.11745 0.12945,-0.42337 0.26615,-0.67966 0.13675,-0.2562698 0.24853,-0.6030198 0.24853,-0.7708198 0,-0.16781 0.19207,-0.55801 0.42764,-0.86714 0.2356,-0.30916 0.35811,-0.56248 0.2712,-0.56248 -0.0868,0 0.005,-0.12346 0.20564,-0.27473 0.20035,-0.15118 0.3388,-0.36759 0.3078,-0.48046 -0.12183,-0.44338 0.88112,-2.00074 1.57181,-2.44131 0.40141,-0.25604 0.72914,-0.54192 0.72914,-0.63539 0,-0.0935 0.30292,-0.28628 0.67236,-0.42838 0.36945,-0.14186 0.931,-0.40143 1.24888,-0.57679 0.4841,-0.26708 0.63345,-0.27222 0.91835,-0.0338 0.243127,0.20333 0.296517,0.20761 0.185527,0.0176 -0.0855,-0.14664 -0.0574,-0.26562 0.0629,-0.26562 0.1203,0 0.21945,0.089 0.21945,0.19804 0,0.1091 0.18943,0.22929 0.42134,0.26691 0.2319,0.0375 0.39375,0.1358 0.3608,0.2187 -0.0876,0.22071 0.70999,0.7945 1.11514,0.80206 0.38077,0.007 0.73683,-0.81811 0.44529,-1.03253 -0.0998,-0.0733 -0.29611,-0.40246 -0.43647,-0.73174 -0.14037,-0.32936 -0.33297,-0.5495 -0.42891,-0.48827 -0.0959,0.0612 -0.35818,-0.064 -0.58154,-0.27861997 -0.25436,-0.24465 -0.89357,-0.3599 -1.589457,-0.35025 z m -93.1276479,0.3919 c -0.250519,-0.0176 -0.447884,0.26384997 -0.432688,0.70570997 0.08085,2.34433 0.148859,3.21662 0.266174,3.41264 0.07629,0.12749 0.187356,0.94351 0.247249,1.81242 0.11708,1.698 0.227732,2.4253798 0.415029,2.7381898 0.06498,0.10861 0.123618,0.9481505 0.131185,1.8658105 0.0076,0.91761 0.147029,2.33105 0.310325,3.14053 0.163262,0.80943 0.249599,1.52095 0.191749,1.58065 -0.05786,0.0597 -0.01514,0.22022 0.09462,0.35676 0.109727,0.13656 0.254833,0.91224 0.322938,1.72521 0.0681,0.81297 0.161505,1.59941 0.206885,1.74732 0.04538,0.1479 -0.01612,0.77182 -0.137509,1.38668 -0.121347,0.61486 -0.227853,1.23659 -0.235909,1.38144 -0.02798,0.50062 -0.803938,0.51861 -2.181104,0.0509 -0.760117,-0.25821 -1.523708,-0.54229 -1.697954,-0.63148 -0.174247,-0.0892 -0.608819,-0.22777 -0.965032,-0.30861 -0.356215,-0.0806 -0.699174,-0.28559 -0.761936,-0.45441 -0.06277,-0.16881 -0.257702,-0.30726 -0.43395,-0.30726 -0.242207,0 -0.287793,-0.13505 -0.185427,-0.55597 0.124057,-0.51024 0.0941,-0.54373 -0.357001,-0.39583 -0.44234996,0.14487 -0.99783096,0.67434 -0.99783096,0.9518 0,0.42321 1.64222496,1.61614 2.40943096,1.74994 0.202124,0.0352 0.492102,0.18443 0.643354,0.332 0.151251,0.14714 0.343807,0.22475 0.428904,0.17057 0.0851,-0.0544 0.589251,0.0355 1.120197,0.20056 0.53094,0.16579 0.965033,0.23811 0.965033,0.16152 0,-0.0767 0.09189,-0.0459 0.203101,0.069 0.111222,0.11539 0.571519,0.17184 1.023062,0.1275 1.023155,-0.10074 1.457784,-0.71229 1.579376,-2.22256 0.04796,-0.59591 0.113609,-1.10965 0.145075,-1.14319 v -0.001 c 0.09779,-0.10353 -0.236299,-4.55872 -0.356998,-4.76024 -0.121202,-0.20233 -0.214476,-1.12117 -0.415027,-4.06887 -0.06786,-0.9973 -0.170585,-2.1504705 -0.227072,-2.5610805 -0.185057,-1.3457898 -0.317429,-2.6484398 -0.379702,-3.7331998 -0.143171,-2.49425 -0.399676,-4.16665 -0.676155,-4.40349 -0.08927,-0.0764 -0.178885,-0.11413997 -0.262389,-0.11967997 z M 162.96591,6.7679067 c 0.13011,0.16176 0.17357,0.53443 0.0984,0.84371 -0.075,0.3089 -0.0527,0.50195 0.0505,0.43619 0.10077,-0.065 0.13792,0.13329 0.0808,0.44138 -0.0715,0.38668 0.0146,0.64985 0.27627,0.8476398 0.20895,0.15773 0.27975,0.28643 0.1577,0.28643 -0.35934,0 -0.45569,1.0582305 -0.12744,1.3970905 0.16869,0.1741 0.22752,0.42178 0.13623,0.57422 -0.22435,0.37472 -0.0891,1.43087 0.27753,2.16267 0.25631,0.51147 0.2622,0.64723 0.0315,0.79815 -0.19676,0.1285 -0.20505,0.18268 -0.0266,0.18494 0.13768,10e-4 0.19797,0.14714 0.13254,0.32292 -0.0654,0.17586 -0.01,0.32028 0.1223,0.32028 0.13183,0 0.18773,0.0888 0.1223,0.19805 -0.0654,0.10909 -0.0195,0.26142 0.10102,0.33852 0.12889,0.0821 0.14549,0.24314 0.0415,0.38799 -0.0976,0.13632 -0.16087,0.39157 -0.14378,0.5677 0.0171,0.17611 0.0474,0.62573 0.0645,0.99866 0.0171,0.37295 0.18064,0.83393 0.36457,1.0234 0.23533,0.2429 0.29772,0.54686 0.20823,1.0286 -0.07,0.37601 -0.0586,0.57364 0.0266,0.4401 0.11211,-0.17612 0.22898,-0.16075 0.42386,0.0559 0.22116,0.24591 0.21897,0.31951 -0.0171,0.41273 -0.39221,0.15546 -0.47806,0.90652 -0.32671,2.8775 0.12278,1.59709 1.26269,2.87042 1.47089,1.64446 v -0.001 c 0.13158,-0.78069 0.093,-1.3152 -0.11476,-1.59891 -0.1074,-0.14664 -0.1262,-0.26692 -0.0415,-0.26692 0.0847,0 0.0495,-0.13026 -0.0781,-0.28905 -0.12768,-0.15873 -0.22141,-0.51826 -0.20677,-0.79944 0.0591,-1.20926 -0.25226,-4.12632 -0.45414,-4.25506 -0.12108,-0.0774 -0.25705,-0.4179 -0.30148,-0.75777 -0.29759,-2.27545 -0.35171,-2.85362 -0.34945,-3.68738 0.001,-0.61729 -0.0595,-0.8343 -0.17918,-0.63929 -0.15085,0.24516 -0.18332,0.24138 -0.19797,-0.0252 -0.1191,-2.19044 -0.16795,-2.88865 -0.20432,-2.93349 -0.0669,-0.0823 -0.14427,-0.4456105 -0.17283,-0.8124705 -0.0146,-0.1829198 -0.10716,-0.2809298 -0.20676,-0.2174398 -0.0996,0.0635 -0.0586,-0.24314 0.0908,-0.68097 0.2302,-0.67346 0.22727,-0.83293 -0.0219,-1.03122 -0.16283,-0.129 -0.23143,-0.29875 -0.1538,-0.37887 0.20531,-0.2119 0.31066,-2.06168 0.14013,-2.45955 -0.0803,-0.1867 -0.18528,-0.61753 -0.23216,-0.95699 -1.07858,-2.74771997 -1.38838,2.25828 -0.86136,3.20202 z m 6.34761,-2.867 c -0.0908,0.0202 -0.17918,0.11238 -0.30653,0.29036 -0.17405,0.2444 -0.24948,0.64041 -0.1804,0.9518 0.18602,0.83789 0.29008,1.5171 0.40871,2.65225 0.0605,0.57868 0.18187,1.10635 0.2687,1.17313 0.0869,0.0665 0.17087,0.6021298 0.18552,1.1887603 0.0147,0.58663 0.0769,1.7866 0.13744,2.66657 0.0605,0.87996 0.11765,1.73002 0.12742,1.88926 0.0122,0.17788 0.14794,0.23785 0.35699,0.15496 0.25291,-0.10026 0.28679,-0.0655 0.13378,0.13681 -0.31873,0.42153 -0.15038,3.11026 0.21189,3.3853 0.0926,0.07 0.20115,0.74222 0.24216,1.49344 0.0407,0.75121 0.16818,2.03482 0.28258,2.85144 0.11499,0.81666 0.16722,1.55222 0.1174,1.63537 -0.0498,0.0832 0.0391,0.28512 0.19676,0.44788 0.1577,0.16277 0.35211,0.60068 0.43145,0.97393 0.0793,0.37322 0.39192,0.88009 0.69505,1.12626 l 0.55128,0.44791 0.13377,-0.49868 h -0.002 c 0.0738,-0.27403 0.10126,-0.64157 0.0617,-0.81768 -0.0398,-0.17613 -0.11933,-0.75166 -0.17795,-1.2786 -0.0586,-0.52695 -0.19164,-0.98738 -0.29646,-1.02341 -0.10427,-0.0361 -0.14378,-0.25271 -0.0857,-0.48174 0.0581,-0.22904 0.0254,-0.41664 -0.0733,-0.41664 -0.0984,-3.3e-4 -0.20114,-0.59859 -0.22946,-1.32939 -0.0283,-0.73078 -0.16331,-1.66646 -0.29899,-2.07934 -0.13572,-0.41284 -0.22287,-0.96581 -0.19309,-1.22782 0.0298,-0.26205 -0.0195,-0.59742 -0.10836,-0.74609 -0.09,-0.14865 -0.18504,-0.91713 -0.21067,-1.70697 -0.0254,-0.78984 -0.13304,-1.75898 -0.2385,-2.15354 -0.11741,-0.44038 -0.11741,-0.85359 0,-1.07027 0.14696,-0.27068 0.10475,-0.35296 -0.1804,-0.35547 -0.21408,-0.002 -0.28148,-0.0701 -0.15891,-0.16025 0.11693,-0.0862 0.19602,-0.34874 0.17405,-0.58331 -0.18578,-2.0354805 -0.33263,-2.9689303 -0.57776,-3.6860603 -0.1577,-0.4602 -0.21654,-0.95077 -0.13256,-1.09111 0.1704,-0.28459 -0.20578,-1.7291 -0.45033,-1.7291 -0.0857,0 -0.15648,-0.13253 -0.15648,-0.29426 0,-0.16151 -0.14891,-0.42294 -0.33177,-0.57941 -0.14134,-0.12119 -0.23581,-0.17536 -0.32672,-0.15621 z m 7.44401,3.91132 c -0.15794,-0.0826 -0.80873,0.58618 -1.11391,1.19527 -0.23751,0.4740398 -0.23483,0.6202698 0.0146,0.9609198 0.16209,0.2204705 0.29907,0.3171205 0.30151,0.2149205 0.002,-0.10231 0.13425,-0.0746 0.29139,0.0599 0.22923,0.19628 0.34239,0.0993 0.56893,-0.4869705 0.30245,-0.7827598 0.38343,-1.8637098 0.12743,-1.7004398 -0.0852,0.0544 -0.15526,-0.0176 -0.15526,-0.15899 0,-0.0448 -0.0122,-0.0728 -0.0354,-0.0847 z m -67.69742,1.8866698 c -0.0488,0.0252 -0.0581,0.13203 -0.0581,0.3372205 0,0.25592 0.0917,0.40588 0.20554,0.33331 0.11379,-0.0725 0.20676,0.0202 0.20676,0.20182 0,0.39553 0.54678,0.44794 0.67616,0.065 0.12743,-0.37697 -0.0359,-0.7469105 -0.39233,-0.8880005 -0.20359,-0.0804 -0.25415,-0.0331 -0.15135,0.14312 0.10185,0.1751105 0.0359,0.1665305 -0.19553,-0.0272 -0.15404,-0.12901 -0.24241,-0.18947 -0.2914,-0.16528 z m 36.34328,0.6210605 c -0.25081,0.0201 -0.38728,0.1925 -0.38728,0.49218 0,0.3483 0.0962,0.43797 0.38728,0.35936 0.26084,-0.0703 0.38729,0.007 0.38729,0.23962 0,0.36662 0.41454,0.3829 0.66857,0.0259 v -0.001 c 0.25539,-0.35879 0.17771,-0.56797 -0.25482,-0.68488 -0.22728,-0.0615 -0.41375,-0.19023 -0.41375,-0.28646 0,-0.0965 -0.17405,-0.16226 -0.38729,-0.14462 z m -113.175111,3.63528 c -0.277037,-0.03 -0.634443,-0.0126 -1.086136,0.0378 -1.379277,0.15243 -1.882457,0.34397 -2.642806,1.00128 -0.536174,0.46361 -1.005073,0.56586 -1.04955,0.22928 -0.01929,-0.14663 -0.04765,-0.35215 -0.06181,-0.45572 -0.04453,-0.32476 -0.748879,-0.39987 -1.01297,-0.10812 -0.275749,0.30467 -0.336511,0.9925 -0.108486,1.22782 0.219432,0.22651 0.300367,0.74381 0.372136,2.37493 0.03613,0.82127 0.166313,1.75988 0.288879,2.08584 0.122569,0.32599 0.2782,1.16067 0.345648,1.85408 0.193653,1.99056 0.205615,2.0297 0.676153,2.1015 0.245468,0.0375 0.446564,0.15773 0.446564,0.26692 0,0.1091 0.09584,0.19931 0.213183,0.19931 0.349488,0 0.57658,-0.91683 0.368352,-1.48692 -0.201416,-0.55139 -0.298857,-1.37723 -0.484408,-4.10272 -0.177858,-2.61237 0.538135,-3.76702 2.447274,-3.94516 0.475954,-0.0443 0.981883,-0.1222 1.12398,-0.17309 0.151545,-0.0541 0.258605,0.0872 0.258605,0.34244 0,0.23935 0.132601,0.57305 0.295187,0.74085 0.256359,0.26471 0.304727,0.24088 0.362044,-0.17586 0.192653,-1.40011 0.07927,-1.92394 -0.751842,-2.01424 z m -15.460723,0.0366 c -1.811547,0.065 -2.832263,0.49553 -2.580992,1.0872 0.02841,0.067 -0.108462,0.21392 -0.304017,0.32679 -0.479984,0.27725 -0.783656,1.54585 -0.871683,3.64441 -0.05419,1.29172 0.0031,1.81961 0.218235,2.04159 0.159576,0.16478 0.250749,0.36437 0.203101,0.44399 -0.07553,0.12623 0.507045,0.44623 2.046124,1.12367 1.31119,0.57711 2.491863,0.27425 3.644422,-0.93487 0.472502,-0.49558 0.795842,-0.78612 0.719045,-0.64451 -0.07677,0.1416 0.0024,0.61019 0.176615,1.04034 0.174124,0.43014 0.316633,0.96202 0.316633,1.18223 0,0.22022 0.08698,0.40103 0.192993,0.40103 0.204639,0 0.5426,0.83547 0.461701,1.1419 -0.02641,0.10002 0.140901,0.35015 0.372138,0.55726 0.231247,0.20711 0.420073,0.46313 0.420073,0.56768 0,0.10486 0.179398,0.30525 0.398629,0.4466 0.31137,0.20082 0.421325,0.19981 0.500807,-0.002 0.05576,-0.14185 0.108317,-0.27818 0.117322,-0.30079 0.04694,-0.12446 -0.482834,-1.13016 -0.595418,-1.13016 -0.131234,0 -0.663249,-1.33193 -0.75689,-1.89446 -0.02698,-0.162 -0.14842,-0.39793 -0.269956,-0.52341 -0.121543,-0.12548 -0.220749,-0.42935 -0.220749,-0.67576 0,-0.24642 -0.0851,-0.53964 -0.189237,-0.65101 -0.263677,-0.28225 -0.513749,-1.73595 -0.480624,-2.79678 0.03032,-0.97062 -0.19546,-1.18622 -0.942326,-0.89972 -0.414416,0.15899 -0.470086,0.31213 -0.432688,1.1979 0.04601,1.08987 -0.142463,1.92672 -0.514685,2.28637 -0.886421,0.85647 -2.162432,1.00598 -3.320221,0.388 -0.971096,-0.51831 -1.087649,-0.74173 -1.043246,-1.98431 0.09289,-2.59908 1.200784,-4.58107 2.456105,-4.39437 0.353701,0.0527 0.666662,0.11636 0.695077,0.14186 0.02841,0.0254 0.127378,0.0577 0.22075,0.0728 0.239693,0.0375 0.864116,0.70654 0.864116,0.92574 0,0.25327 0.899385,0.24037 1.067213,-0.0151 0.198682,-0.30299 -0.189725,-1.23953 -0.731659,-1.76427 -0.393607,-0.38164 -0.686333,-0.44599 -1.836718,-0.40492 z m 20.441052,0.53773 c -0.430657,0 -0.502472,0.12371 -0.609295,1.05465 -0.06657,0.58006 -0.03262,1.36995 0.07443,1.75515 0.107111,0.38519 0.149128,0.8485 0.09335,1.0299 -0.05579,0.18142 -0.02148,0.61973 0.07694,0.97393 0.104159,0.37502 0.09565,1.2113 -0.02026,2.00124 -0.216722,1.47784 -0.04682,2.17824 0.615603,2.54415 0.696343,0.38464 0.839671,-0.01 0.982696,-2.71342 0.184427,-3.48542 0.407415,-4.25065 1.39772,-4.78108 0.649219,-0.34778 1.002641,-0.39028 2.217686,-0.26431 0.79509,0.0823 1.445657,0.21644 1.445657,0.29686 0,0.0804 0.279626,0.16731 0.62065,0.19401 1.16853,0.092 0.501102,-1.062 -0.901958,-1.55984 -0.949172,-0.33672 -3.829468,-0.19201 -4.265073,0.21492 -0.188673,0.17637 -0.544131,0.32028 -0.790948,0.32028 -0.340888,0 -0.449088,-0.1275 -0.449088,-0.53252 0,-0.41814 -0.105532,-0.53385 -0.488194,-0.53385 z m 80.755032,0.70961 c -0.31251,0.0361 -0.70536,0.16479 -1.02683,0.36978 -0.74306,0.47399 -1.13849,1.03099 -1.50495,2.11972 -0.41597,1.23587 -0.48615,2.29161 -0.21067,3.1418 0.14354,0.44279 0.28302,1.0168 0.31158,1.276 0.0631,0.57292 0.2197,0.85696 0.97892,1.77598 0.51906,0.6283 0.63603,0.68003 1.00412,0.44269 0.32122,-0.2061 0.3797,-0.20761 0.25862,-0.005 -0.27612,0.46112 1.22089,0.0282 1.53521,-0.44397 0.15599,-0.23432 0.39674,-0.42707 0.53612,-0.42707 0.13939,0 0.42192,-0.38351 0.62698,-0.85283 0.37634,-0.86141 0.76841,-1.07572 1.06972,-0.58593 0.17625,0.28647 0.20726,0.40364 0.24726,0.91924 0.0147,0.18318 0.11837,0.27308 0.23215,0.20056 0.11379,-0.0725 0.20676,-0.0201 0.20676,0.11467 0,0.42178 0.68689,1.7787 1.18201,2.33584 0.25965,0.29212 0.4718,0.59828 0.4718,0.67966 0,0.0814 0.26157,0.14009 0.57901,0.13026 0.47653,-0.0151 0.58506,-0.12 0.62066,-0.60284 0.0322,-0.43798 -0.0457,-0.57737 -0.31159,-0.55469 -0.20335,0.0177 -0.39192,-0.15243 -0.44025,-0.3958 -0.0464,-0.23407 -0.25839,-0.65396 -0.47053,-0.93228 -0.21214,-0.27828 -0.33449,-0.59041 -0.27248,-0.69397 0.062,-0.10353 0.007,-0.18872 -0.11982,-0.18872 -0.13427,0 -0.18016,-0.17031 -0.10836,-0.40363 0.073,-0.23734 -0.0146,-0.54823 -0.21312,-0.75259 -0.18552,-0.19122 -0.28394,-0.48962 -0.21945,-0.66272 0.0643,-0.17284 0.0269,-0.31379 -0.0833,-0.31379 -0.11006,0 -0.20065,-0.1925 -0.20065,-0.42707 0,-0.23458 -0.0784,-0.42707 -0.17406,-0.42707 -0.0957,0 -0.18991,-0.50006 -0.21189,-1.11195 -0.05,-1.46236 -0.49027,-2.17549 -1.23373,-1.99861 -1.41768,0.33707 -1.48101,0.32389 -1.13155,-0.22651 0.17455,-0.2763 0.26158,-0.50259 0.19188,-0.50259 -0.27451,0 -0.44809,-0.0874 -0.71022,-0.35805 -0.15012,-0.15521 -0.40659,-0.28124 -0.56892,-0.28124 -0.16259,0 -0.29521,-0.0756 -0.29521,-0.16807 0,-0.16779 -0.2324,-0.22499 -0.54496,-0.1887 z m 23.43833,0.002 c -0.55129,0.063 -1.09262,0.27879 -1.40277,0.62238 -0.22483,0.24919 -0.40871,0.38117 -0.40871,0.29425 0,-0.0869 -0.24093,0.11006 -0.53487,0.4375 -0.95807,1.06699 -1.18148,1.90083 -1.20346,4.4751 -0.0171,2.21689 0.0147,2.41019 0.44657,2.79806 0.25582,0.22928 0.46422,0.52581 0.46422,0.65885 0,0.13278 0.0871,0.24087 0.19309,0.24087 0.10596,0 0.24958,0.1862 0.31915,0.41273 0.071,0.23105 0.39531,0.47187 0.73795,0.54947 0.33591,0.076 0.61058,0.23282 0.61058,0.34763 0,0.11467 0.082,0.15672 0.18283,0.0925 0.10078,-0.0643 0.29835,0.0252 0.43774,0.19804 0.28506,0.35451 1.80389,0.38928 2.22147,0.0508 0.17308,-0.14033 0.25861,-0.13277 0.25861,0.0252 0,0.16932 0.14452,0.16806 0.51594,-0.007 0.28404,-0.13354 0.51722,-0.32464 0.51722,-0.42317 0,-0.0986 0.1445,-0.17838 0.32166,-0.17838 0.17723,0 0.27165,-0.0846 0.20945,-0.18871 -0.0622,-0.10401 0.0352,-0.31693 0.21702,-0.47264 0.21872,-0.1872 0.24953,-0.31169 0.092,-0.36586 -0.17307,-0.0594 -0.16526,-0.17385 0.0291,-0.42057 0.23191,-0.2948 0.21288,-0.31594 -0.14647,-0.16277 -0.22726,0.097 -0.83192,0.33052 -1.34346,0.51949 -0.51153,0.18896 -0.97839,0.41029 -1.03821,0.49218 -0.0598,0.0816 -0.24631,0.0599 -0.41376,-0.0494 -0.16747,-0.10934 -0.48234,-0.19955 -0.69888,-0.20182 -0.21652,-0.001 -0.68138,-0.22726 -1.03314,-0.49999 -0.35175,-0.27262 -0.80794,-0.5594 -1.01421,-0.63801 -0.20604,-0.0786 -0.32075,-0.23231 -0.25483,-0.34241 0.0659,-0.11006 -0.0593,-0.33084 -0.2788,-0.48958 -0.30608,-0.22147 -0.42207,-0.62131 -0.49702,-1.72259 -0.0536,-0.78929 -0.0146,-1.48911 0.0883,-1.55462 0.10306,-0.0655 0.14012,-0.19855 0.082,-0.29557 -0.0581,-0.097 0.0332,-0.2308 0.2031,-0.29817 0.1699,-0.0673 0.30907,-0.37051 0.30907,-0.67445 0,-0.30388 0.0876,-0.4977 0.19431,-0.42966 0.10668,0.068 0.26853,-0.007 0.3608,-0.16932 0.24501,-0.42916 1.6614,-1.06394 2.0398,-0.91403 0.18137,0.072 0.25986,0.23735 0.17673,0.37628 -0.0881,0.14688 -0.0591,0.19047 0.072,0.10679 0.12157,-0.0774 0.25702,-0.031 0.30024,0.1028 0.0507,0.15722 0.20676,0.10958 0.4415,-0.13278 0.49658,-0.51257 0.35528,-1.36207 -0.31159,-1.87363 -0.34979,-0.26833 -0.91078,-0.3584 -1.46206,-0.29556 z m -9.20882,0.35415 c -0.93138,0 -2.46291,0.74099 -3.16254,1.5299 -0.29433,0.3319 -0.62061,0.60414 -0.72533,0.60414 -0.10475,0 -0.31154,0.20032 -0.46044,0.4466 -0.33568,0.55446 -0.56444,0.38737 -0.26367,-0.19275 0.16576,-0.3198 0.14818,-0.484 -0.0757,-0.67575 -0.46066,-0.39462 -1.14291,-0.0637 -1.14291,0.55467 0,0.84083 0.44339,2.43263 0.64209,2.30591 0.0993,-0.0632 0.12767,0.0252 0.0645,0.19525 -0.0632,0.17033 -0.0171,0.37049 0.0996,0.44532 0.17088,0.10885 0.13987,1.292 -0.0529,2.05201 -0.075,0.29492 1.03983,1.69182 1.35105,1.69394 0.46298,0.002 0.64067,-0.64274 0.68875,-2.50772 0.04,-1.54335 0.53407,-3.17718 1.06597,-3.52201 0.13963,-0.0905 0.3803,-0.29486 0.5336,-0.4531 0.55931,-0.57724 1.48427,-0.95182 1.71057,-0.69268 0.47018,0.53823 1.33717,2.26596 1.33717,2.66396 0,0.23331 0.0847,0.45571 0.18796,0.49478 0.1033,0.039 0.24455,0.45513 0.31412,0.92442 0.0696,0.46933 0.26242,0.95821 0.42891,1.08721 0.16551,0.12901 0.23483,0.31256 0.15135,0.40754 -0.0835,0.0953 0.0195,0.10983 0.22702,0.0325 0.20822,-0.0774 0.4616,-0.1406 0.56387,-0.1406 0.21507,0 0.001,-1.97299 -0.23093,-2.13273 -0.0852,-0.0587 -0.21164,-0.63458 -0.28131,-1.2799 -0.0693,-0.64531 -0.21848,-1.20571 -0.33051,-1.24476 -0.11198,-0.0391 -0.2031,-0.25546 -0.2031,-0.48045 0,-0.22501 -0.0933,-0.40884 -0.20676,-0.40884 -0.11379,0 -0.20676,-0.12219 -0.20676,-0.27212 0,-0.54667 -1.25237,-1.43485 -2.02342,-1.43485 z m 45.27836,0.0925 c -0.39633,0.0599 -0.91358,0.75388 -0.75687,1.0156 0.0632,0.10534 0.14281,0.54712 0.17796,0.98172 0.0349,0.43464 0.1206,1.12708 0.18918,1.53772 0.0688,0.41067 0.16161,0.9866 0.20677,1.2799 0.11186,0.72523 0.56205,1.72592 1.00162,2.22646 0.19993,0.22752 0.36331,0.55232 0.36331,0.72265 0,0.17032 0.16233,0.43233 0.3608,0.58199 0.29939,0.22601 0.4195,0.21165 0.71022,-0.0834 0.38911,-0.39488 0.50991,-2.0573 0.16526,-2.27726 -0.11548,-0.0736 -0.15624,-0.22273 -0.0908,-0.33203 0.0654,-0.1091 0.0147,-0.19931 -0.11355,-0.19931 -0.14353,0 -0.18064,-0.1741 -0.0947,-0.45312 0.08,-0.26062 0.0586,-0.40099 -0.0517,-0.33069 -0.20896,0.13327 -0.7421,-0.45197 -0.85025,-0.93357 -0.0371,-0.16503 -0.15744,-0.83 -0.26741,-1.47781 -0.27527,-1.62236 -0.56711,-2.31699 -0.94992,-2.25904 z m -125.420306,0.26302 c -1.1418,-0.0643 -2.952909,0.76757 -2.97962,1.6718 -0.0096,0.31089 -0.901709,2.10465 -1.144163,2.29941 -0.113669,0.0912 -0.333981,0.24541 -0.489456,0.34243 -0.2363,0.14739 -0.230563,0.26047 0.03532,0.68747 0.17493,0.28091 0.48044,1.02878 0.67868,1.6627 0.327904,1.04859 1.738326,3.75868 1.738326,3.33973 0,-0.097 0.245274,0.076 0.54496,0.38539 0.299686,0.3093 0.713209,0.56248 0.918355,0.56248 0.205159,0 0.421913,0.0823 0.481894,0.18242 0.178808,0.29859 2.410456,-0.16403 3.046471,-0.6315 0.32424,-0.23835 0.589114,-0.58157 0.589114,-0.76297 0,-0.27464 -0.163681,-0.30104 -0.981434,-0.16151 -1.558892,0.26632 -2.362084,0.28237 -2.929162,0.0599 -0.609473,-0.23911 -1.290426,-0.92719 -1.106313,-1.11717 0.06895,-0.0711 0.02724,-0.129 -0.09209,-0.129 -0.191609,0 -0.489813,-0.71102 -0.401156,-0.95568 0.01856,-0.0508 -0.152374,-0.23809 -0.3797,-0.41535 -0.227542,-0.17738 -0.297383,-0.32689 -0.155158,-0.32941 0.142092,-0.002 0.235293,-0.11842 0.206882,-0.25521 -0.02845,-0.13681 0.226639,-0.3117 0.567669,-0.3893 1.571368,-0.35718 3.738514,-2.20258 3.861392,-3.28893 0.04942,-0.43647 0.0012,-0.68444 -0.11608,-0.60936 -0.110655,0.0706 -0.144201,-0.0201 -0.0757,-0.20434 0.07184,-0.19326 -0.06389,-0.50376 -0.326722,-0.74868 -0.247203,-0.23028 -0.54619,-0.59117 -0.664813,-0.80206 -0.141115,-0.25094 -0.446925,-0.37183 -0.827529,-0.3932 z m 97.055906,0.28514 c -0.47995,0 -0.6921,0.54859 -0.41755,1.07808 0.1162,0.22374 0.16795,0.64807 0.11596,0.94397 -0.054,0.30817 0.002,0.53776 0.13377,0.53776 0.12523,0 0.16552,0.0634 0.0908,0.14058 -0.0747,0.0771 -0.0319,0.26961 0.0947,0.42707 0.1267,0.15748 0.14671,0.28515 0.0442,0.28515 -0.26103,0 -0.14354,2.96045 0.13109,3.30196 0.12376,0.15394 0.21262,0.36194 0.19553,0.46221 -0.0481,0.29643 0.25852,1.1432 0.41377,1.1432 0.2466,0 0.79055,-0.51998 0.88429,-0.84503 0.0495,-0.17108 -0.0381,-0.57359 -0.19309,-0.89448 -0.17405,-0.3602 -0.29808,-1.44361 -0.3242,-2.83323 -0.0259,-1.37525 -0.1245,-2.25251 -0.25484,-2.25251 -0.11716,-7.9e-4 -0.2341,-0.2497 -0.25858,-0.55339 -0.0591,-0.73556 -0.20213,-0.94136 -0.65597,-0.94136 z m 5.14685,0.0559 c -0.27112,-10e-4 -0.45703,0.40071 -0.51469,1.15359 -0.17869,2.32936 -0.0755,3.52178 0.35069,4.06628 0.68151,0.87106 2.2999,2.59966 2.41951,2.58454 0.0724,-0.01 0.22557,0.007 0.33935,0.0366 0.67872,0.17738 1.48754,0.0524 1.8115,-0.27864 0.20505,-0.20963 0.32971,-0.45376 0.27625,-0.54295 -0.0535,-0.0892 -0.0122,-0.30233 0.092,-0.47265 0.14427,-0.23533 0.19065,-0.24113 0.19309,-0.0273 0.002,0.23357 0.0479,0.23357 0.26364,0 0.31349,-0.33956 0.82462,-2.26365 0.66984,-2.52204 -0.0605,-0.10098 -0.0146,-0.24415 0.0996,-0.31769 0.11572,-0.0739 0.21067,-0.36244 0.21067,-0.64192 0,-0.2795 0.0933,-0.56803 0.20676,-0.6406 0.31317,-0.19981 0.24167,-0.3893 -0.29646,-0.79294 -0.41371,-0.31042 -0.5272,-0.32259 -0.72786,-0.0728 -0.1306,0.16251 -0.27711,0.52107 -0.32545,0.79684 -0.0483,0.27575 -0.22702,0.97665 -0.39612,1.55724 -0.23874,0.81892 -0.25055,1.0933 -0.0555,1.2213 0.17357,0.11394 0.13866,0.16553 -0.11113,0.16805 -0.19895,10e-4 -0.3608,0.1479 -0.3608,0.32551 0,0.17764 -0.30292,0.51352 -0.67235,0.74607 -0.71621,0.45051 -1.29604,0.56341 -1.08488,0.2109 0.0703,-0.11745 0.0295,-0.21342 -0.0908,-0.21342 -0.12029,0 -0.21945,0.12024 -0.21945,0.2669 -4.5e-4,0.14665 -0.18675,-0.0481 -0.41378,-0.43225 -0.22677,-0.38417 -0.4125,-0.83991 -0.4125,-1.01301 0,-0.17334 -0.13963,-0.31507 -0.31033,-0.31507 -0.17039,0 -0.29057,-0.0723 -0.26616,-0.16025 0.0245,-0.0879 -0.0757,-0.38307 -0.22214,-0.65622 -0.14671,-0.27315 -0.20505,-0.65656 -0.12987,-0.85283 0.30243,-0.78887 0.28581,-2.77643 -0.0252,-3.04287 -0.10765,-0.0923 -0.20726,-0.13757 -0.2977,-0.13807 z m -43.42905,0.444 c -0.56012,0.0881 -0.7839,0.69271 -0.55883,1.50643 0.0943,0.34063 0.23216,1.39629 0.30527,2.34628 0.17137,2.22115 0.57916,3.32672 1.22618,3.32672 0.26239,0 0.5229,-0.12024 0.58028,-0.26693 0.17283,-0.44208 0.14939,-0.95412 -0.0733,-1.55855 -0.17283,-0.46929 -0.37505,-2.08518 -0.49198,-3.93214 -0.0122,-0.17688 -0.13671,-0.39843 -0.2788,-0.49215 -0.14208,-0.0937 -0.25859,-0.35791 -0.25859,-0.58594 0,-0.30568 -0.11813,-0.39613 -0.45037,-0.34372 z m 7.13999,0.34372 c 0.14769,0.002 0.49424,0.13076 0.89438,0.33985 0.69272,0.36188 1.04414,0.44311 1.22869,0.28514 0.19114,-0.16378 0.25441,-0.12024 0.24216,0.16805 -0.01,0.21417 0.031,0.5335 0.0896,0.70963 0.20921,0.62931 -0.4674,2.61737 -1.15172,3.38138 -0.47555,0.53098 -2.13773,1.50345 -1.90485,1.11455 0.0755,-0.12598 -0.007,-0.22904 -0.18552,-0.22904 -0.20188,0 -0.3217,-0.19047 -0.3217,-0.5091 0,-0.27991 -0.11789,-0.74232 -0.26112,-1.02731 -0.20481,-0.40747 -0.28813,-1.76881 -0.16771,-2.74208 0.0383,-0.3099 1.123,-1.45933 1.28166,-1.35803 0.0991,0.0632 0.1804,0.0226 0.1804,-0.0925 0,-0.0285 0.0264,-0.0413 0.0757,-0.0403 z m -54.465744,0.01 c 0.893862,0 0.987739,0.14286 0.870417,1.33329 -0.02025,0.20536 0.06208,0.37368 0.182919,0.37368 0.120805,0 0.219503,0.14413 0.219503,0.32029 0,0.17587 0.0722,0.32033 0.160209,0.32033 0.08799,0 0.280568,0.74295 0.427639,1.65226 v 0.001 c 0.575275,3.55676 0.58968,3.34988 -0.225795,3.26422 -0.198951,-0.0202 -0.362053,0.0401 -0.362053,0.13529 0,0.21392 -0.841005,0.20283 -2.054948,-0.0259 -0.893018,-0.16831 -1.540859,-0.60408 -1.583168,-1.06637 -0.01205,-0.12522 -0.182172,-0.6053 -0.3797,-1.06636 -0.331906,-0.7747 -0.345768,-1.42461 -0.05424,-2.57543 0.43545,-1.71897 1.430035,-2.66656 2.799233,-2.66656 z m -11.847843,0.32029 c 0.06304,-0.007 0.122011,-0.002 0.176615,0.0201 0.183642,0.0728 0.282388,0.21769 0.219503,0.32288 -0.06292,0.1051 0.03098,0.19149 0.20816,0.19149 0.177217,0 0.322299,0.16704 0.321672,0.37238 -0.0024,0.78444 -1.829021,2.3992 -2.531791,2.23819 -0.442887,-0.10158 -0.446865,-0.01 0.06184,-1.19657 0.477879,-1.11505 1.102684,-1.88806 1.544053,-1.94785 z" /></g></svg>
