<?xml version="1.0" encoding="UTF-8" standalone="no"?>
<!-- Created with Inkscape (http://www.inkscape.org/) -->

<svg
   width="177mm"
   height="82mm"
   viewBox="0 0 177 82"
   version="1.1"
   id="svg9176"
   xmlns="http://www.w3.org/2000/svg"
   xmlnsSvg="http://www.w3.org/2000/svg">
  <defs
     id="defs9173" />
  <g
     id="layer1">
    <path
       d="m 36.931686,81.512218 c -0.004,-0.296579 -0.57878,-0.79946 -1.27653,-1.11746 -0.73399,-0.334404 -1.13902,-0.367903 -0.96076,-0.07945 0.34668,0.561413 -0.38878,0.685417 -0.91891,0.154983 -0.18884,-0.189067 -1.39562,-0.413796 -2.68114,-0.499385 -3.43098,-0.228412 -3.57415,-0.262261 -3.58246,-0.848036 -0.005,-0.353288 -0.13212,-0.340952 -0.37182,0.03625 -0.27243,0.428411 -0.85407,0.404091 -2.31083,-0.0967 -1.07062,-0.368078 -2.14013,-0.549545 -2.37679,-0.403273 -0.23677,0.146273 -0.80818,-0.16691 -1.27015,-0.695876 -0.46185,-0.528967 -1.22975,-0.903254 -1.70616,-0.83172 -0.47647,0.07156 -0.86624,-0.02689 -0.86624,-0.218473 0,-0.38211 -4.32779,-1.760574 -5.32106,-1.694787 -0.34025,0.0228 -0.61871,-0.305524 -0.61871,-0.728984 0,-0.4235 -0.12978,-0.640039 -0.2888,-0.481261 -0.15902,0.158783 -0.68079,-0.08249 -1.15995,-0.536216 -0.47939,-0.453726 -1.58871,-1.212689 -2.46571,-1.686567 -0.97684,-0.527856 -1.45658,-1.084756 -1.23846,-1.437675 0.22157,-0.358549 0.14031,-0.442735 -0.21514,-0.222917 -0.31453,0.194212 -0.57176,0.117276 -0.57176,-0.171002 0,-0.288277 -0.33382,-0.524173 -0.74247,-0.524173 -0.40865,0 -0.74247,-0.334112 -0.74247,-0.742471 0,-0.408359 -0.22275,-0.742471 -0.49518,-0.742471 -0.27243,0 -0.49518,-0.341127 -0.49518,-0.758004 0,-0.416895 -0.30049,-0.873327 -0.66787,-1.01428 -0.36714,-0.140952 -0.68564,-0.882967 -0.70739,-1.64894 -0.0234,-0.765967 -0.39638,-2.246747 -0.83262,-3.290631 -0.43613,-1.04388 -0.67548,-2.204309 -0.53201,-2.578725 0.14382,-0.374392 2.9e-4,-1.165779 -0.31862,-1.758592 -0.66068003,-1.228304 -0.91979003,-7.265108 -0.31160003,-7.265108 0.21982003,0 0.39988003,-0.235895 0.39988003,-0.524173 0,-0.288277 -0.20345,-0.398596 -0.45133003,-0.245132 -0.56007,0.346097 -0.3952,-1.038021 0.18650003,-1.567508 0.23326,-0.212043 0.26366,-0.107103 0.0678,0.233147 -0.19585003,0.340309 -0.12043003,0.61873 0.16837,0.61873 0.69734,0 0.66454,-0.651603 -0.0696,-1.385948 -0.37766003,-0.377374 -0.40222003,-0.593977 -0.0672,-0.593977 0.28939,0 0.52675,-0.93653 0.52675,-2.081169 0,-1.144645 0.25723,-2.166864 0.57117,-2.271605 0.99316,-0.331072 2.05975,-1.64728 1.74604,-2.154808 -0.16604,-0.268401 0.11049,-0.803073 0.6142,-1.188141 0.79626,-0.60875 0.81888,-0.764979 0.17364,-1.196939 -0.63245,-0.423209 -0.60982,-0.497924 0.15317,-0.504413 0.49225,-0.004 0.76948,-0.211283 0.6156,-0.460273 -0.15375,-0.248991 -0.0468,-0.530721 0.24028,-0.626055 0.28588,-0.09535 0.55832,-0.679028 0.60474,-1.297062 0.0526,-0.707318 0.49167,-1.225814 1.18251,-1.399254 0.63941,-0.160479 0.99416,-0.545745 0.84958,-0.922564 -0.1368,-0.35586 0.0351,-0.820348 0.37474,-1.032204 0.35428,-0.219 0.70704,-0.133879 0.81742,0.197427 0.10699,0.320432 0.3917,0.582635 0.63245,0.582635 0.80233,0 -0.1181,-1.484287 -0.94493,-1.524024 -0.51856,-0.02514 -0.58778,-0.129961 -0.19117,-0.289739 0.342,-0.137854 0.47471,-0.488803 0.29465,-0.779875 -0.1865,-0.302133 -0.0947,-0.385734 0.21397,-0.194796 0.29757,0.183922 0.77071,-0.0601 1.05139,-0.542238 0.28062,-0.482138 0.5396,-0.653883 0.57468,-0.381642 0.0351,0.272259 0.2093,-0.01929 0.38644,-0.647937 0.17714,-0.62861 0.50102,-1.120003 0.71996,-1.091988 0.21866,0.02806 0.81129,-0.459338 1.31629,-1.083043 0.65776,-0.812292 0.75545,-1.237535 0.34434,-1.499078 -0.34434,-0.219292 -0.1292,-0.368137 0.54019,-0.372697 0.67548,-0.0045 1.11371,-0.311253 1.11371,-0.779261 0,-0.424437 0.22274,-0.634024 0.49517,-0.465769 0.27244,0.168254 0.49518,-0.05437 0.49518,-0.495001 0,-0.440513 0.22274,-0.663231 0.49518,-0.495 0.27243,0.168255 0.49517,-0.03683 0.49517,-0.456356 0,-0.419233 0.57293,-0.90609 1.2736,-1.081897 0.71201,-0.17872 1.47541,-0.850691 1.73148,-1.524159 0.25197,-0.662483 0.69319,-1.059138 0.9807,-0.881453 0.28764,0.177667 1.04315,-0.282607 1.67922,-1.022845 0.73042,-0.850094 1.38695,-1.203475 1.7821,-0.959267 0.43555,0.26922 0.50278,0.187489 0.2204,-0.268926 -0.29231,-0.473428 -0.18064,-0.569423 0.40281,-0.345571 0.44431,0.170476 0.96071,0.06256 1.14761,-0.23987 0.20579,-0.332943 0.11459,-0.410522 -0.23151,-0.196667 -0.31452,0.19427 -0.57117,0.22315 -0.57117,0.06425 0,-0.158959 0.57,-0.505758 1.26723,-0.770761 0.69698,-0.26501 1.12931,-0.704962 0.96076,-0.977712 -0.16837,-0.272726 0.10757,-0.495935 0.61368,-0.495935 0.50629,0 1.22017,-0.278398 1.58679,-0.618724 0.54077,-0.502133 0.59929,-0.478806 0.30985,0.123764 -0.19644,0.408359 0.002,0.2981 0.44197,-0.245073 0.64192,-0.793684 0.88068,-0.8549 1.21631,-0.311838 0.34785,0.563225 0.48874,0.554281 0.84665,-0.05379 0.23619,-0.401285 0.93651,-0.9960334 1.55667,-1.3216744 0.62017,-0.325635 1.02251,-0.7620787 0.89407,-0.9698657 -0.12862,-0.207775 0.53376,-0.317392 1.47108,-0.243554 0.93751,0.07384 1.70459,-0.0791 1.70459,-0.339841 0,-0.260742 0.5437,-0.474071 1.20824,-0.474071 0.66448,0 1.36059,-0.246535 1.54679,-0.547791 0.24379,-0.394094 0.44023,-0.383805 0.69974,0.03683 0.26542,0.429756 0.56708,0.378251 1.14025,-0.194679 0.42853,-0.42847 1.12908,-0.779045 1.55685,-0.779045 0.42794,0 0.77784,-0.218357 0.77784,-0.485237 0,-0.271441 0.91242,-0.397368 2.07097,-0.285764 1.48377,0.14294 1.86974,0.05864 1.36117,-0.297281 -0.51797,-0.362524 -0.342,-0.416543 0.65145,-0.199824 0.78871,0.172055 1.36118,0.08483 1.36118,-0.207482 0,-0.277404 0.1672,-0.478046 0.37123,-0.445775 0.20404,0.03215 0.48232,0.01695 0.61877,-0.03391 0.33849,-0.126863 2.78707,-0.461034 5.31094,-0.724781 1.15148,-0.120315 2.36767,-0.388189 2.70272,-0.595274 0.33499,-0.207074 1.58713,-0.437123 2.78245,-0.511311 1.19532,-0.07413 2.52768,-0.421864 2.96082,-0.772685 0.59819,-0.484535 0.69816,-0.489095 0.41567,-0.01929 -0.23385,0.389359 -0.0854,0.61873 0.39988,0.61873 0.42444,0 0.7717,-0.184157 0.7717,-0.409236 0,-0.22508 0.64262,-0.314937 1.42812,-0.199649 0.78544,0.115287 1.88114,-0.03274 2.43495,-0.32926 0.75499,-0.40409097 1.06899,-0.38509097 1.25519,0.07588 0.18883,0.468049 0.25782,0.460098 0.28763,-0.03332 0.0234,-0.35638597 0.26191,-0.51025897 0.53435,-0.34200497 0.27243,0.16825497 0.50161,0.01462 0.50979,-0.342004 0.006,-0.373925 0.24262,-0.256474 0.55305,0.277638 0.43496,0.74879597 0.62128,0.79607497 0.97492,0.24746997 0.36539,-0.56644097 0.51856,-0.55580097 0.93212,0.06437 0.41216,0.617876 0.56826,0.629242 0.93008,0.06776 0.36714,-0.56965597 0.47062,-0.56965597 0.66197,0 0.19117,0.568721 0.35603,0.567961 1.04986,-0.0045 0.6228,-0.51423397 0.82298,-0.52960997 0.82298,-0.06331 0,0.491609 0.15024,0.491609 0.74247,0 0.49459,-0.41063897 0.74247,-0.43495997 0.74247,-0.07284 0,0.374509 0.38293,0.39766 1.23314,0.07448 0.67822,-0.25787797 1.60573,-0.32586897 2.06115,-0.15112497 0.49225,0.18900797 0.70412,0.11733297 0.52207,-0.176966 -0.31278,-0.506342 0.79509,-0.522653 2.12323,-0.03157 0.40865,0.151066 1.07658,0.27722797 1.48494,0.28038497 0.40865,0.003 1.278463,0.168254 1.933583,0.366967 0.86981,0.263841 1.09138,0.199941 0.82134,-0.237064 -0.25314,-0.40941097 0.19176,-0.36386897 1.40754,0.144285 0.97749,0.408417 1.77731,0.56837 1.77731,0.355392 0,-0.212978 0.32447,-0.387254 0.72072,-0.387254 0.39638,0 0.60597,0.185618 0.46595,0.41251 -0.14031,0.226833 -0.0351,0.412451 0.24028,0.412451 0.27243,0 0.6311,-0.220286 0.79748,-0.489505 0.18884,-0.305114 0.71231,-0.225313 1.39041,0.211751 0.59836,0.385676 2.593801,0.803429 4.434361,0.928305 1.84057,0.124875 3.6225,0.436889 3.95989,0.693392 0.56591,0.430224 2.62145,0.667925 6.67686,0.772129 0.88477,0.0228 1.60865,0.250101 1.60865,0.505231 0,0.255129 0.56942,0.355041 1.26541,0.222039 0.696,-0.13306 1.53125,0.02105 1.85618,0.341829 0.32505,0.321075 1.14762,0.620852 1.82823,0.666242 1.55493,0.103713 3.00163,0.380882 3.95983,0.758625 0.40865,0.161005 1.18795,0.358958 1.73247,0.439928 0.54428,0.08097 1.15703,0.370008 1.36118,0.642243 0.23268,0.310435 0.55305,0.218182 0.85863,-0.24747 0.26835,-0.408359 0.49109,-0.491902 0.49518,-0.185618 0.006,0.444781 1.96573,1.144194 3.23255,1.153654 0.13798,9.88e-4 0.97182,0.38626 1.85378,0.8561387 0.88191,0.469861 1.80585,0.7967124 2.05308,0.7263704 0.2473,-0.07033 0.61181,0.134464 0.80994,0.455071 0.19819,0.320665 0.94253,0.582986 1.65407,0.582986 0.71155,0 1.29371,0.257701 1.29371,0.572638 0,0.512538 1.07156,0.799185 3.55229,0.950175 0.45659,0.02806 0.73166,0.209471 0.61152,0.403799 -0.2245,0.362934 1.72966,1.193274 2.39473,1.017601 0.20403,-0.05379 0.31569,0.145395 0.24729,0.442968 -0.0678,0.297573 0.32155,0.798742 0.86618,1.113707 0.54428,0.314936 1.11102,0.734093 1.25899,0.931398 0.1479,0.19731 0.81613,0.459163 1.48494,0.581933 0.66875,0.122771 1.32732,0.266121 1.46342,0.31862 0.13622,0.05262 0.43087,0.06349 0.65554,0.02455 0.2245,-0.03917 0.26718,0.15738 0.0947,0.436362 -0.2964,0.479566 0.41041,0.736871 1.45846,0.530896 0.26191,-0.05145 0.70728,0.213446 0.98994,0.588645 0.28237,0.375211 1.57194,1.190403 2.86506,1.811536 1.29313,0.621127 2.35112,1.350759 2.35112,1.621399 0,0.270622 0.27127,0.401636 0.60304,0.291083 0.33148,-0.110552 1.19205,0.443846 1.91189,1.232029 1.42701,1.562369 3.75135,2.954789 4.05939,2.43182 0.1064,-0.180356 0.13154,-0.06583 0.0585,0.254545 -0.17831,0.759571 1.01397,1.743907 1.53779,1.269345 0.22274,-0.201812 0.25431,-0.103888 0.0702,0.217596 -0.18416,0.321484 -0.1181,0.71842 0.14674,0.882073 0.26483,0.163636 0.35486,0.627044 0.20052,1.029778 -0.19935,0.518912 -0.0468,0.643056 0.51681,0.426191 0.89506,-0.343466 1.06758,0.321834 0.28588,1.1033 -0.35194,0.352001 -0.28179,0.511486 0.22567,0.511486 0.40572,0 0.6225,-0.185618 0.48231,-0.41251 -0.14031,-0.226892 -0.0175,-0.41251 0.26951,-0.41251 0.28822,0 0.52441,0.418181 0.52441,0.929358 0,1.109468 1.23338,2.254457 1.95077,1.811044 0.3268,-0.201987 0.40631,0.20076 0.22157,1.124604 -0.23911,1.195858 -0.10114,1.488058 0.81426,1.727514 0.75732,0.198012 1.00713,0.535514 0.7986,1.078933 -0.18007,0.468634 0,0.907469 0.44314,1.077296 0.50511,0.193919 0.59181,0.473311 0.26717,0.864073 -0.29757,0.358549 -0.30517,0.852725 -0.0234,1.303393 0.38468,0.608405 0.4601,0.612398 0.46653,0.02455 0.0117,-1.141388 0.42853,-0.381174 0.73089,1.334986 0.2169,1.229994 0.10582,1.593647 -0.4864,1.593647 -0.62409,0 -0.66402,0.192341 -0.21456,1.032362 0.304,0.567786 0.43087,1.153928 0.28237,1.302528 -0.14849,0.148611 -0.0351,0.713251 0.25665,1.254793 0.38001,0.709931 0.37475,0.890755 -0.0175,0.648178 -0.29932,-0.185034 -0.54428,-0.100556 -0.54428,0.18778 0,0.288278 0.22274,0.524173 0.49518,0.524173 0.27243,0 0.49517,0.222741 0.49517,0.495 0,0.272259 -0.1672,0.468634 -0.37123,0.436363 -0.99369,-0.156913 -1.17393,0.13382 -0.5554,0.896104 0.46127,0.569072 0.48115,0.718343 0.0608,0.465769 -0.34025,-0.204443 -0.61876,-0.148962 -0.61876,0.123238 0,0.272259 0.22274,0.632638 0.49517,0.800893 0.27244,0.168254 0.49518,0.542763 0.49518,0.832292 0,0.33762 -0.26016,0.310727 -0.72476,-0.07512 -0.61303,-0.508739 -0.6964,-0.377549 -0.54077,0.850802 0.10114,0.798764 -0.005,1.754079 -0.23093,2.122911 -0.22976,0.371703 -0.20403,1.063581 0.0585,1.552349 0.37124,0.694 0.31161,0.820144 -0.28178,0.592445 -0.55364,-0.21251 -0.75388,0.0456 -0.75388,0.973035 0,0.737665 -0.45074,1.577868 -1.08389,2.021491 -0.59608,0.417538 -0.94878,0.89421 -0.78368,1.059278 0.33791,0.338029 -1.36831,2.197551 -2.01654,2.197551 -0.23034,0 -0.93289,0.445482 -1.56065,0.989959 -0.62783,0.544459 -1.00614,0.989959 -0.84075,0.989959 0.16545,0 -0.25606,0.556854 -0.93674,1.237454 -0.68056,0.6806 -1.45004,1.237448 -1.70991,1.237448 -0.26015,0 -0.47237,0.235895 -0.47237,0.524172 0,0.288278 -0.1976,0.402104 -0.43905,0.252967 -0.24145,-0.149196 -0.69483,0.03683 -1.0076,0.413971 -0.31277,0.376906 -1.34036,0.830013 -2.28348,1.006949 -0.94317,0.176907 -1.71481,0.534345 -1.71481,0.794245 0,0.259923 -0.44549,0.47255 -0.99,0.47255 -0.54429,0 -0.98995,0.232505 -0.98995,0.51669 0,0.284185 -0.27828,0.480502 -0.6187,0.436304 -1.26495,-0.164279 -2.40233,0.04852 -2.18018,0.408184 0.12628,0.204209 -0.36188,0.410522 -1.08447,0.458519 -3.26103,0.216545 -4.52913,0.434609 -4.53019,0.778958 -4.6e-4,0.20415 -0.54428,0.371235 -1.20789,0.371235 -0.66366,0 -2.72405,0.355451 -4.57853,0.789913 -4.38321,1.026838 -5.71089,1.299997 -6.46546,1.330222 -0.34025,0.01345 -0.61876,0.156445 -0.61876,0.317392 0,0.160946 -1.058,0.325459 -2.35112,0.365623 -3.62461,0.112598 -5.97268,0.405903 -6.3614,0.794572 -0.19468,0.194446 -0.65244,0.105466 -1.01777,-0.197778 -0.49167,-0.4083 -0.66431,-0.399589 -0.66431,0.03332 0,0.321659 -0.22274,0.447119 -0.49517,0.278865 -0.27244,-0.168254 -0.49518,-0.07004 -0.49518,0.218298 0,0.627733 -1.08857,0.479332 -1.6011,-0.218298 -0.22625,-0.308038 -0.36656,-0.264951 -0.37124,0.11406 -0.005,0.384097 -0.55598,0.545219 -1.49248,0.436187 -0.86542,-0.100731 -1.4881,0.05788 -1.49255,0.380882 -0.005,0.3703 -0.12803,0.384272 -0.37123,0.04209 -0.31336,-0.440514 -1.34311,-0.586044 -1.72487,-0.24373 -0.0678,0.06103 -0.68056,0.165098 -1.36118,0.231277 -0.68062,0.06618 -1.7665,0.290675 -2.41315,0.498917 -0.75586,0.243379 -1.06495,0.199415 -0.86553,-0.123238 0.19,-0.307804 -0.1029,-0.393861 -0.75785,-0.222566 -0.82496,0.215726 -0.97252,0.120724 -0.64817,-0.417421 0.34259,-0.56837 0.28179,-0.584886 -0.33031,-0.08962 -0.41275,0.333879 -1.23508,0.513709 -1.82747,0.399649 -0.61772,-0.118971 -1.08021,0.04443 -1.0846,0.382869 -0.004,0.355802 -0.19818,0.295352 -0.48757,-0.152177 -0.26367,-0.408359 -0.4829,-0.51973 -0.48699,-0.247471 -0.006,0.490382 -1.64478,0.472726 -5.94755,-0.06425 -1.225071,-0.152879 -2.833141,-0.288979 -3.573441,-0.302425 -0.74031,-0.01345 -1.22836,-0.214908 -1.08448,-0.447646 0.228,-0.369014 -1.21718,-0.62602 -3.1327,-0.557029 -0.33733,0.01228 -0.49167,-0.175153 -0.34259,-0.416251 0.14908,-0.241099 -0.13154,-0.40339 -0.62408,-0.360654 -1.69313,0.146974 -2.685243,-0.08004 -2.39591,-0.548259 0.15961,-0.257994 -0.141473,-0.386027 -0.668863,-0.284478 -0.68541,0.132008 -1.04636,-0.164162 -1.26583,-1.038594 -0.16895,-0.67279 -0.18766,-1.416722 -0.0409,-1.653191 0.14615,-0.236479 -0.0117,-0.531422 -0.35604,-0.655502 -0.342,-0.124057 0.85396,-0.310142 2.657643,-0.413504 2.28143,-0.13078 3.21437,-0.01929 3.06559,0.365799 -0.13096,0.338964 0.27711,0.499852 1.05167,0.414848 0.696,-0.07641 1.26548,0.10874 1.26548,0.411458 0,0.386377 0.15551,0.39462 0.52265,0.02748 0.36714,-0.366909 1.21508,-0.285764 2.84612,0.272259 1.27793,0.437181 2.380471,0.910117 2.450041,1.050918 0.0696,0.140777 1.12768,0.222332 2.35118,0.181116 1.22349,-0.04092 2.2246,0.08489 2.2246,0.28021 0,0.195322 0.33441,0.3551 0.74247,0.3551 0.40866,0 0.74247,-0.129962 0.74253,-0.288746 0,-0.158783 2.3945,-0.298333 5.32101,-0.310025 2.92656,-0.01169 5.74731,-0.216603 6.26838,-0.455363 0.73113,-0.33493 0.85384,-0.282607 0.53785,0.229114 -0.31335,0.507335 -0.18708,0.568487 0.53727,0.26004 0.5209,-0.221747 1.33721,-0.418707 1.81368,-0.437707 0.47646,-0.01929 0.86617,-0.254077 0.86617,-0.522419 0,-0.268342 0.26718,-0.220637 0.59398,0.106051 0.63853,0.638501 3.08161,0.840073 2.69967,0.222741 -0.12628,-0.204209 0.74224,-0.353522 1.93013,-0.331891 1.32505,0.02397 2.25337,-0.204501 2.40193,-0.591609 0.17422,-0.454368 0.65746,-0.511895 1.72586,-0.205436 1.01999,0.292545 1.55738,0.245366 1.71932,-0.150833 0.16779,-0.41023 0.24671,-0.398011 0.27477,0.04209 0.0234,0.340309 0.27478,0.618724 0.56358,0.618724 0.28822,0 0.38643,-0.222741 0.21806,-0.495 -0.17363,-0.280736 0.24204,-0.495 0.96071,-0.495 0.6967,0 1.27378,-0.278398 1.28243,-0.61873 0.0117,-0.36802 0.29114,-0.255772 0.69494,0.277111 0.37358,0.49272 0.80731,0.68854 0.96393,0.435193 0.31394,-0.508095 2.7033,-1.143756 5.00765,-1.332332 1.97351,-0.161531 6.09983,-1.154536 7.16408,-1.724087 0.56124,-0.30038 1.07068,-0.252733 1.49482,0.1399 0.41976,0.388599 0.53376,0.399823 0.32856,0.03215 -0.20579,-0.368195 0.49751,-0.689258 2.0311,-0.927001 1.90639,-0.295585 2.16053,-0.443612 1.35609,-0.789907 -0.8898,-0.383104 -0.86478,-0.419292 0.24729,-0.357907 1.64542,0.09079 4.01315,-0.587557 3.71797,-1.065171 -0.1292,-0.209178 0.28237,-0.380297 0.91546,-0.380297 0.6328,0 1.57538,-0.363752 2.09465,-0.808393 0.51914,-0.444605 1.16685,-0.834128 1.4391,-0.865592 0.27244,-0.03157 1.01742,-0.620911 1.65595,-1.309889 0.93925,-1.013438 1.24507,-1.119915 1.60116,-0.557496 0.3309,0.522828 0.44198,0.411808 0.44782,-0.447704 0.005,-0.62861 0.22391,-1.009293 0.48816,-0.845973 0.26425,0.163344 0.62245,-0.269043 0.79609,-0.960746 0.17363,-0.691737 0.50394,-1.257699 0.73457,-1.257699 0.23035,0 0.56475,-0.777642 0.74306,-1.728098 0.19409,-1.034858 0.53493,-1.597985 0.84905,-1.403749 0.32797,0.202688 0.40631,0.0152 0.20871,-0.499327 -0.17364,-0.453024 -0.10699,-0.823669 0.14791,-0.823669 0.25489,0 0.33557,-0.334112 0.17889,-0.742471 -0.15785,-0.411867 -0.0117,-0.742471 0.32388,-0.742471 0.45425,0 0.4373,-0.206313 -0.0672,-0.813871 -0.60029,-0.723319 -0.55247,-0.774789 0.43145,-0.462612 0.87629,0.278163 1.04502,0.190587 0.81041,-0.420753 -0.16311,-0.424612 -0.5513,-0.619145 -0.86308,-0.432329 -0.36188,0.21672 -0.34434,0.06478 0.0468,-0.419642 0.33791,-0.417596 0.4677,-0.905844 0.2888,-1.084978 -0.17889,-0.179128 0.0614,-0.325693 0.53493,-0.325693 0.78205,0 0.78959,-0.07074 0.0824,-0.777829 -0.87395,-0.873965 -1.03571,-1.419909 -0.28295,-0.954602 0.27243,0.168255 0.49517,-0.01403 0.49517,-0.405143 0,-0.391113 0.33441,-0.988364 0.74247,-1.327275 0.40865,-0.338906 0.74247,-0.85621 0.74247,-1.149562 0,-0.3475 -0.20695,-0.326395 -0.59397,0.06063 -0.32681,0.326687 -0.82783,0.586891 -1.11371,0.57825 -0.28588,-0.0088 -0.0743,-0.368312 0.47004,-0.799273 0.68979,-0.545979 0.8014,-0.854157 0.36831,-1.016495 -0.34201,-0.12815 -0.49576,-0.436714 -0.34201,-0.685669 0.15376,-0.248991 0.0292,-0.452732 -0.27769,-0.452732 -0.31628,0 -0.43204,-0.394504 -0.26776,-0.912748 0.18942,-0.59738 -0.22391,-1.495273 -1.19614,-2.598649 -0.8173,-0.927253 -1.4895,-2.062555 -1.49382,-2.522905 -0.0117,-1.068181 -0.82239,-1.590273 -1.20538,-0.774765 -0.16077,0.342004 -0.21163,0.01578 -0.114,-0.724412 0.0982,-0.740419 -0.0117,-1.228445 -0.24496,-1.084493 -0.23268,0.143934 -0.42327,0.02572 -0.42327,-0.262495 0,-0.288278 -0.38994,-0.539841 -0.86623,-0.558958 -0.74066,-0.02982 -0.72277,-0.0964 0.12394,-0.460215 0.80122,-0.344285 0.83116,-0.432037 0.15726,-0.460216 -0.45834,-0.01929 -0.97427,-0.480267 -1.14703,-1.024756 -0.17305,-0.544459 -0.64647,-0.989959 -1.05255,-0.989959 -0.43204,0 -0.59182,0.237065 -0.38527,0.571469 0.22742,0.368371 0.13505,0.436479 -0.26133,0.191639 -0.33791,-0.208886 -0.49985,-0.817776 -0.36012,-1.353033 0.18065,-0.689779 0.0526,-0.896028 -0.43613,-0.708224 -0.38001,0.145746 -0.82216,0.05203 -0.9831,-0.208418 -0.16077,-0.260333 -0.0591,-0.473369 0.22683,-0.473369 0.28588,0 0.13797,-0.445483 -0.32856,-0.989965 -0.46594,-0.54446 -1.07658,-0.986551 -1.35632,-0.982383 -0.28004,0.004 -0.1748,0.223501 0.23385,0.4874 0.51914,0.335515 0.55188,0.48208 0.10815,0.4874 -0.34902,0.004 -0.76246,-0.326512 -0.91914,-0.734894 -0.15668,-0.408359 -0.55949,-0.742471 -0.895,-0.742471 -0.33557,0 -0.86378,-0.556854 -1.17387,-1.237448 -0.30985,-0.6806 -0.84706,-1.234045 -1.19315,-1.229877 -0.43379,0.0052 -0.39871,0.156738 0.11341,0.4874 0.51915,0.335515 0.55189,0.48208 0.10816,0.4874 -0.34902,0.004 -0.76247,-0.326512 -0.9192,-0.734894 -0.15668,-0.408359 -0.6083,-0.742471 -1.00362,-0.742471 -0.39521,0 -0.58112,-0.222741 -0.41275,-0.495 0.16837,-0.272259 -0.0409,-0.495 -0.46594,-0.495 -0.42444,0 -0.77165,-0.215726 -0.77165,-0.47945 0,-0.263664 -0.32037,-0.356503 -0.71201,-0.206254 -0.3917,0.150248 -1.10523,-0.186086 -1.5859,-0.747511 -0.64432,-0.752462 -0.97556,-0.860875 -1.26039,-0.41251 -0.24788,0.390061 -0.40339,0.164338 -0.43321,-0.629218 -0.0234,-0.6806 -0.15902,-0.959027 -0.2964,-0.618729 -0.30342,0.751415 -1.65209,0.828597 -1.65209,0.09453 0,-0.288278 -0.18123,-0.412335 -0.40222,-0.27565 -0.22099,0.136685 -1.01964,-0.28208 -1.77439,-0.930632 -0.75475,-0.648534 -2.01905,-1.321212 -2.80958,-1.494839 -0.79052,-0.173633 -1.56439,-0.521309 -1.71972,-0.772591 -0.15551,-0.251271 -0.69085,-0.456883 -1.19018,-0.456883 -0.49927,0 -1.03443,-0.330136 -1.1893,-0.733591 -0.15492,-0.403507 -1.1769,-0.876782 -2.27137,-1.051789 -1.28424,-0.205378 -1.87156,-0.515696 -1.65636,-0.875093 0.18357,-0.306284 -0.0409,-0.251212 -0.50394,0.12242 -0.63052,0.511487 -0.83747,0.527798 -0.83747,0.066 0,-0.379245 -0.39638,-0.509616 -1.03894,-0.341653 -0.57117,0.149429 -0.90681,0.139607 -0.74539,-0.02163 0.16135,-0.161414 -0.20637,-0.549837 -0.81725,-0.863172 -0.77719,-0.398537 -1.21999,-0.411808 -1.47441,-0.04443 -0.23736,0.343349 -0.36598,0.300905 -0.37124,-0.122479 -0.004,-0.356386 -0.23034,-0.510258 -0.50278,-0.342004 -0.27243,0.168255 -0.49517,0.03274 -0.49517,-0.300788 0,-0.333703 -0.1409,-0.466062 -0.31277,-0.294124 -0.17188,0.171937 -0.78445,0.0532 -1.36124,-0.264308 -0.57644,-0.317275 -1.49406,-0.607242 -2.03858,-0.644342 -0.54428,-0.03683 -1.88091,-0.251505 -2.96988,-0.4764094 -1.08892,-0.224905 -2.39403,-0.354516 -2.90026,-0.287927 -0.60187,0.07916 -0.7945,-0.08255 -0.55656,-0.467289 0.25782,-0.4167777 0.0585,-0.4906147 -0.6919,-0.2533167 -0.61432,0.194972 -1.7064,0.01052 -2.61291,-0.441975 -0.85659,-0.427301 -1.85735,-0.77694 -2.22391,-0.77694 -0.36656,0 -0.66641,-0.249985 -0.66641,-0.555567 0,-0.399473 -0.19643,-0.392691 -0.69839,0.02397 -0.51038,0.423443 -0.79047,0.430692 -1.04005,0.02689 -0.18766,-0.304004 -0.64606,-0.435953 -1.01817,-0.29313 -0.37182,0.142765 -0.82204,0.02397 -0.99989,-0.263606 -0.17772,-0.287752 -0.93831,-0.400233 -1.68985,-0.249927 -0.75159,0.150307 -1.5099,0.129903 -1.68517,-0.0456 -0.55364,-0.553872 -2.27307,-0.63887 -2.27307,-0.112365 0,0.303536 -0.54253,0.238936 -1.36124,-0.161999 -0.80105,-0.39234 -1.97223,-0.537444 -2.846121,-0.352644 -1.70096,0.359601 -2.84372,0.105641 -2.44285,-0.542939 0.33148,-0.535924 -0.45893,-0.59386 -0.98058,-0.07191 -0.5133,0.51365 -2.76381,0.512305 -2.76381,-0.0015 0,-0.230341 -0.37825,-0.207249 -0.84016,0.05145 -0.49751,0.278339 -1.30342,0.294065 -1.97567,0.03858 -0.6245,-0.237415 -1.493953,-0.294124 -1.932183,-0.125986 -0.43847,0.168137 -0.96025,0.04092 -1.16007,-0.282198 -0.26308,-0.425547 -0.93271,-0.460039 -2.42496,-0.124758 -1.13387,0.254778 -2.06155,0.319438 -2.06155,0.143758 0,-0.175679 -1.22496,-0.319087 -2.72206,-0.318619 -1.49717,4.5e-4 -2.72224,0.153113 -2.72242,0.339257 -1.7e-4,0.186144 -0.57994,0.233381 -1.28816,0.104939 -0.70827,-0.128441 -1.57216,0.0025 -1.91972,0.290909 -0.4297,0.35662 -1.04572,0.367084 -1.92522,0.03274 -0.71137,-0.270447 -1.62941,-0.362759 -2.04016,-0.205203 -0.41099,0.157614 -0.74674,0.02865 -0.74674,-0.285939 0,-0.385617 -0.26542,-0.424027 -0.8128,-0.117685 -0.44724,0.250161 -1.2266,0.346623 -1.73241,0.214323 -0.5057,-0.132242 -0.91967,-0.03566 -0.91967,0.214791 0,0.250394 -1.41438,0.465301 -3.14305,0.477636 -3.43156,0.02455 -9.26224,1.386556 -11.19226,2.614668 -0.89073,0.566791 -1.10698,0.594625 -0.8042,0.103478 0.32505,-0.527038 0.16077,-0.588756 -0.76165,-0.286465 -0.64659,0.211925 -1.78819,0.343582 -2.53685,0.292662 -0.74867,-0.05086 -1.36124,0.133645 -1.36124,0.41023 0,0.276585 -0.1672,0.4730757 -0.37124,0.436654 -0.82472,-0.147149 -3.58859,0.7139767 -3.58859,1.1180511 0,0.238233 -0.57,0.433088 -1.26664,0.433088 -0.71844,0 -1.13428,0.214264 -0.96077,0.495 0.17422,0.281379 -0.24846,0.495 -0.97819,0.495 -0.70622,0 -1.83308,0.359719 -2.50411,0.799396 -0.67098,0.439695 -1.22344,0.606728 -1.2276,0.371236 -0.004,-0.235486 -0.19117,-0.138322 -0.41625,0.215901 -0.22449,0.354223 -0.96018,0.702898 -1.63437,0.774783 -1.50172,0.160128 -3.51686,1.503346 -3.01233,2.007899 0.20228,0.202455 0.14558,0.302192 -0.12686,0.221689 -0.27243,-0.0805 -0.99614,0.131482 -1.60871,0.471148 -0.6125,0.339666 -1.12078,0.442676 -1.12943,0.22888 -0.006,-0.213738 -0.33206,0.02923 -0.71868,0.539665 -0.39169,0.517333 -1.03104,0.802401 -1.44401,0.643927 -0.47881,-0.183688 -0.65238,-0.0532 -0.4905,0.367845 0.14148,0.368429 -0.17656,0.763827 -0.73066,0.908726 -0.7368,0.192691 -0.92067,0.05495 -0.73897,-0.553697 0.1333,-0.445599 -0.0994,-0.224085 -0.5168,0.492311 -0.41742,0.71638 -1.09985,1.433297 -1.5164,1.59315 -0.41683,0.159836 -0.76083,0.687435 -0.76504,1.172403 -0.006,0.75034 -0.0789,0.771094 -0.48757,0.139257 -0.38702,-0.599092 -0.48115,-0.52505 -0.48758,0.383512 -0.005,0.748733 -0.43203,1.287375 -1.27477,1.607766 -0.78187,0.297281 -1.12996,0.703962 -0.90879,1.061827 0.24086,0.389593 0.09,0.476994 -0.45952,0.266237 -0.44957,-0.172581 -0.79403,-0.15475 -0.76503,0.03975 0.1368,0.916321 -0.1,1.720276 -0.41392,1.406328 -0.19234,-0.192224 -0.70739,0.383162 -1.1448,1.278699 -0.4373,0.895537 -1.0763,1.567035 -1.4197,1.492232 -0.34318,-0.07477 -0.48232,0.09383 -0.30868,0.374743 0.17363,0.280912 -0.0351,0.644366 -0.45835,0.807692 -0.4256,0.163343 -0.77386,0.505582 -0.77386,0.760577 0,0.255012 -0.54487,1.051315 -1.21093,1.7696 -0.66606,0.71828 -1.08302,1.513057 -0.92657,1.766169 0.15668,0.253083 -0.0234,0.654619 -0.39754,0.892257 -0.57586,0.364863 -0.57644,0.433264 -0.003,0.439636 0.54546,0.0058 0.5589,0.15282 0.0678,0.744599 -0.33616,0.405378 -0.847,0.591562 -1.13469,0.413796 -0.32564,-0.201402 -0.40398,-0.01286 -0.20696,0.500437 0.17539,0.456415 0.0766,0.82367 -0.22099,0.82367 -0.29523,0 -0.42093,0.445482 -0.27828,0.989959 0.14265,0.544459 0.0585,0.989959 -0.19,0.989959 -0.24671,0 -0.44841,0.458637 -0.44841,1.019179 0,0.560536 -0.2204,0.883084 -0.48933,0.716759 -0.27302,-0.168897 -0.36772,0.01462 -0.21397,0.415726 0.15142,0.394971 0.0585,0.852228 -0.20695,1.016162 -0.26542,0.163928 -0.36598,0.743307 -0.22333,1.28752 0.14206,0.544226 0.0175,0.989463 -0.27828,0.989463 -0.29524,0 -0.40982,0.332241 -0.25373,0.738302 0.16311,0.424495 -0.0602,0.870147 -0.52499,1.048504 -0.73317,0.281379 -0.72645,0.372346 0.0725,0.978384 0.48466,0.367494 0.6162,0.675274 0.2929,0.683938 -0.3233,0.0088 -0.58111,0.405553 -0.57235,0.881956 0.006,0.47641 -0.10406,1.367381 -0.24963,1.979919 -0.14615,0.612539 -0.0409,1.113707 0.23853,1.113707 0.27711,0 0.43963,0.612673 0.36129,1.361493 -0.0783,0.748826 0.0292,1.639791 0.2397,1.979924 0.21046,0.340134 0.23853,0.850925 0.0631,1.135092 -0.17539,0.284185 -0.10465,0.785336 0.15785,1.113707 0.77982,0.97601 1.28523,3.001588 0.65121,2.609738 -1.02531,-0.633696 -0.55247,0.35054 0.81321,1.692986 0.74867,0.735877 1.6916,1.821895 2.0954,2.413382 0.40398,0.591486 1.00503,0.971514 1.33598,0.844511 0.37182,-0.142648 0.49226,0.05437 0.31512,0.515871 -0.1865,0.486465 0.0807,0.842886 0.76772,1.022488 0.57995,0.151651 1.05425,0.496286 1.05425,0.765897 0,0.269628 0.33148,0.362992 0.73651,0.207599 0.41625,-0.15966 0.68529,-0.03099 0.61871,0.295761 -0.0649,0.318152 0.16895,0.588545 0.51914,0.600916 0.35019,0.01228 0.8121,0.306167 1.02637,0.652825 0.21455,0.346681 0.8971,0.728054 1.51738,0.847516 0.62029,0.119438 1.43923,0.475649 1.81982,0.791486 0.38059,0.315871 0.69196,0.432621 0.69196,0.259514 0,-0.173107 0.72388,-0.01228 1.60865,0.357438 0.88482,0.369657 1.72007,0.695245 1.85617,0.723477 0.13622,0.02806 1.19415,0.202689 2.35118,0.387722 1.15703,0.185033 2.10365,0.543816 2.10365,0.797326 0,0.253492 0.22274,0.323296 0.49517,0.155042 0.27244,-0.168255 0.49518,-0.04268 0.49518,0.278865 0,0.435778 0.18942,0.427768 0.74247,-0.03157 0.58345,-0.484009 0.74247,-0.485646 0.74247,-0.0076 0,0.346623 0.3309,0.481671 0.7682,0.313767 0.42268,-0.162116 0.65869,-0.117567 0.52499,0.09904 -0.13388,0.216603 1.24671,0.375796 3.06792,0.353872 1.82122,-0.02221 4.19917,0.112131 5.28429,0.297924 1.08518,0.185793 2.36591,0.127565 2.84612,-0.129494 0.57936,-0.309967 0.87319,-0.290499 0.87319,0.05788 0,0.316632 0.58755,0.22128 1.47974,-0.240105 0.81386,-0.42087 1.58836,-0.780214 1.72107,-0.798553 1.05466,-0.145747 2.24396,-0.615468 2.24396,-0.88633 0,-0.181116 0.61257,-0.376204 1.36118,-0.433497 0.74867,-0.05729 1.72002,-0.537795 2.1586,-1.06775 0.59649,-0.720787 0.93943,-0.821494 1.36118,-0.399706 0.42151,0.421747 0.56591,0.320607 0.57117,-0.401402 0.006,-0.80443 0.0877,-0.84153 0.48758,-0.222742 0.26367,0.408359 0.48348,0.532826 0.48758,0.276644 0.004,-0.25624 0.342,-0.03332 0.75129,0.495 0.7326,0.946493 0.73926,0.94606 0.44841,-0.02923 -0.22742,-0.761957 -0.18006,-0.827715 0.20462,-0.28553 0.64139,0.903482 -0.62999,2.752738 -2.47471,3.599499 -0.72902,0.334639 -1.19368,0.821752 -1.0325,1.082494 0.16661,0.269686 -0.0596,0.338789 -0.52499,0.160245 -0.47004,-0.180298 -0.76761,-0.08611 -0.69997,0.221338 0.0649,0.294358 -0.29231,0.603723 -0.79375,0.687522 -0.5016,0.08378 -1.0318,0.27261 -1.17877,0.419584 -0.14674,0.146974 -0.71722,0.02631 -1.26717,-0.267932 -0.84355,-0.451446 -0.95036,-0.406021 -0.68307,0.290616 0.18766,0.489095 0.11575,0.701582 -0.17597,0.521191 -0.27127,-0.167495 -0.60714,-0.0064 -0.74692,0.357731 -0.15902,0.414322 -0.99175,0.640963 -2.2239,0.605312 -1.08343,-0.03157 -1.96977,0.07454 -1.96977,0.235252 0,0.160772 -0.72394,0.278632 -1.60871,0.261911 -0.88477,-0.01695 -1.8871,0.177609 -2.22741,0.431861 -0.34025,0.254194 -0.62216,0.267875 -0.62631,0.0304 -0.004,-0.237591 -0.22333,-0.09781 -0.48699,0.310551 -0.26367,0.408359 -0.48348,0.499794 -0.48758,0.203215 z M 74.047696,4.5870269 c 0,-0.272259 -0.22275,-0.495 -0.49518,-0.495 -0.27243,0 -0.49518,0.222741 -0.49518,0.495 0,0.272259 0.22275,0.495 0.49518,0.495 0.27243,0 0.49518,-0.222741 0.49518,-0.495 z M 171.3325,33.330101 c -0.15668,-0.253434 -0.0953,-0.577724 0.13563,-0.720693 0.23151,-0.142941 0.42035,0.06437 0.42035,0.460799 0,0.83462 -0.1561,0.90754 -0.55657,0.259924 z"
       style="fill:#000000;stroke-width:0.999997"
       id="path20273" />
  </g>
</svg>
