<?xml version="1.0" encoding="UTF-8" standalone="no"?>
<!-- Created with Inkscape (http://www.inkscape.org/) -->

<svg
   width="84mm"
   height="65mm"
   viewBox="0 0 84 65"
   version="1.1"
   id="svg9176"
   xmlns="http://www.w3.org/2000/svg"
   xmlnsSvg="http://www.w3.org/2000/svg">
  <defs
     id="defs9173" />
  <g
     id="layer1">
    <path
       d="M 4.310905,64.257969 C 3.334106,63.688068 2.468714,61.497304 1.869474,58.077463 1.679284,56.992116 1.3954,55.469809 1.238508,54.694557 0.74825367,52.271262 0.72101637,40.59984 1.205883,40.599467 1.459342,40.599274 1.516338,40.125262 1.332536,39.546098 0.87504587,38.104582 0.58412047,32.772614 0.94336777,32.41334 1.103584,32.253118 1.285856,29.145292 1.348384,25.507069 1.527326,15.095547 1.499276,15.341507 2.375597,16.495903 c 0.411941,0.542665 0.876579,0.986683 1.032513,0.986683 0.155948,0 0.259512,-1.522308 0.230213,-3.382906 -0.0293,-1.860599 -0.233337,-3.382907 -0.453361,-3.382907 -0.713789,0 -0.967758,0.880489 -0.481068,1.667927 0.276559,0.447436 0.204372,1.201518 -0.172818,1.80548 -0.777767,1.245408 -1.60149843,1.383208 -1.144162,0.191387 0.178459,-0.46515 0.08092,-0.845726 -0.216823,-0.845726 -0.30925543,0 -0.42625913,-1.198409 -0.27276373,-2.795307 C 1.045043,9.2031162 0.96630977,7.4905202 0.72232507,6.9347642 0.09235977,5.4998522 0.02216287,2.715081 0.58667677,1.5547177 1.383144,-0.0823901 3.607487,0.3221936 4.405745,2.249365 c 0.383039,0.9247256 0.548658,2.0664562 0.367991,2.5371732 -0.18232,0.475205 -0.02262,0.859698 0.358668,0.864486 0.434583,0.0056 0.376249,0.2095 -0.158616,0.555183 -0.46515,0.300599 -0.572564,0.550455 -0.238672,0.555182 0.383174,0.0056 0.630365,1.879359 0.670206,5.0809068 0.03464,2.789753 0.209709,5.309407 0.38877,5.599224 0.179145,0.289811 0.102011,0.665193 -0.171345,0.8341 -0.501708,0.310121 -0.463217,1.067148 0.258115,5.073741 0.288013,1.599801 0.218703,2.092095 -0.253664,1.800185 -0.460554,-0.284683 -0.524348,-0.02264 -0.218753,0.899022 0.237276,0.715445 0.374851,2.949973 0.305727,4.965627 -0.234811,6.845664 -0.253714,10.98378 -0.07406,16.210258 0.09863,2.868697 -0.01855,5.21559 -0.260444,5.21531 -0.241874,-2.66e-4 0.110798,0.744206 0.783776,1.654401 0.982703,1.329175 1.221708,2.427249 1.214326,5.579074 -0.01194,5.127507 -0.608326,6.019004 -3.066568,4.58471 z M 3.476495,56.079784 C 3.292904,55.601249 3.021733,55.330662 2.873897,55.478452 2.72613,55.626218 2.772394,56.017785 2.976842,56.348493 3.532759,57.248046 3.857737,57.073286 3.476487,56.079791 Z M 2.718116,6.4510742 c 0,-0.17547 -0.281019,-0.844008 -0.624438,-1.485715 -0.467414,-0.873437 -0.736856,-0.9848186 -1.0716823,-0.443041 -0.24660013,0.399023 -0.15622803,1.055906 0.2015793,1.464273 0.671705,0.766714 1.494545,1.02245 1.494541,0.464483 z m 15.54611,55.2517788 c -1.208758,-1.208756 -1.639957,-3.219786 -1.231011,-5.741233 0.397023,-2.447983 0.40475,-1.840752 -0.104222,-8.221828 -0.218551,-2.739768 -0.294804,-5.083462 -0.169541,-5.208211 0.125333,-0.124722 0.172132,-2.132889 0.104142,-4.462542 -0.06807,-2.329656 0.08318,-4.268454 0.336026,-4.308443 2.701943,-0.427325 3.615817,-0.18586 3.922632,1.036642 0.179272,0.714312 0.168219,2.139809 -0.02465,3.167767 -0.531011,2.830706 0.209429,2.88185 1.95157,0.134783 0.861535,-1.358513 2.157869,-2.661564 2.880739,-2.895684 2.316339,-0.750199 4.502654,-0.671567 4.826973,0.173608 0.212429,0.553586 0.430856,0.608391 0.698505,0.175273 0.916853,-1.483491 5.810031,5.759479 6.385863,9.452468 0.08143,0.522421 0.303862,1.203636 0.494118,1.513738 0.190323,0.310123 0.90217,2.633555 1.581902,5.16323 0.991571,3.690232 1.106144,4.841811 0.579621,5.82569 -0.623972,1.16594 -0.692915,1.176187 -1.400674,0.208235 -0.687936,-0.940813 -0.71265,-2.790864 -0.04596,-3.457344 0.35607,-0.35607 -1.857769,-3.511208 -2.463668,-3.511208 -0.468014,0 -0.387904,1.281553 0.273297,4.369583 0.598001,2.793048 -0.720294,2.276689 -1.439487,-0.563842 -0.333696,-1.317927 -0.97188,-3.284241 -1.418183,-4.369589 -1.038972,-2.5266 -2.510271,-6.910228 -2.520913,-7.510861 -0.01321,-0.769551 1.476626,0.965295 2.455865,2.858937 0.505373,0.977261 0.918838,2.423733 0.918838,3.21438 0,0.996501 0.302732,1.434893 0.986679,1.428913 0.557179,-0.0052 0.741254,-0.188928 0.422863,-0.422864 -0.53181,-0.390764 -0.738433,-1.511759 -1.011497,-5.488594 -0.124393,-1.811352 -1.356565,-3.664811 -2.436386,-3.664811 -0.363063,0 -0.806145,-0.380579 -0.984646,-0.845729 -0.178459,-0.465149 -0.617247,-0.845725 -0.975083,-0.845725 -0.475339,0 -0.465748,0.222691 0.03594,0.826765 0.377379,0.454697 0.555317,1.152455 0.395427,1.550506 -0.191392,0.476469 -0.305926,0.404616 -0.335227,-0.210167 -0.02998,-0.633496 -0.390698,-0.843375 -1.120734,-0.652474 -0.726412,0.189992 -1.1562,-0.05595 -1.322293,-0.757552 -0.230871,-0.974903 -0.275026,-0.969435 -0.715056,0.08864 -0.257914,0.620178 -0.694662,1.27989 -0.97047,1.465985 -0.275825,0.186132 -0.573163,0.693537 -0.660731,1.12764 -0.08758,0.434119 -0.300135,1.16986 -0.472276,1.635011 -0.29181,0.788563 -0.681594,1.985125 -0.960606,2.948981 -0.222896,0.76987 -1.688843,7.13926 -2.072802,9.005931 -0.210293,1.022243 -0.406281,2.429485 -0.435516,3.127211 -0.0293,0.697725 -0.243526,1.268592 -0.476071,1.268592 -0.2326,0 -0.39283,0.190323 -0.35607,0.422862 0.311453,1.972547 -1.540335,2.533562 -3.126645,0.947251 z m 34.057122,-4.783777 c -0.389967,-0.9415 -0.943792,-1.484548 -1.293516,-1.268403 -0.424929,0.262642 -0.405018,0.446836 0.06527,0.603665 0.905513,0.301864 0.869288,1.823145 -0.0433,1.823145 -0.810498,0 -2.284061,-1.638318 -2.566733,-2.85372 -0.102416,-0.440245 -0.43292,-0.952936 -0.734532,-1.139329 -0.3016,-0.186385 -0.654807,-1.203674 -0.784974,-2.260613 -0.378647,-3.075583 -1.496682,-7.501377 -2.081527,-8.23995 -0.296204,-0.374051 -0.374849,-0.944902 -0.1748,-1.268589 0.200054,-0.323707 0.154042,-0.58848 -0.102209,-0.58848 -0.256248,0 -0.424529,-0.880336 -0.373919,-1.956313 0.07937,-1.687396 -0.07431,-1.939279 -1.117862,-1.832401 -0.66546,0.06811 -1.336742,0.250791 -1.491788,0.405814 -0.155033,0.155034 -0.82926,0.586548 -1.498236,0.95882 -1.039996,0.578758 -1.428241,0.480534 -2.678137,-0.677852 -0.804,-0.74512 -1.461809,-1.593442 -1.461809,-1.885172 0,-0.516692 1.40386,-1.321098 2.53718,-1.453844 1.313895,-0.153895 3.101002,-1.002672 3.101002,-1.47279 0,-0.279489 0.361131,-0.369589 0.802488,-0.200176 0.856096,0.328501 2.280964,-1.714701 1.771091,-2.539697 -0.510767,-0.826422 -0.985318,-11.465498 -0.498046,-11.166031 0.253917,0.156027 0.488658,-0.452497 0.521687,-1.352291 0.03329,-0.899819 -0.184786,-1.636027 -0.483995,-1.636027 -0.315384,0 -0.374519,-0.651676 -0.14078,-1.550497 0.221827,-0.852779 0.518957,-2.802086 0.660332,-4.331806 0.141363,-1.5297188 0.506571,-3.2475568 0.811566,-3.8174238 0.304993,-0.5699 0.400955,-1.284586 0.21324,-1.588281 -0.187731,-0.303663 -0.08963,-0.552187 0.217815,-0.552187 0.307523,0 0.733062,-0.570899 0.945685,-1.2685886 0.600602,-1.9709032 1.892598,-3.1499996 3.104345,-2.8331255 0.602598,0.1575585 1.095597,0.044613 1.095597,-0.251719 0,-0.9380973 4.038299,-0.7331918 6.433808,0.3264373 1.26807,0.5609102 2.658006,0.9024037 3.088735,0.7588232 0.478201,-0.159423 0.628699,-0.011335 0.386502,0.3807105 -0.233006,0.3770477 0.141569,0.8575865 0.908205,1.1650455 0.717642,0.287813 1.114522,0.5394 0.881945,0.559045 -0.232599,0.01931 0.02134,0.5250156 0.563842,1.1229586 1.941942,2.139821 2.123993,2.616291 2.11919,5.5462878 -0.0041,2.512861 -0.113084,2.820965 -0.709648,2.006557 -0.387636,-0.529212 -0.70477,-0.762785 -0.70477,-0.519156 0,0.243662 -0.925377,-0.659267 -2.0564,-2.00655 -1.131007,-1.3472618 -2.263609,-2.3891838 -2.516881,-2.3153798 -0.253257,0.07378 -0.302332,-0.306793 -0.109021,-0.845727 0.193321,-0.538934 0.145302,-0.793032 -0.106683,-0.564639 -0.251987,0.228413 -0.990127,-0.279023 -1.640336,-1.12764 -0.650212,-0.848604 -1.499336,-1.5682966 -1.886964,-1.5993086 -2.150883,-0.172076 -2.434334,-0.271565 -2.138395,-0.7503865 0.178406,-0.2886792 0.06659,-0.6842263 -0.248659,-0.8790034 -0.315182,-0.1947823 -0.573031,0.041284 -0.573031,0.5248841 0,0.4834625 -0.444039,0.8968358 -0.986675,0.9186378 -0.835073,0.0333 -0.813417,0.107349 0.140982,0.480401 1.0929,0.4271906 1.088706,0.4531626 -0.135901,0.8424896 -0.694948,0.220954 -1.51953,0.24353 -1.832405,0.04994 -0.31285,-0.193384 -0.568898,-0.09789 -0.568898,0.212233 0,0.310121 0.268901,0.730001 0.597534,0.933122 0.379379,0.234473 0.22503,0.673578 -0.422863,1.202723 -0.56504,0.461487 -0.643019,0.652076 -0.174671,0.426993 0.698761,-0.335827 0.719181,-0.270433 0.117454,0.376315 -0.620243,0.666659 -0.807114,0.658002 -1.259952,-0.05794 -0.393696,-0.622708 -0.533939,-0.647613 -0.540333,-0.09596 -0.0046,0.409745 0.380711,1.13438 0.856555,1.610231 0.539133,0.539067 0.676233,1.1083078 0.363862,1.5102268 -0.574163,0.738753 -0.762872,15.713104 -0.193574,15.361268 0.205771,-0.127126 0.374051,0.481532 0.374051,1.352583 0,0.871073 -0.153635,1.488819 -0.341422,1.372768 -0.187782,-0.116071 -0.220887,0.419334 -0.07365,1.189804 0.27796,1.453871 1.260779,2.511815 1.260779,1.357106 0,-0.361599 0.359603,-0.519422 0.799067,-0.35081 0.439511,0.168613 0.918638,-0.0052 1.064782,-0.385839 0.292608,-0.762604 4.271674,-0.820075 5.470735,-0.07904 0.505771,0.312586 0.596736,0.232476 0.293472,-0.258246 -0.322174,-0.521287 -0.125205,-0.61152 0.737315,-0.337758 0.647346,0.205438 1.658957,0.115604 2.248081,-0.199711 0.846021,-0.452763 1.324461,-0.303596 2.276563,0.709877 1.450275,1.543744 1.516502,2.056181 0.265771,2.056181 -0.516824,0 -0.772745,0.16695 -0.568701,0.370989 0.204044,0.20404 0.0871,0.71302 -0.259844,1.131048 -0.517358,0.623374 -0.820642,0.541134 -1.686558,-0.457291 -0.918067,-1.058536 -1.262025,-1.028071 -1.162816,0.103007 0.04995,0.566239 -2.428634,0.333231 -2.844364,-0.267368 -0.248456,-0.358935 -0.417671,-0.2107 -0.422864,0.370521 -0.0056,0.628102 -0.306126,0.854817 -0.854364,0.644483 -0.465151,-0.178533 -0.845726,-0.02863 -0.845726,0.332898 0,0.361598 -0.253714,0.500576 -0.563842,0.308989 -0.310121,-0.191655 -0.563838,-0.108011 -0.563838,0.18586 0,0.293873 -0.888013,0.700941 -1.97336,0.904554 -1.958471,0.367392 -2.188257,0.68559 -2.062736,2.856286 0.03594,0.620179 0.09888,2.142513 0.140119,3.382907 0.04128,1.240404 0.302066,2.685834 0.579756,3.212063 0.277691,0.526216 0.550256,1.667974 0.605727,2.53718 0.05526,0.869216 1.183811,3.0489 2.507427,4.843745 2.333113,3.163737 2.612882,4.515714 1.057945,5.112398 -0.449635,0.17254 -1.022272,-0.371122 -1.431384,-1.358783 z m -3.166282,-4.197879 c -0.178458,-0.465151 -0.54313,-0.845727 -0.810332,-0.845727 -0.267169,0 -0.339756,0.380576 -0.161283,0.845727 0.178458,0.465149 0.543132,0.845725 0.810334,0.845725 0.267169,0 0.339754,-0.380576 0.161283,-0.845725 z m 22.581745,0.361198 c 0.164687,-0.266505 -0.347148,-0.413608 -1.137444,-0.326836 -1.015473,0.111482 -1.351139,-0.06593 -1.144448,-0.604462 0.198911,-0.518422 -0.06593,-0.693149 -0.828107,-0.546394 -1.698426,0.327104 -2.713629,-0.257248 -3.674251,-2.114914 -0.479265,-0.926851 -0.5968,-1.515422 -0.26104,-1.307942 0.75402,0.466017 0.778128,-0.248709 0.04662,-1.380764 -0.429256,-0.664261 -0.548391,-0.679707 -0.555182,-0.07193 -0.0075,0.634228 -0.165959,0.643285 -0.880636,0.04995 -1.249511,-1.037 -0.973924,-6.900117 0.471275,-10.025964 1.367593,-2.958026 2.93133,-4.073425 5.291907,-3.774678 1.128672,0.142841 1.883747,-0.04728 2.06515,-0.520022 0.213443,-0.556115 0.833375,-0.626305 2.443953,-0.276626 1.186899,0.257714 3.395403,0.733019 4.90779,1.056274 4.186907,0.894905 5.834803,3.302541 5.172678,7.557473 -0.430389,2.765828 -2.194741,6.752703 -2.744869,6.202574 -0.211843,-0.211844 -0.385173,-0.08684 -0.385173,0.277757 0,1.234297 -3.189195,4.074511 -4.157793,3.702824 -0.523284,-0.200765 -0.916568,-0.06958 -0.916568,0.305662 0,0.361596 -0.253713,0.500577 -0.563838,0.308989 -0.310122,-0.191644 -0.56384,0.07427 -0.56384,0.590876 0,0.603331 -0.302532,0.823234 -0.845727,0.614785 -0.465151,-0.178458 -0.845726,-0.07879 -0.845726,0.221548 0,0.3004 -0.2687,0.546125 -0.59707,0.546125 -0.328371,0 -0.462353,-0.218016 -0.297603,-0.484594 z m 3.557863,-6.199229 c 3.020311,-2.804086 3.897816,-7.052683 1.874538,-9.075959 -0.619844,-0.619847 -1.611423,-1.002094 -2.27033,-0.875201 -0.643417,0.123934 -1.021231,-0.01524 -0.839592,-0.309058 0.187326,-0.303064 -0.660335,-0.534339 -1.958304,-0.534339 -1.258703,0 -2.28855,0.236602 -2.28855,0.525814 0,0.289213 -0.507436,0.686877 -1.127634,0.883718 -0.620176,0.196853 -1.127639,0.609522 -1.127639,0.916995 0,0.307525 0.274695,0.389366 0.610386,0.181862 0.335694,-0.207497 0.232346,0.353873 -0.229756,1.247433 -1.322568,2.557577 -0.144361,7.51429 2.015209,8.477912 1.709189,0.76266 3.485546,0.284085 5.341682,-1.43918 z"
       style="fill:#000000;stroke-width:0.999998"
       id="path20477" />
  </g>
</svg>
