<?xml version="1.0" encoding="UTF-8" standalone="no"?>
<!-- Created with Inkscape (http://www.inkscape.org/) -->

<svg
   width="80mm"
   height="54mm"
   viewBox="0 0 80 54"
   version="1.1"
   id="svg9176"
   xmlns="http://www.w3.org/2000/svg"
   xmlnsSvg="http://www.w3.org/2000/svg">
  <defs
     id="defs9173" />
  <g
     id="layer1">
    <path
       d="m 27.460115,53.801268 c -0.07074,-0.07074 -0.916026,-0.156695 -1.878393,-0.191028 -0.962371,-0.03423 -2.079092,-0.191686 -2.481606,-0.349729 -0.402511,-0.158043 -1.120352,-0.337281 -1.595198,-0.398365 -0.474849,-0.06106 -0.950639,-0.252261 -1.05731,-0.424854 -0.106665,-0.172599 -0.27802,-0.302568 -0.380774,-0.288807 -0.730817,0.09781 -1.065035,-0.03758 -1.065035,-0.431381 0,-0.251016 -0.120494,-0.381918 -0.26775,-0.290916 -0.147256,0.091 -0.311904,0.0428 -0.365924,-0.107149 -0.05401,-0.149953 -0.295791,-0.31543 -0.537292,-0.367745 -0.241508,-0.05231 -0.707378,-0.367978 -1.035265,-0.701445 C 16.467691,49.91637 16.070476,49.686518 15.9129,49.739044 15.499792,49.876758 10.630569,45.085789 10.651598,44.562309 10.661279,44.320801 10.108628,43.690267 9.4234403,43.16112 8.7382526,42.631974 8.2089715,42.098278 8.2472601,41.975131 8.2855694,41.851974 7.6903948,41.132266 6.9246814,40.375764 6.1589714,39.619261 5.6320448,38.996302 5.7537324,38.991406 5.8754372,38.986606 5.7405934,38.846086 5.4541726,38.679365 4.8442966,38.32437 3.4867208,36.262138 3.4867208,35.690689 c 0,-0.216649 -0.3167782,-0.691477 -0.7039171,-1.055188 C 2.2011895,34.089102 1.9172059,33.378677 1.6021425,31.681894 1.5872752,31.601403 1.4489397,31.33794 1.2949416,31.096422 1.1409435,30.854914 0.97404887,30.459719 0.92406691,30.218211 0.87410571,29.976703 0.76387986,29.449776 0.67917054,29.047262 0.47894538,28.096125 0.19986102,25.299656 0.21172378,24.363473 0.22382508,23.414189 0.56299776,21.081581 0.7278179,20.814896 0.7981785,20.701039 0.7222859,20.56343 0.55922906,20.509078 c -0.32580241,-0.108601 0.26723197,-2.00033 0.62707714,-2.00033 0.1131993,0 0.3679842,-0.493993 0.5661418,-1.097763 0.1981506,-0.60377 0.6057718,-1.271439 0.9058088,-1.483713 0.3000439,-0.212258 0.479147,-0.493351 0.3980197,-0.624619 -0.081114,-0.131282 0.3118686,-0.63105 0.873315,-1.110629 0.5614465,-0.47958 1.0208165,-0.995553 1.0208165,-1.146612 0,-0.151059 0.6157192,-0.66318 1.3682629,-1.138054 0.7525472,-0.474867 1.542937,-1.037475 1.7564218,-1.250233 0.2135021,-0.212742 0.3881588,-0.305438 0.3881588,-0.205931 0,0.09951 0.6111588,-0.421606 1.3581324,-1.158014 0.7469741,-0.736404 1.4236941,-1.2733539 1.5038251,-1.1932223 0.08015,0.080111 0.51023,-0.1138908 0.955767,-0.4311359 0.445543,-0.3172623 0.933991,-0.576822 1.085437,-0.576822 0.15144,0 0.518,-0.2680964 0.814555,-0.5958004 0.296551,-0.3277041 0.69704,-0.5352212 0.88997,-0.4611887 0.192929,0.074026 0.636934,-0.065831 0.98667,-0.3107967 0.349738,-0.2449656 0.792986,-0.4727403 0.985003,-0.5061745 0.688528,-0.1198723 2.696986,-0.8416856 2.995719,-1.076614 0.167586,-0.1318008 0.742884,-0.3168128 1.278426,-0.4111721 0.53555,-0.094356 1.386419,-0.3899533 1.890823,-0.6568948 0.504404,-0.2669208 1.213497,-0.4505084 1.575759,-0.4079359 0.362262,0.042562 0.658658,-0.052105 0.658658,-0.2103903 0,-0.1582854 0.230513,-0.2531944 0.512288,-0.2109089 0.281753,0.042285 0.786268,-0.101582 1.121133,-0.3196826 0.334861,-0.2181006 0.697123,-0.3082728 0.805029,-0.2003635 0.107909,0.1079093 0.19618,0.026277 0.19618,-0.1811742 0,-0.3022567 0.08741,-0.3048152 0.439105,-0.012793 0.256721,0.2130526 0.439105,0.2400904 0.439105,0.065105 0,-0.1646127 0.428128,-0.3131479 0.951393,-0.3300206 1.195321,-0.038621 3.586029,-0.2648463 3.586029,-0.33935592 0,-0.1186968 1.536154,-0.2936129 3.122638,-0.3555475 0.912423,-0.035613 1.757701,-0.1635409 1.878396,-0.2843122 0.120703,-0.1207367 0.362152,-0.2175473 0.536573,-0.2150579 0.174432,0.00234 0.119527,0.1321811 -0.121981,0.2882537 -0.241508,0.1560726 -0.296413,0.2857989 -0.121981,0.2882537 0.174432,0.00234 0.404955,-0.083326 0.51229,-0.1906824 0.246211,-0.2462102 1.998034,-0.2547157 2.628524,-0.012793 0.261388,0.1003027 0.545863,0.068148 0.632163,-0.071502 0.183179,-0.2964135 0.715379,-0.2499098 1.297574,0.1133722 0.293129,0.182903 0.346001,0.1511283 0.184217,-0.1106062 -0.178789,-0.2892909 -0.0929,-0.2954453 0.404934,-0.029043 0.347519,0.1859802 0.896667,0.254128 1.220323,0.1513704 0.323658,-0.102723 0.746807,-0.062097 0.940335,0.090241 0.193518,0.1523731 0.747071,0.2782269 1.230087,0.2796791 1.134752,0.00345 1.704324,0.15258052 1.97149,0.51624282 0.138093,0.1879509 0.216683,0.1757459 0.219553,-0.033884 0.0031,-0.2260875 0.500563,-0.1887117 1.614535,0.121359 0.885531,0.2464869 1.610055,0.5581895 1.610055,0.6926975 0,0.1344977 0.197597,0.2445506 0.439105,0.2445506 0.241508,0 0.439105,0.1317317 0.439105,0.2927485 0,0.1610169 0.09882,0.2687879 0.219553,0.2395026 0.426361,-0.1033799 2.707818,0.7349969 2.707818,0.9950614 0,0.1450085 0.120495,0.1892302 0.267751,0.098194 0.147256,-0.091002 0.311903,-0.045501 0.36592,0.1011671 0.05401,0.1466335 0.427516,0.3121452 0.83003,0.3677456 0.402515,0.055597 0.891934,0.2328296 1.087606,0.3938499 0.195661,0.1610169 0.550966,0.4560888 0.789549,0.6557401 0.307028,0.2569285 0.491542,0.2695485 0.631444,0.043184 0.115931,-0.1875706 0.378737,0.054076 0.635535,0.5842903 0.240816,0.497261 0.55404,0.8323123 0.696027,0.7445604 0.142,-0.087752 0.259003,-0.052969 0.260005,0.077276 0.0026,0.3524703 1.764651,1.2897322 2.069874,1.1010932 0.144905,-0.08955 0.178132,0.074544 0.07382,0.364665 -0.104313,0.2901204 -0.09287,0.4407274 0.02524,0.3346884 0.211462,-0.189576 4.85475,4.379195 4.85475,4.776834 0,0.112024 0.349442,0.478515 0.776532,0.814465 0.427094,0.335968 0.698541,0.688815 0.603217,0.784139 -0.09532,0.09532 0.148017,0.494664 0.540784,0.887418 0.392754,0.392754 0.7141,0.839843 0.7141,0.99353 0,0.153686 0.205377,0.279437 0.456382,0.279437 0.251017,0 0.374969,0.131731 0.275461,0.292748 -0.09951,0.161017 -0.04142,0.292749 0.129104,0.292749 0.170491,0 0.310002,0.197597 0.310002,0.439105 0,0.241508 0.230513,0.678705 0.512287,0.971547 0.923812,0.960147 1.859301,2.402792 1.712318,2.640614 -0.07925,0.128239 0.100337,0.409312 0.399084,0.62464 0.29873,0.215334 0.48329,0.54754 0.410104,0.738264 -0.0732,0.190717 0.07053,0.515734 0.319372,0.722249 0.248838,0.206517 0.452427,0.499522 0.452427,0.651131 0,0.151612 0.320443,0.976228 0.712115,1.832491 0.391661,0.856262 0.801302,2.032252 0.910307,2.613313 0.109707,0.584813 0.3276,0.976501 0.488043,0.87734 0.166134,-0.102654 0.152408,0.07766 -0.03215,0.422423 -0.420812,0.786296 -0.407151,1.018524 0.04398,0.747499 0.266782,-0.160291 0.261285,-0.09073 -0.0204,0.256756 -0.265606,0.327773 -0.299525,0.642407 -0.1086,1.007591 0.152684,0.292057 0.236425,0.89564 0.186084,1.341308 -0.05525,0.488977 0.02524,0.738026 0.203406,0.628025 0.19611,-0.121187 0.199395,-2.91e-4 0.0097,0.36064 -0.156834,0.298592 -0.528752,1.316777 -0.826459,2.2626 -0.350811,1.114525 -0.747382,1.803337 -1.126942,1.957421 -0.327842,0.13308 -0.404589,0.245899 -0.174363,0.256306 0.328742,0.01487 0.314082,0.125992 -0.07319,0.553899 -0.266472,0.294443 -0.48886,0.722564 -0.494215,0.951393 -0.01556,0.660829 -1.104333,1.803077 -1.490998,1.564104 -0.23041,-0.142381 -0.268062,-0.08761 -0.112646,0.163852 0.155726,0.251984 -0.194728,0.752917 -1.052536,1.50434 -0.707313,0.619606 -1.384821,1.128612 -1.505575,1.131126 -0.120737,0.0026 -0.219553,0.265538 -0.219553,0.58447 0,0.369806 -0.257447,0.644517 -0.710659,0.758262 -0.390866,0.09809 -0.778002,0.353847 -0.860305,0.568324 -0.08841,0.230375 -0.396595,0.325387 -0.753024,0.232172 -0.343332,-0.08979 -0.603393,-0.01694 -0.603393,0.169108 0,0.416887 -1.07139,1.497827 -1.484595,1.497827 -0.172496,0 -0.497261,0.164647 -0.721682,0.36592 -1.045562,0.937645 -1.390629,1.073817 -3.062988,1.208715 -0.241508,0.01936 -0.604092,0.233003 -0.805742,0.474525 -0.31256,0.374328 -0.338042,0.352736 -0.172668,-0.146357 0.184286,-0.556264 0.158769,-0.553498 -0.511572,0.05546 -0.476907,0.433235 -0.990117,0.609375 -1.583746,0.543578 -0.483016,-0.05352 -0.964843,0.04132 -1.070726,0.210805 -0.238362,0.381542 -2.003012,-0.285833 -2.003012,-0.757536 0,-0.221662 -0.09619,-0.219587 -0.322726,0.0069 -0.435979,0.435976 -1.445175,-0.420563 -1.211868,-1.028554 0.102861,-0.268028 0.04778,-0.368296 -0.138889,-0.252918 -0.17011,0.105143 -0.472007,-0.0048 -0.670846,-0.244447 -0.287286,-0.346143 -0.28445,-0.631081 0.01383,-1.387279 0.206414,-0.523411 0.505224,-1.083388 0.664045,-1.244394 0.19127,-0.193898 0.219,-0.169211 0.08219,0.0732 -0.113614,0.201262 -0.07309,0.36592 0.0901,0.36592 0.163196,0 0.626037,0.329329 1.028551,0.731843 0.642709,0.642709 1.758258,0.948848 2.661246,0.730333 0.422616,-0.102274 1.986125,-0.339183 2.41508,-0.365972 0.201262,-0.01245 0.36592,-0.132596 0.36592,-0.266782 -7e-6,-0.134187 0.205377,-0.243963 0.456375,-0.243963 0.251017,0 0.382558,-0.119458 0.292334,-0.265434 -0.09024,-0.145977 0.113061,-0.192965 0.451791,-0.104383 0.360986,0.09439 0.72273,-0.0076 0.874135,-0.246867 0.184943,-0.292057 0.259556,-0.303986 0.262771,-0.04197 0.003,0.241058 0.188643,0.191097 0.544111,-0.146357 0.296794,-0.281754 0.963985,-0.741591 1.482648,-1.021847 0.518663,-0.280267 0.861777,-0.641011 0.762484,-0.801675 -0.0993,-0.160671 -5.84e-4,-0.223114 0.219069,-0.138785 0.21976,0.08433 0.642231,-0.114756 0.938783,-0.44246 0.296552,-0.327704 0.716371,-0.595797 0.932926,-0.595797 0.216545,0 0.393736,-0.165442 0.393736,-0.367645 0,-0.202196 0.397017,-0.543381 0.882263,-0.758172 0.846831,-0.374844 2.849262,-2.867214 2.694766,-3.354102 -0.04104,-0.129381 0.09238,-0.421206 0.296517,-0.6485 0.95817,-1.066892 1.149246,-1.363118 0.985128,-1.527237 -0.0973,-0.09729 2.94e-4,-0.450906 0.216891,-0.785767 0.949926,-1.468559 1.282018,-5.284143 0.581673,-6.683136 -0.31913,-0.637488 -0.325284,-0.805959 -0.02974,-0.809507 0.238742,-0.0029 0.264293,-0.08208 0.07091,-0.219552 -0.166376,-0.118282 -0.292956,-0.41267 -0.281235,-0.654178 0.01176,-0.241508 -0.346133,-1.159995 -0.795231,-2.041086 -0.449101,-0.881088 -0.816542,-1.737772 -0.816542,-1.90374 0,-0.165961 -0.395195,-0.67476 -0.878211,-1.130648 -0.483016,-0.455892 -0.878211,-0.977757 -0.878211,-1.159705 0,-0.181935 -0.266644,-0.598906 -0.592543,-0.926579 -1.087118,-1.093033 -2.029833,-2.775357 -1.83692,-3.278081 0.123018,-0.320616 0.07347,-0.417278 -0.144732,-0.28241 -0.182488,0.112784 -0.600074,-0.0632 -0.927961,-0.391084 C 69.034926,16.728073 68.92423,16.4598 69.1168,16.4598 c 0.192584,0 -0.07088,-0.4344 -0.585473,-0.965333 -0.5146,-0.530931 -0.935637,-1.123723 -0.935637,-1.317317 0,-0.193586 -0.120771,-0.351982 -0.268338,-0.351982 -0.147567,0 -0.41251,-0.362262 -0.588716,-0.805026 -0.235941,-0.592813 -0.28815,-0.631396 -0.198185,-0.146357 0.06721,0.362262 0.05415,0.658658 -0.02904,0.658658 -0.08319,0 -0.735634,-0.592792 -1.449909,-1.317316 -0.714269,-0.724524 -1.411106,-1.317316 -1.548514,-1.317316 -0.137402,0 -0.691132,-0.437412 -1.230502,-0.972028 C 61.245548,8.898016 59.622358,7.9734538 58.841736,7.9659648 58.514689,7.9628323 58.479858,7.8944632 58.725667,7.7381832 58.956111,7.5916879 58.75471,7.3847033 58.140191,7.1363598 57.624989,6.9281477 56.84093,6.5619891 56.397834,6.3226421 55.954739,6.0832777 55.460745,5.9687093 55.300071,6.0680301 55.1394,6.1673301 55.00791,6.1090711 55.00791,5.9385804 c 0,-0.1704905 -0.245692,-0.3100015 -0.545995,-0.3100015 -0.300286,0 -0.872993,-0.2572052 -1.272655,-0.5715874 -0.548564,-0.4315023 -0.809348,-0.4888972 -1.064057,-0.234178 -0.229787,0.229787 -0.337385,0.2362525 -0.337385,0.020399 0,-0.174432 -0.296379,-0.413582 -0.658658,-0.5314558 C 50.766898,4.19389 50.371703,4.0632648 50.250949,4.0214633 49.691553,3.8279112 49.576172,3.8058522 49.341925,3.8478956 49.204212,3.8724441 48.882541,3.7235285 48.627072,3.5166303 48.236728,3.2004744 48.201776,3.2105358 48.408107,3.5795573 48.60356,3.9291544 48.576039,3.9468638 48.27309,3.6664453 48.008901,3.4218947 47.727289,3.4026709 47.351934,3.6035533 c -0.31989,0.171182 -0.540629,0.1783736 -0.540629,0.017633 0,-0.1494341 -0.204443,-0.3501641 -0.454308,-0.4460516 -0.249875,-0.095877 -0.39403,-0.077034 -0.32034,0.041871 0.07368,0.1189043 -1.302466,0.216199 -3.0581,0.216199 -1.929598,0 -3.193997,-0.1157925 -3.196971,-0.2927485 -0.0026,-0.1610178 -0.134636,-0.095152 -0.293163,0.146356 -0.180794,0.2753918 -0.370111,0.3299515 -0.507807,0.146357 -0.267508,-0.3566677 -2.495813,-0.4298358 -2.727553,-0.089584 -0.243928,0.3581579 -3.835237,0.5228397 -4.432389,0.2032678 -0.391375,-0.2094568 -0.473432,-0.175089 -0.350009,0.1465298 0.128274,0.3342388 -0.08941,0.3959936 -1.06492,0.3020146 -1.112905,-0.1071832 -1.189233,-0.073369 -0.826466,0.3664145 0.358849,0.4350187 0.337212,0.4512517 -0.21167,0.1588732 -0.675181,-0.3596446 -1.967164,-0.1530645 -1.704157,0.2724874 0.151508,0.2451384 -1.309776,0.190475 -2.11004,-0.078935 -0.179965,-0.060576 -0.587105,0.2076242 -0.904751,0.5960286 -0.442342,0.5408672 -0.633308,0.6159404 -0.815782,0.3206852 -0.16814,-0.2720379 -0.125474,-0.3157756 0.144939,-0.1486735 0.255477,0.1578705 0.312595,0.1225692 0.17139,-0.1059039 -0.116519,-0.1885042 -0.33659,-0.2656069 -0.489112,-0.1713549 -0.152511,0.094252 -0.201504,0.2939932 -0.108877,0.4438769 0.09263,0.1498836 -0.02835,0.272522 -0.268892,0.272522 -0.24054,0 -0.808161,0.1503676 -1.261408,0.334135 -0.799196,0.3240391 -1.527064,0.5017973 -2.434138,0.5944105 -0.241508,0.024548 -0.599579,0.253955 -0.795718,0.5095352 -0.196145,0.2555801 -0.360796,0.3407389 -0.36592,0.1891956 -0.0052,-0.1515432 -0.216683,-0.019708 -0.470123,0.2927485 -0.253436,0.3125255 -0.36333,0.3808047 -0.24417,0.1517161 0.16195,-0.3113499 0.04011,-0.2928867 -0.482532,0.073196 -0.384542,0.2693411 -0.933313,0.4897096 -1.219503,0.4897096 -0.286179,0 -0.520336,0.145838 -0.520336,0.324039 0,0.182592 -0.213675,0.242061 -0.489441,0.136226 -0.32798,-0.125854 -0.762404,0.111056 -1.316856,0.718083 -0.455076,0.498246 -0.966108,0.820187 -1.13562,0.71542 -0.169522,-0.104763 -0.621044,0.147083 -1.003401,0.559645 -0.458941,0.495207 -0.744435,0.628585 -0.840091,0.392474 -0.0797,-0.196698 -0.155312,-0.05349 -0.168001,0.3183 -0.01279,0.371763 -0.146703,0.599541 -0.297797,0.506174 -0.151059,-0.09335 -0.8029197,0.326978 -1.44855,0.934119 -1.4436957,1.357604 -1.7857346,1.637469 -2.5249877,2.066026 -0.3200629,0.185565 -0.4104979,0.341361 -0.2009512,0.346264 0.2095605,0.0048 0.025586,0.338249 -0.4086654,0.740743 -0.4343203,0.402515 -0.6982434,0.731844 -0.5864928,0.731844 0.1117472,0 -0.1983581,0.583595 -0.6890982,1.296879 -0.4907505,0.71328 -0.8922726,1.495095 -0.8922726,1.737364 0,0.242268 -0.1474288,0.811325 -0.3276003,1.264571 -0.3704909,0.931976 -0.4190069,5.159199 -0.065693,5.723619 0.127306,0.203337 0.2414734,0.501462 0.2537476,0.662465 0.1360882,1.78728 2.2192321,6.87932 2.8143167,6.87932 0.1579397,0 0.2166139,0.114132 0.1304178,0.253609 -0.086196,0.139476 0.103622,0.489233 0.4218282,0.777213 0.3182305,0.287977 0.5785716,0.6717 0.5785716,0.852708 0,0.181002 0.2564099,0.51392 0.5697963,0.7398 0.3133899,0.22588 0.503208,0.518417 0.4218282,0.650094 -0.08139,0.131697 0.07935,0.239433 0.3572071,0.239433 0.2778466,0 0.4218144,0.08336 0.3199247,0.18522 -0.1018932,0.101893 0.1396493,0.440768 0.5366836,0.753093 0.3970551,0.312318 0.7219174,0.672205 0.7219174,0.799739 0,0.127548 0.922121,1.198958 2.049159,2.38094 1.127035,1.181975 2.049157,2.261428 2.049157,2.398775 0,0.137332 0.131731,0.168312 0.292748,0.0688 0.161017,-0.09951 0.292749,0.02455 0.292749,0.275461 0,0.251016 0.197597,0.456383 0.439105,0.456383 0.241508,0 0.439106,0.201746 0.439106,0.448292 0,0.246556 0.230547,0.532251 0.512287,0.634863 0.281754,0.10262 0.945003,0.559542 1.473873,1.015392 0.528866,0.455854 1.076071,0.828824 1.216007,0.828824 0.139926,0 1.039076,0.443507 1.998086,0.98557 1.854121,1.04801 4.417245,1.805097 5.315731,1.570137 0.298764,-0.07814 0.716163,-0.03516 0.92756,0.0955 0.211393,0.13066 0.518196,0.154828 0.681789,0.05373 0.163575,-0.101098 0.630946,-0.21893 1.038557,-0.261873 1.286499,-0.135431 2.179342,-0.328776 3.009826,-0.651784 0.442763,-0.172185 0.805025,-0.234351 0.805025,-0.138128 0,0.09622 0.171217,0.03285 0.380445,-0.140756 0.20925,-0.173671 0.945059,-0.406031 1.635139,-0.516378 0.69008,-0.110329 1.323364,-0.379587 1.407298,-0.59831 0.08391,-0.218723 0.337904,-0.397681 0.564362,-0.397681 0.226467,0 0.640499,-0.123779 0.920074,-0.275046 0.279576,-0.151267 0.865937,-0.350223 1.303023,-0.442093 0.43709,-0.09187 1.114713,-0.487037 1.505824,-0.878152 0.391112,-0.391112 0.789104,-0.633117 0.884431,-0.537793 0.09532,0.09532 0.454481,-0.184148 0.798131,-0.621013 0.343643,-0.436879 0.802339,-0.726208 1.019306,-0.642947 0.216959,0.08326 0.472346,0.02524 0.567504,-0.128586 0.308342,-0.498913 1.348379,-0.29669 1.885484,0.366602 0.418101,0.516332 0.457033,0.764634 0.19331,1.232814 -0.420068,0.745684 -0.975436,1.353313 -1.2712,1.390813 -0.333443,0.04228 -1.477863,0.506219 -3.212132,1.302179 -0.835144,0.383298 -1.648907,0.696906 -1.808357,0.696906 -0.159461,0 -0.531349,0.306924 -0.826431,0.682062 -0.295065,0.375134 -0.699834,0.62762 -0.899458,0.561076 -0.199637,-0.06652 -0.362946,0.01003 -0.362946,0.170249 0,0.160187 -0.230513,0.254404 -0.512291,0.209353 -0.281754,-0.04502 -0.868008,0.09837 -1.302778,0.318645 -0.434769,0.220279 -1.060495,0.400499 -1.390501,0.400499 -0.330021,0 -0.600012,0.136226 -0.600012,0.30274 0,0.166515 -0.352529,0.255546 -0.783392,0.19784 -0.430869,-0.05771 -1.305979,0.147567 -1.944691,0.456165 -0.645986,0.31211 -1.532395,0.506613 -1.997608,0.438334 -0.459972,-0.06749 -0.836309,-0.01383 -0.836309,0.119285 0,0.25641 -0.399966,0.329951 -0.616532,0.113407 z M 42.713493,2.7009384 c 0,-0.1610169 -0.139511,-0.2927485 -0.310001,-0.2927485 -0.170491,0 -0.228612,0.1317316 -0.129104,0.2927485 0.09951,0.1610168 0.239018,0.2927485 0.310001,0.2927485 0.07098,0 0.129104,-0.1317317 0.129104,-0.2927485 z"
       style="fill:#000000;stroke-width:0.999999"
       id="path20735" />
  </g>
</svg>
