<?xml version="1.0" encoding="UTF-8" standalone="no"?>
<!-- Created with Inkscape (http://www.inkscape.org/) -->

<svg
   width="73mm"
   height="61mm"
   viewBox="0 0 73 61"
   version="1.1"
   id="svg9176"
   xmlns="http://www.w3.org/2000/svg"
   xmlnsSvg="http://www.w3.org/2000/svg">
  <defs
     id="defs9173" />
  <g
     id="layer1">
    <path
       d="m 47.79593,60.705795 c -0.105563,-0.170807 -0.724143,-0.310575 -1.374617,-0.310575 -0.66954,0 -1.34874,-0.200088 -1.565413,-0.461167 -0.210532,-0.253653 -0.48361,-0.398829 -0.606893,-0.322645 -0.358093,0.221323 -1.563982,-0.75422 -1.563982,-1.265217 0,-0.257166 -0.151129,-0.371899 -0.337864,-0.256473 -0.550365,0.340134 -3.261556,-2.794772 -3.612394,-4.176972 -0.171818,-0.676896 -0.242235,-1.300864 -0.156535,-1.386594 0.08574,-0.08571 0.552572,0.221174 1.037435,0.68197 1.418985,1.348581 1.753281,1.586085 1.952329,1.387036 0.103307,-0.10333 0.187841,-0.05531 0.187841,0.106718 0,0.425245 1.80298,1.428039 2.165132,1.204218 0.174856,-0.108086 0.226657,0.01679 0.121082,0.291844 -0.137618,0.358643 0.02048,0.480665 0.622986,0.480665 0.444091,0 0.807438,0.15429 0.807438,0.342841 0,0.188582 0.216311,0.25987 0.480671,0.158386 0.275638,-0.105742 0.399946,-0.05385 0.291441,0.121708 -0.109017,0.176362 0.245321,0.318767 0.835646,0.335886 3.308353,0.09585 5.045016,0.01901 4.999569,-0.221198 -0.02855,-0.15019 0.389702,-0.257931 0.929163,-0.23942 0.539454,0.01877 1.064471,-0.09531 1.166695,-0.252886 0.10222,-0.157596 0.380976,-0.317561 0.619441,-0.355496 0.582998,-0.09273 2.231401,-1.172356 2.539582,-1.663331 0.377345,-0.601156 2.048309,-1.376927 2.441891,-1.133683 0.208582,0.128908 0.262579,0.07639 0.134456,-0.130877 -0.327545,-0.530001 0.941123,-1.607162 1.899198,-1.612496 0.663711,-0.0037 0.749173,-0.07104 0.38715,-0.304976 -0.370153,-0.239198 -0.377372,-0.301211 -0.03548,-0.304978 0.455035,-0.0053 1.893837,-1.406431 1.893837,-1.844609 0,-0.142629 0.237964,-0.240012 0.52884,-0.216335 0.306733,0.02489 0.717061,-0.347229 0.976976,-0.886142 0.246481,-0.51104 0.533987,-0.998849 0.638918,-1.084025 0.104912,-0.08516 0.361128,-0.503295 0.569378,-0.929161 0.439985,-0.899849 0.939652,-1.707906 1.699406,-2.748266 0.298099,-0.408206 0.553018,-1.106677 0.566462,-1.552157 0.01357,-0.445482 0.09475,-0.635749 0.180683,-0.422814 0.08591,0.212928 0.38851,0.385018 0.672417,0.382412 0.408339,-0.0037 0.428266,-0.06047 0.09539,-0.271398 -0.497776,-0.315403 -0.214978,-2.618703 0.4363,-3.553493 0.221323,-0.317671 0.328317,-0.77063 0.237792,-1.006595 -0.102624,-0.267518 0.04498,-0.429023 0.39228,-0.429023 0.529189,0 0.529851,-0.01974 0.01312,-0.397535 -0.511875,-0.37429 -0.502092,-0.450383 0.167399,-1.30149 0.391078,-0.497176 0.546392,-0.802189 0.345142,-0.677814 -0.21337,0.131876 -0.499139,-0.02272 -0.685496,-0.371007 -0.251754,-0.470418 -0.205768,-0.641293 0.216754,-0.805099 0.507462,-0.196732 0.507158,-0.229445 -0.0061,-0.607116 -0.297881,-0.219569 -0.541785,-0.627716 -0.541785,-0.907044 0,-0.279334 0.243891,-0.751772 0.542007,-1.04988 0.577075,-0.577071 0.688944,-1.117759 0.309733,-1.496976 -0.127774,-0.127775 -0.232283,-0.01727 -0.232283,0.245961 0,0.263057 -0.235149,0.669563 -0.522568,0.90335 -0.459808,0.374018 -0.497114,0.357218 -0.310614,-0.139973 0.12443,-0.331754 0.03145,-0.74544 -0.225,-1.001989 -0.452312,-0.45231 -0.455511,-0.797298 -0.01679,-1.821342 0.167622,-0.391297 0.129222,-0.643576 -0.109993,-0.723321 -0.202063,-0.06735 -0.288587,-0.249923 -0.192311,-0.405726 0.0963,-0.155795 0.03906,-0.28325 -0.127136,-0.28325 -0.166188,0 -0.382209,0.174238 -0.480004,0.387151 -0.09778,0.212927 -0.106269,0.09326 -0.01877,-0.265982 0.09168,-0.37652 -0.04072,-0.818903 -0.312584,-1.044512 -0.259362,-0.215249 -0.471552,-0.53316 -0.471552,-0.706457 0,-0.173276 -0.243916,-0.514999 -0.54201,-0.759345 -0.298102,-0.244334 -0.367796,-0.356007 -0.154856,-0.248165 0.471144,0.238655 0.490978,0.0034 0.06654,-0.789972 -0.226186,-0.422635 -0.220805,-0.599079 0.01826,-0.599079 0.186387,0 0.238654,-0.174238 0.116114,-0.387152 -0.122538,-0.212928 -0.108759,-0.283833 0.03071,-0.157547 0.139393,0.126266 0.440495,0.07437 0.669096,-0.115324 0.228605,-0.189719 0.426008,-0.293052 0.438664,-0.229593 0.240161,1.203657 0.240012,1.516783 -6.2e-4,1.368039 -0.159103,-0.09834 -0.389862,-0.01604 -0.51283,0.182977 -0.293855,0.475477 0.723063,1.207113 1.345708,0.968183 0.320267,-0.12291 0.409135,-0.06301 0.261336,0.176138 -0.123176,0.199299 -0.09326,0.362338 0.06647,0.362338 0.323563,0 1.1803,1.862733 1.047792,2.278071 -0.04649,0.145701 0.06463,0.444615 0.246958,0.66427 0.375967,0.453013 0.304576,1.128876 -0.154856,1.466433 -0.179348,0.131772 -0.103308,0.229544 0.180683,0.232285 0.26971,0.0026 0.502426,0.178954 0.517138,0.391891 0.03291,0.477142 0.293017,1.618795 0.561237,2.463863 0.123381,0.38874 0.08112,0.559358 -0.109376,0.441618 -0.170758,-0.105529 -0.393141,0.02369 -0.494215,0.287016 -0.105259,0.274211 -0.05293,0.398018 0.122412,0.28965 0.181026,-0.111889 0.307903,0.292903 0.310392,0.990503 0.0026,0.648852 0.09396,1.51512 0.203643,1.925032 0.139826,0.522555 0.09227,0.679084 -0.159103,0.523733 -0.197248,-0.121836 -0.358569,-0.08219 -0.358569,0.08818 0,0.170362 0.121976,0.385089 0.270994,0.477207 0.149071,0.09211 0.26825,0.553314 0.264883,1.024871 -0.0035,0.471559 -0.06722,0.683164 -0.141972,0.470234 -0.07468,-0.212953 -0.273005,-0.387155 -0.440623,-0.387155 -0.273886,0 -0.188682,0.541801 0.28204,1.793561 0.08446,0.224605 -0.03585,0.360321 -0.274799,0.309733 -0.26331,-0.0558 -0.44116,0.204631 -0.467213,0.684202 -0.02296,0.425869 -0.196906,1.165548 -0.386219,1.643736 -0.208705,0.527208 -0.222605,0.794309 -0.03548,0.678591 0.169843,-0.104968 0.308779,-0.05817 0.308779,0.104048 0,0.162164 -0.240013,0.386963 -0.533325,0.499523 -0.456878,0.175323 -0.467978,0.245962 -0.07745,0.492975 0.362446,0.229224 0.316795,0.289285 -0.222704,0.293051 -0.37323,0.0026 -0.779369,0.167795 -0.902544,0.367096 -0.149178,0.241371 -0.0571,0.298319 0.275675,0.170609 0.350816,-0.134606 0.448325,-0.05805 0.327404,0.257093 -0.0947,0.246853 -0.381288,0.448808 -0.636806,0.448808 -0.285698,0 -0.395943,0.178879 -0.286285,0.464579 0.09805,0.255521 0.0153,0.464581 -0.183669,0.464581 -0.275492,0 -0.275749,0.08619 -9.27e-4,0.360874 0.545463,0.545461 -0.529316,1.277003 -1.138561,0.774957 -0.37261,-0.307061 -0.382251,-0.255557 -0.06398,0.34174 0.390466,0.732761 0.205101,1.450757 -0.294736,1.141823 -0.158583,-0.09799 -0.28833,-0.04082 -0.28833,0.127072 0,0.167916 -0.243889,0.369024 -0.542013,0.446927 -0.378827,0.09898 -0.308891,0.158362 0.232285,0.1972 0.774013,0.05551 0.774047,0.05567 0.07745,0.335669 -0.383279,0.154042 -0.69687,0.470107 -0.69687,0.702334 0,0.23221 -0.348433,0.608696 -0.774303,0.836616 -0.425862,0.227941 -0.774298,0.654679 -0.774298,0.948361 0,0.67533 -0.945583,1.061908 -1.304466,0.533302 -0.208434,-0.307027 -0.258667,-0.291734 -0.220361,0.06693 0.107402,1.005589 -0.05417,1.173825 -1.080758,1.125547 -0.581338,-0.02743 -0.991233,0.05667 -0.910884,0.186681 0.08021,0.130012 -0.07133,0.236384 -0.336875,0.236384 -0.303845,0 -0.482862,0.276882 -0.482862,0.746896 0,0.539059 -0.150832,0.721906 -0.542012,0.657088 -0.589093,-0.09761 -2.006529,1.018408 -1.773123,1.396065 0.178508,0.288882 -0.688213,0.679123 -1.696403,0.76382 -0.417713,0.03511 -0.812607,0.223174 -0.877545,0.418011 -0.06492,0.19483 -0.385199,0.354218 -0.711697,0.354218 -0.326487,0 -0.593631,0.147594 -0.593631,0.327986 0,0.180384 -0.139377,0.241864 -0.309733,0.136588 -0.170362,-0.10527 -0.309733,-0.02888 -0.309733,0.169745 0,0.198631 -0.214336,0.278894 -0.476304,0.17836 -0.266422,-0.102242 -0.55099,0.01162 -0.645791,0.258884 -0.129594,0.337791 -0.355275,0.371037 -0.959245,0.141421 -0.586661,-0.223026 -0.973969,-0.179573 -1.506103,0.169103 -0.443853,0.290819 -0.788543,0.352532 -0.90615,0.162239 -0.125182,-0.202559 -0.387872,-0.201127 -0.771655,0.0045 -0.388788,0.208064 -0.645536,0.208359 -0.773786,9.25e-4 z m 9.565899,-3.374469 c -0.11259,-0.103499 -0.267261,-0.01312 -0.343644,0.200928 -0.07641,0.213991 -0.28793,0.297003 -0.470036,0.184436 -0.200505,-0.123892 -0.240258,-0.05762 -0.100817,0.167992 0.178287,0.288479 0.330658,0.289321 0.674776,0.0037 0.244482,-0.202879 0.352351,-0.453567 0.239741,-0.557052 z M 70.461722,38.966452 c -0.09889,-0.247068 -0.172262,-0.173695 -0.187101,0.187103 -0.01357,0.326484 0.05973,0.509419 0.162682,0.406506 0.102904,-0.102904 0.113918,-0.370055 0.02444,-0.593636 z m 0.544496,-11.256575 c 0.330657,-0.250106 0.461834,-0.454728 0.29148,-0.454728 -0.170362,0 -0.580265,0.204631 -0.910931,0.454728 -0.330656,0.250107 -0.461834,0.454729 -0.291478,0.454729 0.170362,0 0.580265,-0.20463 0.910929,-0.454729 z m -0.136633,-2.003334 c 0,-0.170364 -0.139377,-0.309734 -0.309733,-0.309734 -0.170361,0 -0.309734,0.139377 -0.309734,0.309734 0,0.17036 0.139379,0.309731 0.309734,0.309731 0.170361,0 0.309733,-0.139377 0.309733,-0.309731 z M 16.233138,56.13999 c -0.129647,-0.12965 -0.328608,-0.247729 -0.442179,-0.262435 -0.113546,-0.01457 -0.415538,-0.09812 -0.67106,-0.185324 -1.868926,-0.637955 -2.45385,-0.784468 -2.430828,-0.608874 0.0755,0.57594 -0.111978,0.651765 -0.743807,0.300806 -0.38328,-0.212903 -0.76656,-0.39287 -0.851731,-0.399953 -0.08516,-0.0069 -0.941782,-0.564073 -1.9035791,-1.237749 C 8.0965845,52.980625 7.2933453,52.144665 7.0465946,51.515789 6.8295685,50.962598 6.4666241,50.43887 6.2401167,50.35195 6.0136093,50.26503 5.8282847,49.987418 5.8282847,49.735006 c 0,-0.252412 -0.1817435,-0.570367 -0.4038589,-0.706593 C 4.616257,48.532782 2.6164777,43.179711 2.2657395,40.573141 2.1625839,39.806586 2.0077698,38.830965 1.921658,38.405098 1.6801887,37.210515 1.385112,32.9396 1.3599724,30.27492 1.3476228,28.954727 1.2335594,27.874577 1.106721,27.87459 c -0.12683311,6e-6 -0.14293127,-0.522642 -0.03585,-1.161439 0.1071543,-0.638798 0.1971754,-1.370514 0.2000146,-1.626033 0.00272,-0.25552 0.1254258,-0.543691 0.2723841,-0.640377 0.1469562,-0.09668 0.2836499,-0.906538 0.3037698,-1.799658 0.019998,-0.893125 0.2036195,-1.790877 0.4077378,-1.99501 0.2041133,-0.204113 0.3135004,-0.544126 0.2430001,-0.75554 -0.070466,-0.211396 -0.012094,-0.384482 0.1299688,-0.384602 0.1419679,-1.2e-4 0.2801021,-0.379116 0.3069871,-0.842217 0.026715,-0.463107 0.2011011,-0.892742 0.3871511,-0.954753 0.1860647,-0.062 0.3382646,-0.449575 0.3382646,-0.861245 0,-0.411669 0.1393758,-0.748493 0.3097326,-0.748493 0.170362,0 0.3097326,-0.371661 0.3097326,-0.82592 0,-0.454258 0.099678,-0.72623 0.2215446,-0.604376 0.1218486,0.121836 0.536628,-0.492402 0.9217264,-1.364998 0.3900087,-0.883717 0.8406839,-1.499705 1.017342,-1.390531 0.2994173,0.185028 0.3671422,0.05712 0.4410393,-0.833054 0.050126,-0.603751 1.4342672,-1.8256263 1.8070708,-1.5952243 0.2209762,0.136588 0.2722354,0.02888 0.1445606,-0.303808 -0.1291282,-0.336509 -0.039896,-0.515386 0.257094,-0.515386 0.2501773,0 0.4200156,-0.1678679 0.377428,-0.3730724 C 9.4248283,8.0936779 9.5293463,7.9006986 9.6997053,7.8700405 10.652783,7.698517 11.374515,7.3275342 11.225195,7.0859263 c -0.09405,-0.1521654 0.07863,-0.3725038 0.383812,-0.4896051 0.305161,-0.1171102 0.871485,-0.5545846 1.258514,-0.9721984 0.387026,-0.4176126 0.70369,-0.59414 0.70369,-0.3922848 0,0.2018675 0.30911,0.079012 0.686908,-0.2729312 l 0.686914,-0.6399533 0.23226,0.6278873 c 0.127747,0.3453252 0.376133,0.6278883 0.551972,0.6278883 0.175843,0 0.319719,0.1564121 0.319719,0.3476314 0,0.2401845 -0.143572,0.2284573 -0.464581,-0.037924 -0.379854,-0.3152549 -0.464581,-0.2956858 -0.464581,0.1072225 0,0.3402058 -0.167794,0.4298974 -0.542011,0.2896523 -0.477257,-0.178856 -0.490528,-0.1398413 -0.111058,0.3265234 0.377806,0.4643356 0.366692,0.5049991 -0.09011,0.3297045 -0.286579,-0.1099707 -0.498851,-0.078316 -0.471711,0.070341 0.116116,0.6359858 -0.05589,0.855087 -0.33373,0.4251482 -0.254568,-0.3939068 -0.300953,-0.379345 -0.304978,0.095692 -0.0025,0.3081602 -0.145128,0.473539 -0.316646,0.3675134 -0.17157,-0.1060111 -0.408672,0.059943 -0.526948,0.3688773 -0.304241,0.7946416 -1.407139,1.6544786 -1.899144,1.4806156 -0.6905303,-0.243987 -1.0452462,0.175103 -0.6065299,0.7166563 0.2211979,0.273041 0.2528489,0.407155 0.070266,0.298028 -0.3048323,-0.182239 -1.3715586,0.759136 -1.3715586,1.210385 0,0.107032 -0.2168538,0.353154 -0.4818698,0.546954 -0.2650312,0.193817 -0.514229,0.572846 -0.5537796,0.84234 -0.039552,0.269493 -0.3105384,0.728597 -0.6021602,1.020229 -0.2916257,0.291626 -0.5302362,0.71939 -0.5302362,0.950574 0,0.231198 -0.241765,0.662103 -0.5372565,0.957597 -0.2991261,0.299122 -0.493195,0.873494 -0.4378593,1.295799 0.058938,0.449757 -0.027432,0.680237 -0.2118412,0.566183 -0.2939653,-0.181693 -0.4683221,0.315075 -0.8480055,2.416154 -0.089398,0.494808 -0.3230846,1.191678 -0.5192378,1.548602 -0.379865,0.69119 -0.4717616,1.421877 -0.6553007,5.210433 -0.072367,1.493404 -0.00321,2.323741 0.1839415,2.208102 0.1931509,-0.119384 0.1935212,0.02074 0.00123,0.394048 -0.1643126,0.318661 -0.2363092,0.753606 -0.1599673,0.966535 0.076341,0.212954 -0.00765,0.387155 -0.187003,0.387155 -0.1792009,0 -0.245568,0.20905 -0.1475228,0.464577 0.1168334,0.304502 -0.00962,0.464582 -0.3668311,0.464582 -0.493763,0 -0.487188,0.05106 0.069724,0.542012 0.3615696,0.318728 0.6246676,0.956666 0.6386791,1.548602 0.013079,0.553625 0.047158,1.041434 0.075675,1.084021 0.1130072,0.168757 0.3207814,1.379766 0.4384075,2.555196 0.068194,0.681382 0.1543381,1.308567 0.1914227,1.393741 0.037087,0.08516 0.056882,0.241542 0.04397,0.347487 -0.012834,0.105944 0.329193,1.151254 0.7602288,2.322903 0.4310282,1.171643 0.8388794,2.393255 0.9063322,2.714693 0.067456,0.321436 0.315219,0.809248 0.5505998,1.084018 0.235396,0.274761 0.8912597,1.356487 1.4575129,2.403803 0.6545649,1.21066 1.3764422,2.086468 1.9819842,2.404617 0.5238428,0.275198 1.5720598,0.849742 2.3293698,1.276717 1.145569,0.645875 3.086518,1.14006 4.507762,1.147716 0.786895,0.0045 4.131449,-0.457187 5.052521,-0.69706 0.833327,-0.217026 1.138882,-0.154511 1.626033,0.332633 1.080449,1.080449 0.691532,2.46741 -0.633349,2.258614 -0.484304,-0.07634 -0.969692,0.0054 -1.078636,0.181745 -0.120712,0.195297 0.02,0.25226 0.360032,0.145775 0.528318,-0.165376 0.527977,-0.155426 -0.0062,0.186335 -0.310469,0.198619 -0.902789,0.276163 -1.316313,0.172349 -0.41365,-0.103779 -0.751988,-0.06409 -0.751988,0.0882 0,0.152289 -0.348437,0.27692 -0.774305,0.27692 -0.425865,0 -0.776436,-0.156781 -0.779042,-0.348434 -0.0035,-0.255372 -0.06553,-0.256178 -0.232286,-0.0034 -0.307647,0.466975 -1.454929,0.801737 -1.746934,0.509732 z M 72.752366,32.959166 c 0.01505,-0.360799 0.08828,-0.434199 0.187103,-0.187099 0.08948,0.223592 0.07845,0.490714 -0.02444,0.593633 -0.102915,0.102904 -0.176114,-0.08 -0.162684,-0.406508 z m -5.08446,-12.289672 c 0.126242,-0.204261 0.02444,-0.263786 -0.262762,-0.153572 -0.500804,0.192163 -2.343029,-1.184273 -2.018873,-1.508431 0.105472,-0.105472 -0.115961,-0.463778 -0.491981,-0.796306 -0.376036,-0.332523 -0.494552,-0.506829 -0.263385,-0.387346 0.319864,0.1653 0.36746,0.05067 0.199099,-0.47977 -0.150707,-0.474825 -0.111888,-0.629457 0.12167,-0.485085 0.188607,0.116536 0.342915,0.05939 0.342915,-0.126983 0,-0.741219 1.201515,0.334678 1.548756,1.386834 0.197718,0.599085 0.477594,1.016258 0.621946,0.927041 0.144343,-0.08923 0.360982,0.153374 0.481364,0.539157 0.120393,0.385756 0.35129,0.786568 0.513061,0.89069 0.161794,0.104138 0.0035,0.265358 -0.351911,0.358275 -0.414962,0.108502 -0.572329,0.04968 -0.439953,-0.164536 z m -3.921888,-3.808265 c 0,-0.265581 -0.137766,-0.397705 -0.306185,-0.293639 -0.180139,0.111328 -0.224581,-0.02345 -0.108007,-0.32718 0.154805,-0.403425 0.06679,-0.474716 -0.402226,-0.325865 -0.464392,0.147371 -0.612209,0.03365 -0.652582,-0.502363 -0.03585,-0.47382 0.02781,-0.563459 0.200829,-0.283505 0.188213,0.304539 0.297917,0.237791 0.428276,-0.260675 0.138407,-0.529302 0.06809,-0.628974 -0.334756,-0.474393 -0.280505,0.107626 -0.414595,0.100313 -0.298026,-0.01654 0.116588,-0.116586 0.05721,-0.507218 -0.131951,-0.868099 -0.332487,-0.634373 -0.323561,-0.63814 0.268322,-0.113471 0.33673,0.298465 0.72322,0.437852 0.858886,0.309732 0.135679,-0.128148 0.183349,0.219988 0.105933,0.773628 -0.135754,0.9709 0.01951,1.145802 0.913436,1.02971 0.415148,-0.05392 0.504489,0.549597 0.19915,1.345291 -0.241864,0.630322 -0.741168,0.635071 -0.741168,0.0068 z m 0,-1.858321 c 0,-0.265579 0.141644,-0.395317 0.314778,-0.288333 0.173153,0.106998 0.234608,0.324293 0.13659,0.482862 -0.265508,0.429599 -0.451352,0.349496 -0.451352,-0.194533 z m -2.645359,-1.08635 c -0.11227,-0.18167 -0.137721,-0.396754 -0.05657,-0.477936 0.08119,-0.08119 0.230137,0.06746 0.331022,0.330329 0.209423,0.545757 0.03072,0.641756 -0.274467,0.147595 z m -1.071287,-1.455504 c 0,-0.545094 -1.278298,-0.818057 -1.582528,-0.337939 -0.207496,0.327474 -0.267371,0.300587 -0.271066,-0.121696 -0.0026,-0.298099 0.01877,-0.576855 0.04759,-0.619437 C 58.362,11.176881 57.49,9.9108037 57.210103,9.9108037 c -0.188239,0 -0.231988,0.2865053 -0.106393,0.6968733 0.186384,0.608914 0.112411,0.581282 -0.586088,-0.218977 -0.439664,-0.5037103 -0.895754,-0.8194643 -1.013538,-0.7016873 -0.254128,0.254132 -1.025748,-0.685022 -1.039853,-1.2656696 -0.0054,-0.2230013 0.126637,-0.3210731 0.293454,-0.2179402 0.166857,0.1031396 0.581526,0.038564 0.921551,-0.1434038 0.528077,-0.2826249 0.646172,-0.2195196 0.809857,0.4326578 0.105372,0.4199328 0.100627,0.9108158 -0.01066,1.0908398 -0.111283,0.180016 -0.06289,0.327325 0.107402,0.327325 0.170362,0 0.395859,-0.139377 0.501141,-0.30973 0.105282,-0.170364 0.527251,-0.309734 0.937716,-0.309734 0.536134,0 0.696096,0.130861 0.568028,0.464581 -0.09807,0.2555203 -0.01582,0.4645813 0.182879,0.4645813 0.198634,0 0.281201,0.129357 0.183499,0.287419 -0.0977,0.158115 0.09599,0.374273 0.430457,0.480427 0.611565,0.194089 1.164199,1.288738 0.82292,1.630015 -0.100739,0.10074 -0.183149,0.03001 -0.183149,-0.157325 z M 56.180083,8.4360339 c -0.103072,-0.1030722 -0.3593,-0.00224 -0.569391,0.2245336 -0.303257,0.3270342 -0.302195,0.3668872 0.0053,0.1933722 0.244208,-0.1378709 0.40041,-0.011621 0.423077,0.341703 0.03439,0.534265 0.04275,0.533989 0.182237,-0.0061 0.08048,-0.311451 0.06196,-0.6505838 -0.04109,-0.7536527 z M 53.081094,7.9462045 C 52.606457,7.4715696 52.031511,7.1548374 51.803433,7.2423586 51.537597,7.3443428 51.450569,7.2405639 51.560975,6.9526715 51.759361,6.435668 52.596083,6.3401089 52.596083,6.8344239 c 0,0.1848066 0.261667,0.2475462 0.593378,0.1422709 0.32634,-0.1035994 0.68325,-0.042905 0.793099,0.1348285 0.138244,0.2236676 0.408486,0.2211247 0.877795,-0.00819 L 55.53843,6.7719849 54.878862,7.3347837 C 54.516087,7.6443326 54.15737,8.1026806 54.081681,8.353363 53.976332,8.7023449 53.741878,8.6069416 53.0811,7.9461709 Z m -3.2725,-1.800145 c 0,-0.447748 0.556745,-0.5555055 0.876915,-0.1697456 0.246405,0.2968928 0.178286,0.3948053 -0.274617,0.3948053 -0.331243,0 -0.602284,-0.1013 -0.602284,-0.2250754 z M 48.105135,5.264993 c -0.105282,-0.1703615 -0.04384,-0.3097328 0.13659,-0.3097328 0.180386,0 0.327986,0.1393769 0.327986,0.3097328 0,0.1703625 -0.06146,0.3097328 -0.13659,0.3097328 -0.07511,0 -0.222705,-0.1393781 -0.327986,-0.3097328 z M 47.111374,4.4340302 C 47.026025,4.2116222 46.84444,4.0987284 46.707818,4.1831548 46.57123,4.2675958 46.532369,4.0577306 46.621537,3.7167957 c 0.194386,-0.7433576 0.877137,-0.8168991 1.14335,-0.1231506 0.112296,0.2926124 0.387046,0.4213367 0.668666,0.3132796 0.273555,-0.1049904 0.397114,-0.052484 0.288846,0.1227299 -0.104059,0.1683873 -0.05322,0.306186 0.112946,0.306186 0.16619,0 0.37249,-0.1742402 0.45841,-0.3871519 0.09875,-0.2448026 0.165202,-0.2003118 0.180682,0.1209935 0.03145,0.651233 -2.125358,0.9837922 -2.363049,0.3643827 z M 16.242633,4.398551 C 16.158643,4.262648 16.218193,3.9490678 16.374479,3.7016798 16.59664,3.3505027 16.660066,3.4046759 16.66376,3.9487492 16.66846,4.6651447 16.5113,4.8332123 16.242635,4.398541 Z M 44.904528,4.374345 C 44.57431,4.1650205 44.593808,4.0731719 45.001578,3.9166959 45.298947,3.8025985 45.420766,3.5584914 45.293643,3.3315799 45.173647,3.117441 45.320713,3.172773 45.620388,3.4545397 46.431317,4.2170019 45.84492,4.9704671 44.90453,4.3743495 Z M 18.544564,3.7497499 c -0.244903,-0.4575965 -0.262945,-0.6492701 -0.04866,-0.5168263 0.205544,0.1270596 0.340607,-0.042366 0.340607,-0.4272031 0,-0.4247754 0.20073,-0.6377199 0.601161,-0.6377199 0.330658,0 0.687301,-0.1393781 0.792582,-0.3097338 0.280797,-0.4543519 0.851238,-0.378783 0.58448,0.07743 -0.124518,0.2129522 0.04148,0.162905 0.368871,-0.111172 0.770246,-0.6448346 1.934647,-0.924186 2.182256,-0.5235466 0.122514,0.1982374 0.284531,0.1670784 0.440124,-0.08471 0.318658,-0.5155916 1.223516,-0.6497516 1.229675,-0.182312 0.0031,0.243198 0.08648,0.2309262 0.257057,-0.037892 0.265397,-0.4182674 1.286809,-0.1992489 1.286809,0.2759326 0,0.152116 0.145477,0.2765904 0.323302,0.2765904 0.177819,0 0.282335,-0.2439132 0.232286,-0.5420124 -0.07024,-0.418335 0.103342,-0.5276693 0.760724,-0.4791508 0.468449,0.034392 0.851728,-0.069972 0.851728,-0.232285 C 28.747567,0.132801 29.165689,0 29.676729,0 c 0.511038,0 0.92916,0.1442848 0.92916,0.3205994 0,0.2202853 0.188609,0.2196684 0.602906,-0.0023 0.464479,-0.2485706 0.665379,-0.2110264 0.874996,0.163546 0.241543,0.4316016 0.315475,0.4339004 0.658621,0.020498 0.420422,-0.5065766 1.272841,-0.3376078 1.676589,0.3323386 0.138244,0.2293706 0.383195,0.3355224 0.544365,0.2359145 0.161177,-0.099602 0.131085,0.1744117 -0.06692,0.6089072 C 34.593739,2.343852 34.385489,2.4429132 33.587196,2.3022746 32.392947,2.0918647 32.207283,1.9081787 32.782909,1.5064997 33.120919,1.270635 33.01102,1.2384315 32.357163,1.3818414 31.872416,1.4881094 31.296353,1.4261314 31.07702,1.2441197 30.785213,1.0019576 30.631122,1.0359311 30.502613,1.3708341 30.406001,1.6225477 30.076146,1.7786942 29.76957,1.7178402 29.462983,1.6569862 29.072777,1.577448 28.902431,1.541108 c -0.170362,-0.036218 -0.510578,-0.049526 -0.756067,-0.029258 -0.352386,0.028888 -0.33501,0.1181834 0.08241,0.4238252 0.471781,0.345434 0.43643,0.392549 -0.327949,0.437235 C 27.429625,2.40033 26.866514,2.27608 26.649462,2.0965048 26.432437,1.9169322 26.166488,1.8583182 26.058516,1.9663142 25.950576,2.0743185 25.649075,1.9897743 25.388572,1.778176 24.996844,1.4602126 24.946479,1.478101 25.097351,1.8817497 25.292798,2.4046399 24.732746,2.4558544 23.683354,2.0110463 23.098701,1.7632432 22.439807,2.3534817 22.746732,2.850116 c 0.08399,0.1358884 -0.0099,0.2470694 -0.208435,0.2470694 -0.198631,0 -0.28365,-0.2019662 -0.188904,-0.4488069 0.1119,-0.2915534 0.02347,-0.3916912 -0.25263,-0.2857758 -0.233691,0.089678 -0.496605,0.3500106 -0.584296,0.5785228 -0.091,0.2371997 -0.507579,0.3772721 -0.97064,0.3264494 -0.581546,-0.063835 -0.76515,0.031082 -0.648532,0.3348643 0.08948,0.2331728 0.02781,0.4239165 -0.137328,0.4239165 -0.164979,0 -0.309803,-0.1742391 -0.321766,-0.3871542 -0.01214,-0.2129263 -0.12945,-0.1115074 -0.26108,0.2253715 -0.230013,0.5887805 -0.254424,0.5843286 -0.628574,-0.1147861 z M 30.296204,0.807176 c 0,-0.066934 -0.21631,-0.2047544 -0.480666,-0.3061847 -0.27564,-0.1057442 -0.39995,-0.053856 -0.29144,0.1216953 0.18189,0.2942962 0.772106,0.4352963 0.772106,0.1844345 z m 13.317981,2.9092069 c -0.27915,-0.180386 -0.317339,-0.3021232 -0.09569,-0.3049768 0.202881,-0.00258 0.45501,0.1346053 0.560291,0.3049768 0.237669,0.3845272 0.130415,0.3845272 -0.464582,0 z M 42.19866,3.0616906 C 42.088293,2.8831072 41.560238,2.4700833 41.025198,2.1438378 40.490157,1.8175706 40.215222,1.5501307 40.414219,1.5494998 c 0.199002,-6.232e-4 0.582282,-0.085744 0.851731,-0.1891508 0.338486,-0.129893 0.489913,-0.00984 0.489913,0.387825 0,0.4317305 0.234629,0.5789411 0.93763,0.588287 0.713672,0.0097 0.897638,-0.1016196 0.770222,-0.4652545 -0.09208,-0.2627619 0.103622,-0.1313542 0.434932,0.2919539 0.33128,0.4233165 0.577021,0.7865764 0.546088,0.8072413 -0.404129,0.2699318 -2.093243,0.338595 -2.246075,0.091295 z m 0.796085,-0.086471 c 0,-0.066931 -0.216308,-0.2047548 -0.480667,-0.3061849 -0.275639,-0.1057419 -0.39995,-0.053852 -0.291444,0.1216957 0.181894,0.2942961 0.772111,0.4352961 0.772111,0.1844342 z m -3.997172,-0.033281 c -0.01088,-0.1703604 0.115425,-0.518778 0.280542,-0.7742987 0.218162,-0.3375708 0.301537,-0.3537376 0.304977,-0.059156 0.0027,0.2271243 0.162017,0.3082319 0.3623,0.1844357 0.223324,-0.1380193 0.273443,-0.084838 0.133458,0.141645 -0.123292,0.1994458 -0.341962,0.2897947 -0.485987,0.2007795 -0.144016,-0.089006 -0.33245,0.013124 -0.418725,0.227248 -0.08627,0.2139908 -0.16572,0.2497044 -0.176584,0.079349 z M 37.886549,2.4809089 c -0.108501,-0.1755458 0.01582,-0.2274932 0.291443,-0.1216954 0.536563,0.2059153 0.634736,0.427897 0.189224,0.427897 -0.160287,0 -0.376594,-0.1377684 -0.480667,-0.3061824 z M 35.251731,1.8502351 c 0,-0.1661143 0.267155,-0.302052 0.593633,-0.302052 0.326486,0 0.65751,-0.174238 0.735584,-0.3871531 0.09636,-0.262799 0.24974,-0.2868315 0.477496,-0.074838 0.217297,0.2022615 0.232629,0.4751151 0.04345,0.7743025 -0.187026,0.2958682 -0.293782,0.3255342 -0.296817,0.082488 -0.0035,-0.276626 -0.214583,-0.2997084 -0.779043,-0.08508 -0.497861,0.1892746 -0.774302,0.1865594 -0.774302,-0.00766 z m 2.581005,-0.7530106 c 0,-0.2480215 0.11614,-0.3791764 0.258114,-0.2914431 0.141974,0.087724 0.258119,0.2906756 0.258119,0.4509574 0,0.1602894 -0.11614,0.291443 -0.258119,0.291443 -0.141972,0 -0.258114,-0.2029039 -0.258114,-0.4509573 z"
       style="fill:#000000;stroke-width:0.999998"
       id="path20691" />
  </g>
</svg>
