<?xml version="1.0" encoding="UTF-8" standalone="no"?>
<!-- Created with Inkscape (http://www.inkscape.org/) -->

<svg
   width="178mm"
   height="93mm"
   viewBox="0 0 178 93"
   version="1.1"
   id="svg10436"
   xmlSpace="preserve"
   xmlns="http://www.w3.org/2000/svg"
   xmlnsSvg="http://www.w3.org/2000/svg"><defs
     id="defs10433" /><g
     id="layer1"><path
       style="fill:#000000;stroke-width:0.999991"
       d="m 177.10923,29.618229 c -0.79566,0.623983 -0.81641,0.607272 -0.20868,-0.168491 0.37085,-0.473696 0.5038,-1.137208 0.29512,-1.474512 -0.25995,-0.421051 -0.51096,-0.256613 -0.8,0.52497 -0.23133,0.626005 -0.69698,1.046195 -1.03421,0.933779 -1.4671,-0.489079 -4.35942,4.227077 -5.18179,8.449005 -0.21641,1.110552 -0.49664,1.735239 -0.62303,1.388193 -0.1264,-0.347058 -0.46208,-0.630996 -0.74653,-0.630996 -0.2844,0 -0.38576,0.340739 -0.22596,0.757196 0.15978,0.41646 0.0118,0.76068 -0.32494,0.764918 -0.38934,0.005 -0.33688,0.187572 0.14189,0.497068 0.64707,0.418187 0.62872,0.490448 -0.1264,0.497067 -0.4859,0.005 -0.88334,0.234851 -0.88334,0.512509 0,0.749727 -1.48035,0.610957 -2.30767,-0.216366 -0.39649,-0.396606 -0.72112,-1.645999 -0.72112,-2.776393 0,-1.130393 -0.23014,-2.055235 -0.51157,-2.055235 -0.58726,0 -2.64029,1.090919 -3.03433,1.612478 -0.42211,0.559014 -4.5121,1.350082 -4.77559,0.923728 -0.13116,-0.212553 -1.05374,-0.370132 -2.04973,-0.349982 -1.06741,0.02147 -2.00114,-0.264302 -2.27439,-0.696215 -0.40126,-0.634334 -0.46445,-0.635037 -0.47101,-0.0056 -0.005,0.535464 -0.18722,0.481744 -0.68835,-0.20331 -0.37442,-0.511973 -0.94225,-0.76911 -1.262,-0.571534 -0.31958,0.197645 -0.58132,0.105349 -0.58132,-0.205041 0,-0.310392 -0.20331,-0.438696 -0.45193,-0.28511 -0.50619,0.313013 -1.2768,-1.14019 -1.11999,-2.112682 0.0537,-0.347058 -0.20213,-0.630994 -0.57298,-0.630994 -0.37144,0 -0.89228,-0.731203 -1.15791,-1.624946 -0.51513,-1.733324 -2.45761,-2.676643 -3.63799,-1.766694 -0.43466,0.335253 -0.62853,0.2711 -0.62324,-0.206351 0.0118,-1.118083 0.84277,-2.112734 1.45018,-1.737268 0.53064,0.3281 0.80323,-0.367926 0.57893,-1.479508 -0.0537,-0.277659 0.0692,-0.333941 0.27783,-0.125086 0.81791,0.817874 2.22849,-1.298593 2.23965,-3.360541 0.006,-1.270576 0.39172,-2.553464 0.99837,-3.329139 0.54314,-0.694098 0.99222,-1.041098 0.99841,-0.771083 0.006,0.270028 0.35833,-0.005 0.78225,-0.60984 0.42391,-0.605407 1.08249,-0.981226 1.46328,-0.835089 0.381,0.146074 0.84229,0.02325 1.02563,-0.273543 0.40483,-0.654826 1.81906,-0.69435 3.39576,-0.09491 0.64272,0.244389 1.39581,0.504817 1.67347,0.578747 0.27783,0.07393 0.90374,0.790514 1.39132,1.592285 1.06498,1.751194 0.72627,5.704012 -0.45013,5.252621 -0.37801,-0.145118 -1.19913,-0.05842 -1.82414,0.192817 -0.62495,0.251246 -0.85235,0.471191 -0.50559,0.48872 0.347,0.01789 0.63104,0.272591 0.63104,0.566586 0,0.294054 -0.24445,0.383428 -0.54376,0.198719 -0.53778,-0.33245 -2.63027,1.477446 -2.20248,1.905209 0.12222,0.122106 -0.11866,0.259892 -0.53541,0.306098 -0.41676,0.04651 -1.1006,0.121987 -1.52035,0.168313 -0.76626,0.08448 -0.83446,2.020052 -0.0972,2.757306 0.19556,0.195559 0.35594,0.658463 0.35594,1.028678 0,1.431914 2.39071,3.170031 4.54318,3.302994 0.41676,0.02564 0.92062,0.29632 1.12036,0.601418 0.25875,0.395113 0.66705,0.366256 1.41977,-0.100329 0.58132,-0.360295 1.49669,-0.515372 2.0346,-0.344555 0.5503,0.174693 0.97804,0.07487 0.97804,-0.22841 0,-0.296382 0.34103,-0.538804 0.7572,-0.538804 0.41675,0 0.71051,-0.17034 0.65338,-0.378598 -0.0595,-0.208259 0.29276,-1.123531 0.77789,-2.034035 0.48473,-0.910454 0.72363,-1.910961 0.53064,-2.223379 -0.21405,-0.346582 -0.12402,-0.427548 0.23192,-0.207782 0.32077,0.198063 0.58311,0.11966 0.58311,-0.174394 0,-0.293995 -0.25518,-0.53457 -0.56642,-0.53457 -0.36906,0 -0.32552,-0.297512 0.1264,-0.854117 0.47102,-0.5803 0.4907,-0.732562 0.0619,-0.474947 -1.00337,0.602775 -0.80275,-3.990835 0.24564,-5.629659 1.30679,-2.042363 1.77912,-2.405262 3.11346,-2.392039 0.76428,0.0078 1.26189,0.339189 1.3435,0.895412 0.0716,0.485857 -0.0775,0.883394 -0.3303,0.883394 -0.25339,0 -0.46028,0.592163 -0.46028,1.316007 0,1.012779 -0.19078,1.242716 -0.82857,0.998039 -0.7203,-0.276347 -0.73751,-0.208258 -0.13235,0.520977 0.38277,0.461412 0.62597,1.375271 0.54017,2.030747 -0.0859,0.655536 0.10074,1.191828 0.41438,1.191828 0.31659,0 0.40662,0.2807 0.20152,0.631002 -0.20273,0.347059 0.0733,0.24427 0.61439,-0.228352 0.54078,-0.472621 1.99967,-1.005815 3.24177,-1.184762 1.24216,-0.178986 2.81188,-0.409602 3.48841,-0.512449 1.18874,-0.180834 2.55598,0.511733 2.55598,1.294602 0,0.20963 -0.39768,0.692937 -0.88341,1.07401 z m -8.80239,8.172326 c -0.40244,0.161156 -0.28321,0.280759 0.30527,0.305024 0.53183,0.02146 0.83029,-0.09743 0.66257,-0.265197 -0.16754,-0.167716 -0.60313,-0.185663 -0.96754,-0.03995 z m -2.51353,-11.970729 c -0.23134,0.143032 -0.42092,0.473755 -0.42092,0.734986 0,0.261264 0.18958,0.475009 0.42092,0.475009 0.23133,0 0.42092,-0.330722 0.42092,-0.734983 0,-0.404236 -0.18959,-0.618028 -0.42092,-0.475012 z m -14.30244,-3.236004 c -1.54915,0.05843 -1.76588,0.227338 -1.75908,1.372798 0.005,0.718526 0.2063,1.620347 0.44955,2.003997 0.3476,0.548281 0.62757,0.414074 1.30953,-0.626656 0.47698,-0.728321 1.06997,-1.199197 1.31728,-1.046397 0.24743,0.15281 0.44956,-0.18292 0.44956,-0.746145 0,-0.846444 -0.30646,-1.012521 -1.76678,-0.957597 z m -16.90492,8.740372 c -0.27427,-0.169624 -0.381,0 -0.23671,0.374484 0.18959,0.493728 -0.25875,0.697683 -1.61873,0.736252 -1.11296,0.03101 -2.12874,0.392551 -2.48844,0.884454 -0.46981,0.642556 -0.67616,0.681884 -0.90941,0.17332 -0.16574,-0.361725 -0.18125,0.705202 -0.0357,2.371035 0.41616,4.70583 0.43047,4.795577 0.7622,4.795577 0.52765,0 0.37622,1.723936 -0.21882,2.494715 -0.42926,0.556093 -0.41257,0.637762 0.0733,0.346164 0.66006,-0.396664 1.73708,1.583298 1.2812,2.355437 -0.12997,0.220422 -0.0239,0.674716 0.2385,1.009594 1.15134,1.474823 1.1591,4.786951 0.0118,4.076497 -0.31122,-0.19222 -0.24206,-0.479777 0.17888,-0.746595 0.54077,-0.342767 0.50798,-0.435597 -0.15622,-0.44168 -0.46267,-0.005 -0.91698,0.212136 -1.00957,0.480911 -0.26829,0.779406 -1.47469,-0.230677 -1.54206,-1.291279 -0.0357,-0.530274 0.12402,-1.530294 0.35058,-2.222217 0.37143,-1.134537 0.32911,-1.189406 -0.43047,-0.559074 -0.46326,0.384442 -1.00051,0.540711 -1.19399,0.347179 -0.19317,-0.193473 -0.13116,-0.509767 0.13833,-0.702929 0.79911,-0.57243 0.80114,-1.613134 0.005,-1.613134 -0.40662,0 -0.98256,-0.454317 -1.27977,-1.009594 -0.30587,-0.570878 -0.33627,-1.009599 -0.071,-1.009599 0.25817,0 0.4752,-0.511138 0.48176,-1.135797 0.006,-0.624687 0.1711,-1.760482 0.36489,-2.523987 0.26889,-1.060684 0.17052,-1.388193 -0.41736,-1.388193 -0.52051,0 -0.68345,0.326371 -0.505,1.009594 0.18662,0.714442 0.0178,1.009595 -0.58608,1.009595 -0.57058,0 -0.76584,-0.290299 -0.59384,-0.883393 0.14132,-0.485858 0.51932,-1.905614 0.84061,-3.154988 0.32136,-1.249377 0.81694,-2.555541 1.1014,-2.902588 0.37264,-0.454794 0.30348,-0.631001 -0.24803,-0.631001 -0.8709,0 -1.3778,1.036657 -1.3778,2.817685 0,0.671377 -0.25161,1.220702 -0.55865,1.220702 -0.31065,0 -0.41736,-0.367867 -0.24088,-0.828577 0.26472,-0.690258 0.19079,-0.722919 -0.44477,-0.195558 -0.62448,0.518292 -0.82131,0.480492 -1.08567,-0.208378 -0.29213,-0.761895 -0.42391,-0.746347 -1.39413,0.164973 -1.21354,1.140083 -1.78563,1.182587 -2.76288,0.205279 -0.76404,-0.764066 -0.36011,-3.411929 0.4442,-2.914607 0.26948,0.166584 0.49007,-0.05127 0.49007,-0.484129 0,-0.496709 0.45194,-0.786978 1.22596,-0.786978 0.67425,0 1.58289,-0.356956 2.0192,-0.793238 0.93691,-0.937004 1.00582,-1.2732 0.22538,-1.099754 -0.31242,0.0694 -0.68256,-0.18936 -0.82266,-0.575052 -0.17708,-0.487528 -0.0417,-0.573385 0.44179,-0.281655 0.5688,0.34253 0.58131,0.277362 0.0697,-0.354808 -0.3446,-0.425879 -0.49367,-0.907277 -0.33089,-1.069723 0.44477,-0.444838 0.5819,-5.400124 0.1419,-5.12819 -0.5205,0.321779 -1.14641,-4.106934 -0.68573,-4.852469 0.20333,-0.328397 0.13179,-0.743716 -0.15799,-0.922923 -0.28975,-0.179222 -0.58846,-1.687135 -0.66347,-3.350947 -0.0752,-1.663819 -0.54851,-4.1576672 -1.05184,-5.5419787 -1.15447,-3.1733581 -1.15375,-4.3744758 0.005,-5.3650918 1.86146,-1.59385201 3.4455,-1.50227901 3.17922,0.1838144 -0.0299,0.2082586 0.15442,0.3785985 0.41615,0.3785985 0.26175,0 0.38814,0.4543183 0.28141,1.0095931 -0.10672,0.5552586 0.0178,1.0096006 0.28142,1.0096006 0.26176,0 0.43763,0.1703991 0.39112,0.3785985 -0.0478,0.2082584 0.0966,1.2553304 0.31898,2.3268661 0.22359,1.0780454 0.2051,2.0926894 -0.0417,2.2715902 -0.81682,0.5932967 -0.78545,1.7270651 0.0417,1.4107061 0.57894,-0.2220916 0.78701,0.05246 0.81384,1.07386 0.0178,0.75477 0.12281,2.167396 0.22896,3.139136 0.19436,1.77744 0.6888,7.532542 0.88913,10.348353 0.0596,0.832917 0.33507,1.681281 0.61256,1.885271 0.31479,0.231513 0.27366,0.37377 -0.11032,0.3786 -0.75557,0.0095 -0.28856,1.540794 0.7193,2.359527 0.39647,0.321778 0.70514,0.719283 0.68665,0.883397 -0.10074,0.894399 0.0298,0.977691 0.47878,0.298407 0.44177,-0.673045 0.55209,-0.673045 0.99418,0 0.44181,0.673047 0.49903,0.673047 0.51276,0 0.0118,-0.491044 0.14607,-0.562233 0.38634,-0.202594 0.4251,0.635795 2.13768,0.743365 2.13768,0.134267 0,-0.222686 0.34044,-0.27408 0.7572,-0.114235 0.41676,0.159847 0.7572,0.506846 0.7572,0.771125 0,0.264303 -0.22478,0.341812 -0.49904,0.172189 z m -4.54904,15.897552 c -0.27783,0 -0.50499,0.240573 -0.50499,0.534569 0,0.294054 0.22716,0.39422 0.50499,0.222627 0.27784,-0.17159 0.505,-0.412165 0.505,-0.534567 0,-0.122466 -0.22716,-0.222629 -0.505,-0.222629 z m -13.08298,-6.432388 c -0.64893,-0.226205 -0.68059,-0.150664 -0.16814,0.401433 0.86995,0.937566 0.79704,1.749126 -0.0911,1.012177 -0.57534,-0.47769 -0.82785,-0.401375 -1.24424,0.376631 -0.28738,0.536656 -0.36667,1.131252 -0.17647,1.321261 0.1902,0.190013 -0.0478,0.195559 -0.52229,0.01193 -0.80067,-0.307291 -1.16156,0.439711 -0.92778,1.920299 0.0298,0.208259 -0.29453,0.378598 -0.72721,0.378598 -0.46745,0 -0.6404,0.237236 -0.4257,0.584295 0.24743,0.40036 0.0178,0.494682 -0.7274,0.299659 -0.5987,-0.156508 -1.08856,-0.105178 -1.08856,0.114056 0,0.219291 -0.54733,0.503268 -1.21592,0.63115 -0.87532,0.167359 -1.14236,0.04115 -0.95342,-0.451694 0.17827,-0.464394 0,-0.583818 -0.55091,-0.371981 -0.44717,0.17171 -0.81342,0.515014 -0.81342,0.762957 0,0.247907 -0.80846,0.450801 -1.79651,0.450801 -1.22953,0 -1.68296,-0.183934 -1.43641,-0.582804 0.23432,-0.379432 0.13713,-0.444898 -0.27903,-0.187749 -1.54774,0.95659 -2.06852,-3.054789 -0.74175,-5.714314 1.02513,-2.054831 1.6049,-2.013895 2.0093,0.141839 0.43643,2.325256 1.58898,3.262159 3.62751,2.948227 0.89951,-0.138561 1.51493,-0.446924 1.36755,-0.685364 -0.14728,-0.238427 0.31719,-0.580299 1.03241,-0.759827 1.92365,-0.482757 3.99472,-4.757312 2.69432,-5.560949 -0.35417,-0.21893 -0.43704,-0.131585 -0.21584,0.22698 0.19794,0.320528 0.22119,0.582803 0.0536,0.582803 -0.16993,0 -0.55389,-0.703888 -0.85373,-1.564167 -0.48234,-1.383242 -0.71559,-1.530038 -2.01801,-1.269562 -0.9071,0.181429 -1.35474,0.103559 -1.1655,-0.202653 0.28024,-0.453605 0.0357,-0.544646 -1.89769,-0.699097 -0.34701,-0.02802 -0.88044,-0.369118 -1.18542,-0.75861 -0.33983,-0.434046 -0.82825,-0.549237 -1.26201,-0.297632 -0.38932,0.225729 -0.54793,0.233359 -0.35295,0.01729 0.48829,-0.541723 -0.98032,-1.92848 -1.62208,-1.53181 -0.28499,0.176063 -0.8179,-0.392789 -1.18427,-1.264167 -0.36667,-0.871379 -0.87322,-1.581176 -1.12643,-1.577391 -0.75457,0.01133 -0.32077,-2.510459 0.6088,-3.537474 0.47399,-0.523957 1.79055,-1.217674 2.92534,-1.541498 1.13484,-0.323866 2.36448,-0.818382 2.7327,-1.098997 0.42989,-0.327502 0.79125,-0.334836 1.00959,-0.02028 0.51154,0.736753 2.07626,0.556271 2.62079,-0.302282 0.3482,-0.548878 0.48234,-0.57535 0.4883,-0.09639 0.005,0.363453 0.23491,0.520378 0.51276,0.348788 0.87179,-0.538743 0.55686,0.01193 -1.0096,1.766795 -0.8329,0.932915 -1.51438,1.388546 -1.51438,1.012522 0,-0.441141 -0.44776,-0.262873 -1.26267,0.502553 -1.0134,0.952047 -1.24609,1.625803 -1.1786,3.412078 0.0775,2.042614 0.18124,2.207283 1.26273,2.000515 0.6482,-0.123895 1.17854,-0.0056 1.17854,0.263528 0,0.268835 0.34104,0.358028 0.75719,0.198243 0.46626,-0.178926 0.75719,0 0.75719,0.468567 0,0.599801 0.20929,0.646998 0.99826,0.224833 0.82111,-0.439411 0.94447,-0.394099 0.69525,0.255361 -0.16694,0.434226 -0.10489,0.753309 0.13773,0.709088 1.30661,-0.238546 2.73425,0.09975 2.43876,0.577916 -0.18304,0.29632 0.11389,0.655629 0.65984,0.798389 0.61291,0.160263 1.19184,0.968305 1.5129,2.111416 0.72847,2.593703 0.62413,3.580784 -0.34282,3.243784 z m -8.62329,-7.701957 c -0.27782,0 -0.50498,0.100169 -0.50498,0.222629 0,0.122403 0.22716,0.362976 0.50498,0.534569 0.27784,0.171592 0.50501,0.07143 0.50501,-0.222628 0,-0.293995 -0.22717,-0.53457 -0.50501,-0.53457 z m -1.89299,-0.569209 c -0.80066,-0.627865 -0.81848,-0.610044 -0.19078,0.190611 0.65948,0.840846 1.07396,1.108286 1.07396,0.692788 0,-0.104805 -0.39768,-0.502314 -0.88335,-0.883399 z M 93.06049,47.765163 c -1.49344,0.457061 -1.96694,0.298706 -1.73691,-0.580894 0.13976,-0.534689 0.0483,-0.972142 -0.20331,-0.972142 -0.25165,0 -0.45754,0.359699 -0.45754,0.799245 0,0.439649 -0.251,0.715604 -0.55782,0.613329 -0.64058,-0.213505 -1.971536,-3.762965 -1.563861,-4.170641 0.148944,-0.148876 0.01968,-0.270744 -0.286834,-0.270744 -0.306639,0 -0.561694,-0.397556 -0.566768,-0.883397 -0.0053,-0.485858 -0.02505,-2.473513 -0.04526,-4.41698 -0.01968,-1.943474 0.06633,-3.987907 0.191571,-4.543182 0.125258,-0.555258 0.245099,-1.217829 0.266332,-1.472349 0.0215,-0.254465 0.186497,-0.314802 0.367263,-0.13403 0.180777,0.180774 0.593717,-0.03399 0.917577,-0.476617 0.51924,-0.710094 0.67698,-0.717213 1.33408,-0.06016 0.55622,0.556212 0.71625,1.784462 0.6311,4.842978 -0.0627,2.253776 0.089,4.223244 0.33716,4.376651 0.26228,0.162112 0.24797,0.813534 -0.0346,1.555837 -0.62702,1.649128 -0.61178,1.853667 0.10504,1.410659 0.38015,-0.234969 0.49009,-0.103217 0.3086,0.369893 -0.15514,0.404236 0.0333,1.166388 0.41897,1.693695 0.60908,0.832969 0.94907,2.204253 0.57487,2.318793 z M 87.289093,16.523718 c -0.145836,-0.364408 -0.127947,-0.799802 0.03999,-0.967541 0.167715,-0.167776 0.287071,0.130452 0.265194,0.662546 -0.02441,0.588112 -0.14387,0.707676 -0.305027,0.305026 z m -1.295789,-1.667596 c -0.485855,0.0322 -0.883393,0.37502 -0.883393,0.76174 0,0.920799 -0.908283,1.195006 -2.776385,0.838169 -1.629648,-0.311285 -2.162861,-1.847363 -0.596322,-1.717884 0.569864,0.0471 0.821306,-0.17636 0.662903,-0.589182 -0.140408,-0.365839 0.07117,-0.790359 0.470052,-0.943467 0.398935,-0.153049 0.725344,-0.05068 0.725344,0.228411 0,0.315936 0.408825,0.287914 1.086124,-0.07459 0.914591,-0.489435 1.038625,-0.457419 0.785215,0.203013 -0.186851,0.486872 0.02322,0.869816 0.554426,1.009749 0.78027,0.205635 0.777798,0.230616 -0.02806,0.284038 z M 80.788746,69.0426 c -0.155619,0.155553 -0.315281,1.726731 -0.354996,3.491518 -0.03989,1.764793 -0.277352,3.350639 -0.528129,3.524108 -0.250765,0.17344 -0.50953,0.996745 -0.575045,1.829519 -0.108875,1.384174 -1.545749,3.922232 -3.164226,5.589311 -0.35619,0.366854 -0.647615,0.963752 -0.647615,1.326382 0,1.032555 -1.354875,1.987535 -1.677844,1.182624 -0.211535,-0.527117 -0.269245,-0.525447 -0.301509,0.009 -0.0215,0.363455 -0.242778,0.535344 -0.490748,0.382056 -0.248078,-0.153287 -0.593054,0.287616 -0.766832,0.979808 -0.173681,0.692179 -0.552103,1.258502 -0.840841,1.258502 -0.288683,0 -0.381099,-0.283919 -0.205278,-0.630995 0.175767,-0.347059 -0.171349,-0.0051 -0.771434,0.759798 -0.600052,0.764935 -1.295863,1.264196 -1.546241,1.109459 -0.581917,-0.359699 -3.99997,1.244951 -3.99997,1.877838 0,0.262393 -0.227157,0.336683 -0.504821,0.165091 -0.277654,-0.171591 -0.504811,-0.05365 -0.504811,0.261621 0,0.389509 -0.972303,0.501658 -3.028795,0.349504 -1.797329,-0.133017 -3.028785,-0.02265 -3.028785,0.271398 0,0.272589 -0.581734,0.114414 -1.292789,-0.351471 -0.711013,-0.465885 -1.559013,-0.758306 -1.884467,-0.649837 -0.325409,0.108449 -0.907667,-0.388317 -1.293896,-1.103986 -0.864965,-1.602688 -0.970066,-5.71332 -0.152985,-5.985666 0.325656,-0.108573 0.441982,-0.440188 0.258516,-0.73704 -0.205514,-0.332509 -0.09299,-0.390938 0.293222,-0.152333 0.344739,0.213029 0.518002,0.803136 0.385162,1.311305 -0.253571,0.969534 1.252806,2.74268 1.835249,2.160276 0.185658,-0.185722 0.337633,0.12932 0.337633,0.700002 0,0.678407 0.305864,1.01337 0.883393,0.967531 0.485857,-0.03876 0.826607,0.213863 0.757199,0.560862 -0.141955,0.709709 0.680674,0.862614 1.088704,0.202357 0.145707,-0.235746 1.525494,-0.365481 3.066241,-0.288211 1.607276,0.08054 2.679315,-0.05724 2.515052,-0.322793 -0.157458,-0.254765 0.02441,-0.344078 0.403407,-0.198541 0.379315,0.145537 1.413328,-0.426893 2.297787,-1.272162 0.884457,-0.845252 1.608135,-1.405043 1.608135,-1.24398 0,0.161039 0.336687,-0.04351 0.748167,-0.455332 0.411503,-0.411508 0.925484,-0.825249 1.142148,-0.919445 0.852903,-0.370788 4.258627,-5.665484 5.240509,-8.147147 1.107679,-2.799679 1.09395,-5.817967 -0.07289,-16.002039 -0.713937,-6.231277 -0.717366,-6.25187 -1.159724,-6.940975 -0.237531,-0.370072 -0.171649,-0.630994 0.159372,-0.630994 0.31039,0 0.421705,-0.230856 0.247315,-0.513047 -0.174338,-0.282188 -0.536902,-0.377167 -0.805557,-0.21112 -0.289351,0.178806 -0.436381,-0.471966 -0.360715,-1.595968 0.07729,-1.147661 -0.116143,-1.979218 -0.489371,-2.103595 -0.33943,-0.113102 -0.488728,-0.413476 -0.331797,-0.667394 0.156922,-0.25393 0.07462,-0.461712 -0.182808,-0.461712 -0.257507,0 -0.594366,-0.941398 -0.748706,-2.091932 -0.154308,-1.150588 -0.49135,-2.229594 -0.74892,-2.397793 -0.257636,-0.168253 -0.437392,-0.936051 -0.399645,-1.706215 0.04828,-0.993346 -0.131828,-1.323485 -0.620855,-1.135795 -0.379198,0.145478 -0.898091,0.264541 -1.153016,0.264541 -0.254937,0 -0.463496,0.247552 -0.463496,0.550072 0,1.135694 -2.098742,2.266689 -3.830964,2.064471 -0.942556,-0.110064 -1.621058,-0.349981 -1.50783,-0.533198 0.113219,-0.183158 -0.713528,-0.245404 -1.837313,-0.138264 -1.123783,0.10715 -1.923578,0 -1.777343,-0.243076 0.146255,-0.240873 -0.02977,-0.710961 -0.390936,-1.04458 -0.721958,-0.666841 -1.356241,-0.173023 -4.945504,3.850196 -1.0573,1.185115 -2.193094,2.211367 -2.523986,2.280623 -0.330967,0.06922 -1.241152,0.3879 -2.022734,0.708182 -1.803179,0.738977 -3.374524,0.747705 -3.374524,0.01847 0,-0.315279 -0.445197,-0.447282 -1.010287,-0.29948 -0.555672,0.145358 -0.897702,0.08204 -0.760101,-0.140648 0.137611,-0.222687 -0.07504,-0.52956 -0.472493,-0.682132 -0.418254,-0.160503 -0.817651,0.08301 -0.948146,0.578092 -0.200924,0.762247 -0.231813,0.756792 -0.284039,-0.05008 -0.03635,-0.567063 -0.388798,-0.850081 -0.941955,-0.757196 -0.580056,0.09737 -0.859322,-0.155017 -0.813286,-0.73509 0.03871,-0.485858 -0.131828,-0.883392 -0.378605,-0.883392 -0.246766,0 -0.448711,-0.440904 -0.448711,-0.979813 0,-0.538862 -0.199731,-1.103236 -0.443821,-1.254122 -0.465709,-0.287793 -0.339128,-5.363374 0.20802,-8.343349 0.490984,-2.673967 2.130146,-5.51169 4.577263,-7.924167 1.221511,-1.204248 2.220917,-2.06099 2.220917,-1.903898 0,0.157044 0.373767,-0.08818 0.830553,-0.545003 0.670858,-0.670823 0.912022,-0.702017 1.254257,-0.162231 0.33531,0.528846 0.425339,0.507262 0.431488,-0.103559 0.0053,-0.54387 0.492296,-0.755933 1.648312,-0.718072 2.077898,0.06815 3.999111,0.688447 3.688603,1.190921 -0.131044,0.212015 -0.05483,1.047509 0.169208,1.856647 0.345513,1.247205 0.101703,1.911368 -1.60147,4.362969 -1.104905,1.590514 -2.206575,2.769671 -2.44817,2.620404 -0.24153,-0.149295 -0.439176,-0.0149 -0.439176,0.29918 0,0.723226 -1.27062,2.012933 -1.983138,2.012933 -0.297446,0 -0.540826,0.240576 -0.540826,0.53457 0,0.294055 -0.227156,0.394219 -0.50482,0.222629 -0.277654,-0.171593 -0.504821,-0.05604 -0.504821,0.256612 0,0.328814 -0.404289,0.440306 -0.958865,0.264243 -1.449891,-0.460161 -3.116265,1.875022 -2.612283,3.660743 0.212847,0.754115 0.289405,1.655077 0.170219,2.002131 -0.119249,0.347058 0.04289,0.630995 0.359877,0.630995 0.317185,0 0.436252,0.227158 0.264656,0.504818 -0.171585,0.277659 0.148643,0.504817 0.711562,0.504817 0.658752,0 0.929063,0.246239 0.758445,0.690867 -0.344503,0.897684 1.670512,1.439129 2.902397,0.779866 0.648271,-0.346939 0.927978,-0.323388 0.927978,0.07816 0,0.316173 0.770423,-0.07334 1.712022,-0.865633 0.941598,-0.792278 2.160689,-1.78123 2.708998,-2.197688 1.53691,-1.16724 2.947163,-4.368669 4.232577,-9.608471 0.644733,-2.628028 1.46018,-5.078419 1.812134,-5.445308 0.351878,-0.366913 0.639831,-0.853712 0.639831,-1.081783 0,-0.688442 1.646441,-1.09743 2.197877,-0.545957 0.349749,0.34974 0.214289,1.447206 -0.422532,3.423943 -1.157458,3.592899 -1.575474,11.828524 -0.581078,11.446952 1.02409,-0.392968 3.462767,0.713178 3.048878,1.38289 -0.229359,0.371145 -0.138794,0.446569 0.248681,0.207128 0.335202,-0.207187 0.513463,-0.639785 0.396247,-0.961391 -0.117271,-0.321599 0.112455,-0.95947 0.510421,-1.417424 1.141609,-1.313583 0.800117,-6.991701 -0.420512,-6.991701 -0.271934,0 -0.354028,-0.227159 -0.182496,-0.504817 0.171595,-0.277658 0.06333,-0.504819 -0.240391,-0.504819 -0.395958,0 -0.39929,-0.285945 -0.01193,-1.009593 0.297156,-0.555257 0.361974,-1.01762 0.143987,-1.027463 -0.218029,-0.01013 0.168736,-0.330663 0.859322,-0.712927 0.690565,-0.382295 1.428832,-0.58799 1.640592,-0.457121 0.211718,0.130871 0.384916,-0.0161 0.384916,-0.326489 0,-0.31039 0.230854,-0.421704 0.513045,-0.247311 0.28219,0.174335 0.394345,0.50911 0.249282,0.743865 -0.145062,0.234732 -0.08729,0.50297 0.128485,0.5961 0.524193,0.226264 3.419,7.065707 3.329907,7.867477 -0.03817,0.347059 0.124667,0.630997 0.362736,0.630997 0.238134,0 0.290243,0.397557 0.115906,0.883399 -0.174336,0.485857 -0.131344,0.714995 0.09568,0.509168 0.662398,-0.600856 1.767453,0.641097 1.767453,1.986486 0,0.679909 0.35749,1.593745 0.794494,2.0307 0.645035,0.645032 0.668762,0.874259 0.126227,1.21823 -0.50124,0.317843 -0.436972,0.42564 0.257141,0.431423 0.518539,0.005 0.82924,0.285171 0.706615,0.638722 -0.120377,0.347059 0.09418,1.52949 0.476858,2.627629 0.382712,1.098133 0.644379,2.347508 0.58155,2.776384 -0.06279,0.42886 0.145418,1.574821 0.462785,2.546555 0.317367,0.971733 0.697682,2.561849 0.845077,3.533587 0.147385,0.971735 0.495994,2.544183 0.77467,3.49431 0.371143,1.265227 0.340556,1.932772 -0.113992,2.494666 -0.394109,0.487109 -0.411333,0.641745 -0.04709,0.423552 0.897983,-0.537908 1.755692,4.46707 0.910411,5.312364 z m -3.44433,-12.73449 c -0.106437,0 -0.30079,0.56104 -0.431897,1.246697 -0.131054,0.685716 -0.04408,1.126609 0.193592,0.979812 0.418244,-0.258519 0.628876,-2.226509 0.238305,-2.226509 z M 50.068527,26.737805 c -0.5784,0 -1.492014,0.403698 -2.030227,0.901416 -0.538202,0.497722 -1.289897,0.905 -1.670394,0.905 -0.380497,0 -0.576421,0.186676 -0.435477,0.414788 0.14101,0.228113 -0.07277,1.049171 -0.474998,1.824493 -0.840971,1.620956 -1.005094,5.056663 -0.21834,4.570387 0.28219,-0.174334 0.36065,-0.563604 0.17439,-0.864969 -0.196634,-0.318142 -0.104816,-0.403462 0.218814,-0.203371 0.306573,0.18948 0.807427,-0.122522 1.112915,-0.693341 0.305509,-0.57082 0.771217,-0.904548 1.034928,-0.741547 0.263709,0.163005 0.479481,0.09862 0.479481,-0.143032 0,-0.241706 0.460634,-0.933827 1.023627,-1.538172 1.964121,-2.108238 2.374872,-4.426215 0.785207,-4.431617 z M 45.00829,29.55382 c -0.1224,0 -0.362974,0.227159 -0.534569,0.504817 -0.171595,0.277661 -0.07139,0.504818 0.22263,0.504818 0.293995,0 0.534569,-0.227157 0.534569,-0.504818 0,-0.277658 -0.100201,-0.504817 -0.22263,-0.504817 z m -5.471537,22.550886 c -0.305928,0.189061 -0.645378,0.07638 -0.754306,-0.250411 -0.108932,-0.326788 -0.55162,-0.594192 -0.983744,-0.594192 -0.432133,0 -1.113215,-0.397498 -1.513526,-0.883391 -0.693199,-0.841348 -0.714635,-0.841348 -0.450088,0 0.324871,1.033317 -0.692553,1.189604 -1.642765,0.252379 -0.512636,-0.505593 -0.77368,-0.449668 -1.313817,0.281652 -0.650228,0.880371 -0.698154,0.880371 -1.354219,0 -0.374058,-0.501955 -1.248033,-0.97249 -1.942124,-1.04564 -0.694102,-0.07309 -2.057052,-0.230021 -3.028785,-0.348788 -0.971745,-0.118706 -1.915901,-0.229246 -2.09813,-0.245701 -0.182271,-0.0161 -0.213212,-0.481506 -0.06881,-1.033723 0.144407,-0.552158 0.498973,-0.857755 0.787937,-0.679157 0.305025,0.188523 0.374357,0.08026 0.165209,-0.258103 -0.208912,-0.337997 -0.05312,-0.582804 0.370724,-0.582804 0.402031,0 0.699359,0.373114 0.660796,0.829084 -0.03881,0.455986 0.237649,0.937158 0.613857,1.06931 0.496241,0.174334 0.590796,-0.05307 0.344556,-0.829077 -0.26114,-0.822674 -0.127764,-1.067546 0.578035,-1.06159 0.777012,0.0066 0.801525,0.08263 0.160199,0.497067 -0.586914,0.379314 -0.416576,0.50452 0.757199,0.556868 0.832917,0.03756 1.684768,0.04115 1.892991,0.0078 0.208268,-0.03279 0.378605,0.147325 0.378605,0.400359 0,0.253097 0.397495,0.401553 0.883394,0.330007 0.485856,-0.0716 1.128536,0.204385 1.428154,0.613377 0.421049,0.574696 0.777164,0.619138 1.568034,0.195918 0.818329,-0.437981 1.235755,-0.349682 2.084315,0.440844 1.191375,1.109949 2.112859,1.284253 2.112859,0.399586 0,-0.790466 0.673773,-0.08103 0.810987,0.853962 0.05977,0.407337 -0.141601,0.895264 -0.447519,1.08436 z M 36.27363,12.51689 c -0.111734,0.485857 -0.427016,0.883392 -0.700702,0.883392 -0.273666,0 -0.377767,0.19389 -0.231328,0.430828 0.344793,0.557881 -0.802085,3.607541 -1.356736,3.607541 -0.233187,0 -0.259656,0.265795 -0.05902,0.590555 0.242606,0.39261 0.09375,0.486513 -0.443885,0.280222 -0.606524,-0.232764 -1.019511,0.241171 -1.650967,1.894608 -0.463139,1.212772 -0.709036,2.420299 -0.546427,2.683452 0.390517,0.631909 -1.434324,2.71662 -1.960927,2.24014 -0.224544,-0.20319 -0.258226,-0.107082 -0.07483,0.213625 0.452882,0.791731 -1.679576,4.68811 -2.41194,4.407089 -0.321485,-0.123357 -1.141512,0.386946 -1.822283,1.133978 -0.680771,0.747055 -0.956414,1.196269 -0.612546,0.99824 0.420631,-0.242183 0.527173,-0.104571 0.325711,0.420515 -0.164736,0.429276 -0.502853,0.654826 -0.751414,0.50124 -0.248563,-0.153587 -0.451872,-0.01133 -0.451872,0.317127 0,0.457121 -0.166888,0.457897 -0.714744,0.005 -0.573863,-0.476259 -0.792377,-0.36405 -1.108562,0.569209 -0.216609,0.639277 -0.33931,1.446294 -0.272708,1.793347 0.06655,0.347057 -0.129441,0.630996 -0.435606,0.630996 -0.306208,0 -0.436843,0.193948 -0.29035,0.431006 0.146493,0.236997 -0.294415,0.686472 -0.979808,0.998742 -0.685394,0.312299 -1.246173,0.792685 -1.246173,1.067595 0,0.274855 -0.311401,0.380268 -0.692059,0.234193 -0.380626,-0.146014 -0.832342,0.100052 -1.003808,0.546911 -0.179165,0.466899 -0.102013,0.68279 0.181489,0.507561 0.279688,-0.172843 0.363093,0.03457 0.192637,0.478584 -0.280998,0.732257 -0.887309,1.001515 -1.870729,0.830646 -0.228888,-0.03995 -0.281952,0.14482 -0.117992,0.410138 0.16402,0.265316 0.08859,0.611916 -0.167478,0.770224 -0.688201,0.425342 -0.02922,2.403898 0.706405,2.121565 0.346105,-0.132838 0.917503,0.02445 1.269706,0.350039 0.499273,0.461174 0.551264,0.435358 0.235929,-0.117395 -0.271045,-0.475186 -0.212256,-0.590197 0.178325,-0.348788 0.320529,0.198064 0.582798,0.687535 0.582798,1.087591 0,0.400123 0.240573,0.727409 0.534568,0.727409 0.294006,0 0.370381,-0.265792 0.169575,-0.590553 -0.258163,-0.417711 -0.08214,-0.471847 0.601203,-0.185007 0.531407,0.223046 1.380902,0.388079 1.887755,0.366675 0.746996,-0.03101 0.806998,0.09909 0.316776,0.689806 -0.84857,1.022419 -0.230445,0.910659 0.830425,-0.150248 0.635487,-0.63549 0.937018,-0.704496 1.088767,-0.249217 0.115434,0.346283 0.447111,0.482995 0.737052,0.303773 0.298231,-0.184291 0.426769,-0.02146 0.295963,0.375497 -0.127173,0.385694 -0.724538,0.773856 -1.327483,0.862603 -0.602945,0.08872 -1.096251,0.372636 -1.096251,0.630995 0,0.258282 -0.354157,0.469641 -0.786989,0.469641 -0.472321,0 -0.641047,-0.236161 -0.422006,-0.590554 0.242068,-0.391656 0.09451,-0.486752 -0.438101,-0.282427 -0.44168,0.169503 -1.077008,-0.02146 -1.41178,-0.425224 -0.437275,-0.526868 -0.78926,-0.583567 -1.24982,-0.201333 -0.45885,0.380804 -0.715504,0.346701 -0.902765,-0.120019 -0.203429,-0.507023 -0.270503,-0.497962 -0.301507,0.04115 -0.03161,0.545541 -0.194486,0.564499 -0.767047,0.08933 -0.399954,-0.331919 -0.599174,-0.984407 -0.442702,-1.449981 0.172426,-0.513106 -0.04948,-0.399169 -0.563427,0.289285 -1.049898,1.406317 -2.134197,1.459828 -2.557476,0.126218 -0.404117,-1.273301 -0.852032,-1.277187 -1.640834,-0.01432 -0.34193,0.547507 -0.9351865,0.875171 -1.3183405,0.72812 -1.439325,-0.552277 -2.458988,1.311363 -2.211826,4.042673 0.273366,3.020764 0.101299,3.665896 -1.15736,4.339497 -0.790006,0.422838 -1.07135,0.226264 -1.763243,-1.231805 -0.452769,-0.954178 -0.892461,-2.6029 -0.977048,-3.663834 -0.0846,-1.060934 -0.288747,-3.40552 -0.453721,-5.210171 -0.164974,-1.804654 -0.425998,-6.574994 -0.58006,-10.60076 -0.154063,-4.025765 -0.504163,-9.327808 -0.777929,-11.782336 -0.273782,-2.454527 -0.52294097,-5.577964 -0.55364597,-6.940972 -0.030402,-1.363003 -0.196514,-2.478204 -0.368464,-2.478204 -0.746589,0 -0.215831,-5.1087552 0.617343,-5.9419276 C 1.8006545,6.6410976 1.8643945,6.6553835 2.1429715,7.7206342 c 0.162112,0.6198945 0.443885,1.0349395 0.626114,0.9223192 0.308781,-0.1907893 0.406858,0.6609792 0.702016,6.0993226 0.0626,1.153461 0.265258,2.003592 0.450383,1.889207 0.185067,-0.114415 0.345388,0.759164 0.3563,1.941195 0.01077,1.182039 0.249398,2.916474 0.530098,3.854234 0.341453,1.140697 0.342945,2.01793 0.0045,2.65019 -0.278195,0.519842 -0.395829,0.945136 -0.261381,0.945136 0.134446,0 -0.09295,0.807477 -0.505295,1.794353 -0.725246,1.735747 -0.717251,1.77694 0.244985,1.261998 1.436635,-0.768858 1.655424,-0.662094 0.951779,0.464633 -0.491282,0.786728 -0.492237,1.127413 -0.004,1.615352 0.81953,0.819538 0.780997,1.696122 -0.113937,2.591027 -0.937422,0.937409 -1.572441,3.378206 -0.878909,3.378206 0.284575,0 0.618867,-0.283979 0.74281,-0.630995 0.536417,-1.501975 0.986049,0.377108 0.988494,4.131064 0.0015,2.416973 0.19538,3.936517 0.479657,3.760794 0.262335,-0.162111 0.819472,0.125504 1.238047,0.639175 0.418604,0.513643 0.638477,0.684357 0.48866,0.379374 -0.331019,-0.673952 1.48934,-2.726612 2.4180525,-2.726612 0.366733,0 1.093297,-0.567898 1.614546,-1.261997 0.521274,-0.694099 1.234535,-1.261997 1.5851,-1.261997 0.350576,0 0.63738,-0.231989 0.63738,-0.515609 0,-0.283622 0.560803,-0.771132 1.246168,-1.083449 0.685395,-0.312239 1.126303,-0.761739 0.979806,-0.998741 -0.14649,-0.237058 0.08776,-0.431007 0.52062,-0.431007 0.432854,0 0.786989,-0.321839 0.786989,-0.715145 0,-0.393266 0.178573,-0.790817 0.396839,-0.883398 0.218277,-0.09254 0.914829,-0.90596 1.54792,-1.807627 0.633089,-0.901671 1.709988,-1.779668 2.393114,-1.951147 0.989655,-0.248384 1.12415,-0.453782 0.661881,-1.01081 -0.466548,-0.562115 -0.345578,-0.69909 0.617426,-0.699394 0.946953,-3.03e-4 1.214286,-0.287616 1.277296,-1.372696 0.04355,-0.754777 0.327796,-1.455029 0.630995,-1.556094 0.30324,-0.101064 0.551328,-0.601113 0.551328,-1.111207 0,-0.619996 0.50195,-1.037664 1.514388,-1.26003 0.832917,-0.182919 1.540296,-0.484963 1.571959,-0.671126 0.0316,-0.18614 0.142018,-0.906365 0.245217,-1.600463 0.349803,-2.351903 0.492543,-2.77437 1.398567,-4.13859 1.301894,-1.960328 2.87782,-8.7000362 2.55139,-10.9115051 C 33.179176,6.4152532 32.614849,4.9624497 32.076151,4.2101952 31.537465,3.457947 31.089463,2.4357312 31.080637,1.9386039 31.066987,1.1499625 30.986247,1.1312825 30.449643,1.7919342 30.111408,2.2083931 29.45702,2.611323 28.995418,2.6873407 28.353361,2.7930545 28.225877,2.5588551 28.452926,1.6907743 c 0.163178,-0.6241338 0.392602,-0.84720781 0.509766,-0.4957558 0.17093,0.512808 0.363746,0.5139401 0.975744,0.0059 0.625457,-0.51906801 0.886264,-0.46403701 1.449128,0.3057407 0.377531,0.5162651 0.576422,1.1167101 0.441917,1.3342283 -0.134439,0.2175603 -0.01365,0.5382658 0.268602,0.7126245 0.284039,0.1755853 0.513044,-0.146789 0.513044,-0.7223185 0,-1.0064636 0.02925,-1.0101491 0.921957,-0.1173959 1.15233,1.1523525 1.739932,2.6116206 1.051604,2.6116206 -0.285298,0 -0.376035,0.2308548 -0.201699,0.5130453 0.174391,0.2821904 0.502724,0.3982736 0.729591,0.2581029 0.226866,-0.1402308 0.530698,0.1967518 0.675062,0.7489218 0.144396,0.5522163 0.05666,1.0039414 -0.195022,1.0039414 -0.527893,0 -0.39386,1.122064 0.185302,1.551496 0.500877,0.3714448 0.757049,1.9819824 0.495876,3.1178804 z M 5.1292555,31.573008 c -0.122405,0 -0.362978,0.227159 -0.534571,0.504817 -0.171591,0.277659 -0.07143,0.504819 0.222628,0.504819 0.294056,0 0.534568,-0.22716 0.534568,-0.504819 0,-0.277658 -0.100168,-0.504817 -0.222625,-0.504817 z M 25.796181,1.8530294 c -0.138806,0.034576 -0.460646,0.091458 -0.715142,0.1262192 -0.254518,0.034585 -0.628961,0.2293055 -0.832144,0.432496 C 24.045703,2.614936 23.440747,2.2753303 22.904523,1.6570226 21.934875,0.53899949 21.93596,0.53127349 23.105684,0.23107149 c 1.270298,-0.326012 2.942896,0.283203 2.942896,1.07183921 0,0.2678208 -0.113573,0.5153706 -0.252378,0.5501305 z m -4.795594,-0.063075 c -0.277654,0 -0.50481,-0.2137446 -0.50481,-0.4750074 0,-0.2612625 0.227156,-0.61539851 0.50481,-0.78698351 0.277665,-0.171593 0.504821,0.04174 0.504821,0.47500601 0,0.4327954 -0.227156,0.7869785 -0.504821,0.7869785 z m -3.634546,0.6057567 c -0.471126,-0.4711317 -0.471126,-0.7403887 0,-1.2115156 0.471138,-0.47113201 0.605762,-0.33656401 0.605762,0.6057586 0,0.9423041 -0.134624,1.0768833 -0.605762,0.605757 z m -2.476507,0.18453 C 14.516719,2.8106196 14.413873,2.7425317 14.623264,2.4038194 14.810834,2.1003452 14.561984,1.6177961 14.070272,1.3315752 13.57857,1.0453315 13.432396,0.80416049 13.745452,0.79575349 c 0.972002,-0.02623 1.852313,1.34679781 1.144118,1.78451131 z m -2.300023,0.5979292 c -0.340501,0.843875 -1.510537,0.803845 -1.843209,-0.063075 -0.180773,-0.4711315 0.12616,-0.6940994 0.955583,-0.6940994 0.67207,0 1.204008,0.028017 1.182086,0.063075 -0.02207,0.034576 -0.154421,0.3470584 -0.294473,0.6940931 z M 9.0334155,4.5339102 C 8.3139775,4.8078728 8.2559935,4.7498609 8.7508085,4.2513025 9.0932155,3.9063309 9.5005575,3.751195 9.6559805,3.9066286 9.8114145,4.0620636 9.5312515,4.3443132 9.0333965,4.5338919 Z M 4.1821795,8.0691079 C 3.0460505,7.8503555 2.3825735,7.3427533 3.2326905,7.3427533 c 0.31522,0 0.453781,-0.3109277 0.308007,-0.6908624 -0.152632,-0.3977371 0.136414,-0.7958668 0.681256,-0.938322 0.756869,-0.1979439 0.946364,0.032198 0.946364,1.1489726 0,1.1136869 -0.199672,1.358005 -0.986114,1.2065663 z"
       id="path20142" /></g></svg>
