<?xml version="1.0" encoding="UTF-8" standalone="no"?>
<!-- Created with Inkscape (http://www.inkscape.org/) -->

<svg
   width="189mm"
   height="74mm"
   viewBox="0 0 189 74"
   version="1.1"
   id="svg10436"
   xmlSpace="preserve"
   xmlns="http://www.w3.org/2000/svg"
   xmlnsSvg="http://www.w3.org/2000/svg"><defs
     id="defs10433" /><g
     id="layer1"><path
       style="fill:#000000;stroke-width:0.999999"
       d="m 188.01578,23.312627 c -0.57232,-0.572334 -1.22045,-0.681087 -1.14321,-0.191837 0.13545,0.85932 -0.1163,0.954298 -0.77747,0.293093 -0.49294,-0.493086 -0.78075,-0.565724 -0.89403,-0.225824 -0.1243,0.373202 -0.34087,0.360563 -0.84691,-0.04935 -0.51427,-0.416553 -0.60188,-0.420883 -0.3595,-0.01762 0.44309,0.737299 -0.20241,0.666526 -1.36814,-0.150046 -0.53623,-0.375618 -1.09044,-0.56745 -1.23163,-0.426322 -0.14102,0.141132 -0.0353,0.256639 0.24067,0.256639 0.2734,0 0.49747,0.221594 0.49747,0.492383 0,0.301098 -0.29203,0.227888 -0.75234,-0.188465 -0.7896,-0.714551 -4.36332,-1.700826 -4.36332,-1.204178 0,0.158403 -0.52757,0.33151 -1.17237,0.384681 -0.6448,0.05316 -1.23893,0.294856 -1.32035,0.537079 -0.0937,0.278894 -0.39676,0.238513 -0.82586,-0.110271 -0.57737,-0.46902 -0.63713,-0.442133 -0.40331,0.181716 0.15105,0.402808 0.0806,0.852025 -0.15609,0.998258 -0.23664,0.146219 -0.34944,0.488103 -0.25024,0.75968 0.0991,0.271593 -0.13045,0.862508 -0.51036,1.313128 -0.47985,0.569484 -0.50744,0.711646 -0.0902,0.4662 0.47532,-0.279851 0.5359,-0.140231 0.29052,0.672754 -1.05388,3.495894 -1.69808,8.486168 -1.09547,8.486168 0.49243,0 0.0594,1.346254 -0.77737,2.418905 -0.43604,0.559149 -1.31125,0.98196 -2.20558,1.065765 -1.36713,0.128144 -1.48989,0.04229 -1.5784,-1.102323 -0.0529,-0.682684 -0.30362,-1.369452 -0.55698,-1.526148 -0.25377,-0.156945 -0.32628,-0.636095 -0.16113,-1.066792 0.18932,-0.493389 0.13701,-0.681259 -0.14145,-0.509149 -0.29002,0.179199 -0.42195,-0.746926 -0.38469,-2.701047 0.0303,-1.635582 -0.0746,-2.973784 -0.23514,-2.973784 -0.16062,0 -0.23866,-0.67143 -0.17321,-1.492071 0.065,-0.820636 -0.069,-1.492065 -0.29808,-1.492065 -0.22908,0 -0.32324,-0.356434 -0.20945,-0.79206 0.11387,-0.435637 0.01,-1.14264 -0.2286,-1.571128 -0.23966,-0.428486 -0.47229,-1.366962 -0.51665,-2.085502 -0.0453,-0.718533 -0.22306,-1.977856 -0.39676,-2.798492 -0.20644,-0.973304 -0.17622,-1.294266 0.0872,-0.923149 0.31117,0.439262 0.47179,0.342084 0.704,-0.426321 0.16666,-0.55084 0.39576,-0.76798 0.51298,-0.486291 0.11687,0.279901 0.46273,0.412778 0.76901,0.295209 0.30613,-0.117572 0.8232,0.05252 1.14857,0.377933 0.32525,0.325419 0.82973,0.512291 1.1207,0.415295 0.30866,-0.102769 0.52908,0.194154 0.52908,0.711777 0,0.488454 0.19184,0.888136 0.42648,0.888136 0.23463,0 0.42647,-0.214193 0.42647,-0.476018 0,-0.262228 0.3736,-0.378288 0.83216,-0.258402 0.45768,0.119686 0.88935,0.07658 0.95919,-0.09587 0.07,-0.172401 0.76003,-0.436894 1.53368,-0.587787 0.88064,-0.171747 1.30968,-0.117272 1.1472,0.145565 -0.143,0.230959 -0.0564,0.419877 0.19184,0.419877 0.24823,0 0.45164,-0.159864 0.45164,-0.355277 0,-0.458194 1.35962,-0.484477 1.93262,-0.03726 0.24219,0.189067 0.70623,0.179652 1.03084,-0.02115 0.36706,-0.22678 0.96643,-0.118328 1.5844,0.286548 0.57862,0.379142 0.99407,0.461818 0.99407,0.197779 0,-0.28821 0.544,-0.226278 1.4921,0.169833 0.82063,0.342891 1.49205,0.495554 1.49205,0.339315 0,-0.156239 0.38368,0.158303 0.85259,0.698968 0.55302,0.637619 0.85491,0.772891 0.85915,0.384983 0.006,-0.471989 0.0796,-0.482665 0.35396,-0.05081 0.19084,0.301049 0.66604,0.425014 1.05566,0.275521 0.44309,-0.169985 0.80627,-0.01662 0.96976,0.409405 0.144,0.374661 0.46273,0.55678 0.70894,0.40467 0.25125,-0.155233 0.32174,-0.07357 0.16162,0.186147 -0.15709,0.254474 -0.0911,0.583216 0.14753,0.730487 0.23816,0.147276 0.43353,0.486642 0.43353,0.754178 0,0.350341 -0.143,0.343343 -0.51156,-0.02518 z m -26.4056,15.0872 c -0.22507,0.138974 -0.33534,0.473148 -0.24521,0.742652 0.19335,0.579248 -0.696,1.563387 -1.4124,1.563387 -0.27642,0 -0.39172,0.287756 -0.25679,0.639458 0.13487,0.351701 0.0724,0.639457 -0.13902,0.639457 -0.21148,0 -0.50597,0.383674 -0.65482,0.852608 -0.14903,0.468919 -0.603,0.852609 -1.00924,0.852609 -0.40632,0 -0.97832,0.23977 -1.27125,0.532883 -0.29304,0.293093 -1.52689,0.547063 -2.74211,0.564394 -1.73837,0.02467 -2.3671,-0.156994 -2.94886,-0.852612 -0.40684,-0.486291 -0.74575,-0.660313 -0.75355,-0.386746 -0.01,0.273557 0.22557,0.594116 0.51866,0.71238 0.4008,0.161727 0.39072,0.223358 -0.0403,0.248683 -0.31521,0.01863 -0.67597,-0.360865 -0.80204,-0.843061 -0.14101,-0.53807 -0.46324,-0.786961 -0.83487,-0.644342 -0.33887,0.130102 -0.48942,0.04482 -0.34189,-0.194052 0.14501,-0.234534 -0.33029,-0.545245 -1.05661,-0.690467 -1.31366,-0.262732 -2.99935,-1.912341 -2.99935,-2.935115 0,-0.295006 -0.28751,-0.646779 -0.63947,-0.781744 -0.35195,-0.134945 -0.63946,-0.541762 -0.63946,-0.904002 0,-0.362224 -0.17774,-0.991732 -0.39525,-1.39887 -0.44057,-0.82491 -0.76348,-1.808426 -0.79791,-2.428826 -0.0353,-0.621693 -1.53702,-1.029747 -1.8716,-0.508288 -0.19334,0.3013 -0.59495,0.185142 -1.17493,-0.339768 -0.48489,-0.438658 -1.00798,-0.670801 -1.16286,-0.51593 -0.15509,0.154878 -0.0579,0.281613 0.216,0.281613 0.2734,0 0.49748,0.198584 0.49748,0.441325 0,0.298834 -0.25731,0.303717 -0.79656,0.0151 -0.43805,-0.234485 -0.94842,-0.289167 -1.13411,-0.121601 -0.18579,0.167618 -0.1994,0.06495 -0.0301,-0.228141 0.18983,-0.329597 0.0529,-0.532885 -0.358,-0.532885 -0.36554,0 -1.06376,-0.399181 -1.55161,-0.887022 -0.85441,-0.85439 -0.85834,-0.908846 -0.10673,-1.480061 0.42949,-0.326174 1.0682,-0.482916 1.4199,-0.348278 2.70414,1.035025 3.00701,1.071625 4.27238,0.516344 l 1.30339,-0.571953 -0.11387,-3.416359 c -0.0987,-2.966471 0.0201,-3.631315 0.89503,-5.048795 0.89706,-1.451468 1.16705,-1.613986 2.43497,-1.465964 0.78427,0.09158 1.50979,-0.03423 1.61224,-0.280003 0.12188,-0.291582 0.19789,-0.282115 0.22005,0.02719 0.0201,0.270486 0.4879,0.386948 1.09226,0.271392 0.58225,-0.111328 1.39758,-0.05528 1.81182,0.124473 0.41439,0.179753 0.95789,0.345407 1.20817,0.368066 0.25025,0.02266 0.79279,0.378186 1.20557,0.790026 0.41286,0.411872 1.09673,0.934086 1.51984,1.160515 0.72147,0.386142 1.43505,2.833532 0.90067,3.089335 -0.13445,0.06435 -0.5752,0.692496 -0.97962,1.395898 -0.40432,0.703403 -0.94615,1.226203 -1.20399,1.161773 -0.25781,-0.06439 -0.34743,0.07945 -0.1989,0.319729 0.14853,0.240275 0.0554,0.436845 -0.20644,0.436845 -0.26232,0 -0.35799,0.191838 -0.21298,0.426322 0.14502,0.234485 -0.0301,0.426322 -0.38821,0.426322 -0.3585,0 -1.3289,0.380401 -2.15667,0.845326 -0.82773,0.464942 -1.5127,0.704724 -1.52206,0.532881 -0.01,-0.171848 -0.30362,0.215704 -0.65381,0.861203 -0.47834,0.881464 -0.52321,1.385573 -0.18126,2.024944 0.25074,0.468215 0.32929,0.851304 0.17522,0.851304 -0.15408,0 -0.0403,0.29123 0.25678,0.647136 0.29557,0.355931 0.56645,1.075316 0.60235,1.598644 0.0353,0.523327 0.29706,0.903548 0.58086,0.844929 0.28346,-0.05861 0.49293,0.03726 0.46524,0.213136 -0.13945,0.884098 0.11487,1.385492 0.7033,1.385492 0.359,0 0.75989,0.278945 0.89071,0.619872 0.13087,0.340926 1.09085,1.032789 2.13336,1.537472 1.63777,0.792811 2.06741,0.846419 3.15923,0.394197 0.69504,-0.287907 1.26365,-0.723966 1.26365,-0.969064 0,-0.245109 0.11887,-0.326879 0.26385,-0.181717 0.2749,0.274715 1.24381,-0.512245 1.35001,-1.096207 0.16162,-0.889263 1.42699,-1.623778 2.32812,-1.3515 0.78361,0.23675 0.86237,0.187205 0.42748,-0.269278 -0.62093,-0.651888 -0.69514,-1.241563 -0.15609,-1.241563 0.54616,0 0.8966,1.658434 0.41338,1.957011 z M 147.47207,23.903794 c -1.18294,0.369022 -1.67965,1.122811 -1.01728,1.543891 0.36604,0.232773 0.3298,0.334784 -0.12887,0.360966 -0.42597,0.02417 -0.35497,0.154223 0.21298,0.389312 0.59556,0.246469 1.01327,0.148587 1.38551,-0.324611 0.43554,-0.553654 0.53407,-0.565169 0.53941,-0.06304 0.006,0.533433 0.0579,0.533156 0.39676,-0.0021 0.63498,-1.003641 -0.27492,-2.251675 -1.38822,-1.90437 z m -12.01428,-2.381647 c -0.38218,0 -0.57174,0.19954 -0.42094,0.44339 0.25679,0.415345 -0.5722,0.329497 -2.89025,-0.299287 -0.4305,-0.116814 -0.85666,0.07981 -1.00385,0.463481 -0.14045,0.366505 -0.42898,0.559354 -0.64067,0.428538 -0.21147,-0.130816 -0.69021,0.06747 -1.0634,0.440621 -0.54788,0.547874 -0.57657,0.801347 -0.14905,1.316397 0.29104,0.350846 0.40785,0.759468 0.25931,0.908079 -0.14854,0.148586 -0.0564,0.527654 0.20442,0.842305 0.34089,0.410915 0.34492,0.728584 0.0152,1.127444 -0.33636,0.405476 -0.27694,0.894405 0.22104,1.8118 0.3751,0.691051 0.65491,1.714853 0.62173,2.275113 -0.0353,0.56026 0.27542,1.273547 0.68583,1.585084 0.49544,0.376172 0.55874,0.570986 0.18831,0.579988 -0.30714,0.0076 -0.42597,0.226831 -0.26535,0.487498 0.16112,0.260668 0.0303,0.644356 -0.29455,0.852609 -0.4874,0.314088 -0.49042,0.441275 -0.0202,0.745802 0.43253,0.278996 0.34945,0.424561 -0.34591,0.606367 -0.56115,0.146724 -1.00072,0.0151 -1.13707,-0.340221 -0.12287,-0.320031 -0.51886,-0.465646 -0.88472,-0.325267 -0.44661,0.171445 -0.59379,0.05861 -0.45164,-0.346667 0.11587,-0.330453 -0.17472,-1.150721 -0.64575,-1.822831 -0.47079,-0.672105 -0.87521,-1.948004 -0.89837,-2.835324 -0.0251,-0.88732 -0.18629,-1.525075 -0.36203,-1.417233 -0.17572,0.107856 -0.31972,-0.02619 -0.31972,-0.297525 0,-0.419927 -1.17519,-3.27255 -1.55333,-3.770555 -0.18781,-0.246922 -2.70969,0.863322 -2.70969,1.192793 0,0.157245 -0.5755,0.27829 -1.27892,0.268924 -0.7034,-0.0096 -1.27891,-0.172604 -1.27891,-0.36283 0,-0.190223 -0.14853,-0.25407 -0.3298,-0.14193 -0.18126,0.112127 -0.34288,-0.547984 -0.359,-1.466911 -0.0251,-1.505468 0.23716,-1.876655 1.22157,-1.721252 0.17572,0.02769 0.31972,-0.157348 0.31972,-0.411369 0,-0.254019 0.23213,-0.384429 0.51605,-0.289819 0.28398,0.09461 1.03507,-0.290424 1.66939,-0.855665 1.01437,-0.903785 1.14387,-1.309971 1.07419,-3.369246 -0.0453,-1.287856 0.0776,-2.438592 0.26987,-2.557194 0.19184,-0.118628 0.16969,-0.438356 -0.0503,-0.710574 -0.21903,-0.272197 -0.63623,-1.933703 -0.92721,-3.692211 -0.29102,-1.7585068 -0.72852,-3.6768783 -0.97228,-4.2630499 -0.2437,-0.5861658 -0.4592,-1.2000451 -0.47883,-1.3641737 -0.0201,-0.1641444 -0.27442,-0.536867 -0.5656,-0.8283084 -0.78819,-0.7881847 0.903,-2.4845333 2.1581,-2.1646885 0.94313,0.2403249 2.91502,2.1860769 2.66065,2.6253648 -0.0766,0.1318733 0.0589,0.7193336 0.30059,1.3055038 0.65713,1.5931703 0.79826,2.2075738 0.85657,3.7301666 0.0303,0.7620213 0.20644,1.3854923 0.39424,1.3854923 0.18781,0 0.34089,0.436894 0.34089,0.970902 0,0.534003 0.32072,1.429087 0.71317,1.989085 0.4315,0.616321 0.49243,0.881818 0.15406,0.672684 -0.44459,-0.274614 -0.49041,-0.0049 -0.22557,1.314784 0.18328,0.913146 0.31671,2.010485 0.29607,2.438528 -0.0302,0.619816 0.0841,0.677438 0.55939,0.283024 0.69349,-0.575512 1.48673,-0.218524 1.48673,0.669094 0,0.885154 0.84604,0.759397 0.88622,-0.131716 0.0202,-0.445657 0.1203,-0.531491 0.24873,-0.213136 0.1183,0.293093 0.77455,0.532879 1.45837,0.532879 0.89751,0 1.24523,0.207547 1.24996,0.746036 0.006,0.603642 0.079,0.631128 0.38771,0.144003 0.32224,-0.508886 0.49091,-0.492381 1.08969,0.106599 0.64953,0.649528 0.65063,0.708599 0.0151,0.708599 z m -7.57218,0.996582 c -0.29305,0.118271 -0.0534,0.214998 0.53286,0.214998 0.58619,0 0.82594,-0.09677 0.53291,-0.214998 -0.29305,-0.118272 -0.77268,-0.118272 -1.06577,0 z m -12.76544,18.52818 c -0.28146,0.281361 -0.36958,0.511565 -0.19638,0.511565 0.17321,0 0.068,0.267616 -0.23463,0.594711 -0.3021,0.327079 -0.69354,0.507608 -0.8694,0.401147 -0.17574,-0.106442 -0.31974,-0.01315 -0.31974,0.207294 0,0.891504 -2.6535,2.974296 -3.64993,2.864914 -0.5586,-0.06132 -0.91377,0.05338 -0.78921,0.254877 0.12444,0.201503 0.0251,0.366353 -0.22507,0.366353 -0.24823,0 -0.45164,-0.230205 -0.45164,-0.511566 0,-0.377329 -0.12531,-0.386393 -0.47683,-0.03475 -0.35195,0.351853 -0.92289,0.02216 -2.17597,-1.256251 -1.54159,-1.572708 -1.67502,-1.883146 -1.44033,-3.350877 0.14244,-0.889677 0.44661,-2.112158 0.67651,-2.716632 0.37007,-0.974055 0.51565,-1.037955 1.27791,-0.561937 0.47279,0.295409 0.85999,0.694109 0.85999,0.886011 0,0.191888 -0.18982,0.231715 -0.42144,0.08847 -0.25125,-0.155132 -0.31066,0.05035 -0.14703,0.507719 0.41691,1.16774 1.04832,1.851119 1.4693,1.590934 0.20795,-0.128501 0.37814,-0.03072 0.37814,0.217818 0,0.248282 0.38366,0.451448 0.85264,0.451448 0.57652,0 0.85259,-0.284231 0.85259,-0.877768 0,-0.482766 0.15911,-0.779428 0.35347,-0.659231 0.41892,0.258955 0.36403,-1.297781 -0.0609,-1.722657 -0.16113,-0.161073 -0.29305,-0.644583 -0.29305,-1.074444 0,-0.429847 -0.22355,-0.781559 -0.49746,-0.781559 -0.2734,0 -0.38116,-0.116357 -0.23867,-0.258551 0.40986,-0.409556 -1.27896,-1.995244 -1.78896,-1.680021 -0.26032,0.160821 -0.4738,-0.05035 -0.49243,-0.487549 -0.0202,-0.424157 -0.12745,-0.540654 -0.24169,-0.258905 -0.15408,0.379596 -0.61483,0.324361 -1.77815,-0.213135 -0.86347,-0.399032 -1.63388,-0.869345 -1.71203,-1.045196 -0.078,-0.175876 -0.38468,-0.319729 -0.68084,-0.319729 -0.29607,0 -0.9811,-0.383674 -1.52176,-0.852607 -0.54067,-0.468919 -1.33742,-0.852609 -1.770444,-0.852609 -0.43301,0 -0.787382,-0.287757 -0.787382,-0.639458 0,-0.351702 -0.191838,-0.639457 -0.426481,-0.639457 -0.234629,0 -0.38569,-0.143903 -0.335841,-0.319729 0.05029,-0.175876 -0.1203,-0.703403 -0.378632,-1.172342 -0.595301,-1.082046 -0.216512,-5.328808 0.474801,-5.328808 0.277434,0 0.91664,-0.383674 1.420002,-0.852609 0.503504,-0.468919 1.172567,-0.852613 1.487167,-0.852613 0.31469,0 0.7543,-0.175321 0.977,-0.389616 0.43554,-0.419171 1.71346,-0.58538 3.92204,-0.510161 1.16136,0.03978 1.38547,0.211122 1.38547,1.060754 0,0.911897 -1.26976,2.594214 -1.28542,1.703037 -0.004,-0.204576 -0.14753,-0.16505 -0.31972,0.08777 -0.46374,0.680704 -3.12901,1.907591 -3.56229,1.63982 -0.20593,-0.127287 -0.39677,0.01963 -0.42345,0.326576 -0.0251,0.30694 -0.075,0.845796 -0.10673,1.197498 -0.0302,0.3517 0.32628,0.872455 0.7952,1.15723 0.57047,0.346465 0.64968,0.522774 0.23917,0.532879 -0.41641,0.01 -0.28248,0.323203 0.41639,0.974297 0.5663,0.527553 1.12998,0.962121 1.25274,0.965712 0.12287,0.0034 0.46273,0.158806 0.75602,0.344903 0.29304,0.186097 0.53291,0.223055 0.53291,0.08207 0,-0.140932 0.86328,0.249639 1.91838,0.867958 1.0551,0.618332 1.9242,0.962132 1.9313,0.764007 0.006,-0.198132 0.20846,-0.02467 0.44763,0.385788 0.23916,0.41031 0.91588,0.746036 1.50423,0.746036 0.60457,0 0.95516,0.185342 0.80627,0.426322 -0.14501,0.234484 -0.0896,0.426322 0.12287,0.426322 0.71493,0 2.30291,1.655615 2.02275,2.108899 -0.15257,0.246922 -0.0746,0.448929 0.17422,0.448929 0.24823,0 0.45164,0.383676 0.45164,0.852614 0,0.468919 0.21551,0.852607 0.47834,0.852607 0.34137,0 0.34843,0.157097 0.0251,0.54718 -0.28801,0.346868 -0.30915,0.776029 -0.0589,1.172338 0.51781,0.818711 0.50642,0.996133 -0.10315,1.605661 z M 88.480478,40.812425 c -0.107298,0.41031 -0.452655,0.746034 -0.767651,0.746034 -0.315195,0 -0.662566,0.239772 -0.772437,0.53288 -0.139445,0.37169 -0.417408,0.274915 -0.919755,-0.319729 -0.395763,-0.468918 -0.59853,-0.612812 -0.450141,-0.319729 0.157591,0.311573 0,0.532885 -0.381161,0.532885 -0.403805,0 -0.557981,-0.243044 -0.40582,-0.639458 0.134874,-0.351701 0.07101,-0.639456 -0.142446,-0.639456 -0.212983,0 -0.737833,-1.007146 -1.165828,-2.238101 -0.427981,-1.230956 -1.045885,-2.669735 -1.372968,-3.197288 -0.408335,-0.65873 -0.441568,-0.959186 -0.106298,-0.959186 0.36303,0 0.360515,-0.153821 -0.01,-0.598683 -0.554168,-0.667764 -0.187823,-2.833707 0.564683,-3.338113 0.759535,-0.509138 2.965061,-0.344653 3.792476,0.282821 0.858291,0.650833 1.257068,3.553273 0.604574,4.400001 -0.275419,0.357341 -0.244715,0.532885 0.09315,0.532885 0.276933,0 0.395262,0.175473 0.262832,0.389868 -0.132445,0.214444 0,0.487043 0.29455,0.605802 0.294565,0.118729 0.152061,0.2369 -0.31721,0.262529 -0.787782,0.04331 -0.79564,0.07981 -0.103156,0.483018 0.412379,0.240022 0.939744,0.318772 1.172315,0.17502 0.425981,-0.263285 0.508648,1.853453 0.128873,3.305944 z M 82.680556,19.150207 c -0.420437,-0.160115 -0.657037,-0.398477 -0.525821,-0.529716 0.131445,-0.131259 0.475315,-2.77e-4 0.764422,0.291079 0.417922,0.421034 0.369074,0.469976 -0.238658,0.238663 z m -2.00413,-1.038357 c -0.234629,0 -0.426467,0.287756 -0.426467,0.639457 0,0.351702 -0.191837,0.639458 -0.42648,0.639458 H 79.07743 c -0.175721,0 -0.319724,-0.221494 -0.319724,-0.492231 0,-0.270738 -0.383676,-0.54789 -0.85259,-0.615904 -0.468772,-0.06802 -1.115837,-0.517941 -1.437519,-0.999824 -0.321753,-0.481909 -0.844289,-0.876162 -1.161399,-0.876162 -0.31721,0 -0.862062,-0.552225 -1.211091,-1.227159 -0.583514,-1.128381 -0.568169,-1.287269 0.190824,-1.973974 0.586243,-0.530579 1.205004,-0.670862 2.136904,-0.484478 0.917083,0.183428 1.222263,0.117715 1.014566,-0.218372 -0.163134,-0.264393 0.586886,0.170136 1.667376,0.965606 1.718924,1.265491 1.966611,1.646144 1.981156,3.044935 0.01,0.879253 -0.175221,1.598643 -0.40985,1.598643 z m -5.065462,40.498805 c -0.155076,0 -0.274905,1.358868 -0.265847,3.019709 0.01,1.660843 -0.09515,3.088312 -0.231114,3.172167 -0.135445,0.08384 -0.129444,1.21887 0.01515,2.522255 0.143503,1.303387 0.106727,2.369794 -0.08158,2.369794 -0.188309,0 -0.342385,0.224718 -0.342385,0.499331 0,0.274614 -0.335841,0.883105 -0.746048,1.352191 -0.440568,0.50354 -0.50049,0.708578 -0.147018,0.500588 0.388204,-0.22839 0.498975,-0.190729 0.314681,0.107042 -0.453155,0.733175 -2.79317,1.087857 -3.470238,0.525976 -0.331812,-0.27537 -0.775452,-0.394299 -0.985864,-0.264243 -0.524907,0.324361 -4.074554,-1.978757 -4.928258,-3.197587 -0.382161,-0.545569 -0.694785,-1.342453 -0.694785,-1.770865 0,-0.428386 -0.272905,-1.306341 -0.606074,-1.950965 -0.333326,-0.644617 -0.738447,-2.02591 -0.900181,-3.069539 -0.459699,-2.9652 -0.521378,-8.07892 -0.09773,-8.07892 0.210469,0 0.269376,-0.356585 0.130874,-0.792423 -0.155591,-0.489865 0.03529,-1.011012 0.504161,-1.364929 0.644193,-0.488053 0.677069,-0.484377 0.223056,0.02517 -0.612218,0.68657 -0.718259,1.444554 -0.153062,1.095334 0.208955,-0.129044 0.683455,0.228946 1.054701,0.795606 0.45467,0.694215 0.519678,1.082053 0.198881,1.189059 -0.345913,0.115257 -0.337341,0.418617 0.03029,1.106417 0.278934,0.521188 0.391219,1.13549 0.24923,1.365115 -0.142017,0.229601 -0.04529,0.417511 0.218527,0.417511 0.262332,0 0.352957,0.200246 0.20141,0.444952 -0.151061,0.244755 -0.08315,0.676374 0.151547,0.959186 0.234643,0.282821 0.447626,0.657166 0.473301,0.831888 0.259303,1.770632 0.629133,2.879608 0.960645,2.879608 0.221041,0 0.279948,0.383673 0.130873,0.852606 -0.16012,0.504834 -0.07658,0.852614 0.204925,0.852614 0.261318,0 0.746605,0.623471 1.07776,1.385488 0.331312,0.762022 0.609703,1.212264 0.618919,1.000534 0.01,-0.211726 0.366044,0.01813 0.793482,0.510735 0.725703,0.836712 0.8174,0.848026 1.392199,0.171797 0.40785,-0.479492 0.59273,-1.58744 0.548381,-3.28172 -0.03529,-1.406805 -0.09715,-2.557829 -0.133873,-2.557829 -0.03529,0 -0.126301,-2.781639 -0.198882,-6.181418 -0.07258,-3.399782 -0.287506,-6.548607 -0.478329,-6.997385 -0.271905,-0.639961 -0.216013,-0.737254 0.258803,-0.451043 0.49696,0.299689 0.510805,0.248078 0.07658,-0.288713 -0.538151,-0.665005 -0.413393,-5.496206 0.166149,-6.433968 0.166163,-0.268621 0.07958,-0.330402 -0.210968,-0.1508 -0.270891,0.167316 -0.492432,0.100998 -0.492432,-0.147276 0,-0.248282 0.203411,-0.451448 0.451641,-0.451448 0.24823,0 0.31571,-0.21943 0.150047,-0.487598 -0.165649,-0.26817 -0.376118,-1.754918 -0.467757,-3.30386 -0.104727,-1.775375 -0.407336,-3.052603 -0.8178,-3.455718 -0.539452,-0.529612 -0.628177,-0.535221 -0.516492,-0.03273 0.09415,0.422544 -0.318225,0.635102 -1.357223,0.700064 -0.820614,0.05131 -1.587964,0.143199 -1.705236,0.204173 -0.300079,0.156239 -0.965575,0.300596 -1.650802,0.358147 -0.49596,0.04179 -0.49596,0.158806 0,0.768447 0.520636,0.640081 0.490918,0.681429 -0.267361,0.375517 -0.468771,-0.189067 -1.138039,-0.35286 -1.486967,-0.364037 -0.82923,-0.02669 -1.753672,-0.962529 -1.370296,-1.387411 0.164649,-0.182523 -0.03029,-0.213338 -0.435039,-0.06858 -0.948059,0.339819 -1.965454,-1.714732 -2.25209,-4.547957 -0.114299,-1.127629 -0.33384,-2.254566 -0.487902,-2.504306 -0.17825,-0.288511 -0.07458,-0.326829 0.283978,-0.105127 0.400791,0.247827 0.491417,0.158455 0.312166,-0.308501 -0.139017,-0.36157 -0.08101,-0.828797 0.128445,-1.03823 0.209454,-0.20946 0.439568,-0.765648 0.511319,-1.236031 0.07201,-0.470379 0.535223,-1.259938 1.029869,-1.754576 0.494446,-0.494647 1.064873,-1.168727 1.267183,-1.497971 0.56817,-0.924646 3.464852,-1.646124 4.709332,-1.172951 0.582414,0.221393 1.234608,0.293949 1.449348,0.161223 0.214998,-0.132731 0.39072,-0.03826 0.39072,0.210115 0,0.248281 0.287506,0.451447 0.639463,0.451447 0.764522,0 0.813271,0.583798 0.152062,1.819442 -0.366059,0.684477 -0.365545,0.951376 0.0043,1.074153 0.694142,0.231362 0.151561,0.944448 -0.712716,0.936623 -0.578385,-0.005 -0.604159,-0.08045 -0.130444,-0.380502 0.468757,-0.296718 0.391733,-0.480399 -0.373103,-0.889596 -0.759593,-0.406534 -1.177758,-0.400945 -1.975969,0.02619 -0.556839,0.298028 -1.012466,0.712601 -1.012466,0.921287 0,0.208704 -0.189824,0.262227 -0.421438,0.118986 -0.250745,-0.154981 -0.307137,0.03726 -0.139017,0.475162 0.201896,0.52645 0.109728,0.669422 -0.324768,0.502856 -0.417408,-0.160016 -0.627177,0.100755 -0.671782,0.834283 -0.03529,0.586886 -0.233128,1.185887 -0.438554,1.331109 -0.205439,0.145212 -0.342899,0.743633 -0.305137,1.329805 0.04029,0.586166 -0.132873,1.19289 -0.378632,1.348268 -0.253774,0.160316 0.182765,0.666767 1.009638,1.170746 1.745213,1.063961 1.853469,1.073486 2.6902,0.23675 0.360015,-0.36006 0.757434,-0.647836 0.88305,-0.639458 0.757692,0.05051 0.762879,-0.08983 0.01514,-0.411065 -0.729088,-0.313284 -0.74449,-0.370735 -0.106727,-0.396312 0.723846,-0.0292 0.931442,-0.480903 0.768065,-1.671392 -0.04529,-0.341329 0.124873,-0.449533 0.422438,-0.265802 0.370088,0.228845 0.423451,-0.150197 0.203925,-1.449282 -0.306638,-1.816586 -0.18278,-1.945808 1.798076,-1.874465 0.290536,0.01057 0.443598,-0.118371 0.339371,-0.286245 -0.103727,-0.16792 0.551138,-0.290122 1.455392,-0.271593 0.90421,0.01863 1.55449,0.178896 1.445119,0.356434 -0.109299,0.177487 0.109299,0.440874 0.485388,0.58529 0.506233,0.194253 0.651851,0.720244 0.559854,2.021937 -0.07701,1.090528 0.05143,1.72788 0.337356,1.676496 0.254273,-0.04582 0.461713,0.202462 0.461713,0.551228 0,0.348781 -0.224056,0.548207 -0.497461,0.44319 -0.368573,-0.141432 -0.402806,0.412726 -0.132444,2.138018 0.200896,1.280908 0.253773,2.509588 0.116871,2.730392 -0.136445,0.220789 -0.06801,0.401448 0.152561,0.401448 0.325269,0 0.382676,4.780533 0.06601,5.54196 -0.261832,0.630203 -0.166164,1.56428 0.215997,2.106786 0.304123,0.431708 0.293551,0.531283 -0.03529,0.334431 -0.313695,-0.187759 -0.454669,0.334331 -0.42648,1.582106 0.02515,1.024305 0.181265,1.776459 0.351957,1.671447 0.170692,-0.105027 0.197881,0.608925 0.06144,1.586524 -0.173707,1.242682 -0.106727,1.689752 0.223056,1.485963 0.27039,-0.167116 0.471786,0.003 0.471786,0.398276 0,0.379395 -0.159105,0.591558 -0.352957,0.471536 -0.396263,-0.244805 -0.169678,3.790025 0.349942,6.242782 0.186295,0.879253 0.211983,1.598642 0.05687,1.598642 z M 58.72003,36.442815 c -0.351943,0 -0.63945,0.203166 -0.63945,0.451448 0,0.24828 0.239672,0.311269 0.532865,0.139874 0.293036,-0.171394 0.149033,0.139817 -0.319739,0.691586 -1.665775,1.959947 -2.277607,2.479186 -2.590645,2.19857 -0.174364,-0.156289 -0.169535,-0.0292 0.01,0.282772 0.295108,0.510498 -1.04017,1.871233 -2.002816,2.041052 -0.175878,0.03122 -0.463585,0.103113 -0.639464,0.160165 -0.175864,0.05709 -0.487145,0.07321 -0.691756,0.03575 -0.204625,-0.03726 -0.274362,0.18655 -0.15499,0.497618 0.133016,0.346666 -0.09415,0.565541 -0.587143,0.565541 -0.442283,0 -0.804184,-0.132773 -0.804184,-0.295056 0,-0.162281 -0.399892,-0.190477 -0.888637,-0.06264 -0.48876,0.127787 -0.701815,0.349637 -0.473501,0.492986 0.248988,0.156289 0.178093,0.4806 -0.177136,0.810278 -0.380804,0.353413 -0.592258,0.382515 -0.592258,0.08142 0,-0.257546 -0.189723,-0.351047 -0.421594,-0.207698 -0.231857,0.143299 -1.113035,-0.06757 -1.958096,-0.468566 -1.144425,-0.543051 -1.615997,-0.600556 -1.847911,-0.22532 -0.221184,0.357893 -0.537523,0.253969 -1.092105,-0.358853 -0.429395,-0.474456 -1.050071,-0.862682 -1.379269,-0.862682 -0.329197,0 -0.481358,-0.189622 -0.338098,-0.421439 0.143246,-0.231766 -0.0043,-0.320584 -0.323511,-0.197326 -1.283814,0.492635 -4.665442,-3.74379 -3.933595,-4.927935 0.143289,-0.231865 0.06344,-0.421588 -0.177536,-0.421588 -0.240929,0 -0.31561,-0.319225 -0.165863,-0.70939 0.185337,-0.482866 0.110013,-0.609151 -0.235643,-0.395507 -0.3515,0.217214 -0.488403,-0.05659 -0.444697,-0.889248 0.09944,-1.891923 -0.444855,-4.142591 -1.126895,-4.660571 -0.808956,-0.614312 -0.792497,-1.018768 0.04129,-1.018768 0.365544,0 0.560468,-0.168523 0.433167,-0.37451 -0.127301,-0.205985 0.07144,-0.981637 0.441582,-1.723674 0.694571,-1.392325 0.929557,-2.244605 0.985878,-3.575498 0.01814,-0.424156 0.210611,-0.661163 0.428224,-0.526691 0.217569,0.134488 0.515148,-0.132174 0.661295,-0.592546 0.175721,-0.553613 0.498475,-0.747707 0.953202,-0.5732 0.457942,0.175725 0.584643,0.09728 0.379346,-0.234887 -0.16952,-0.274312 -0.09144,-0.498726 0.173664,-0.498726 0.265047,0 0.776295,-0.294352 1.136096,-0.65417 0.402607,-0.402607 0.841703,-0.51062 1.141868,-0.280858 0.268262,0.205331 0.967319,0.243447 1.55349,0.08464 0.586172,-0.158756 1.513514,-0.126929 2.060723,0.07074 0.547239,0.197677 1.170715,0.250797 1.385484,0.118071 0.214798,-0.132773 0.390519,-0.02669 0.390519,0.235239 0,0.262128 0.168534,0.372447 0.374516,0.245158 0.295208,-0.18242 2.683414,0.717628 3.392915,1.278719 0.07915,0.06254 0.219184,0.896303 0.311324,1.852765 0.132302,1.374445 0.02572,1.739023 -0.509177,1.739023 -0.464685,0 -0.588557,0.229599 -0.395362,0.733038 0.154733,0.40316 0.144417,0.596145 -0.02315,0.428839 -0.167306,-0.167317 -0.516549,0.126286 -0.776123,0.652448 -0.259561,0.526163 -0.900153,1.146028 -1.42356,1.377477 -0.523378,0.231464 -0.951601,0.561147 -0.951601,0.732652 0,0.171495 -0.289921,0.200597 -0.644279,0.06459 -0.461056,-0.176933 -0.569327,-0.05186 -0.380746,0.439665 0.347171,0.90467 -1.221407,0.93745 -2.114644,0.04431 -0.353515,-0.353513 -0.752078,-0.465795 -0.885737,-0.249539 -0.133588,0.216258 0,0.481506 0.292593,0.589439 0.416408,0.152613 0.403106,0.326627 -0.05987,0.782445 -0.506019,0.498172 -0.541737,0.490167 -0.237857,-0.05328 0.307751,-0.550462 0.257445,-0.558296 -0.361516,-0.05624 -0.395506,0.320735 -1.103706,0.482613 -1.573921,0.359657 -0.470172,-0.122958 -0.854862,-0.03826 -0.854862,0.18801 0,0.226378 -0.194966,0.29108 -0.433281,0.143803 -0.238301,-0.147276 -0.322897,-0.446361 -0.188009,-0.664618 0.134874,-0.218271 0.04229,-0.396866 -0.206182,-0.396866 -0.248288,0 -0.451441,0.191837 -0.451441,0.426321 0,0.234484 -0.301451,0.426322 -0.669896,0.426322 -1.13261,0 0.422494,1.27327 1.598638,1.308879 0.933014,0.0282 0.940858,0.05091 0.137017,0.396362 -0.793354,0.340926 -0.79714,0.368468 -0.05443,0.396313 0.5901,0.02216 0.68264,0.169229 0.354929,0.564102 -0.311624,0.375517 -0.268319,0.850282 0.14586,1.598644 0.324011,0.585476 0.602288,1.352261 0.618405,1.703962 0.04229,0.925526 1.441033,2.467177 2.38662,2.630662 0.446354,0.07718 1.031526,0.422041 1.300316,0.766382 0.268775,0.344351 1.060858,0.637268 1.760172,0.650978 0.699256,0.01357 1.574006,0.276024 1.943865,0.582984 0.791054,0.65653 1.559633,0.307292 1.568877,-0.712844 0.0057,-0.585885 0.07744,-0.608749 0.38559,-0.122101 0.305581,0.482665 0.582472,0.379345 1.427875,-0.532879 0.576827,-0.622403 1.26654,-1.131643 1.532773,-1.131643 0.266204,0 0.483973,-0.377632 0.483973,-0.839235 0,-0.517486 0.214498,-0.756925 0.55944,-0.624548 0.307695,0.118072 0.811514,-0.256287 1.119608,-0.831954 0.359801,-0.672317 0.794583,-0.956669 1.215692,-0.795072 0.387447,0.148685 0.545066,0.07281 0.38539,-0.185594 -0.167521,-0.27109 0.129873,-0.360714 0.782667,-0.235894 1.167585,0.223205 1.406357,0.528181 0.413379,0.528181 z M 44.545385,22.868909 c -1.036298,-0.05856 -1.811793,0.08745 -1.811793,0.341179 0,0.243949 -0.395006,0.443592 -0.877765,0.443592 -0.482816,0 -0.758392,0.193197 -0.612432,0.429291 0.145918,0.236148 -0.04586,0.54864 -0.425666,0.694477 -0.380046,0.145816 -0.592387,0.522003 -0.471943,0.835942 0.120443,0.313938 0.04286,0.679706 -0.172593,0.812825 -0.230857,0.142689 -0.194766,0.673967 0.08787,1.294367 0.263689,0.578785 0.573213,0.958591 0.687798,0.844013 0.114586,-0.1146 0.456485,0.124415 0.759808,0.531078 0.509519,0.683111 0.642564,0.640795 1.74737,-0.555709 0.657752,-0.712316 1.371339,-1.316718 1.585823,-1.343117 0.21444,-0.02619 0.823572,-0.766548 1.353593,-1.644765 1.1764,-1.949216 0.772509,-2.534969 -1.850111,-2.683183 z m -4.023249,17.972049 c -0.34007,0.136102 -0.239072,0.237103 0.257546,0.257546 0.449383,0.01863 0.701185,-0.08222 0.559525,-0.223912 -0.141589,-0.141631 -0.509348,-0.156792 -0.8171,-0.03373 z m -4.76554,-4.148351 c -0.280948,0.254625 -1.032111,0.440118 -1.669361,0.412223 -0.637235,-0.02769 -1.161556,0.147478 -1.165142,0.389666 -0.0043,0.242188 -0.17395,0.176027 -0.378632,-0.147125 -0.204682,-0.323102 -0.5854,-0.455677 -0.846089,-0.294553 -0.267361,0.165252 -0.473944,0.01414 -0.473944,-0.347221 0,-0.410662 -0.305637,-0.581277 -0.852618,-0.475917 -0.468915,0.09033 -0.852604,-0.06501 -0.852604,-0.345156 0,-0.280153 -0.623462,-0.549239 -1.385483,-0.598019 -0.762022,-0.04883 -1.805792,-0.120286 -2.319526,-0.158958 -0.513706,-0.03878 -1.039899,-0.346212 -1.169315,-0.683443 -0.129444,-0.337252 -0.432009,-0.491628 -0.67241,-0.343042 -0.240372,0.148586 -1.075575,-0.124473 -1.85597,-0.606789 -0.780395,-0.482312 -1.544246,-0.751574 -1.69745,-0.598366 -0.153219,0.153218 -0.278548,0.05474 -0.278548,-0.218825 0,-0.273558 -0.404164,-0.497368 -0.898225,-0.497368 -0.657666,0 -0.8263,-0.187406 -0.629691,-0.699753 0.234729,-0.611723 0.176579,-0.625132 -0.462528,-0.106598 -0.492788,0.399837 -0.626033,0.418416 -0.40885,0.05705 0.479945,-0.798733 -0.793497,-1.835077 -2.161447,-1.759012 -0.656883,0.03676 -1.732858,-0.150951 -2.391042,-0.416552 -0.674209,-0.272097 -1.084827,-0.301955 -0.940465,-0.06838 0.155434,0.251502 -0.441175,0.355478 -1.516726,0.264293 C 9.7554021,29.368079 8.8143029,29.068647 8.6391972,28.785312 8.4640758,28.501988 8.1695727,28.33452 7.9846687,28.413168 7.5375526,28.603343 7.3050371,26.974635 7.690317,26.35127 c 0.2504963,-0.405324 2.393338,-0.81003 5.095484,-0.962362 0.293093,-0.01662 0.532879,-0.276981 0.532879,-0.578779 0,-0.301804 0.401146,-0.578957 0.891473,-0.615888 1.271353,-0.09577 3.026653,-1.342961 2.679839,-1.904103 -0.190577,-0.308349 -0.09573,-0.351753 0.271991,-0.124472 0.401706,0.24828 0.491431,0.158202 0.31098,-0.312177 -0.184851,-0.481657 -0.04386,-0.606281 0.519064,-0.459049 0.553939,0.144859 0.897538,-0.140431 1.213348,-1.007433 0.242287,-0.665241 0.455727,-0.95841 0.474258,-0.651491 0.05286,0.877043 0.886237,0.128244 0.886237,-0.796352 0,-0.455071 0.143903,-0.828947 0.319739,-0.830775 0.669553,-0.007 1.29793,-2.043393 0.79804,-2.586374 -0.360658,-0.39173 -0.33977,-0.440923 0.08487,-0.199943 0.427938,0.242843 0.530322,-0.02366 0.426323,-1.109791 -0.08444,-0.882758 0.107728,-1.645242 0.502605,-1.993864 0.3517,-0.310463 0.404363,-0.445907 0.117014,-0.300998 C 22.4316,12.110516 22.333459,11.691999 22.447159,10.351062 22.579316,8.7920552 22.42444,8.3513628 21.401429,7.3735935 20.651137,6.6565644 20.389034,6.1490925 20.702972,6.0210854 20.979292,5.9084002 20.869678,5.8010514 20.459371,5.782572 20.049064,5.7639412 19.713337,5.5775941 19.713337,5.3682342 c 0,-0.2093584 -0.314838,-0.5015455 -0.699742,-0.649215 -0.569999,-0.2187253 -0.605003,-0.154376 -0.188809,0.3471696 0.422851,0.5095065 0.359701,0.5761318 -0.366002,0.3863429 -0.482359,-0.1261297 -0.876993,-0.351953 -0.876993,-0.501847 0,-0.1498955 -0.620862,-0.5473412 -1.379703,-0.8832322 C 14.609654,3.3625693 12.003351,3.419712 11.526483,4.1699651 11.321152,4.4930673 11.197841,4.5115453 11.193763,4.219814 11.189906,3.936338 9.8743509,4.1719796 7.8049167,4.8273482 4.5516694,5.857364 4.4459179,5.9315459 5.0339312,6.771047 5.7569909,7.8033574 5.8342203,8.4738564 5.1837767,8.0718445 4.9250722,7.9119807 4.9840337,8.3224407 5.3178644,9.0058757 c 0.3275843,0.670589 0.5768104,1.8906873 0.5538305,2.7113233 -0.02316,0.82064 0.130816,1.613099 0.3417832,1.761035 0.227082,0.15926 0.2264276,0.549762 -0.00171,0.957277 -0.2118773,0.378589 -0.2750679,1.840202 -0.1404743,3.248056 0.1566405,1.638567 0.085653,2.56208 -0.1972756,2.566259 -0.2943516,0.0043 -0.2902226,0.111171 0.012144,0.319728 0.5272444,0.363383 0.6938762,5.215707 0.179199,5.215707 -0.6129934,0 -0.1463207,1.491404 0.4729464,1.511444 0.3293459,0.01057 0.5202864,0.29843 0.4243075,0.639458 -0.095969,0.341026 -0.208554,1.099674 -0.2501434,1.68584 -0.044805,0.628042 -0.376676,1.124262 -0.8085559,1.208198 -0.673228,0.130816 -0.6671201,0.200295 0.074966,0.852607 0.9517348,0.836648 0.9892766,3.340596 0.059264,3.951675 -0.5117268,0.336244 -0.4909714,0.486643 0.1332305,0.965228 0.4066854,0.311824 0.614498,0.691843 0.4618193,0.844512 -0.1526643,0.152664 0.08051,0.277585 0.5181918,0.277585 0.6189342,0 0.6820848,0.113686 0.2841804,0.511566 -0.6709618,0.670962 -0.6571902,1.649085 0.021146,1.513385 0.3288916,-0.06577 0.4818074,0.260566 0.3994845,0.852607 -0.085239,0.613139 0.088511,0.959185 0.4817074,0.959185 0.4661499,0 0.6016693,0.552195 0.5596813,2.280769 -0.049349,2.025175 -0.1359023,2.230593 -0.7738646,1.833042 -0.3951579,-0.246268 -0.6236258,-0.601155 -0.5077231,-0.788698 0.1159142,-0.187556 -0.082324,-0.340977 -0.4405195,-0.340977 -0.4322641,0 -0.5597069,-0.238512 -0.3790419,-0.709389 0.1979285,-0.51574 0.1177144,-0.613919 -0.2936973,-0.359657 -0.424509,0.262329 -0.5058318,0.120043 -0.3255198,-0.569529 0.1322161,-0.505595 0.061779,-0.919269 -0.1565406,-0.919269 -0.5311877,0 -1.2935879,-1.99287 -1.4677921,-3.836744 -0.077538,-0.820636 -0.1757243,-1.683903 -0.2181709,-1.918367 -0.042291,-0.234485 -0.00486,-0.714063 0.083582,-1.065765 0.088468,-0.351701 -0.073566,-0.593309 -0.3600097,-0.536907 -0.3829696,0.07542 -0.4139848,-0.178443 -0.1171143,-0.959186 0.3257713,-0.856853 0.2722476,-1.061735 -0.2774339,-1.061735 -0.5570937,0 -0.5844741,-0.116414 -0.1503983,-0.639458 0.2918842,-0.351702 0.3633329,-0.639593 0.1587565,-0.63976 -0.4052251,-3.27e-4 -0.6692303,-1.440949 -0.7225911,-3.943019 -0.018631,-0.879254 -0.1645472,-1.598643 -0.3240596,-1.598643 -0.1594609,0 -0.2542724,-1.54655 -0.2106685,-3.436785 0.043664,-1.890224 -0.051248,-3.51734 -0.2105586,-3.615812 -0.1593095,-0.09844 -0.2896683,-0.683936 -0.2896683,-1.301043 0,-0.617113 -0.2637894,-1.289106 -0.5861659,-1.49332 C 0.98403651,15.720178 0.94153989,15.564292 1.2253745,15.560466 1.491127,15.557066 1.8051111,15.184596 1.9231541,14.733225 2.0850824,14.114068 1.9664591,13.972432 1.439985,14.156509 0.8723643,14.354993 0.84160911,14.293368 1.2750863,13.826207 1.9330067,13.117134 1.977235,12.414874 1.339137,12.809248 1.0029431,13.016996 0.99609513,12.863983 1.3149626,12.268378 1.6345359,11.671266 1.5809623,10.575201 1.1244808,8.3696079 0.56476959,5.665312 0.5640395,5.2268713 1.1184386,4.6725821 1.4642994,4.3267214 2.1446926,4.0437082 2.6303719,4.0437082 c 0.4856865,0 0.8830607,-0.2031662 0.8830607,-0.4514466 0,-0.2482803 0.1774874,-0.3417817 0.3943496,-0.2077482 C 4.124693,3.5185441 4.7481491,3.4495642 5.2932685,3.2311947 7.4893767,2.351453 8.0304086,2.2157421 8.9713821,2.3085692 9.5113465,2.3618328 10.278695,2.1505684 10.676599,1.8390961 c 0.64142,-0.5020999 0.661012,-0.4864409 0.172804,0.1382169 -0.450037,0.5758045 -0.450037,0.738433 0,0.8898029 0.766402,0.2577972 2.042739,-0.119286 2.042739,-0.6034965 0,-0.2209399 0.176732,-0.29254 0.392737,-0.159008 0.216006,0.1334734 0.966951,0.3095578 1.668747,0.3912763 0.904177,0.1052843 1.214914,-0.010573 1.066333,-0.3978228 -0.180408,-0.4702275 0.577285,-0.5517203 1.561518,-0.1680206 0.117157,0.04582 0.36283,0.05845 0.545752,0.028189 0.587158,-0.096669 3.053573,1.3311225 3.823867,2.2136547 0.410308,0.4701273 0.746034,0.7313478 0.746034,0.5805365 0,-0.1508013 0.373803,0.04582 0.830788,0.4370963 0.456927,0.3912278 0.733332,0.8689476 0.614303,1.061591 -0.119157,0.1926421 -0.02615,0.3502414 0.20624,0.3502414 0.423951,0 1.149354,1.6384001 0.990935,2.2381005 -0.04629,0.1758758 0.127873,0.3197276 0.387462,0.3197276 0.259546,0 0.36383,0.281613 0.231757,0.6258024 -0.132159,0.3441983 -0.04729,0.7449473 0.188208,0.8905623 0.278549,0.17215 0.253774,0.475162 -0.07072,0.866269 -0.358901,0.432464 -0.364687,0.601502 -0.02057,0.601502 0.868678,0 0.50892,2.061848 -0.480701,2.755014 -0.527565,0.369526 -0.909183,0.812026 -0.848047,0.983364 0.178079,0.499281 -0.672882,2.656166 -1.048156,2.656498 -0.188066,1.61e-4 -0.369831,0.483923 -0.403978,1.075014 -0.07472,1.294538 -0.9301,2.43091 -1.54416,2.051409 -0.257789,-0.159311 -0.316353,-0.06798 -0.139732,0.217818 0.167264,0.270687 0.113871,0.49218 -0.118586,0.49218 -0.232528,0 -0.544523,0.383676 -0.693342,0.852609 -0.148832,0.468918 -0.545452,0.852608 -0.88135,0.852608 -0.335884,0 -0.610718,0.184385 -0.610718,0.409706 0,0.22532 -0.38579,0.769091 -0.857261,1.208347 -0.821186,0.765047 -0.825658,0.834673 -0.106585,1.655102 0.412879,0.471033 1.016953,0.765758 1.34235,0.654904 0.325425,-0.110828 0.766579,0.111028 0.980363,0.493037 0.213797,0.382013 0.666924,0.694577 1.00698,0.694577 0.34007,0 0.618275,0.22381 0.618275,0.497366 0,0.273558 0.111585,0.38579 0.247931,0.249439 0.136302,-0.136345 0.912125,0.0297 1.723967,0.368821 0.811814,0.339214 1.659446,0.503409 1.883588,0.364893 0.22417,-0.138517 0.407549,-0.01662 0.407549,0.270638 0,0.287403 0.126302,0.396312 0.280506,0.241986 0.154276,-0.154276 0.550224,-0.05665 0.879836,0.216912 0.329655,0.273607 1.301215,0.569434 2.159034,0.657432 0.857762,0.08801 1.660789,0.294453 1.784504,0.458749 0.12373,0.164294 0.742548,0.565335 1.375225,0.891176 1.867343,0.961739 3.347895,2.731661 2.743436,3.279585 z M 8.3716874,42.100236 c -0.1416316,0.141632 -0.1567934,0.50935 -0.033733,0.817086 0.1361023,0.34007 0.2371033,0.239066 0.2575458,-0.257546 0.018631,-0.449382 -0.082224,-0.701183 -0.2239117,-0.559526 z M 0.95548731,17.472247 C 0.72100296,17.327336 0.52916667,17.12417 0.52916667,17.0208 c 0,-0.103427 0.19183629,-0.18801 0.42632064,-0.18801 0.23448439,0 0.42632209,0.203166 0.42632209,0.451446 0,0.248281 -0.1918377,0.332921 -0.42632209,0.188011 z"
       id="path19923" /></g></svg>
