<?xml version="1.0" encoding="UTF-8" standalone="no"?>
<!-- Created with Inkscape (http://www.inkscape.org/) -->

<svg
   width="189mm"
   height="77mm"
   viewBox="0 0 189 77"
   version="1.1"
   id="svg9176"
   xmlns="http://www.w3.org/2000/svg"
   xmlnsSvg="http://www.w3.org/2000/svg">
  <defs
     id="defs9173" />
  <g
     id="layer1">
    <path
       d="m 52.484724,76.396648 c -0.350283,-0.350297 -0.636895,-0.43954 -0.636895,-0.198325 0,0.241213 -0.356858,0.142393 -0.792927,-0.219486 -0.466242,-0.38695 -1.363359,-0.514926 -2.177599,-0.310554 -0.898691,0.225531 -1.26438,0.152852 -1.04193,-0.207079 0.335442,-0.542699 -0.656381,-0.772022 -2.51963,-0.582503 -0.513232,0.05227 -0.936834,-0.220115 -0.941316,-0.605112 -0.0059,-0.511273 -0.147528,-0.48438 -0.525076,0.09977 -0.344628,0.533252 -0.519644,0.577653 -0.525061,0.133324 -0.01187,-1.043572 -1.606855,-0.78058 -1.616013,0.266596 -0.0074,0.795444 -0.08282,0.815119 -0.513677,0.133325 -0.485626,-0.768415 -3.210779,-1.204311 -3.210779,-0.513541 0,0.18472 -0.359932,0.335811 -0.799848,0.335811 -0.439916,0 -0.799847,-0.14857 -0.799847,-0.330079 0,-0.181571 -0.419888,-0.366041 -0.93315,-0.410001 -1.514129,-0.129673 -4.11127,-0.815219 -4.399158,-1.161252 -0.692554,-0.8324 -2.643753,-1.587954 -2.925128,-1.132671 -0.385754,0.624196 -1.995951,0.06614 -2.573265,-0.891791 -0.238001,-0.394885 -0.657903,-0.578787 -0.933157,-0.408677 -0.275286,0.170108 -0.50044,0.01511 -0.50044,-0.34425 0,-0.35949 -0.145554,-0.507997 -0.323401,-0.330141 -0.17792,0.177918 -0.597807,0.09346 -0.933158,-0.187618 -2.603576,-2.182297 -3.261586,-2.624215 -3.907429,-2.624215 -0.404269,0 -0.878407,-0.373725 -1.053687,-0.830494 -0.175273,-0.456794 -0.647656,-0.704255 -1.049721,-0.549941 -0.422659,0.162174 -0.731041,-0.06311 -0.731041,-0.534072 0,-0.448039 -0.239954,-0.666284 -0.533252,-0.485009 -0.293298,0.181257 -0.533252,0.007 -0.533252,-0.386823 0,-0.899482 -3.012053,-2.724695 -3.74693,-2.27052 -0.299973,0.185351 -0.510956,0.139246 -0.469011,-0.102528 0.194797,-1.121499 -0.11734,-1.772638 -0.8497844,-1.772638 -0.439916,0 -0.799848,-0.339904 -0.799848,-0.755369 0,-0.415481 -0.659872,-1.250767 -1.466383,-1.856244 -1.234397,-0.926714 -1.339844,-1.185537 -0.666536,-1.636008 0.439914,-0.294306 0.547862,-0.538795 0.239953,-0.543266 -0.307972,-0.0043 -0.808361,0.240332 -1.112057,0.544022 -0.380715,0.380715 -0.525192,0.186547 -0.465424,-0.625392 0.09699,-1.316366 -1.618537,-3.339506 -2.41456,-2.847537 -0.282592,0.174643 -0.513792,-0.07072 -0.513792,-0.545219 0,-0.474554 0.199962,-0.739202 0.444387,-0.58817 0.244426,0.151027 0.444388,-0.07476 0.444388,-0.501762 0,-0.427005 -0.190703,-0.776387 -0.423793,-0.776387 -0.365158,0 -1.449084,-3.200647 -1.755413,-5.183575 -0.05542,-0.358105 -0.250974,-0.801485 -0.434751,-0.985279 -0.18377496,-0.183775 -0.20506196,-0.670655 -0.04724,-1.081903 0.157827,-0.411259 0.02142,-0.747711 -0.30337596,-0.747711 -1.01610102,0 -0.651427,-0.880135 1.05655296,-2.550008 1.530726,-1.49657 1.577721,-1.649239 0.666538,-2.165399 -0.947655,-0.536841 -0.946534,-0.580236 0.03338,-1.304562 0.699708,-0.517067 0.823646,-0.866852 0.399923,-1.128729 -0.343052,-0.211991 -0.617646,-0.07142 -0.62218,0.318552 -0.0059,0.508943 -0.144219,0.482869 -0.510454,-0.09643 -0.346957,-0.54881 -0.179305,-1.341848 0.542321,-2.564882 0.574505,-0.973749 0.820807,-1.632142 0.547297,-1.463097 -0.273523,0.169038 -0.648028,0.06348 -0.832238,-0.234601 -0.184215,-0.298084 0.06481,-0.541944 0.553406,-0.541944 0.538354,0 0.776564,-0.291346 0.604609,-0.739492 -0.202985,-0.529032 0.0466,-0.669517 0.876103,-0.493637 1.13463,0.240457 1.137344,0.227546 0.124835,-0.593588 -0.569278,-0.461707 -0.749255,-0.839423 -0.399925,-0.839423 0.349351,0 0.638819,-0.419951 0.643311,-0.933158 0.0062,-0.740066 0.104739,-0.780656 0.474932,-0.196183 0.36667,0.578913 0.544148,0.493197 0.827608,-0.399923 0.198451,-0.62533 0.577088,-1.136916 0.841408,-1.136916 0.264328,0 0.342423,-0.359931 0.173637,-0.799847 -0.168788,-0.439915 -0.05732,-0.799847 0.247448,-0.799847 0.304886,0 0.694475,-0.441491 0.865731,-0.981085 0.171242,-0.539613 0.899109,-1.295625 1.617429,-1.680056 0.7183244,-0.38443 1.1871424,-0.891369 1.0418094,-1.126524 -0.145362,-0.235168 0.402757,-0.814143 1.217964,-1.286651 0.815214,-0.47254 1.002303,-0.709641 0.415731,-0.526955 -0.690311,0.215014 -0.878382,0.151216 -0.533252,-0.180941 0.293299,-0.282214 1.013136,-0.610592 1.599694,-0.729801 0.586533,-0.119222 0.99666,-0.531866 0.911346,-0.917021 -0.09019,-0.407103 0.153673,-0.58181 0.582315,-0.417306 0.405592,0.155624 1.975099,-0.393877 3.487811,-1.22107 1.604247,-0.877287 2.757437,-1.245708 2.767331,-0.884108 0.0095,0.340974 0.386194,0.140067 0.837484,-0.446529 0.451252,-0.586533 1.041571,-1.007127 1.31173,-0.934611 0.270185,0.07249 0.96265,-0.271822 1.538855,-0.765177 0.576204,-0.493386 1.473645,-0.959545 1.99432,-1.035965 0.520657,-0.076395 1.031022,-0.3919879 1.134108,-0.7012075 0.103106,-0.3092322 0.421525,-0.562286 0.707688,-0.562286 0.286119,0 0.372401,0.2392613 0.191711,0.5316147 -0.600766,0.9720088 4.379899,-1.2892964 5.138393,-2.3329391 0.187177,-0.2575255 0.607064,-0.303375 0.933156,-0.1018387 0.326048,0.2015362 0.592832,0.1122934 0.592832,-0.1983243 0,-0.3105547 0.431917,-0.5646792 0.959817,-0.5646792 0.527898,0 1.187771,-0.2250908 1.466389,-0.5002507 0.278624,-0.2751599 1.584238,-0.6286671 2.901384,-0.7856889 1.317157,-0.1570093 2.48027,-0.5417546 2.584713,-0.8550931 0.134615,-0.4037652 0.389584,-0.4038912 0.875596,-5.354e-4 0.502575,0.4170542 0.769106,0.3518068 0.997878,-0.2443625 0.348784,-0.9088654 1.94531,-1.1234512 1.94531,-0.2614933 0,0.3672998 0.370705,0.35357 1.108124,-0.040937 0.609466,-0.3261738 1.449324,-0.4621477 1.866321,-0.3021154 0.416982,0.1600323 0.758182,0.085779 0.758182,-0.1650078 0,-0.6869424 3.137379,-1.008374 3.410885,-0.3494134 0.130609,0.3147744 0.257462,0.2123687 0.281832,-0.227547 0.06115,-1.10673 5.372194,-1.2398005 5.372194,-0.1345876 0,0.5966731 0.165947,0.5780941 0.837943,-0.093903 0.460825,-0.4608882 1.38068,-0.8379371 2.044037,-0.8379371 0.663373,0 1.370989,-0.1648819 1.572467,-0.36635505 0.531428,-0.5314258 2.478682,-0.600074 2.154743,-0.075953 -0.150333,0.24322885 0.08074,0.44230895 0.513544,0.44230895 0.432789,0 0.881014,-0.2824657 0.996083,-0.62765935 0.131202,-0.3934994 0.487407,-0.4557239 0.955044,-0.1667082 0.999764,0.61789735 3.280322,0.83787415 2.937608,0.2833472 -0.149636,-0.2421583 0.740936,-0.2126836 1.979075,0.065562 1.238153,0.27818285 2.676019,0.39469595 3.195262,0.25891095 0.519213,-0.13578525 0.944077,0.030861 0.944091,0.369756 3e-5,0.7497273 -11.575963,0.8320927 -12.803698,0.09107 -0.696098,-0.4201401 -0.695356,-0.3555226 0.0059,0.5255057 0.439913,0.5525241 0.516497,0.834618 0.170177,0.6269035 -0.346335,-0.2077081 -0.750628,-0.1820124 -0.898423,0.057312 -0.147825,0.2391354 -1.484113,0.3962076 -2.969606,0.3490985 -1.485509,-0.047234 -2.70091,0.1352184 -2.70091,0.4052137 0,0.2699956 -0.239948,0.3426116 -0.533253,0.1613551 -0.293291,-0.1812567 -0.824778,-0.1493888 -1.181131,0.070852 -0.356302,0.2202411 -2.935819,0.4947712 -5.732206,0.6100878 -3.192962,0.1316913 -5.53265,0.4962199 -6.289526,0.9799824 -0.963534,0.6158191 -1.444708,0.6426927 -2.399545,0.1338957 -1.087702,-0.5796663 -1.128012,-0.5562377 -0.452187,0.262944 0.642593,0.778906 0.631952,0.8571398 -0.07936,0.5842031 -0.451757,-0.1733211 -0.979742,-0.059201 -1.173354,0.2543765 -0.193671,0.3132629 -1.065275,0.5695917 -1.936998,0.5695917 -0.885997,0 -1.714619,0.337888 -1.878972,0.7661777 -0.161733,0.4213997 -0.634083,0.6356705 -1.049727,0.4761923 -0.415669,-0.1595284 -0.755717,-0.064366 -0.755717,0.2114241 0,0.5133506 -0.84804,0.6968745 -3.199387,0.6922896 -1.056894,-0.00212 -1.167367,0.1051131 -0.533252,0.5171922 0.64455,0.4188802 0.560775,0.5214122 -0.431413,0.5279622 -0.677182,0.0043 -1.098758,0.222508 -0.936836,0.484505 0.276798,0.447915 -2.144729,1.406635 -3.045766,1.205867 -0.228113,-0.05101 -0.547926,0.254566 -0.710661,0.678711 -0.16274,0.424108 -0.644923,0.637195 -1.071486,0.473484 -0.426564,-0.163685 -1.30241,0.151404 -1.946305,0.700206 -0.98638,0.840709 -1.056937,0.850893 -0.448103,0.06468 0.397467,-0.513224 0.610025,-0.933157 0.472288,-0.933157 -0.553595,0 -2.546417,2.031152 -2.546417,2.595397 0,0.518074 -1.491809,0.873609 -2.799464,0.667135 -0.219925,-0.03464 -0.399923,0.176785 -0.399923,0.470083 0,0.293298 -0.639878,0.533252 -1.421951,0.533252 -0.782069,0 -1.265881,0.156065 -1.075133,0.346831 0.190767,0.190766 -0.234349,0.88543 -0.944683,1.54373 -0.71032,0.658305 -1.126341,1.380554 -0.924478,1.604989 0.201851,0.224462 0.09913,0.255259 -0.228239,0.06853 -0.760137,-0.433554 -2.557085,1.514772 -2.091643,2.267875 0.192655,0.311751 0.07085,0.56682 -0.270688,0.56682 -1.0509994,0 -3.7674114,2.551946 -3.0326924,2.84908 0.466305,0.188562 0.475878,0.278372 0.03276,0.308225 -0.343872,0.0233 -0.898052,0.868917 -1.23157,1.879471 -0.44615,1.351891 -0.84455,1.763926 -1.507735,1.559429 -0.757028,-0.233467 -0.747203,-0.179241 0.06109,0.338582 0.65622,0.420265 0.797982,0.815037 0.445268,1.240026 -0.519334,0.625771 -0.608136,0.919793 -0.608136,2.01363 0,0.324663 -0.322457,0.466557 -0.716599,0.315278 -1.018898,-0.390979 -0.484506,2.341625 0.645085,3.298702 0.804528,0.681658 0.8034,0.714994 -0.01454,0.434689 -0.727621,-0.249276 -0.860408,0.02078 -0.742328,1.508781 0.07911,0.996798 -0.122059,1.922021 -0.446969,2.056046 -0.430846,0.17773 -0.430343,0.255071 0.0016,0.285804 0.342673,0.02456 0.493764,0.660505 0.358167,1.508482 -0.18321,1.14618 -0.110661,1.291733 0.332409,0.666542 0.729183,-1.028982 0.751377,-0.244236 0.03086,1.101515 -0.343178,0.641281 -0.35653,1.031407 -0.03526,1.031407 0.284165,0 0.423792,0.659874 0.310239,1.466389 -0.113555,0.806511 -0.07715,1.164949 0.08086,0.79652 0.402253,-0.937916 1.262656,-0.278309 1.262656,0.967949 0,0.569276 0.438278,1.473241 0.973887,2.00888 1.025107,1.025101 1.919883,2.749912 1.776925,3.425273 -0.0466,0.219925 0.249275,0.399923 0.657385,0.399923 0.408112,0 0.8822754,0.558759 1.0536774,1.241658 0.32315,1.287508 2.702322,2.739947 3.589761,2.191479 0.278561,-0.172186 0.472099,-0.115247 0.430155,0.126527 -0.200088,1.151699 0.14857,1.731935 1.249706,2.079817 0.659874,0.208463 1.516126,0.828546 1.902792,1.377934 0.386635,0.549375 0.926556,0.86073 1.19977,0.69188 0.273207,-0.168849 0.496724,0.09278 0.496724,0.581369 0,0.493576 0.297455,0.774234 0.669339,0.631521 0.736823,-0.282781 2.117466,0.910812 1.624194,1.40409 -0.169668,0.169668 0.30136,0.540369 1.046715,0.823773 0.745376,0.28341 1.515099,0.773925 1.710495,1.090078 0.195364,0.31616 0.551454,0.453583 0.791225,0.305391 0.239766,-0.148196 0.730299,0.08521 1.090035,0.51864 0.359741,0.433429 0.868525,0.655559 1.130649,0.493576 0.262122,-0.161985 0.614747,0.06544 0.783553,0.505414 0.16885,0.439979 0.647058,0.669473 1.0627,0.509951 0.415669,-0.159466 0.755717,-0.01009 0.755717,0.331778 0,0.341982 0.210795,0.491434 0.468447,0.332221 0.25765,-0.159215 1.161427,0.05606 2.008396,0.478711 0.846956,0.422533 2.323549,0.669043 3.281305,0.547864 0.957757,-0.121243 1.637268,-0.05101 1.51003,0.156378 -0.127224,0.207205 0.464919,0.402317 1.315918,0.433555 0.851002,0.0315 1.547278,-0.137554 1.547278,-0.375109 0,-0.23756 0.724432,-0.0233 1.609854,0.476445 1.421258,0.801943 1.677028,0.814647 2.183225,0.108509 0.483563,-0.674586 0.526381,-0.653713 0.273209,0.133324 -0.165131,0.513225 -0.06783,0.933158 0.216335,0.933158 0.284044,0 0.516497,-0.269303 0.516497,-0.5985 0,-0.413527 0.247206,-0.393374 0.799843,0.0653 0.644835,0.535142 0.801432,0.52198 0.808022,-0.06802 0.0059,-0.533567 0.117251,-0.560333 0.410689,-0.09882 0.221367,0.348154 1.057558,0.561153 1.858143,0.473233 0.800586,-0.08786 1.455617,0.02456 1.455617,0.250219 0,0.225469 0.455408,0.290905 1.011949,0.145361 0.556555,-0.145554 1.516394,0.0053 2.13294,0.335306 0.741841,0.397026 1.120962,0.413213 1.120962,0.04786 0,-0.905017 3.049886,-0.644248 3.408956,0.291471 0.453137,1.180821 0.452068,1.183213 -0.807146,1.857132 -0.794767,0.425367 -1.02311,0.430909 -0.768378,0.01889 0.206762,-0.334172 -0.0089,-0.586471 -0.500127,-0.586471 -0.522983,0 -0.710926,0.245685 -0.477196,0.623818 0.266412,0.431098 0.08326,0.507871 -0.592458,0.248582 -0.537914,-0.206385 -1.13049,-0.128546 -1.31686,0.173007 -0.224914,0.363899 -0.553038,0.334172 -0.975794,-0.08862 z m 59.131836,-2.516312 c -0.63654,-0.402947 -0.6159,-0.613805 0.13328,-1.363002 0.64504,-0.645049 0.88855,-0.694508 0.89449,-0.181699 0.007,0.573434 0.0929,0.570789 0.4636,-0.0138 0.25047,-0.3952 1.08647,-0.755163 1.85775,-0.799848 0.77131,-0.04472 1.40255,-0.275348 1.40274,-0.512657 2.1e-4,-0.237246 0.22377,-0.29336 0.49679,-0.124568 0.27301,0.168724 0.64063,0.07338 0.81692,-0.211865 0.17628,-0.285237 0.67278,-0.383486 1.1033,-0.21829 0.49516,0.190012 0.78278,-0.02583 0.78278,-0.587981 0,-0.488599 0.24297,-0.738177 0.54005,-0.554603 0.29701,0.183587 1.31681,-0.05416 2.26623,-0.528465 0.94941,-0.47424 2.77631,-1.097963 4.05978,-1.386098 1.28346,-0.288134 3.44304,-1.047729 4.79907,-1.688016 1.35604,-0.64028 2.86083,-1.198416 3.34401,-1.240298 1.37854,-0.119478 5.78267,-2.045001 5.7849,-2.529179 0.001,-0.239702 0.48192,-0.283536 1.06845,-0.09736 0.6118,0.194168 1.06646,0.09579 1.06646,-0.230696 0,-0.313074 0.47992,-0.56915 1.06647,-0.56915 0.61286,0 1.06646,-0.35546 1.06646,-0.835777 0,-0.593146 0.30962,-0.737503 1.06646,-0.497292 0.75683,0.240207 1.06647,0.09579 1.06647,-0.49729 0,-0.488284 0.45647,-0.835783 1.09794,-0.835783 0.60384,0 0.97434,-0.199962 0.82329,-0.444324 -0.15101,-0.244426 0.085,-0.444388 0.52469,-0.444388 0.49623,0 0.68904,0.320191 0.5085,0.844286 -0.18774,0.544967 0.006,0.466179 0.54793,-0.222193 0.46133,-0.586535 1.0618,-1.006472 1.33439,-0.933158 0.27259,0.0733 0.4956,-0.0854 0.4956,-0.352751 0,-0.734284 1.7746,-0.322332 2.03987,0.473548 0.13684,0.41063 -0.0151,0.542069 -0.37102,0.32189 -0.33127,-0.204748 -0.6024,-0.127848 -0.6024,0.170992 0,0.298777 -0.95981,0.830864 -2.13291,1.182336 -1.17312,0.351493 -2.13294,0.834851 -2.13294,1.074176 0,0.659061 -3.00384,2.074186 -3.48336,1.641022 -0.23057,-0.208276 -0.27894,0.0138 -0.10746,0.49414 0.24411,0.683675 0.0604,0.808066 -0.84819,0.574065 -1.07246,-0.276231 -1.10029,-0.221439 -0.3692,0.726897 0.75023,0.973174 0.72776,0.971852 -0.43935,-0.02582 -0.90146,-0.770618 -1.18387,-0.841837 -1.05727,-0.266596 0.11502,0.522421 -0.22843,0.763539 -1.02701,0.721041 -0.65987,-0.03526 -1.19978,0.150774 -1.19978,0.413149 0,0.489229 -2.05285,1.444302 -2.83696,1.319849 -0.24059,-0.03841 -0.67526,0.355522 -0.96593,0.874943 -0.29066,0.519397 -0.77658,0.791042 -1.0798,0.603665 -0.30319,-0.187429 -1.14391,-0.0233 -1.86822,0.364087 -1.11203,0.595161 -1.40167,0.584203 -1.86172,-0.07041 -0.42222,-0.600829 -0.48564,-0.505289 -0.28183,0.424548 0.19794,0.903293 0.0119,1.21624 -0.75359,1.266423 -2.45478,0.160977 -2.98857,0.291976 -4.81329,1.181286 -1.06174,0.517444 -2.44147,0.979333 -3.06608,1.026387 -0.62463,0.04723 -1.1393,0.334423 -1.1438,0.63861 -0.004,0.304194 -0.24077,0.193161 -0.52506,-0.246755 -0.4437,-0.686559 -0.51807,-0.670046 -0.52506,0.116568 -0.004,0.564427 -0.29469,0.806473 -0.75407,0.630186 -0.41026,-0.157452 -0.90433,-0.03023 -1.09795,0.283346 -0.19359,0.313263 -0.59195,0.569592 -0.88524,0.569592 -0.29331,0 -0.40964,-0.199961 -0.25861,-0.444324 0.15104,-0.244426 -0.0641,-0.444388 -0.47833,-0.444388 -0.41409,0 -0.64488,0.174833 -0.51285,0.388461 0.31397,0.507997 -1.30656,1.125391 -1.93482,0.737113 -0.26684,-0.164882 -0.48513,-0.04598 -0.48513,0.264895 0,0.685234 -1.58172,0.728528 -2.61933,0.07167 z m 41.81559,-18.697215 c -0.18893,-0.305643 0.0328,-0.389594 0.52739,-0.19971 0.5031,0.193034 1.13771,-0.06171 1.54648,-0.620794 0.43419,-0.593714 0.95374,-0.787258 1.38987,-0.517759 0.46039,0.284544 0.56752,0.221816 0.31604,-0.185161 -0.20922,-0.338582 -0.1122,-0.615631 0.2157,-0.615631 0.32787,0 0.47261,-0.199962 0.32152,-0.444388 -0.27309,-0.441804 0.0629,-0.528969 2.61123,-0.677652 0.73319,-0.04283 1.33307,-0.247071 1.33307,-0.453961 0,-0.60423 4.9377,-3.978539 6.07619,-4.152282 0.57123,-0.08717 1.35747,-0.4231 1.74713,-0.74644 0.38985,-0.323339 0.7157,-0.378573 0.72459,-0.122682 0.006,0.255887 0.2557,0.0548 0.54792,-0.44653 0.29223,-0.501448 1.38859,-1.072493 2.43607,-1.26901 1.18756,-0.222762 1.65745,-0.510013 1.24814,-0.762991 -0.45094,-0.278813 -0.26703,-0.529347 0.58887,-0.800962 0.68496,-0.217407 1.56341,-0.71333 1.95219,-1.102094 0.38858,-0.388777 1.09925,-0.556303 1.57878,-0.372276 0.58319,0.223768 0.74417,0.127982 0.4862,-0.289266 -0.21224,-0.343116 -0.1171,-0.623819 0.21036,-0.623819 0.32814,0 0.42637,-0.274719 0.21917,-0.610528 -0.26073,-0.421463 0.0567,-0.526891 1.03502,-0.340533 0.96812,0.185097 1.41227,0.04157 1.41227,-0.455913 0,-0.399232 0.26577,-0.725903 0.59011,-0.725903 0.32435,0 0.46164,-0.335054 0.3042,-0.744612 -0.19775,-0.515556 0.35709,-0.907858 1.80507,-1.275303 1.14989,-0.291913 1.95849,-0.316727 1.79689,-0.05542 -0.16187,0.261493 -0.71345,0.475437 -1.22616,0.475437 -0.93979,0 -4.50806,4.514291 -4.51247,5.708776 0,0.353697 -0.16689,0.541377 -0.36843,0.416992 -0.2009,-0.124316 -0.82107,0.118527 -1.37749,0.539739 -0.55613,0.421211 -1.37411,0.773432 -1.81699,0.782767 -0.44274,0.0095 -1.47492,0.637836 -2.29335,1.396703 -0.81836,0.758859 -1.83567,1.2463 -2.26073,1.083194 -0.67842,-0.260297 -0.99792,0.243922 -0.85419,1.348297 0.0252,0.189883 -0.39364,0.230506 -0.92979,0.09037 -0.58696,-0.153608 -1.10839,0.09353 -1.31105,0.621739 -0.18515,0.482113 -0.57815,0.727262 -0.8734,0.544715 -0.29538,-0.182517 -0.53723,-0.104413 -0.53723,0.173574 0,0.277993 -0.42007,0.472098 -0.93311,0.431413 -0.51832,-0.04093 -0.86801,0.240079 -0.78665,0.632111 0.0806,0.388398 -0.0828,0.564427 -0.36308,0.391233 -0.28026,-0.173258 -0.66036,-0.07111 -0.84453,0.22698 -0.18422,0.298084 -0.91865,0.541944 -1.63201,0.541944 -0.71341,0 -1.58918,0.467689 -1.94619,1.039348 -0.5051,0.808796 -0.81232,0.90387 -1.38501,0.428578 -0.58648,-0.486709 -0.69923,-0.406725 -0.55524,0.393814 0.13685,0.760731 -0.23711,1.092787 -1.54066,1.367991 -1.20024,0.253368 -1.62049,0.182768 -1.38816,-0.233404 0.18346,-0.32863 0.0104,-0.297266 -0.38488,0.06971 -0.85934,0.797648 -2.44662,0.873942 -2.90056,0.139439 z m 22.39195,-9.604265 c 0.18138,-0.293299 0.43519,-0.533252 0.56493,-0.533252 0.12912,0 0.23491,0.239953 0.23491,0.533252 0,0.293298 -0.25443,0.533252 -0.56492,0.533252 -0.31049,0 -0.4163,-0.239954 -0.23492,-0.533252 z M 1.4574716,38.113614 c 0.181258,-0.293298 0.435382,-0.533252 0.56468,-0.533252 0.129302,0 0.235168,0.239954 0.235168,0.533252 0,0.293299 -0.254126,0.533252 -0.56468,0.533252 -0.310554,0 -0.416424,-0.239953 -0.235168,-0.533252 z M 185.68886,34.855763 c -0.67515,-0.485639 -0.65431,-0.528592 0.13357,-0.275161 0.71004,0.228429 0.93319,-0.0011 0.93319,-0.95911 0,-1.164319 1.38939,-2.294598 2.03148,-1.652559 0.15367,0.153545 0.006,0.27919 -0.32624,0.27919 -0.34576,0 -0.45912,0.380841 -0.26515,0.88732 0.22925,0.596611 0.1361,0.761013 -0.28341,0.501762 -0.39929,-0.246692 -0.62413,0.01009 -0.62413,0.712375 0,1.225938 -0.4163,1.357623 -1.5997,0.506232 z M 184.08917,18.20632 c 0,-0.494015 0.4144,-0.885096 0.93317,-0.880555 0.53281,0.0048 0.70424,0.178989 0.39993,0.406095 -0.2935,0.218856 -0.7132,0.615126 -0.93319,0.88055 -0.21979,0.265398 -0.39991,0.08269 -0.39991,-0.40609 z m -1.16956,-2.416734 c -0.72312,-1.032463 -0.93934,-1.138144 -2.32791,-1.138144 -0.45725,0 -0.68939,-0.229751 -0.51582,-0.510516 0.36277,-0.586912 -2.61223,-2.284369 -3.11776,-1.778879 -0.1839,0.183839 -0.33443,0.04031 -0.33443,-0.319372 0,-0.35949 -0.21287,-0.522104 -0.47298,-0.361379 -0.62916,0.388839 -1.76085,-1.009262 -1.2555,-1.551004 0.21728,-0.2330893 -0.26451,-0.3042567 -1.07111,-0.158206 -0.80652,0.146051 -1.46642,0.08685 -1.46642,-0.1315658 0,-0.6816143 -2.57815,-0.9266887 -3.25015,-0.3089801 -0.47298,0.4347514 -0.541,0.4141568 -0.26263,-0.079167 0.2135,-0.3776284 0.0736,-0.7017429 -0.32183,-0.7477561 -2.44174,-0.284103 -4.0994,-1.066284 -3.81737,-1.8012488 0.28573,-0.7446322 2.31957,-0.8647415 2.31957,-0.1369817 0,0.2308849 0.18013,0.3913581 0.39993,0.3565931 0.2198,-0.034639 0.58005,-0.0048 0.79985,0.066633 0.6679,0.2167774 1.10448,0.3089172 3.59931,0.7595585 1.31974,0.2383795 3.07318,0.9102573 3.89663,1.4930495 0.82334,0.5828174 1.64316,0.9134564 1.82183,0.7348264 0.17887,-0.1786116 0.006,-0.3247883 -0.38607,-0.3247883 -0.3911,0 -0.56492,-0.1461761 -0.38606,-0.3247883 0.33569,-0.3354318 3.55005,1.7086866 4.24391,2.6986326 0.21539,0.307406 0.39552,0.333732 0.39993,0.05857 0.006,-0.275286 0.50258,0.03023 1.10643,0.678358 0.60398,0.648361 1.29871,1.054917 1.54376,0.903462 0.245,-0.151467 0.59076,0.102783 0.76812,0.564995 0.50257,1.309916 0.38921,1.472499 -0.50763,0.7282 -0.68622,-0.569528 -0.80166,-0.557751 -0.66657,0.06802 0.0901,0.416236 0.40306,0.933088 0.69661,1.148561 0.33506,0.246189 0.29663,0.394822 -0.1033,0.399924 -0.35017,0.0043 -0.9498,-0.439475 -1.33303,-0.986627 z m -20.8577,-8.438598 c -0.57772,-0.9346873 0.50901,-1.9232162 1.5028,-1.3670644 0.62868,0.3518067 0.73609,0.6424597 0.33015,0.8933471 -0.3309,0.2045593 -0.60536,0.1777298 -0.60984,-0.059831 -0.006,-0.2372459 -0.21444,-0.1058065 -0.46656,0.2920386 -0.2521,0.397908 -0.59257,0.5064227 -0.75649,0.2411506 z m -6.95776,-1.4918909 c -0.23781,-0.6197238 -0.60794,-0.6785787 -1.68726,-0.2682321 -0.94168,0.3580417 -1.2742,0.3503581 -1.04277,-0.023932 0.21249,-0.3438082 -0.17239,-0.4569204 -1.02733,-0.3018635 -0.75188,0.1363519 -1.52096,-0.00107 -1.70902,-0.3053903 -0.22043,-0.3567191 -0.50485,-0.2962583 -0.80036,0.1701721 -0.33732,0.5323075 -0.46058,0.5473598 -0.46656,0.056682 -0.004,-0.3666069 -0.50226,-0.6665369 -1.10609,-0.6665369 -0.60386,0 -0.94964,0.2399541 -0.76838,0.5332522 0.18125,0.2932982 0.0754,0.5332522 -0.23517,0.5332522 -0.31055,1.89e-5 -0.56467,-0.2879448 -0.56467,-0.6398585 0,-0.4976685 -0.14219,-0.4976685 -0.63988,0 -0.6993,0.6992928 -1.70573,0.883604 -1.31028,0.239954 0.13521,-0.2199893 -0.81899,-0.416991 -2.1203,-0.4378374 -1.36146,-0.022043 -2.71038,-0.382289 -3.17714,-0.8490155 -0.72603,-0.7260405 -0.25393,-0.8059873 4.49946,-0.7619706 2.92084,0.027082 5.22099,0.1948603 5.11144,0.372905 -0.10953,0.1780446 0.89824,0.3237176 2.23952,0.3237176 1.382,0 2.61803,0.2902121 2.85259,0.6697426 0.26774,0.4331769 0.48388,0.4683828 0.6118,0.09976 0.24775,-0.7135515 4.0591,0.07482 4.92885,1.0195402 0.46065,0.5003137 0.38696,0.5778421 -0.31476,0.3313382 -0.50384,-0.176974 -1.05789,-0.092329 -1.23124,0.1881214 -0.48048,0.7775078 -1.70021,0.6079466 -2.04244,-0.2839141 z M 110.56511,4.5880712 c -0.0497,-1.0226199 -0.20519,-1.1460986 -0.80984,-0.644286 -0.57167,0.4744288 -0.79918,0.4672491 -0.96513,-0.030861 -0.14322,-0.4293352 -0.56979,-0.5005027 -1.25163,-0.208779 -1.8312,0.7835729 -2.78899,0.809697 -3.06759,0.083701 -0.1921,-0.5006285 -1.26628,-0.6833652 -3.65199,-0.6212984 -1.858919,0.048494 -3.510009,-0.1008313 -3.669099,-0.33159 -0.15909,-0.230759 -1.95876,-0.5667577 -3.99925,-0.7466791 -2.04048,-0.1799341 -3.79462,-0.411008 -3.89809,-0.5134136 -0.10344,-0.1024683 -0.73289,0.020783 -1.398679,0.2739633 -0.777357,0.2955655 -1.425591,0.2451815 -1.811495,-0.140698 -0.44576,-0.4457099 -0.600947,-0.4188175 -0.600947,0.1042315 0,0.5663798 -0.157458,0.5745043 -0.799843,0.041568 -0.579041,-0.480538 -0.799859,-0.4933858 -0.799859,-0.046605 0,0.4433797 -0.288318,0.4629665 -1.023451,0.06953 -0.74426,-0.398286 -1.096413,-0.3670478 -1.290976,0.11456 -0.157769,0.3906023 -0.2848,0.2794426 -0.309601,-0.2708773 -0.02449,-0.5374718 0.353563,-0.94756655 0.891047,-0.96714695 0.513232,-0.018894 2.252907,-0.093462 3.865922,-0.1661416 1.613029,-0.072679 3.232722,0.092014 3.599322,0.3659142 0.443,0.33096025 0.66653,0.27541185 0.66653,-0.1657635 0,-0.5109573 0.1732,-0.5200265 0.75238,-0.039677 0.51436,0.42687875 0.8617,0.44753625 1.09793,0.06531 0.19008,-0.3075316 0.63134,-0.5554212 0.98063,-0.5509496 0.42744,0.00549 0.39979,0.1572612 -0.0846,0.464226 -0.43576,0.27616755 0.51096,0.40848865 2.39954,0.33536885 3.25242,-0.12583385 5.480419,0.4131492 6.166299,1.4918215 0.29771,0.4682568 0.40471,0.4719095 0.41075,0.013862 0.006,-0.4196991 0.82356,-0.5333151 2.54101,-0.3528773 3.97154,0.4172429 4.35679,0.4851355 4.70025,0.8286226 0.17754,0.1775407 1.00436,0.085212 1.83738,-0.2051891 0.833,-0.2904011 2.25368,-0.4115118 3.15706,-0.2691139 1.00984,0.1591506 1.51652,0.054793 1.31543,-0.2703735 -0.20519,-0.3320308 0.37958,-0.4169279 1.56966,-0.2277988 1.04321,0.1657635 2.03736,0.073875 2.20925,-0.2042444 0.19569,-0.3166007 0.80388,-0.3188681 1.62671,-0.00603 0.72281,0.2748449 1.3142,0.29714 1.3142,0.049754 0,-0.2475747 0.732,-0.3648436 1.62667,-0.2606745 0.89465,0.1041692 1.50019,-0.015115 1.3456,-0.265398 -0.15461,-0.2501568 0.83953,-0.2454334 2.20916,0.010701 1.36963,0.2558879 2.95374,0.3181122 3.52024,0.1383039 0.56652,-0.1798079 0.90306,-0.1212358 0.74784,0.1301173 -0.15517,0.2513533 0.81771,0.5295363 2.16206,0.6181493 2.59028,0.170739 3.3189,0.423289 3.3189,1.1503247 0,0.2467558 -0.73328,0.3979079 -1.62954,0.3358097 -0.95377,-0.066003 -1.80535,0.2013472 -2.05347,0.6447143 -0.35541,0.635091 -0.47714,0.6188422 -0.75327,-0.1007051 -0.20436,-0.5326224 -0.95451,-0.8582043 -1.97722,-0.8582043 -0.96283,0 -1.51089,0.22169 -1.31835,0.5332524 0.18127,0.2932981 -0.0447,0.5332522 -0.50176,0.5332522 -0.45723,0 -0.83132,-0.2693029 -0.83132,-0.5984996 0,-0.3900355 -0.31426,-0.3435563 -0.90221,0.133329 -0.5182,0.420329 -0.74105,0.4631554 -0.52362,0.1006427 0.25886,-0.4316024 -0.0503,-0.5854628 -0.97793,-0.486584 -0.74609,0.079544 -2.49008,-0.030861 -3.87554,-0.2448036 -1.64895,-0.2549433 -2.77755,-0.1789893 -3.26751,0.2199264 -0.88536,0.7208133 -2.42316,0.8144142 -4.4608,0.2715072 -1.01557,-0.2705625 -1.36418,-0.2114242 -1.11639,0.1895069 0.23486,0.3799588 -0.0303,0.4807899 -0.76148,0.2895824 -0.7606,-0.1988911 -1.19674,-0.011336 -1.35462,0.5825657 -0.14812,0.5572476 -0.25531,0.4156684 -0.29468,-0.3891539 z M 78.509384,1.5872788 c 0,-0.4374596 0.399989,-0.59541345 1.066463,-0.4210847 0.586536,0.1533565 1.066463,0.3428634 1.066463,0.4210847 0,0.078221 -0.479912,0.2677283 -1.066463,0.4210847 -0.666504,0.1742659 -1.066463,0.016375 -1.066463,-0.4210847 z"
       style="fill:#000000;stroke-width:0.999996"
       id="path20361" />
  </g>
</svg>
