<?xml version="1.0" encoding="UTF-8" standalone="no"?>
<!-- Created with Inkscape (http://www.inkscape.org/) -->

<svg
   width="188mm"
   height="74mm"
   viewBox="0 0 188 74"
   version="1.1"
   id="svg10436"
   xmlSpace="preserve"
   xmlns="http://www.w3.org/2000/svg"
   xmlnsSvg="http://www.w3.org/2000/svg"><defs
     id="defs10433" /><g
     id="layer1"><path
       style="fill:#000000;stroke-width:1"
       d="m 186.02828,22.449253 c -0.95067,0.01095 -2.61001,0.190597 -3.68744,0.39905 -1.08793,0.210466 -1.95896,0.201538 -1.95896,-0.02015 0,-0.657516 -1.22681,-0.450985 -1.86114,0.313361 -0.32512,0.391808 -0.8748,0.603543 -1.22146,0.470529 -0.34668,-0.133053 -0.98178,0.168656 -1.41137,0.670425 -0.42964,0.501778 -1.14044,0.912271 -1.57961,0.912271 -0.43916,0 -1.33126,0.53281 -1.98241,1.183946 -1.01755,1.017597 -1.17377,1.55209 -1.1114,3.802673 0.0403,1.440313 0.18618,2.815499 0.32495,3.056011 0.13883,0.240519 0.25272,1.070188 0.25304,1.843723 0,1.012479 -0.30029,1.556978 -1.07386,1.943882 -1.12292,0.561641 -1.93015,0.307153 -3.89819,-1.228843 -0.52949,-0.413259 -0.75035,-0.459643 -0.54897,-0.115251 0.18532,0.316898 0.15354,0.57616 -0.0706,0.57616 -0.22413,0 -0.4353,-0.674109 -0.46928,-1.498025 -0.28608,-6.934693 -0.28244,-8.985921 0.0157,-8.801689 0.57265,0.353973 0.39551,-0.197674 -0.57445,-1.788547 -1.37712,-2.258695 -1.20856,-3.508046 0.57445,-4.257748 1.50181,-0.631521 2.95387,-0.189562 2.38762,0.726608 -0.13894,0.224786 -0.0332,0.408686 0.23551,0.408686 0.26844,0 0.43629,0.155537 0.37292,0.345696 -0.26959,0.808749 1.69622,0.773074 2.51493,-0.04573 1.15978,-1.159748 9.12355,-3.021398 9.12355,-2.132727 0,0.174701 0.57041,0.323106 1.26756,0.329856 2.1207,0.02015 6.10732,1.587857 6.10732,2.401215 0,0.266432 -0.77781,0.49345 -1.72849,0.504556 z m -21.38646,15.790224 c -0.84586,1.511483 -3.7781,2.857353 -6.22524,2.857353 -1.30664,0 -2.29308,-0.133816 -2.19204,-0.297409 0.10106,-0.163594 -0.13702,-0.420445 -0.52899,-0.570908 -0.46841,-0.179708 -0.61379,-0.0778 -0.4241,0.297409 0.15875,0.314013 -0.0359,0.171215 -0.43221,-0.317334 -0.39643,-0.488495 -0.84875,-0.760257 -1.00515,-0.603861 -0.48005,0.480058 -1.46966,-0.764083 -1.1944,-1.501531 0.21042,-0.563579 0.12974,-0.588975 -0.42954,-0.135176 -0.55657,0.451531 -0.81354,0.385277 -1.34038,-0.345696 -0.35849,-0.49737 -0.91716,-0.904346 -1.24147,-0.904346 -0.32425,0 -0.58962,-0.286956 -0.58962,-0.637743 0,-1.129463 -3.50819,-3.93215 -4.57331,-3.65361 -0.62327,0.162994 -0.9603,0.03048 -0.9649,-0.379452 -0.005,-0.495354 -0.11264,-0.482234 -0.50096,0.06146 -0.39672,0.555468 -0.44914,0.487461 -0.26655,-0.345698 0.23671,-1.080003 -0.38097,-1.468843 -0.73219,-0.460947 -0.13088,0.375421 -0.66618,0.106819 -1.53646,-0.770999 -0.73458,-0.740941 -1.07637,-1.195373 -0.75948,-1.009894 0.3169,0.185533 0.57617,0.117642 0.57617,-0.150855 0,-0.739374 -0.9687,-0.585285 -2.00191,0.318477 -0.50718,0.443636 -0.77055,0.547357 -0.58525,0.230447 0.18532,-0.316899 0.11729,-0.576161 -0.15123,-0.576161 -0.26845,0 -0.48813,0.207418 -0.48813,0.460949 0,0.25353 -0.21966,0.460948 -0.48811,0.460948 -0.26849,0 -0.36447,-0.200069 -0.2134,-0.444562 0.15112,-0.244492 -0.47772,-0.130113 -1.3974,0.254183 -0.9197,0.384297 -1.5374,0.480601 -1.37265,0.214061 0.16467,-0.266487 0.092,-0.484576 -0.16148,-0.484576 -0.25353,0 -0.58506,0.200885 -0.73679,0.446413 -0.15174,0.245472 -1.07194,0.378906 -2.04488,0.296429 -1.68373,-0.142743 -1.76637,-0.08656 -1.71512,1.166846 0.0294,0.724262 0.15973,1.318719 0.28914,1.321028 0.12946,0.0047 0.28995,1.454233 0.35669,3.226507 0.0885,2.349824 -0.0365,3.22421 -0.46094,3.229371 -0.39633,0.0047 -0.36144,0.149766 0.10911,0.453871 0.50803,0.328331 0.53035,0.448645 0.0841,0.453871 -0.42931,0.005 -0.56436,0.581092 -0.46094,1.966001 0.12572,1.683226 0.0131,1.978038 -0.80193,2.094606 -1.34385,0.19223 -2.16029,-1.598691 -2.24855,-4.932277 -0.0409,-1.526644 -0.21542,-2.917638 -0.38887,-3.091135 -0.1735,-0.173448 -0.19229,-0.805841 -0.0419,-1.405236 0.15047,-0.59944 0.0326,-1.379884 -0.26126,-1.734298 -0.40031,-0.482342 -0.40227,-0.726236 -0.008,-0.970119 0.34123,-0.210903 0.0749,-0.622436 -0.75546,-1.167119 -0.70546,-0.462744 -1.43677,-0.746064 -1.6252,-0.629633 -0.18842,0.116509 -0.475,-0.0047 -0.63678,-0.264199 -0.1618,-0.261751 -0.50036,-0.348584 -0.75229,-0.192829 -0.25199,0.155754 -0.80805,-0.01633 -1.2357,-0.383316 -0.42768,-0.366549 -1.17859,-0.809808 -1.66871,-0.984961 -0.87566,-0.312979 -0.87511,-0.334482 0.0327,-1.242437 0.62626,-0.626218 1.71554,-0.982243 3.38083,-1.104942 2.33734,-0.172195 3.738,-1.029443 2.71507,-1.661651 -0.26144,-0.16158 -0.43869,-1.204138 -0.39383,-2.316821 0.0447,-1.11264 0.0391,-2.230441 -0.0126,-2.483955 -0.0517,-0.25353 -0.0604,-0.893604 -0.0196,-1.422428 0.0408,-0.528836 -0.23616,-1.219022 -0.61539,-1.533744 -0.45523,-0.377817 -0.5763,-0.912413 -0.35631,-1.573615 0.41358,-1.243036 0.33546,-2.823016 -0.24314,-4.919277 -0.24492,-0.8872945 -0.39633,-2.4946955 -0.33639,-3.5720255 0.0599,-1.077335 -0.091,-2.082297 -0.33529,-2.233299 -0.50281,-0.310747 -0.0639,-2.883581 0.64129,-3.75897997 1.12149,-1.392143 4.18598,-0.08662 3.74603,1.59592597 -0.13671,0.522683 -0.0311,1.084848 0.2349,1.249166 0.31424,0.194244 0.33645,0.685542 0.0634,1.403717 -0.2605,0.685222 -0.2445,1.685621 0.0424,2.634031 0.25429,0.841014 0.53178,2.8773585 0.61668,4.5251815 0.0848,1.647829 0.36704,3.825724 0.62704,4.839766 0.45567,1.777256 1.07775,6.158399 1.08255,7.623971 0,0.390502 0.56445,0.958873 1.25156,1.262995 1.20271,0.532374 5.2554,1.2529 5.87857,1.04516 0.16642,-0.05547 0.47363,0.176116 0.68263,0.514682 0.20905,0.338566 1.1656,0.652126 2.12572,0.696838 0.96012,0.04464 2.72575,0.276286 3.92363,0.514518 2.00319,0.398451 2.20462,0.354899 2.51119,-0.542282 0.18329,-0.536457 0.29218,-1.130987 0.24193,-1.32112 -0.0501,-0.190106 0.072,-0.345698 0.27155,-0.345698 0.19958,0 0.39279,-0.362956 0.42943,-0.806629 0.0842,-1.019482 1.313,-3.81323 2.08086,-4.730891 1.12057,-1.339189 3.14876,-2.33065 5.19017,-2.53724 1.65879,-0.167841 2.39066,0.01851 3.78299,0.963439 0.94946,0.644332 1.9565,1.730148 2.23786,2.412921 0.52688,1.278759 0.37826,2.854678 -0.26921,2.854678 -0.20153,0 -0.31112,0.36301 -0.24362,0.806629 0.0675,0.443636 -0.56247,1.45677 -1.39998,2.251412 -0.83751,0.794647 -1.39509,1.572467 -1.23908,1.728488 0.15604,0.156027 -0.0398,0.28369 -0.43519,0.28369 -0.3954,0 -0.84383,0.325391 -0.99644,0.7232 -0.17808,0.46416 -0.59104,0.623638 -1.15306,0.445269 -1.02064,-0.323921 -2.35549,0.815519 -2.35549,2.01062 0,0.444725 0.51212,1.28973 1.13813,1.877787 0.62594,0.588099 1.04289,1.223263 0.92656,1.411501 -0.11641,0.18831 0.71485,0.481255 1.84717,0.651066 1.13232,0.169746 2.17978,0.50461 2.32774,0.743942 0.31069,0.502812 3.44994,0.211446 3.85772,-0.358111 0.32185,-0.44957 2.78167,-2.053264 2.86753,-1.869532 0.27008,0.577864 0.19528,2.223292 -0.12728,2.799688 z m -9.29931,-15.103483 c -0.97663,-0.976572 -2.9641,-0.327243 -3.63458,1.187495 -0.32431,0.732693 -0.74647,1.332183 -0.93809,1.332183 -0.19167,0 -0.34842,0.531612 -0.34842,1.181316 0,0.960299 0.19403,1.154402 1.0371,1.037642 1.68203,-0.232896 3.71017,-1.496178 3.8418,-2.392868 0.0672,-0.457845 0.24145,-0.951682 0.38725,-1.097473 0.38533,-0.385385 0.33475,-0.568513 -0.34505,-1.248295 z m -27.23848,17.26944 c -0.79742,0 -1.5508,0.646591 -1.35324,1.161359 0.29756,0.775517 1.546,0.356205 1.546,-0.519309 0,-0.353102 -0.0867,-0.642078 -0.19277,-0.642078 z m -19.19527,-3.986541 c -0.4555,0.469223 -0.74428,1.091485 -0.6417,1.38279 0.38119,1.08236 -2.31259,3.314549 -4.64989,3.853058 -1.37204,0.316082 -2.34655,0.354735 -2.4394,0.09664 -0.0851,-0.236381 -0.34428,-0.312544 -0.57615,-0.169257 -0.23186,0.143288 -0.42159,0.02886 -0.42159,-0.254781 0,-0.283417 -0.20742,-0.387127 -0.46095,-0.230447 -0.25354,0.15668 -0.46096,-0.02341 -0.46096,-0.400302 0,-0.804227 2.13344,-2.595769 3.09113,-2.595769 0.77635,0 1.97911,-1.100473 1.97911,-1.810814 0,-0.271603 0.20742,-0.49383 0.46095,-0.49383 0.76218,0 0.49116,-1.540195 -0.47516,-2.700082 -0.50451,-0.605571 -1.19888,-0.97422 -1.56814,-0.832527 -0.36449,0.139911 -0.74039,0.02123 -0.83535,-0.263656 -0.10697,-0.32071 -0.51321,-0.379777 -1.06688,-0.155156 -0.49181,0.19947 -1.8276,0.392408 -2.9684,0.42861 -1.1408,0.03647 -2.22974,0.273238 -2.41987,0.526768 -0.22816,0.304214 -0.46325,0.294632 -0.69141,-0.0283 -0.19015,-0.2691 -0.76053,-0.511197 -1.26755,-0.538092 -2.2165,-0.117377 -4.699684,-1.537613 -4.174399,-2.387522 0.179168,-0.28995 0.0414,-0.391537 -0.33503,-0.247161 -0.47287,0.181451 -0.621332,-0.150038 -0.570037,-1.272814 0.09011,-1.974119 1.560579,-5.024321 3.392516,-7.037527 0.80106,-0.880282 1.45647,-1.796566 1.45647,-2.036159 0,-0.743893 3.03559,-2.354522 4.4376,-2.354522 1.55601,0 2.67232,1.422015 2.22435,2.833473 -0.22675,0.714446 -0.55477,0.867102 -1.4047,0.653783 -0.62785,-0.157606 -1.10888,-0.07453 -1.10888,0.191359 0,0.258374 -0.42709,0.469713 -0.94906,0.469713 -0.52198,0 -0.82506,0.200668 -0.6735,0.445868 0.15156,0.2452 -0.14731,0.709969 -0.66421,1.032715 -0.51685,0.322779 -0.93973,0.990307 -0.93973,1.483408 0,0.493069 -0.45099,1.376567 -1.00221,1.96329 -0.55121,0.58676 -0.77805,1.066823 -0.50407,1.066823 0.27395,0 0.40232,0.366276 0.28527,0.814001 -0.19577,0.748596 0.23775,0.806809 5.39539,0.724766 3.50695,-0.0558 6.05736,0.114106 6.8069,0.453546 1.55098,0.702315 3.53731,2.540877 3.15652,2.921694 -0.16256,0.162505 0.004,0.523446 0.36895,0.802019 1.03854,0.791647 1.15005,2.700176 0.21411,3.664394 z m -24.875052,1.502543 c -0.203495,0.535151 -0.721582,1.107892 -1.151286,1.272766 -0.591897,0.227126 -0.710419,0.115137 -0.488929,-0.461982 0.228538,-0.59557 0.157875,-0.65019 -0.323867,-0.250427 -0.489205,0.405963 -0.788708,0.03158 -1.45308,-1.815925 -0.460298,-1.280001 -1.121133,-2.436384 -1.468546,-2.569688 -0.347388,-0.133269 -0.631664,-0.647281 -0.631664,-1.142136 0,-0.494864 0.20503,-0.773029 0.455667,-0.618155 0.441685,0.272965 0.355065,-0.265942 -0.314228,-1.95568 -0.175732,-0.443636 -0.347438,-1.898893 -0.381517,-3.233884 -0.05978,-2.336594 -0.0088,-2.442242 1.356593,-2.827349 1.771862,-0.499602 3.033743,0.658258 2.688079,2.466484 -0.14193,0.742466 -0.01636,1.174866 0.340529,1.174866 0.374383,0 0.501551,0.544351 0.376774,1.613254 -0.103572,0.887293 -0.06745,1.613259 0.08042,1.613259 0.147807,0 0.260277,0.67411 0.249932,1.498019 -0.01007,0.823915 0.218307,2.12028 0.508145,2.880815 0.305418,0.80142 0.37145,1.791867 0.157007,2.355769 z M 80.244819,14.251522 c -0.471561,0.178129 -2.329843,0.140511 -3.616905,-0.07339 -0.151344,-0.02559 -0.700628,-0.414674 -1.220641,-0.865719 -0.791577,-0.686555 -0.85104,-0.9491 -0.365396,-1.613254 0.632796,-0.865398 1.63075,-1.06876 1.63075,-0.332359 0,0.253529 0.219666,0.460948 0.48811,0.460948 0.268445,0 0.349339,-0.224567 0.17971,-0.499002 -0.169642,-0.274435 0.38854,-0.141763 1.24036,0.294741 2.129923,1.091664 2.824926,2.189278 1.663987,2.627993 z m -9.68151,48.969953 c -0.567721,4.215301 -1.630109,8.066279 -2.225277,8.066279 -0.260176,0 -1.13592,0.61995 -1.946085,1.37763 -0.810163,0.75767 -1.532356,1.20197 -1.604876,0.98721 -0.07251,-0.21471 -0.87719,-0.30824 -1.788166,-0.20785 -1.114383,0.12281 -1.938405,-0.0727 -2.518492,-0.59773 -0.474177,-0.42916 -0.862185,-0.63632 -0.862185,-0.46035 0,0.17589 -0.441133,-0.0911 -0.980246,-0.59341 -0.96724,-0.90111 -1.477926,-4.193031 -0.761602,-4.909317 0.293489,-0.293489 2.1104,1.164446 1.857082,1.490142 -0.514899,0.662036 1.575923,1.991861 3.131732,1.991861 0.95039,0 2.284195,-1.434227 2.284195,-2.456157 0,-0.423711 0.183247,-0.770351 0.407215,-0.770351 0.515062,0 0.969332,-2.254133 0.511312,-2.537191 -0.187386,-0.115855 -0.05902,-1.407218 0.285094,-2.869846 0.77484,-3.292789 0.77893,-3.488409 0.06393,-3.058911 -0.433128,0.260225 -0.453867,0.181123 -0.08356,-0.318479 0.474834,-0.640688 0.81077,-2.687866 0.676415,-4.121635 -0.03536,-0.380267 -0.08105,-1.365505 -0.101055,-2.189419 -0.02013,-0.823909 -0.202727,-1.49802 -0.406334,-1.49802 -0.203608,0 -0.276134,-0.518546 -0.161198,-1.152327 0.114898,-0.63378 0.02228,-1.152327 -0.206339,-1.152327 -0.705541,0 -1.776267,-3.934774 -1.369749,-5.033678 0.234258,-0.633226 0.203554,-0.901166 -0.08291,-0.724119 -0.270079,0.166915 -0.454741,-0.467699 -0.454741,-1.562695 0,-1.014042 -0.210794,-1.973977 -0.468461,-2.133226 -0.257668,-0.159185 -0.351741,-0.478316 -0.209161,-0.709051 0.142635,-0.230773 0.03485,-0.838711 -0.239157,-1.350943 -0.37967,-0.709463 -0.357294,-0.934902 0.09391,-0.946057 0.365351,-0.0093 0.265289,-0.262458 -0.261152,-0.661252 -0.469441,-0.35566 -0.884266,-1.160945 -0.921863,-1.789559 -0.04573,-0.769479 -0.232842,-1.006579 -0.571687,-0.725551 -0.276829,0.229577 -0.648044,0.272747 -0.824904,0.09587 -0.176878,-0.176878 -0.43313,0.08422 -0.569508,0.580173 -0.457465,1.663862 -5.707593,4.709001 -5.707593,3.310493 0,-0.238286 -0.340362,-0.302581 -0.756343,-0.142961 -0.41598,0.15962 -1.24566,-0.03049 -1.843717,-0.422242 -0.748563,-0.490454 -1.087379,-0.541573 -1.087379,-0.164083 0,0.301656 -0.128426,0.420008 -0.285323,0.263057 -0.156953,-0.156953 -0.564576,-0.03593 -0.905864,0.268882 -1.522578,1.359881 -2.03531,1.72208 -2.03531,1.437824 0,-0.167786 -0.302634,-0.0539 -0.672515,0.25304 -0.408468,0.339002 -1.217138,0.438519 -2.059671,0.253475 -0.762931,-0.167568 -2.179774,-0.361158 -3.148539,-0.430135 -2.083864,-0.148405 -4.534359,-1.267049 -4.383847,-2.001219 0.05852,-0.285323 -0.61476,-0.779523 -1.496131,-1.098213 -0.881371,-0.318749 -1.721029,-0.952971 -1.865907,-1.409433 -0.144866,-0.456485 -0.450332,-0.829947 -0.678814,-0.829947 -0.228486,0 -0.306282,-0.284397 -0.172903,-0.631984 0.13338,-0.347549 -0.05493,-0.929371 -0.41843,-1.29286 -0.705272,-0.705272 -1.272477,-4.528182 -0.67184,-4.528182 0.196857,0 0.357892,-0.414837 0.357892,-0.921858 0,-0.507005 -0.176987,-0.921858 -0.393279,-0.921858 -0.617677,0 -0.02832,-4.755188 0.691516,-5.579837 0.355333,-0.407052 1.418824,-1.133012 2.363318,-1.613254 0.944501,-0.48022 1.840016,-1.039771 1.990043,-1.243314 0.150039,-0.203607 1.649402,-0.565103 3.331959,-0.803357 1.682556,-0.238286 3.219158,-0.477226 3.414676,-0.531013 0.501887,-0.138007 3.927358,1.041518 4.619079,1.59053 0.926117,0.735045 0.666338,2.808681 -0.560132,4.471073 -1.537445,2.083865 -4.36683,4.631009 -5.144199,4.631009 -0.34842,0 -0.633459,0.189181 -0.633459,0.420335 0,0.231209 -0.512775,0.364098 -1.139485,0.295286 -0.67889,-0.07453 -1.022562,0.06413 -0.850236,0.342921 0.189834,0.307153 -0.606659,0.375585 -2.317491,0.19898 -2.242021,-0.231372 -2.605199,-0.160871 -2.595743,0.504283 0.02287,1.615791 0.868904,4.380822 1.453694,4.751595 0.335245,0.212535 0.453925,0.389631 0.263819,0.393496 -0.925958,0.01905 1.763254,1.95176 3.568013,2.564477 2.101215,0.713378 8.279484,1.074657 8.83738,0.51675 0.170508,-0.170508 0.05602,-0.784499 -0.254346,-1.364444 -1.178045,-2.201217 -0.636922,-7.499058 0.962846,-9.426667 0.264636,-0.318913 0.349509,-0.579803 0.188529,-0.579803 -0.423658,0 1.944861,-3.650703 3.151205,-4.857008 1.447232,-1.447225 2.88861,-1.787163 4.843076,-1.142136 1.591592,0.525297 1.682365,0.659728 1.552634,2.29981 -0.133325,1.685621 -0.0925,1.738031 1.264578,1.622568 1.847544,-0.157224 2.664822,1.10872 3.000558,4.647787 0.14356,1.513514 0.670331,3.388898 1.186396,4.223918 0.679272,1.09909 0.763576,1.505723 0.314393,1.516459 -0.461166,0.01095 -0.437266,0.154285 0.0962,0.576167 0.400948,0.317115 0.770976,1.464096 0.850172,2.635412 0.07714,1.140617 0.338994,2.196747 0.581941,2.346873 0.24291,0.150148 0.392505,0.461384 0.332413,0.691668 -0.121694,0.466065 0.882816,5.559279 1.309815,6.641269 0.456812,1.157581 0.586158,1.967063 0.740081,4.632899 0.0813,1.407315 0.273453,2.76208 0.427037,3.01066 0.153621,0.248576 0.396431,1.718668 0.539556,3.266887 0.143126,1.548218 0.333986,3.097265 0.424092,3.442364 0.09011,0.345098 -0.03159,2.079346 -0.270684,3.853929 z M 59.218486,24.310674 c -0.349562,-0.216021 -0.46405,-0.90287 -0.302961,-1.817444 0.214604,-1.218102 0.08634,-1.53407 -0.748171,-1.842753 -1.000096,-0.369978 -2.767938,0.676826 -2.381024,1.409847 0.09364,0.177422 -0.256196,0.550809 -0.777422,0.829767 -0.521214,0.278953 -0.834781,0.689871 -0.69679,0.913147 0.138007,0.223262 0.03647,0.53831 -0.225057,0.700106 -0.261806,0.161798 -0.35664,0.487243 -0.210795,0.723244 0.145847,0.236 0.05493,0.429101 -0.202082,0.429101 -0.385767,0 -0.673414,0.882312 -1.202282,3.687439 -0.02395,0.126736 -0.207528,0.712136 -0.408087,1.300835 -0.566966,1.664188 0.02886,3.308467 1.199293,3.308467 1.41098,0 5.981108,-4.76828 5.577703,-5.819523 -0.194244,-0.506188 -0.12211,-0.674109 0.203226,-0.473033 0.53956,0.333503 0.960626,-0.772517 0.821307,-2.157339 -0.04682,-0.46454 -0.337858,-1.000813 -0.646907,-1.191871 z M 44.983699,16.849137 c -2.878659,-0.174264 -4.555112,0.347549 -6.280432,1.954944 -0.50744,0.472708 -1.052402,0.859497 -1.211085,0.859497 -0.158694,0 -0.72272,0.813495 -1.253423,1.80777 l -0.964927,1.807721 0.994646,-0.130766 c 2.250633,-0.295939 3.864191,-0.93039 5.719178,-2.248739 1.077422,-0.765745 1.958951,-1.550527 1.958951,-1.743976 0,-0.193482 0.414837,-0.483433 0.921858,-0.644337 1.135255,-0.360287 1.220868,-1.595141 0.115251,-1.662114 z M 30.262187,38.494374 c -0.332415,0.310529 -0.604444,0.367365 -0.604444,0.126303 0,-0.482834 -1.169268,-0.426107 -1.676731,0.08133 -0.67711,0.677104 -1.169825,0.281402 -0.569122,-0.457083 0.555349,-0.682729 0.531939,-0.739973 -0.191467,-0.468733 -0.532211,0.199524 -0.920595,0.05749 -1.096574,-0.401119 -0.149875,-0.390611 -0.542936,-0.606353 -0.873494,-0.479512 -0.330562,0.126846 -1.076372,-0.366494 -1.657394,-1.096275 -0.853475,-1.072032 -1.191432,-1.224831 -1.759405,-0.795475 -0.386636,0.292291 -0.560939,0.361594 -0.38729,0.154067 0.173666,-0.207528 -0.137462,-0.847373 -0.691395,-1.421878 -0.725829,-0.752837 -1.224782,-0.932416 -1.786467,-0.642949 -0.554217,0.285595 -0.953674,0.156516 -1.382791,-0.446795 -0.33187,-0.466664 -1.22569,-1.14974 -1.986225,-1.518069 -0.783541,-0.379505 -1.331906,-0.977219 -1.265379,-1.379383 0.09527,-0.575882 -0.359036,-0.692408 -2.409877,-0.617921 -1.390014,0.05063 -2.4158485,-0.08852 -2.2796325,-0.308951 0.317714,-0.514028 -0.312434,-0.504228 -1.13661,0.01742 -0.740544,0.469006 -1.074249,7.219641 -0.468951,9.487048 0.203662,0.762979 0.455613,2.760648 0.559818,4.439268 0.104201,1.678566 0.346568,3.30611 0.538525,3.616688 0.191957,0.310638 0.393932,1.235197 0.448863,2.054643 0.05493,0.819488 0.238395,1.714104 0.407705,1.988081 0.1693105,0.273999 0.1736645,0.847973 0.0098,1.275533 -0.2248935,0.586025 -0.6384185,0.709328 -1.6803305,0.500961 -1.788998,-0.357838 -2.626021,-1.48945 -2.588642,-3.499749 0.01633,-0.887295 -0.27596,-2.689713 -0.649863,-4.005345 -0.373897,-1.315682 -0.585519,-2.486492 -0.470203,-2.60177 0.426705,-0.426704 0.245146,-4.019494 -0.232189,-4.594685 -0.707896,-0.852954 -0.969723,-3.933119 -0.355878,-4.186355 0.3727,-0.15374 0.372319,-0.220484 -0.0014,-0.247106 -0.289297,-0.02015 -0.419029,-0.523882 -0.298117,-1.156427 0.117755,-0.616076 -0.02722,-2.934324 -0.322397,-5.151721 -0.295082,-2.21735 -0.629925,-5.498713 -0.744075,-7.29187 C 2.3280635,14.24292 2.0905705,12.645982 1.3238465,10.477212 0.83513348,9.0948835 0.75876448,8.3387745 1.0873025,8.1356895 c 0.515606,-0.31864 0.120536,-1.874514 -0.59877012,-2.358076 -0.6091851,-0.409502 0.010949,-2.06902 0.82900912,-2.218132 1.488574,-0.271387 6.55911,-0.154884 8.520532,0.195768 2.4711605,0.441785 6.4926465,2.142726 8.1519305,3.447895 0.655045,0.51528 1.062359,0.936841 0.905139,0.936841 -0.157224,0 0.125155,0.67411 0.62751,1.498024 1.315431,2.1574755 1.188899,5.0012275 -0.350761,7.8831035 -0.697161,1.304941 -1.423126,2.44173 -1.613259,2.526217 -0.190161,0.08454 -0.345698,0.358 -0.345698,0.607736 0,0.249718 -0.962662,1.376389 -2.139242,2.503727 -2.085405,1.998088 -2.118348,2.072803 -1.3088,2.967332 0.456756,0.504719 0.912995,0.835113 1.013884,0.734213 0.100879,-0.100879 1.363955,0.5284 2.806815,1.39842 1.442865,0.870047 3.075075,1.695992 3.627129,1.83547 0.552061,0.139476 1.115951,0.546016 1.253092,0.903375 0.137135,0.357403 0.472326,0.649819 0.744867,0.649819 0.272529,0 1.054742,0.518547 1.738244,1.152328 0.6835,0.633775 1.412438,1.152322 1.619867,1.152322 0.207419,0 1.259357,0.894899 2.337635,1.988636 1.594014,1.616946 1.847511,2.094237 1.356065,2.553323 z M 16.459864,10.094255 c -0.155591,-0.5806795 -0.76514,-1.1641245 -1.376492,-1.3175225 -0.603489,-0.151508 -1.097249,-0.442057 -1.097249,-0.645812 0,-0.203662 -0.512776,-0.314067 -1.139485,-0.245254 -0.688607,0.07562 -1.023456,-0.06266 -0.846246,-0.3494 0.180525,-0.292074 -0.01089,-0.357838 -0.497695,-0.170943 -0.469823,0.180252 -0.676609,0.118517 -0.509346,-0.152162 0.154884,-0.25059 -0.157714,-0.455613 -0.694657,-0.455613 -0.5369465,0 -0.8568225,-0.193264 -0.7108405,-0.429481 0.14601,-0.236164 -0.372155,-0.111386 -1.151417,0.277374 -0.779274,0.38876 -1.820144,0.601329 -2.313049,0.472435 -0.492905,-0.128915 -0.77996,-0.04627 -0.637892,0.183574 0.14209,0.229848 0.03866,0.41794 -0.229847,0.41794 -0.268447,0 -0.488551,-0.155536 -0.489041,-0.345697 -4.56e-4,-0.190161 -0.622756,-0.389196 -1.38279,-0.44233 -0.760028,-0.05335 -1.381871,0.11144 -1.381871,0.365895 0,0.254455 0.259301,0.428883 0.576162,0.38778 1.422488,-0.184717 1.728487,0.106921 1.728487,1.647639 0,0.8872885 0.162179,1.6132535 0.360397,1.6132535 0.198218,0 0.407651,0.466719 0.465358,1.037093 0.120096,1.186576 0.450223,2.880815 0.561358,2.880815 0.04138,0 0.123532,0.622256 0.18303,1.38279 0.05945,0.760535 0.323594,1.797627 0.586868,2.304649 0.26333,0.507006 0.507169,1.821968 0.541957,2.92207 0.08225,2.603147 0.357511,2.971754 1.504199,2.014769 0.51958,-0.433673 1.373812,-1.15145 1.8982765,-1.595092 0.52448,-0.443636 1.267534,-0.806629 1.651264,-0.806629 0.383751,0 0.571876,-0.125809 0.418102,-0.279607 -0.259082,-0.259028 -0.01688,-0.654843 1.333729,-2.178815 0.81993,-0.92525 2.018711,-3.420631 2.018711,-4.202186 0,-0.392897 0.207418,-0.714303 0.460949,-0.714303 0.510162,0 0.602776,-1.958766 0.169091,-3.57723 z"
       id="path19844" /></g></svg>
