<?xml version="1.0" encoding="UTF-8" standalone="no"?>
<!-- Created with Inkscape (http://www.inkscape.org/) -->

<svg
   width="79mm"
   height="54mm"
   viewBox="0 0 79 54"
   version="1.1"
   id="svg9176"
   xmlns="http://www.w3.org/2000/svg"
   xmlnsSvg="http://www.w3.org/2000/svg">
  <defs
     id="defs9173" />
  <g
     id="layer1">
    <path
       d="m 34.3817,53.809022 c -0.106938,-0.106937 -1.069742,-0.18944 -2.13954,-0.183276 -1.069791,0.006 -2.164378,-0.105169 -2.432408,-0.247349 -0.315026,-0.167123 -0.756434,-0.164689 -1.248503,0.0067 -0.418648,0.145944 -0.833787,0.192758 -0.922539,0.103998 -0.162792,-0.162793 -0.837621,-0.255253 -3.161558,-0.433244 -0.698599,-0.05351 -1.421207,-0.219217 -1.605796,-0.368289 -0.184604,-0.149073 -0.847982,-0.355551 -1.474201,-0.458857 -0.70341,-0.116009 -1.071189,-0.296819 -0.96227,-0.473039 0.106302,-0.171991 0.04896,-0.206573 -0.144394,-0.08705 -0.176386,0.108992 -0.482913,0.0636 -0.681161,-0.100957 -0.19826,-0.16453 -0.723196,-0.325439 -1.166552,-0.357582 -0.443351,-0.03215 -0.763258,-0.128118 -0.710906,-0.213274 0.05234,-0.08515 -0.368526,-0.446463 -0.93529,-0.802895 -0.566764,-0.356437 -0.975527,-0.738372 -0.908362,-0.848771 0.06717,-0.110409 -0.05522,-0.200725 -0.271974,-0.200725 -0.216751,0 -0.765815,-0.505477 -1.220142,-1.123253 -0.45433,-0.617805 -0.826052,-1.038388 -0.826052,-0.934656 0,0.372386 -1.670598,-1.300852 -1.902764,-1.905786 -0.130519,-0.340052 -0.357954,-0.543695 -0.505428,-0.452565 -0.147461,0.09117 -0.268117,0.02149 -0.268117,-0.15508 0,-0.176479 -0.210776,-0.493595 -0.468358,-0.704729 -0.257592,-0.211192 -0.317815,-0.307698 -0.133806,-0.214511 0.67609,0.342462 0.306049,-0.104441 -0.6977353,-0.842615 C 9.0260908,42.393632 8.5142432,41.931588 8.4564031,41.784393 8.3985502,41.637184 8.260926,41.546875 8.1505115,41.583668 c -0.1104197,0.03679 -0.2007239,-0.0593 -0.2007239,-0.213557 0,-0.154291 -0.4068869,-0.916563 -0.90419,-1.693982 C 6.5482914,38.898708 6.0584343,38.00123 5.9570293,37.68173 5.8556285,37.36223 5.6474396,37.100833 5.4944242,37.100833 c -0.153025,0 -0.2103974,-0.176796 -0.1274525,-0.392885 0.082915,-0.216087 0.035598,-0.464048 -0.1051697,-0.551054 -0.1407597,-0.08699 -0.2559469,-0.399041 -0.2559469,-0.693439 0,-0.294384 -0.1204347,-0.460834 -0.2676432,-0.369866 -0.1472084,0.09097 -0.2676431,-0.0044 -0.2676431,-0.211978 0,-0.207585 -0.2871782,-0.917472 -0.638149,-1.577587 C 3.4814386,32.643957 3.1083124,31.692655 3.0032495,31.190066 2.8981775,30.687453 2.63257,29.992974 2.4129837,29.646738 2.1933879,29.300527 2.0735096,28.788681 2.1465734,28.509297 2.2196244,28.229959 2.1702804,28.00136 2.0368227,28.00136 c -0.1334266,0 -0.2425765,-0.295081 -0.2425765,-0.655781 0,-0.360688 -0.1992703,-0.767305 -0.442795,-0.903582 -0.2737117,-0.153183 -0.37707704,-0.419059 -0.2707087,-0.696273 0.094641,-0.246687 0.066729,-0.383385 -0.062051,-0.303806 -0.12877984,0.07959 -0.29681924,-0.09499 -0.37342344,-0.387908 -0.09325,-0.356565 -0.036952,-0.4713 0.170284,-0.347063 0.22964774,0.13763 0.23318804,0.08595 0.013592,-0.200346 -0.36893815,-0.481202 -0.66749924,-1.638338 -0.37628113,-1.458356 0.26347073,0.162823 0.56713987,-0.549182 0.33374303,-0.782586 -0.2335357,-0.233534 -0.39199733,-0.955766 -0.4003804,-1.824932 -0.00379,-0.404794 -0.10646302,-0.735989 -0.22790918,-0.735989 -0.12144626,0 -0.1594733,-0.159884 -0.0844936,-0.355282 0.2120725,-0.552689 0.30244589,-3.926842 0.10516756,-3.926842 -0.32292304,0 -0.12941201,-2.539351 0.21004944,-2.756535 0.18400268,-0.117715 0.33453968,-0.490624 0.33453968,-0.828698 0,-0.7191 0.73777164,-2.3026828 1.07280774,-2.3026828 0.1268831,0 0.3808139,-0.4150982 0.564276,-0.9224756 C 2.5441285,8.10487 2.7806578,7.7431931 2.8862894,7.8084683 3.1097417,7.9465722 4.7380693,6.1615375 4.7380693,5.7785267 c 0,-0.1420875 0.1659216,-0.2583181 0.3686787,-0.2583181 0.2027794,0 0.5204494,-0.1828647 0.7059532,-0.4063991 C 5.9981903,4.8903258 6.58501,4.5051591 7.1167249,4.2579456 7.6484399,4.0107542 8.1571604,3.7015911 8.2472144,3.570959 8.3372664,3.4403142 8.4878315,3.3437136 8.5817568,3.3562944 9.1706742,3.4350984 9.5144597,3.3250004 9.9733507,2.9107936 10.258697,2.6532024 10.853476,2.4039247 11.295069,2.3568224 c 0.441594,-0.047068 0.840787,-0.1908621 0.887099,-0.3194997 0.04631,-0.1286532 0.258603,-0.1669648 0.471765,-0.085158 0.213148,0.081775 0.545683,0.017386 0.738941,-0.1429094 0.394327,-0.3272632 1.85367,-0.6091594 3.656299,-0.7063101 0.662392,-0.035688 1.204347,-0.095463 1.204347,-0.13282576 0,-0.0950834 1.194327,-0.2993799 2.074152,-0.35474811 0.404796,-0.0252874 0.73599,-0.15141266 0.73599,-0.27984483 0,-0.128432 0.170221,-0.092238 0.37826,0.080416 0.292648,0.24289248 0.457257,0.22936326 0.727313,-0.059744 0.231007,-0.2472863 0.6235,-0.3162059 1.160623,-0.2037907 0.44637,0.093408 1.172883,0.1378203 1.614476,0.098688 1.647316,-0.1460073 2.742608,-0.1336794 5.218838,0.058891 1.398381,0.1087387 3.084467,0.21150345 3.746859,0.22838327 0.662389,0.016753 1.265972,0.11177355 1.341294,0.21093455 0.129853,0.17091613 2.569982,0.53223918 4.011356,0.59398318 0.367996,0.015805 0.735547,0.1175899 0.816782,0.2262972 0.08124,0.108707 1.165144,0.3938214 2.408694,0.6335655 1.243546,0.2397631 3.224473,0.7234396 4.402055,1.0748117 1.177582,0.3514038 2.291602,0.6383577 2.475603,0.6376907 0.184002,0 0.33454,0.119265 0.33454,0.2664419 0,0.1472085 0.216781,0.2676432 0.481739,0.2676432 0.264955,0 0.62626,0.1445216 0.802898,0.3211592 0.176637,0.1766375 0.321158,0.2286678 0.321158,0.1155983 0,-0.1130384 0.361306,0.051715 0.802898,0.3661467 0.519709,0.3700569 0.802899,0.4531032 0.802899,0.2353692 0,-0.1873533 0.244156,-0.074252 0.551218,0.255347 0.303172,0.3254138 0.656706,0.526486 0.785632,0.4467873 0.128938,-0.079689 0.671476,0.1006143 1.205659,0.4006462 0.534183,0.3000436 1.083909,0.475875 1.221613,0.3907678 0.137693,-0.085094 0.250383,-0.041789 0.250383,0.096252 0,0.13801 0.33759,0.3907679 0.7502,0.5616809 0.412611,0.1709163 1.069745,0.607042 1.4603,0.9692024 0.390553,0.3621353 0.899784,0.6584302 1.131625,0.6584302 0.231829,0 0.493511,0.1875751 0.581485,0.4168401 0.08797,0.2292366 0.329622,0.3517234 0.536997,0.272131 0.207362,-0.079558 0.445321,0.033213 0.528771,0.2507314 0.08345,0.21748 0.245896,0.337218 0.360995,0.266096 0.115093,-0.07112 0.365394,0.0588 0.556225,0.288727 0.190831,0.229931 0.836755,0.6663 1.435395,0.969714 0.598639,0.303425 1.174753,0.686022 1.280252,0.850243 0.105518,0.164246 0.346372,0.303111 0.535264,0.308578 0.370913,0.01078 1.845512,0.902619 2.112984,1.277949 0.09005,0.126377 0.236697,0.189376 0.325863,0.140001 0.08918,-0.04938 0.408276,0.121003 0.709127,0.378592 0.300864,0.25759 0.621825,0.468357 0.713276,0.468357 0.09146,0 0.391161,0.259299 0.66602,0.576213 0.27485,0.316929 0.49975,0.488965 0.49975,0.38234 0,-0.106654 0.176479,-0.03473 0.392162,0.15979 0.794818,0.716772 1.19462,1.02273 1.33644,1.02273 0.07997,0 0.830366,0.715677 1.667548,1.590409 0.837187,0.874729 1.638488,1.518492 1.78068,1.430628 0.142181,-0.08788 0.172591,-0.02086 0.06754,0.1492 -0.105043,0.169937 -0.06341,0.308989 0.09246,0.308989 0.15587,0 0.283416,0.125524 0.283416,0.278929 0,0.153404 0.118632,0.424385 0.263597,0.602173 1.290997,1.583128 1.570946,2.083039 1.754655,3.133391 0.283732,1.622148 0.321697,4.014486 0.06372,4.014486 -0.114712,0 -0.208563,0.180652 -0.208563,0.401449 0,0.220798 -0.110862,0.401449 -0.24637,0.401449 -0.135513,0 -0.325727,0.361305 -0.422716,0.802898 -0.09698,0.441595 -0.28721,0.802899 -0.422713,0.802899 -0.135513,0 -0.24637,0.125461 -0.24637,0.278833 0,0.427062 -0.865385,1.238631 -1.542775,1.44685 -0.333335,0.102478 -0.536986,0.298052 -0.452562,0.434662 0.08443,0.136587 0.01897,0.24836 -0.145723,0.24836 -0.164562,0 -0.240585,0.09487 -0.168925,0.21084 0.07166,0.115978 -0.208722,0.360904 -0.62307,0.544337 -0.414358,0.183402 -1.12828,0.691751 -1.586495,1.129624 -0.458212,0.4379 -0.833114,0.741182 -0.833114,0.673954 0,-0.06723 -0.368679,0.0063 -0.819291,0.163393 -0.524899,0.182991 -0.768335,0.418389 -0.677482,0.655164 0.09101,0.237171 -0.04687,0.369548 -0.385051,0.369548 -0.289771,0 -0.52687,0.10538 -0.52687,0.234168 0,0.128812 -0.391412,0.313067 -0.869803,0.409449 -0.696483,0.140349 -0.789811,0.229427 -0.468359,0.446896 0.332659,0.225064 0.309748,0.26426 -0.133806,0.228794 -1.083757,-0.08667 -1.503916,0.01834 -1.312608,0.327826 0.122426,0.198068 0.07296,0.236063 -0.137821,0.105768 -0.190292,-0.117589 -0.574109,0.02054 -0.911159,0.328063 -0.828062,0.755365 -3.123775,1.721148 -3.128966,1.316298 -0.0027,-0.200725 -0.07719,-0.220008 -0.200724,-0.05187 -0.10814,0.147208 -0.437497,0.293942 -0.731892,0.326084 -0.75223,0.08212 -2.84041,0.364007 -3.479226,0.469667 -1.042044,0.172369 -1.340365,0.27779 -1.534791,0.542411 -0.121762,0.165732 -0.198195,0.140254 -0.200723,-0.06692 -0.0021,-0.184003 -0.184761,-0.334543 -0.405546,-0.334543 -0.220797,0 -0.401449,0.128559 -0.401449,0.285661 0,0.163867 -0.228226,0.21321 -0.535268,0.115788 -0.349629,-0.110953 -0.536685,-0.0476 -0.53936,0.182675 -0.0024,0.214917 -0.08086,0.248107 -0.200725,0.08494 -0.10814,-0.147208 -0.708476,-0.267517 -1.334065,-0.267389 -0.625593,1.36e-4 -1.137441,-0.110261 -1.137441,-0.245327 0,-0.135038 -0.07924,-0.166301 -0.1761,-0.06944 -0.09685,0.09685 -0.327285,0.05061 -0.512063,-0.102741 -0.184792,-0.15334 -0.677604,-0.337672 -1.095155,-0.409639 -1.219527,-0.209986 -1.695914,-0.396254 -1.695914,-0.662954 0,-0.13725 -0.194529,-0.249594 -0.432263,-0.249594 -0.841459,0 -2.42116,-2.089968 -2.275757,-3.010866 0.01739,-0.11042 -0.103491,-0.200724 -0.268718,-0.200724 -0.203885,0 -0.190324,-0.132637 0.04217,-0.412798 0.245991,-0.296408 0.260816,-0.494556 0.05263,-0.702747 -0.412581,-0.412583 0.666686,-2.549495 1.382147,-2.73657 0.783332,-0.204834 1.042747,0.176005 0.672844,0.987859 -0.482842,1.059717 0.234136,2.374247 1.547289,2.83685 0.560597,0.197499 1.290241,0.606535 1.621437,0.908987 0.443686,0.40517 0.603255,0.44957 0.606273,0.168704 0.0032,-0.296061 0.05231,-0.305228 0.219943,-0.04113 0.280984,0.442691 4.396647,0.60263 6.734411,0.261733 0.956786,-0.139559 1.890155,-0.261764 2.074151,-0.271626 0.184003,-0.0097 0.334544,-0.118285 0.334544,-0.240965 0,-0.122647 0.09034,-0.203253 0.200724,-0.179134 0.330904,0.07239 1.78224,-0.366229 2.137652,-0.646011 0.182106,-0.143384 0.490637,-0.199428 0.685589,-0.124639 0.19494,0.07482 0.648117,-0.0897 1.00703,-0.365559 0.358918,-0.275862 0.728192,-0.504245 0.820616,-0.507538 0.09243,-0.0032 0.634377,-0.207804 1.204347,-0.454494 0.569966,-0.246685 1.274291,-0.490972 1.565158,-0.542813 0.290876,-0.05183 0.627837,-0.27112 0.748815,-0.48733 0.120973,-0.216183 0.726038,-0.625085 1.344577,-0.908694 0.618535,-0.283608 1.365482,-0.735617 1.659877,-1.004451 0.294386,-0.268877 0.986072,-0.789919 1.53706,-1.157915 0.550987,-0.367993 1.002617,-0.759406 1.003622,-0.869805 0.0011,-0.110408 0.189598,-0.200724 0.419072,-0.200724 0.22949,0 0.342284,-0.121287 0.250668,-0.269539 -0.09161,-0.14822 0.02086,-0.341501 0.25029,-0.429471 0.229268,-0.088 0.35024,-0.267801 0.268813,-0.399575 -0.08144,-0.131783 -0.01359,-0.239574 0.151159,-0.239574 0.164563,0 0.230786,-0.110727 0.147145,-0.246053 -0.08363,-0.135323 0.01959,-0.417614 0.229174,-0.627304 0.209702,-0.209701 0.439998,-0.753974 0.511794,-1.209511 0.07179,-0.455566 0.210049,-0.956947 0.30725,-1.114211 0.0972,-0.15726 -0.01078,-0.357904 -0.240174,-0.445874 -0.229268,-0.088 -0.358041,-0.255189 -0.286135,-0.371527 0.07191,-0.116357 -0.04922,-0.280603 -0.26916,-0.364998 -0.219944,-0.08439 -0.399913,-0.316182 -0.399913,-0.515059 0,-0.198892 -0.270962,-0.599712 -0.602174,-0.890734 -0.331194,-0.291035 -0.90326,-0.913834 -1.271256,-1.383984 -0.367995,-0.470176 -0.799717,-0.855943 -0.959384,-0.85728 -0.159662,0 -0.612225,-0.363738 -1.005685,-0.805332 -0.687313,-0.771399 -1.481691,-1.132301 -1.08715,-0.493919 0.122111,0.197596 0.07298,0.236097 -0.136272,0.106745 -0.179988,-0.11127 -0.264924,-0.364595 -0.188807,-0.562992 0.08908,-0.232114 1.46e-4,-0.307694 -0.249404,-0.211947 -0.213306,0.08188 -0.387818,0.01549 -0.387818,-0.14743 0,-0.162951 -0.166808,-0.296283 -0.370667,-0.296283 -0.203856,0 -0.561049,-0.290528 -0.793735,-0.645666 -0.232677,-0.355121 -0.90892,-0.860035 -1.502755,-1.12205 -0.593834,-0.261984 -1.079694,-0.633833 -1.079694,-0.826285 0,-0.192474 -0.115757,-0.34996 -0.257213,-0.34996 -0.141455,0 -0.49603,-0.256327 -0.787917,-0.569655 -0.348601,-0.374175 -0.693761,-0.507082 -1.005893,-0.387292 -0.261352,0.100303 -0.39426,0.101433 -0.295365,0.0027 0.337615,-0.337617 -1.578949,-1.719003 -2.394691,-1.72599 -0.335655,-0.003 -0.379066,-0.06678 -0.145943,-0.214854 0.350438,-0.222567 -1.203316,-0.943781 -2.339079,-1.085758 -0.147209,-0.01834 -0.267643,-0.214095 -0.267643,-0.434906 0,-0.220796 -0.214064,-0.401449 -0.475714,-0.401449 -0.261637,0 -0.763358,-0.201481 -1.114921,-0.447718 -0.477626,-0.334565 -0.588996,-0.351478 -0.440595,-0.06694 0.109217,0.209448 -0.04065,0.109841 -0.33305,-0.221366 -0.292395,-0.3311961 -0.723103,-0.6021742 -0.957107,-0.6021742 -0.234008,0 -0.425456,-0.130455 -0.425456,-0.2899282 0,-0.1594732 -0.150527,-0.2378031 -0.334543,-0.1741401 C 54.534359,9.134743 53.973095,8.9689831 53.471095,8.7026547 52.969094,8.4363367 52.447624,8.2868584 52.312267,8.3705214 52.176911,8.4541561 51.898087,8.2825983 51.692653,7.9893187 51.386857,7.5527286 50.68612,7.2812955 49.164984,7.0102383 49.043602,6.9884273 48.374624,6.7405722 46.890107,6.166794 46.595722,6.0529974 46.174191,5.9347438 45.953394,5.9040188 45.732597,5.8733569 45.210643,5.7133779 44.793493,5.5486574 44.37635,5.3839054 43.92472,5.3173026 43.78987,5.4006587 c -0.134848,0.083324 -0.245168,0.036857 -0.245168,-0.1032704 0,-0.1401279 -0.18691,-0.3265109 -0.41535,-0.4141879 -0.271373,-0.1040918 -0.348923,-0.051904 -0.223737,0.1506855 0.135133,0.2186475 0.04061,0.2452315 -0.320642,0.090152 C 42.303233,5.0030664 41.831843,4.8789332 41.537448,4.8481764 41.243064,4.8175145 40.580664,4.7175317 40.065468,4.62621 39.550276,4.5349198 38.667603,4.3968784 38.103979,4.3194334 37.540351,4.2420202 36.835596,4.0482816 36.537854,3.8889222 36.240118,3.7295754 35.417913,3.640087 34.710749,3.6901259 34.003582,3.7401332 33.490522,3.6752686 33.570617,3.5460152 33.651294,3.4158446 33.109502,3.3762686 32.356111,3.4572534 31.446906,3.5549924 30.953645,3.4998004 30.868285,3.290826 30.775305,3.0632011 30.734827,3.0614627 30.719463,3.284506 30.704613,3.4992022 30.400073,3.5235736 29.701475,3.366028 29.004148,3.2087674 28.643498,3.2373114 28.501224,3.46111 28.356387,3.6889876 28.296675,3.6929388 28.293736,3.475019 28.288036,3.0553435 20.255021,3.2234021 19.992176,3.6486852 19.823219,3.9220814 18.407464,4.2135776 17.244008,4.21457 c -0.260784,2.119e-4 -0.421038,0.086297 -0.356136,0.1913364 0.06489,0.1050082 -0.354012,0.1645309 -0.930929,0.1322885 -0.576916,-0.032242 -1.048935,0.043907 -1.048935,0.1692407 0,0.1253659 -0.259709,0.1599791 -0.577116,0.077002 -0.332599,-0.08699 -0.510325,-0.042864 -0.419477,0.1041235 0.08671,0.1402859 -0.165448,0.2453264 -0.560324,0.2334093 -0.394878,-0.012012 -1.113038,0.1933278 -1.595909,0.4561536 -0.48287,0.2628069 -1.044898,0.477857 -1.248951,0.477857 -0.204043,0 -0.412599,0.1247653 -0.463431,0.2772843 C 9.9919777,6.4857495 9.4700837,6.7798062 8.8830581,6.9866851 8.2960357,7.1936053 7.8458499,7.4903456 7.8826509,7.646133 7.9194423,7.80194 7.8592564,7.9017957 7.7488441,7.8680683 7.4712761,7.7831968 5.808509,8.8000157 5.808509,9.0546127 c 0,0.2163083 -0.5999137,1.0084403 -1.4167609,1.8706983 -0.2640396,0.278674 -0.5048963,0.851046 -0.5352673,1.271872 -0.030345,0.420797 -0.1455331,0.709519 -0.2559475,0.641595 -0.1104144,-0.06796 -0.209923,0.09432 -0.2212078,0.360609 -0.011381,0.266251 -0.071913,0.725017 -0.1347541,1.019412 -0.1644993,0.770462 -0.1218888,5.1849 0.06066,6.289368 0.085159,0.515192 0.1670913,1.147473 0.1820429,1.405071 0.014857,0.257591 0.118064,0.468356 0.2290788,0.468356 0.1110463,0 0.1396536,0.162127 0.063632,0.360314 -0.076054,0.198196 0.041662,0.882599 0.261574,1.520929 0.2199119,0.638303 0.3390316,1.258997 0.2647035,1.379271 -0.074347,0.120308 -0.00759,0.218711 0.1482515,0.218711 0.1558698,0 0.2834168,0.230881 0.2834168,0.513077 0,0.282183 0.2477604,1.091084 0.550585,1.797531 0.3028247,0.706466 0.5737997,1.619469 0.6021729,2.028919 0.028451,0.409428 0.1278632,0.744663 0.2211139,0.744957 0.146639,0 0.2602153,0.28016 0.4610596,1.135728 0.053926,0.229711 1.2126447,2.362874 1.9414731,3.574232 0.2742498,0.455806 0.439277,0.888113 0.3667245,0.960667 -0.072548,0.07252 0.1096829,0.350545 0.4049993,0.617803 0.2953015,0.267231 0.5369045,0.587641 0.5369045,0.712037 0,0.124354 0.2107773,0.448686 0.4683593,0.720655 0.257591,0.271973 0.709101,0.844032 1.003341,1.271252 0.997252,1.447922 4.810038,5.223869 6.289646,6.228857 1.613458,1.095927 4.521257,2.457696 5.470387,2.561861 0.331372,0.03638 0.719865,0.138674 0.863308,0.227308 0.258919,0.160011 0.966984,0.318834 2.765816,0.620347 0.515192,0.08633 1.057147,0.232682 1.204347,0.325202 0.147208,0.09255 2.85698,0.1926 6.021734,0.222377 8.503116,0.08 10.17004,0.397864 10.17004,1.939267 0,0.419809 -0.159348,0.895526 -0.354135,1.057177 -0.375904,0.311992 -2.744587,0.598183 -2.982402,0.360365 -0.212611,-0.212609 -3.855848,-0.215297 -3.724429,-0.0027 0.06275,0.101506 -0.09929,0.188206 -0.360056,0.192695 -0.260783,0.0044 -0.836129,0.08133 -1.27856,0.170758 -0.442433,0.08946 -0.891925,0.07513 -0.998878,-0.03183 z"
       style="fill:#000000;stroke-width:0.999997"
       id="path20779" />
  </g>
</svg>
