<?xml version="1.0" encoding="UTF-8" standalone="no"?>
<!-- Created with Inkscape (http://www.inkscape.org/) -->

<svg
   width="76mm"
   height="63mm"
   viewBox="0 0 76 63"
   version="1.1"
   id="svg9176"
   xmlns="http://www.w3.org/2000/svg"
   xmlnsSvg="http://www.w3.org/2000/svg">
  <defs
     id="defs9173" />
  <g
     id="layer1">
    <path
       d="M 5.5200838,62.309898 C 5.3386906,62.016382 4.9971137,61.89564 4.7610056,62.041561 4.0288657,62.494019 3.2873245,61.104487 3.0280968,58.794321 2.8747961,57.428267 3.0039088,56.507579 3.3650845,56.385954 3.7781654,56.24698 3.7284289,55.585016 3.1958462,54.134436 2.6673571,52.695013 2.4075968,49.328544 2.3283916,42.891293 2.0981305,24.178434 1.3660969,9.0376411 0.4698604,4.4517156 -0.2800223,0.61468536 -0.0182577,-0.06312929 2.0937207,0.24684516 5.093553,0.68714956 5.628771,2.731415 6.070861,15.437726 c 0.138541,3.981365 0.371282,9.956017 0.517265,13.277004 0.145982,3.320993 0.394909,9.346032 0.553171,13.388975 0.479746,12.255783 0.484026,12.291174 1.5783,13.119189 0.572457,0.433173 0.723333,0.768647 0.349949,0.778148 -0.360988,0.0093 -0.616551,0.19392 -0.567931,0.410476 0.145673,0.649257 -0.716481,4.526124 -1.226074,5.513107 C 6.744385,62.953313 6.01653,63.113038 5.5201277,62.30986 Z M 38.210234,57.462543 c -0.505358,-0.623323 -0.918853,-1.872838 -0.918853,-2.776703 0,-0.90387 -0.145486,-1.788869 -0.323283,-1.966666 -0.541078,-0.541078 -0.674739,-4.577275 -0.151564,-4.577275 0.268958,0 0.168432,-0.767897 -0.223315,-1.706441 C 36.201472,45.496915 35.705938,43.79437 35.492,42.652015 35.256964,41.397099 34.551868,40.10143 33.710527,39.378489 l -1.39249,-1.196532 -1.953941,2.223414 c -1.074665,1.222881 -1.964012,2.412038 -1.976322,2.642577 -0.01235,0.230509 -0.503994,1.411914 -1.092613,2.625288 -0.588644,1.213373 -1.193088,3.033096 -1.343245,4.043836 -0.150138,1.010735 -0.396398,2.260982 -0.547217,2.778322 -0.15082,0.517326 -0.381453,1.805316 -0.512552,2.862158 -0.282415,2.276746 -0.119875,2.062945 -1.909657,2.512154 -0.963087,0.241733 -1.442833,0.156154 -1.442833,-0.25736 0,-0.34071 -0.367624,-0.987138 -0.817008,-1.436491 -0.649101,-0.649102 -0.737515,-1.423715 -0.430195,-3.769168 0.212711,-1.623687 0.394723,-3.365643 0.404459,-3.871007 0.01,-0.505359 0.162418,-0.918854 0.339283,-0.918854 0.176866,0 0.221578,-0.68169 0.09929,-1.514877 -0.122293,-0.833179 0.04527,-2.01456 0.371965,-2.625287 0.42387,-0.791971 0.429512,-1.110416 0.01984,-1.110416 -0.315966,0 -0.428522,-0.236277 -0.250043,-0.52508 0.178478,-0.288802 0.06016,-0.525078 -0.262508,-0.525078 -0.322849,0 -0.4346,-0.246633 -0.248307,-0.548023 0.186292,-0.301455 0.06685,-0.875649 -0.265424,-1.276034 -0.472985,-0.569915 -0.376304,-0.849906 0.445328,-1.28964 1.489724,-0.797273 2.742104,-0.696196 3.455081,0.278881 0.542257,0.741609 0.837937,0.623657 2.512223,-1.002294 1.043683,-1.013556 2.033598,-1.706831 2.199823,-1.540613 0.166199,0.166199 0.302198,-0.06673 0.302198,-0.517761 0,-0.573078 0.631911,-0.880206 2.099086,-1.020124 6.108517,-0.582566 9.138624,5.186557 9.534427,18.152823 0.126822,4.153777 0.02791,4.750123 -0.888634,5.358239 -0.893241,0.592675 -1.154311,0.532521 -1.950158,-0.449048 z m 16.007058,-0.586721 c -0.653728,-0.323532 -1.074622,-0.885193 -0.935331,-1.248177 0.139286,-0.362972 0.02419,-0.65998 -0.255314,-0.65998 -0.279687,0 -0.460831,-0.177176 -0.402413,-0.393793 0.0583,-0.216617 -0.37705,-1.338898 -0.967579,-2.49402 -0.590566,-1.155149 -1.351592,-3.163495 -1.691172,-4.463013 -0.739755,-2.83091 -1.606411,-9.051227 -1.327407,-9.52729 0.109209,-0.186354 -0.15454,-0.474225 -0.586039,-0.639843 -0.431498,-0.165579 -0.784572,-0.07218 -0.784572,0.207501 0,0.27975 -0.472553,0.508583 -1.050121,0.508583 -0.577542,0 -1.050113,0.275656 -1.050113,0.612582 0,0.336926 -0.154417,0.458165 -0.343066,0.269515 -0.188711,-0.18871 -1.151092,0.156277 -2.138664,0.766657 -1.86805,1.154516 -2.411398,0.983145 -2.992309,-0.943796 -0.244959,-0.812577 0.05333,-1.55469 1.054337,-2.625293 0.767717,-0.820877 1.641082,-1.420955 1.940813,-1.333514 0.299717,0.08744 0.734459,-0.147657 0.966064,-0.52235 0.231625,-0.374756 1.024105,-0.7277 1.761106,-0.78435 1.966203,-0.15113 2.631632,-1.160388 2.705082,-4.102838 0.138046,-5.529194 0.710125,-12.715019 1.227141,-15.413136 0.296307,-1.546455 0.429639,-2.988378 0.296182,-3.204257 -0.133392,-0.215873 0.09674,-0.840802 0.511498,-1.3887139 0.414755,-0.5478998 0.761578,-1.3014348 0.770769,-1.6744778 0.02791,-1.1275392 1.75424,-2.5908507 3.496538,-2.9635654 1.032185,-0.2208343 3.261223,0.062077 6.001102,0.7616524 6.842027,1.7469296 9.421138,3.343182 9.421138,5.8309087 0,0.871604 -0.375995,1.67235 -0.918847,1.956805 -0.976006,0.511436 -3.281614,-0.09215 -3.281614,-0.859083 0,-0.812839 -5.169534,-2.8033129 -8.05369,-3.1009839 L 54.75997,9.1554011 54.342302,11.190507 c -0.229703,1.119315 -0.500026,2.389532 -0.600614,2.822705 -0.632296,2.722117 -1.296919,14.570357 -0.902029,16.080433 0.154107,0.589326 0.67642,1.112426 1.160699,1.16251 2.258018,0.233484 5.097846,-0.01675 5.254575,-0.463251 0.105609,-0.30077 0.568427,-0.283221 1.181381,0.04466 0.554287,0.296617 1.007763,0.406817 1.007763,0.244835 0,-0.161982 0.708828,0.07206 1.575173,0.520055 0.866346,0.447995 1.575175,0.907486 1.575175,1.021079 0,0.364894 -4.937699,1.444799 -6.455832,1.411957 -0.827815,-0.01798 -1.596332,0.303251 -1.762612,0.736573 -0.162168,0.422569 -0.519808,0.768326 -0.794706,0.768326 -0.274912,0 -0.353857,-0.236277 -0.175378,-0.525079 0.178478,-0.288803 0.07429,-0.525079 -0.231563,-0.525079 -0.305795,0 -0.556023,0.250229 -0.556023,0.556024 0,0.305795 -0.209486,0.426538 -0.465546,0.268337 -0.951367,-0.58796 -1.57637,1.126498 -1.33468,3.661219 0.496861,5.211133 1.840119,11.037187 2.868118,12.439959 1.944217,2.653014 2.244103,4.110677 1.07061,5.203947 -0.574443,0.535186 -1.113406,0.944056 -1.197678,0.908596 -0.08428,-0.03534 -0.688084,-0.329174 -1.341806,-0.652668 z m 13.658709,-6.654929 c -0.874599,-0.347902 -1.19214,-0.917489 -1.22283,-2.193325 -0.02294,-0.947845 -0.165456,-1.413563 -0.316958,-1.034938 -0.214136,0.534939 -0.497482,0.48756 -1.27119,-0.212649 -0.676146,-0.611899 -0.995664,-1.608041 -0.995664,-3.10409 0,-2.459888 0.900398,-5.510082 1.62654,-5.510082 0.260523,0 0.473668,-0.31826 0.473668,-0.707246 0,-0.388957 0.413452,-1.165251 0.918848,-1.725039 0.843672,-0.934506 1.229093,-1.032142 3.150347,-0.798031 0.360987,0.04403 0.658726,0.61159 0.661666,1.261349 0.0042,0.872485 0.5368,1.404472 2.037853,2.034597 2.826835,1.18667 3.671959,3.670837 2.390438,7.026453 -0.495498,1.297429 -1.105071,2.358959 -1.354619,2.358959 -0.249547,0 -0.394662,0.279562 -0.322476,0.621276 0.260213,1.23147 -3.993443,2.69173 -5.775641,1.982759 z m 2.253925,-3.61787 c -0.166138,-0.268835 -0.101332,-0.612831 0.143998,-0.764468 0.66442,-0.410662 0.09743,-3.3426 -0.788609,-4.077946 -0.607993,-0.504551 -0.858334,-0.497295 -1.186931,0.03411 -0.601667,0.973519 -0.285392,3.484017 0.559124,4.43799 0.783357,0.8849 1.767494,1.17113 1.272418,0.370104 z"
       style="fill:#000000;stroke-width:1"
       id="path20521" />
  </g>
</svg>
