<?xml version="1.0" encoding="UTF-8" standalone="no"?>
<!-- Created with Inkscape (http://www.inkscape.org/) -->

<svg
   width="72mm"
   height="61mm"
   viewBox="0 0 72 61"
   version="1.1"
   id="svg9176"
   xmlns="http://www.w3.org/2000/svg"
   xmlnsSvg="http://www.w3.org/2000/svg">
  <defs
     id="defs9173" />
  <g
     id="layer1">
    <path
       d="m 24.415904,60.358153 c -0.184625,-0.481191 -0.115671,-1.094905 0.153278,-1.363833 0.655451,-0.655467 1.159434,0.65791 0.599892,1.563282 -0.337564,0.546222 -0.481654,0.508048 -0.753143,-0.199407 z m 22.415432,-1.450774 c -0.870508,-0.588382 -1.585626,-1.441829 -1.589157,-1.896618 -0.0034,-0.454744 -0.188842,-0.939608 -0.411833,-1.077399 -0.470682,-0.2909 -1.281895,-3.899 -2.03126,-9.034362 -0.653879,-4.481027 -1.213933,-5.624235 -2.580235,-5.266944 -0.561756,0.146866 -2.066792,0.04333 -3.344493,-0.231126 -1.914401,-0.410561 -2.409194,-0.745244 -2.81257,-1.902339 -0.672778,-1.929921 -0.02311,-2.285693 3.945255,-2.160859 3.665401,0.115323 3.84597,-0.04793 3.717709,-3.359032 -0.05141,-1.328387 -0.257403,-1.784005 -0.725277,-1.604507 -0.359394,0.13791 -0.653417,0.05602 -0.653417,-0.182146 0,-0.238112 0.211493,-0.506199 0.469988,-0.59586 0.2585,-0.08963 0.57556,-1.923272 0.70458,-4.07474 0.419398,-6.99315 2.593118,-16.431991 4.140581,-17.9794392 0.303895,-0.303894 0.552517,-0.8064602 0.552517,-1.1168099 0,-0.3103615 0.539582,-1.1464836 1.199073,-1.858086 1.987185,-2.1441852 5.228054,-1.7268491 8.213606,1.0577927 1.503873,1.4026562 1.618344,1.8330502 0.733455,2.7575974 -0.336176,0.35125 -0.941266,1.126831 -1.344666,1.723523 -1.888151,2.792803 -1.923716,2.812803 -1.940337,1.089719 -0.01042,-1.103852 -0.425174,-1.992118 -1.314022,-2.815933 L 50.462349,9.1764518 49.676297,10.525428 c -1.705334,2.926586 -3.810577,8.928009 -3.131863,8.928009 0.152864,0 0.04159,0.285182 -0.247932,0.633758 -0.289281,0.348536 -0.507585,1.063655 -0.485121,1.58915 0.02252,0.525431 -0.09628,1.615514 -0.263929,2.422315 -0.378971,1.824346 -0.53467,12.408694 -0.187581,12.755768 0.342009,0.342011 1.339475,0.29321 6.232576,-0.304991 2.285939,-0.279405 4.880426,-0.506084 5.765522,-0.503715 1.129196,0.005 1.506956,-0.173711 1.266279,-0.592679 -0.188689,-0.32838 -0.179038,-0.450007 0.0213,-0.270281 0.481944,0.432161 3.21513,-0.534327 3.21513,-1.136907 0,-0.258501 0.25284,-0.313713 0.561931,-0.122715 0.309033,0.190994 1.425694,0.425115 2.481402,0.520176 1.956698,0.176255 3.630461,0.861765 4.525622,1.853494 1.749847,1.938622 2.63682,5.814936 1.822845,7.966357 -0.280965,0.742598 -0.637973,1.935538 -0.793367,2.65095 -0.155407,0.715461 -1.373317,2.450476 -2.706508,3.85568 -2.366735,2.494529 -2.477203,2.548855 -4.677363,2.300895 -2.661912,-0.300023 -4.406879,-1.72499 -4.838007,-3.95068 -0.605632,-3.126675 -0.707179,-6.969833 -0.22483,-8.509015 0.636069,-2.029714 0.330344,-2.465099 -1.53823,-2.190884 -1.049378,0.154017 -1.436683,0.434182 -1.254965,0.907776 0.208537,0.543508 0.06317,0.57806 -0.704089,0.167474 -0.713959,-0.382149 -0.966938,-0.363727 -0.966938,0.07017 0,0.32324 -0.144778,0.442845 -0.321738,0.265892 -0.176951,-0.176951 -0.628815,-0.06683 -1.004135,0.244637 -0.375332,0.31146 -1.605759,0.614002 -2.734321,0.672291 -1.128565,0.05833 -2.291663,0.13156 -2.584657,0.162865 -1.036511,0.110713 -1.687537,2.393219 -1.096528,3.844479 0.301582,0.740647 0.61062,2.886881 0.686705,4.76942 0.07607,1.882536 0.22125,3.75285 0.322605,4.15625 0.562104,2.237035 1.486581,4.400728 1.880266,4.400728 0.248107,0 0.451048,0.440073 0.451048,0.977946 0,1.214845 -0.324684,1.193476 -2.316201,-0.152646 z m 17.976609,-9.569737 c 2.415862,-2.817103 3.128563,-5.424638 2.241931,-8.202431 -0.319486,-1.00102 -3.574223,-2.747766 -4.300515,-2.308039 -0.665932,0.403226 -1.467893,5.753521 -1.215001,8.105908 0.23921,2.224865 0.966087,3.814461 1.744302,3.814461 0.176146,0 0.864292,-0.634439 1.529283,-1.409899 z M 2.2743674,55.532894 C 1.9674139,54.380099 1.6138641,51.456544 1.4886855,49.036141 1.1968053,43.392645 0.73480258,37.959984 0.48027788,37.178611 c -0.1094966,-0.336176 0.028869,-0.611215 0.3074731,-0.611215 0.27859772,0 0.38180102,-0.393121 0.22933392,-0.873593 C 0.60715878,34.402235 0.54357368,17.453935 0.92958998,12.363365 1.7672311,1.316397 1.9772724,0.24496853 3.2274267,0.64176793 c 0.5946879,0.1887349 0.940514,0.0623149 0.9504072,-0.3474384 0.00982,-0.39543074 0.3046449,-0.2665274 0.7641914,0.3337511 C 5.4937929,1.3488712 5.6045084,2.184618 5.3630405,3.8063864 5.1828504,5.0165882 4.9531141,6.5568451 4.8525107,7.2291812 4.4709965,9.7792558 4.3173752,42.345079 4.6714512,45.613358 5.8197544,56.212668 5.8232264,56.444978 4.8384677,56.785989 4.3320943,56.961331 3.6735953,57.222713 3.3751373,57.366835 3.0559973,57.520981 2.6025941,56.765545 2.2743869,55.5329 Z M 30.322173,54.508308 c -1.556981,-0.927336 -1.638909,-1.239835 -1.683731,-6.422188 -0.06544,-7.563637 -0.650102,-11.255998 -2.05318,-12.966123 -0.925642,-1.128203 -1.06799,-1.157935 -2.292285,-0.479054 -0.717948,0.398144 -1.641935,1.379478 -2.053311,2.180851 -0.411371,0.801327 -1.108588,2.007081 -1.549354,2.679412 -0.963431,1.469601 -1.923229,4.93518 -2.065646,7.458561 -0.111411,1.974365 -1.795993,4.062075 -2.927368,3.627915 -0.512494,-0.196645 -1.452617,-2.913331 -1.172281,-3.387537 0.03869,-0.06596 -0.20832,-0.641532 -0.549516,-1.279102 -0.3412,-0.637516 -0.392715,-1.018474 -0.114517,-0.846551 0.332307,0.205363 0.418533,-0.403516 0.251396,-1.774623 -0.13993,-1.148001 -0.243194,-2.417318 -0.229449,-2.820718 0.190342,-5.573924 0.466407,-9.196118 0.750503,-9.847965 0.196537,-0.450815 0.850387,-0.771988 1.493374,-0.733456 0.629085,0.03755 1.051202,0.218536 0.93805,0.401842 -0.113127,0.183254 0.253417,0.654876 0.814678,1.04801 0.578224,0.40496 0.781534,0.794332 0.469182,0.898483 -0.305108,0.101654 -0.406694,0.560429 -0.227545,1.027283 0.178059,0.46398 0.524275,0.719613 0.76941,0.568111 0.245159,-0.151539 0.319141,-0.480328 0.16443,-0.730674 -0.154712,-0.250357 0.04909,-0.455205 0.453296,-0.455205 0.404037,0 1.077119,-0.489047 1.495771,-1.086737 0.418648,-0.597714 0.761178,-0.900828 0.761178,-0.673601 0,0.227255 0.306724,0.158647 0.681564,-0.152474 0.868255,-0.720598 4.727655,-0.811792 5.980436,-0.141321 0.525663,0.28131 1.207212,1.023609 1.514541,1.649542 2.203831,4.488354 2.249294,4.74697 2.293226,13.044947 0.0312,5.880016 -0.112736,8.11158 -0.517982,8.035346 -0.332422,-0.06254 -0.458611,0.286222 -0.309725,0.855701 0.287491,1.099253 0.243195,1.112357 -1.085116,0.321277 z M 29.425727,26.950964 c -0.458379,-0.458381 -0.407269,-2.118855 0.0652,-2.118855 0.215123,0 0.391157,0.550092 0.391157,1.222423 0,1.357384 0.0015,1.354351 -0.45636,0.896432 z m 1.388878,-1.135289 c -0.171301,-0.277214 0.02482,-0.359222 0.460113,-0.19219 0.847102,0.325087 1.002093,0.675563 0.298753,0.675563 -0.25307,0 -0.594549,-0.217495 -0.758854,-0.483328 z"
       style="fill:#000000;stroke-width:1"
       id="path20565" />
  </g>
</svg>
