<?xml version="1.0" encoding="UTF-8" standalone="no"?>
<!-- Created with Inkscape (http://www.inkscape.org/) -->

<svg
   width="196mm"
   height="77mm"
   viewBox="0 0 196 77"
   version="1.1"
   id="svg9176"
   xmlns="http://www.w3.org/2000/svg"
   xmlnsSvg="http://www.w3.org/2000/svg">
  <defs
     id="defs9173" />
  <g
     id="layer1">
    <path
       d="m 55.465685,75.970955 c -0.176306,-0.285266 -0.771256,-0.375619 -1.322113,-0.200764 -0.759309,0.240985 -0.904567,0.156831 -0.600561,-0.348089 0.332094,-0.551517 0.258373,-0.550242 -0.429228,0.0075 -0.588384,0.477275 -0.83025,0.503992 -0.83025,0.0918 0,-0.319922 -0.386456,-0.542303 -0.858729,-0.494256 -2.026618,0.206153 -3.539043,-0.07726 -4.259991,-0.798176 -0.70289,-0.702879 -0.80162,-0.696677 -1.095375,0.06886 -0.270253,0.704206 -0.409985,0.730148 -0.857321,0.15915 -0.293957,-0.375212 -0.976086,-0.75939 -1.515861,-0.853722 -0.539752,-0.09429 -1.850934,-0.591153 -2.913701,-1.104078 -1.062766,-0.512918 -2.442863,-0.932571 -3.066885,-0.932571 -0.681388,0 -1.134581,-0.294017 -1.134581,-0.736052 0,-0.457975 -0.463423,-0.736052 -1.226756,-0.736052 -0.674716,0 -1.226755,-0.233857 -1.226755,-0.519643 0,-0.285785 -0.203023,-0.394222 -0.451137,-0.240869 -0.248113,0.153355 -0.800163,-0.07019 -1.226749,-0.496805 -0.426563,-0.426562 -0.775613,-0.644341 -0.775613,-0.483882 0,0.160424 -0.514485,-0.04521 -1.143252,-0.457395 -0.628787,-0.412016 -1.339151,-0.582704 -1.578601,-0.379328 -0.239419,0.20337 -0.111392,-0.05802 0.284511,-0.580851 0.652595,-0.861759 0.637886,-0.91986 -0.15741,-0.621651 -0.559226,0.209689 -0.978887,0.06423 -1.157463,-0.401119 -0.323689,-0.843544 -4.725978,-2.97365 -5.707441,-2.761621 -0.209921,0.04521 -0.509094,-0.249563 -0.66479,-0.65533 -0.155728,-0.405756 -0.482373,-0.614656 -0.725868,-0.464176 -0.243477,0.150514 -0.567572,-0.05158 -0.720137,-0.449224 -0.152542,-0.397585 -0.816834,-0.858261 -1.47615,-1.023739 -1.536378,-0.385587 -3.181617,-1.787465 -2.807749,-2.392394 0.158685,-0.25675 -0.01565,-0.365535 -0.387037,-0.241681 -0.371561,0.123857 -1.616764,-0.785501 -2.767162,-2.020765 -1.150396,-1.235276 -2.091633,-2.09135 -2.091633,-1.902406 0,0.18894 -0.552039,-0.168074 -1.2267496,-0.793371 C 8.6724305,52.582912 8.1170131,51.765401 8.1128792,51.391515 8.1071497,50.87796 8.0118018,50.859067 7.7226567,51.314199 7.4413914,51.75699 7.154563,51.659448 6.6404392,50.946173 6.2557225,50.41239 5.4928597,49.972301 4.9451955,49.968169 4.3246744,49.963304 4.1648176,49.823625 4.5210099,49.597014 4.9454268,49.326992 4.9138398,48.989027 4.398315,48.283988 4.0164944,47.761797 3.7040907,47.485031 3.7040907,47.668916 c 0,0.183897 -0.4303301,-0.03419 -0.9562665,-0.484461 C 2.2218662,46.734129 1.904906,46.182276 2.0434468,45.95811 2.3607022,45.444844 1.7975348,43.599939 1.3433558,43.6646 0.46180329,43.790138 0.35754441,43.489513 0.8212809,42.159205 1.1533725,41.206603 1.1587636,40.41628 0.83750733,39.815702 0.51405002,39.211282 0.52274375,38.605366 0.86358205,37.996158 1.234563,37.333271 1.2231472,37.176475 0.82185385,37.424414 0.014677,37.923307 0.14636081,37.120315 1.0934979,35.768088 1.879428,34.64602 1.8749817,34.607571 0.99833384,34.943971 0.12909764,35.277512 0.12425782,35.246562 0.91000195,34.37837 1.3671657,33.873217 1.7412125,33.114476 1.7412125,32.6923 c 0,-0.422157 0.3332527,-0.895481 0.7406085,-1.051789 0.4073202,-0.15631 0.6833511,-0.468235 0.6133807,-0.693206 -0.069954,-0.224931 0.5122796,-1.003957 1.2938509,-1.731107 0.7815962,-0.727156 1.2485077,-1.322095 1.0375792,-1.322095 -0.5924582,0 2.8279297,-2.898151 3.7977806,-3.217922 0.4722908,-0.155729 0.8587296,-0.473391 0.8587296,-0.705937 0,-0.40761 5.279011,-2.218525 5.993428,-2.056026 0.192707,0.04405 0.227656,-0.240115 0.07766,-0.630965 -0.196302,-0.511585 0.01449,-0.655295 0.753711,-0.512976 0.564499,0.108728 1.02641,-0.0255 1.02641,-0.297898 0,-0.272571 0.441631,-0.35545 0.981407,-0.184129 0.650403,0.206443 0.981401,0.08821 0.981401,-0.350581 0,-0.365939 0.595674,-0.711398 1.331709,-0.77231 0.732437,-0.06062 1.518864,-0.444646 1.747615,-0.853397 0.228755,-0.40877 0.61691,-0.618957 0.862583,-0.467133 0.245679,0.151847 0.991143,-0.08068 1.656592,-0.516685 0.665445,-0.43601 2.369144,-1.098567 3.785998,-1.472319 1.416848,-0.373764 2.766537,-1.019867 2.999304,-1.435795 0.232754,-0.415898 0.751224,-0.756233 1.152135,-0.756233 0.400945,0 1.255443,-0.344959 1.898957,-0.766623 0.643512,-0.421637 1.463798,-0.704444 1.822865,-0.628439 0.359042,0.07599 1.241256,-0.254488 1.960425,-0.734486 0.719164,-0.48 1.823242,-0.940838 2.453505,-1.024139 0.630264,-0.08328 1.499415,-0.302071 1.931448,-0.486085 0.432011,-0.184071 0.984067,-0.2895515 1.226749,-0.2344346 0.242665,0.055058 1.324501,-0.2969718 2.404046,-0.7824242 1.079544,-0.485446 2.238827,-0.8875685 2.576182,-0.8936245 0.337367,-0.00584 0.613375,-0.218672 0.613375,-0.4724065 0,-0.2537939 0.331223,-0.3342958 0.736053,-0.1789707 0.404828,0.155324 0.736051,0.1053691 0.736051,-0.1110457 0,-0.2164115 0.331224,-0.3935271 0.736052,-0.3935271 0.404829,0 0.736052,0.2262057 0.736052,0.5027177 0,0.276512 0.347626,0.074073 0.772443,-0.4498029 0.424825,-0.5238727 0.634188,-0.6790227 0.465221,-0.3447852 -0.201921,0.3994383 -0.04694,0.5079911 0.451484,0.3166176 0.41729,-0.1601347 0.638116,-0.4863162 0.49072,-0.724808 C 55.297342,6.019038 55.491091,5.9444472 55.874996,6.0918321 56.25902,6.2392159 56.952995,5.980033 57.417119,5.5159149 58.12788,4.805155 58.330155,4.781358 58.69963,5.364995 c 0.241273,0.3811244 0.442036,0.465104 0.446152,0.1866213 0.0039,-0.2784828 0.587936,-0.5544154 1.297351,-0.6130965 0.70941,-0.058711 2.392785,-0.4342712 3.740823,-0.8346199 1.348026,-0.400308 2.644541,-0.6082283 2.881116,-0.4620321 0.236586,0.1462252 0.433519,-0.023183 0.437638,-0.3764877 0.0054,-0.5129184 0.09221,-0.5085716 0.428298,0.021445 0.294021,0.4640026 0.698255,0.5281029 1.341918,0.2128755 0.506598,-0.2481713 1.693981,-0.4222738 2.638584,-0.386978 0.944603,0.035353 2.269495,-0.1876064 2.944206,-0.4953574 0.67471,-0.307751 2.206892,-0.6179069 3.404848,-0.6892694 1.197956,-0.071344 3.295695,-0.3373089 4.661666,-0.5910149 2.540026,-0.47176899 2.709436,-0.48028857 5.673133,-0.2851478 0.944603,0.062187 1.899876,-0.11092916 2.122841,-0.38477575 0.26492,-0.32536979 0.495052,-0.27494721 0.664256,0.14552968 0.20036,0.49790757 0.474091,0.44864417 1.210518,-0.21785978 0.869287,-0.7866948 0.924031,-0.78929136 0.632658,-0.0301384 -0.316843,0.82568845 0.292627,1.14244565 0.944322,0.49077875 0.383953,-0.38396418 9.136952,-0.53169627 8.901142,-0.15028206 -0.0834,0.13492376 0.60009,0.24533136 1.51892,0.24533136 0.91883,0 1.67059,-0.123042 1.67059,-0.27349843 0,-0.15039816 0.71765,-0.20279115 1.59478,-0.11637746 0.87713,0.0864131 2.75819,0.23200132 4.18012,0.32351519 1.42195,0.091513 2.71435,0.2954062 2.872,0.4530489 0.15764,0.1576426 0.77238,0.1019465 1.36608,-0.1237959 0.5937,-0.225742 1.40472,-0.22835 1.80229,-0.00581 0.39759,0.2224966 3.36696,0.5089193 6.59865,0.6365288 3.23169,0.1276215 6.48304,0.4700881 7.22524,0.7611127 0.97388,0.3818777 1.34942,0.3792118 1.34942,-0.00928 0,-0.3610712 0.24057,-0.3389896 0.72966,0.06694 0.40128,0.333078 2.05666,0.6361113 3.67857,0.6734587 2.25936,0.052161 2.95106,0.2399993 2.9581,0.8039545 0.009,0.6542638 0.0621,0.6542638 0.48488,0 0.36704,-0.5679773 0.47739,-0.5839792 0.48319,-0.070186 0.004,0.3891221 0.31342,0.5485033 0.74356,0.3834423 0.83505,-0.3204432 2.30336,0.1159709 2.00823,0.5968981 -0.10681,0.1741028 0.83286,0.3453646 2.08829,0.3804866 2.44913,0.06856 5.74737,0.5691369 6.94426,1.0539635 0.40483,0.1639594 0.95686,0.3345261 1.22676,0.3789796 3.30833,0.5450837 4.66165,0.9033733 4.66165,1.2342087 0,0.2186136 0.38646,0.3832108 0.85874,0.3658233 0.4723,-0.017383 2.49619,0.5387673 4.49757,1.2360001 2.00133,0.6972269 3.82306,1.1538049 4.04829,1.0146219 0.22517,-0.139212 0.40948,-0.0674 0.40948,0.159497 0,0.377531 2.94729,1.42487 5.20269,1.848801 0.51211,0.09627 1.04148,0.218033 1.17641,0.270658 0.13499,0.05274 0.41098,0.06949 0.61338,0.03768 0.20244,-0.03188 0.36803,0.125882 0.36803,0.350813 0,0.22493 0.27599,0.433458 0.61338,0.46348 3.02939,0.269384 5.09304,0.784835 5.41067,1.351462 0.20957,0.373763 0.67103,0.568325 1.02546,0.432301 0.35447,-0.136026 0.92774,0.09394 1.27388,0.511063 0.34617,0.417116 0.89984,0.758383 1.23037,0.758383 0.33053,0 0.86241,0.496864 1.18185,1.104078 0.45966,0.873614 0.52022,0.899225 0.29026,0.122695 -0.21915,-0.74007 0.13915,-0.565543 1.45693,0.709635 0.97513,0.94359 1.74754,1.395445 1.74754,1.022295 0,-0.367794 0.16529,-0.503471 0.36727,-0.301491 0.20203,0.201979 -0.0611,0.680426 -0.58449,1.063185 -0.88967,0.65057 -0.84164,0.696426 0.73685,0.703445 0.92871,0.0039 1.46773,0.169755 1.19785,0.368025 -0.2699,0.198271 -0.55836,0.673912 -0.64105,1.056954 -0.12679,0.586906 -0.0255,0.59272 0.64424,0.03709 0.70557,-0.585608 0.75921,-0.518482 0.47861,0.599452 -0.19571,0.779846 -0.0853,1.401502 0.29031,1.633614 0.41532,0.256691 0.48127,0.172422 0.20927,-0.267644 -0.26886,-0.435025 -0.2058,-0.524162 0.19543,-0.276223 0.32584,0.201399 0.50876,0.617159 0.40646,0.92396 -0.10227,0.306824 0.21734,0.99065 0.71018,1.519664 0.99888,1.072161 1.15262,1.758185 0.39407,1.758185 -0.27605,0 -0.15064,0.536216 0.27876,1.191609 0.72967,1.113578 0.7178,1.225331 -0.18145,1.706588 -0.85466,0.457396 -1.00654,0.310474 -1.35848,-1.314282 -0.21786,-1.006096 -0.41532,-2.050079 -0.43872,-2.319968 -0.0608,-0.701185 -1.20016,-2.549747 -1.21808,-1.976294 -0.009,0.262486 -0.36866,-0.02782 -0.80101,-0.645106 -0.43236,-0.617282 -0.67159,-1.236852 -0.53159,-1.376835 0.34003,-0.340034 -1.56734,-2.227705 -3.02547,-2.99426 -1.44643,-0.760406 -1.69993,-0.769888 -1.25305,-0.04695 0.21201,0.343047 0.13513,0.433634 -0.19498,0.229626 -0.29979,-0.185288 -0.43154,-0.63286 -0.29267,-0.994615 0.18488,-0.481796 -0.11618,-0.598568 -1.12552,-0.43659 -1.04971,0.168481 -1.20488,0.10084 -0.65152,-0.284104 0.56631,-0.393934 0.27559,-0.577308 -1.31914,-0.832342 -1.19451,-0.191026 -2.17116,-0.654542 -2.34756,-1.114192 -0.2622,-0.683306 -0.36461,-0.691849 -0.77629,-0.0648 -0.39897,0.607642 -0.62849,0.538418 -1.44571,-0.436126 -0.5343,-0.637149 -0.97144,-0.989348 -0.97144,-0.782678 0,0.206673 -0.44163,-0.02376 -0.98141,-0.512397 -0.75052,-0.679196 -0.98316,-0.72595 -0.9889,-0.198734 -0.004,0.412479 -0.15238,0.492286 -0.36803,0.198734 -0.19827,-0.269905 -1.13337,-0.490721 -2.07798,-0.490721 -0.94459,0 -2.01129,-0.278078 -2.37039,-0.617883 -0.35914,-0.33986 -0.85596,-0.492403 -1.10407,-0.339049 -0.24816,0.153354 -0.45113,0.05216 -0.45113,-0.225452 0,-0.277324 -0.32936,-0.377879 -0.73193,-0.223424 -0.40692,0.156136 -0.85755,-0.04637 -1.01487,-0.456583 -0.17864,-0.465394 -0.8819,-0.720468 -1.90647,-0.691426 -0.92497,0.02609 -1.98126,-0.31175 -2.45509,-0.785571 -0.89636,-0.896407 -1.99548,-1.146595 -1.49753,-0.340902 0.48319,0.781856 -0.32397,0.568905 -1.39512,-0.368026 -0.72813,-0.636906 -0.88716,-0.66859 -0.61563,-0.122694 0.28555,0.57412 0.22319,0.564731 -0.2837,-0.04289 -0.35736,-0.428418 -1.0362,-0.820113 -1.5085,-0.870414 -0.47229,-0.05042 -1.30036,-0.133532 -1.84013,-0.18494 -0.53976,-0.05158 -0.98141,-0.2307847 -0.98141,-0.3985699 0,-0.1677841 -0.82805,-0.34038 -1.84013,-0.3835578 -1.01208,-0.042885 -2.39217,-0.2104993 -3.06688,-0.3718513 -0.67472,-0.1614103 -1.61317,-0.286423 -2.08549,-0.2778449 -0.47227,0.00865 -0.85871,-0.1914903 -0.85871,-0.4446453 0,-0.2530977 -0.16565,-0.4132908 -0.36803,-0.3559718 -0.20245,0.057382 -0.87224,-0.1752033 -1.4885,-0.5167432 -0.61626,-0.3415399 -2.34432,-0.7101166 -3.84012,-0.8190402 -1.4958,-0.1089019 -3.17219,-0.3416556 -3.72532,-0.517207 -0.67121,-0.2130494 -0.89399,-0.138517 -0.66991,0.224061 0.19068,0.3084471 0.005,0.5432298 -0.42922,0.5432298 -0.42077,0 -0.76502,-0.1950826 -0.76502,-0.4334598 0,-0.2384345 -0.38645,-0.5697736 -0.85871,-0.7363643 -0.4723,-0.166569 -1.18996,-0.429982 -1.59479,-0.5852899 -0.65427,-0.2510102 -0.65427,-0.2239453 0,0.2435349 0.56926,0.4067418 0.32983,0.4986033 -1.05626,0.4054089 -0.98577,-0.0663 -1.69038,-0.2861333 -1.56581,-0.4885767 0.1245,-0.202385 0.0115,-0.3680265 -0.25229,-0.3680265 -0.2633,0 -0.56294,0.25246 -0.6658,0.5610811 -0.13757,0.4127686 -0.48916,0.399381 -1.33004,-0.05042 -0.9295,-0.4974445 -1.22165,-0.4877075 -1.56381,0.05216 -0.32352,0.5105997 -0.4225,0.4579746 -0.42831,-0.2277711 -0.005,-0.6119198 -0.27703,-0.8166351 -0.86623,-0.6523101 -0.47229,0.1317357 -1.35557,0.3822833 -1.96281,0.5568499 -0.69836,0.2007623 -1.10408,0.1055961 -1.10408,-0.2588932 0,-0.3169663 -0.32415,-0.4518899 -0.72034,-0.2998691 -0.39618,0.1520204 -0.8512,0.064681 -1.01117,-0.1941555 -0.18426,-0.29813 -0.62775,-0.290306 -1.21022,0.021445 -1.12073,0.5997958 -1.98345,0.6439639 -1.05208,0.0539 0.46383,-0.2938413 0.12652,-0.486316 -1.10408,-0.6300026 -1.03847,-0.1212457 -1.77503,0.00638 -1.77945,0.3079827 -0.004,0.2831773 -0.24173,0.1836073 -0.52804,-0.2212214 -0.31528,-0.4458041 -0.60617,-0.5316963 -0.73768,-0.2178598 -0.11949,0.2849739 -0.9307,0.4362992 -1.80279,0.3362078 -0.87209,-0.1000915 -2.19286,-0.2223805 -2.93504,-0.2717598 -0.74219,-0.049263 -1.34943,-0.2190769 -1.34943,-0.3771253 0,-0.1580483 -0.33122,-0.2873502 -0.73604,-0.2873502 -0.40483,0 -0.73605,0.1552665 -0.73605,0.3450173 0,0.5202208 -2.15536,0.2993472 -2.56868,-0.2632402 -0.21706,-0.2954061 -0.36351,-0.2221485 -0.36803,0.1840131 -0.008,0.6824421 -1.53103,0.5844371 -3.65028,-0.2348413 C 99.433181,2.7801993 99.286635,2.8703802 99.514108,3.463163 99.77933,4.1542118 99.661562,4.1554519 98.299471,3.4759149 97.202884,2.9288601 96.567989,2.8628646 95.973503,3.2341189 95.405977,3.5885252 94.873338,3.5866705 94.232572,3.2283137 93.565115,2.8547818 93.25651,2.8701404 93.118624,3.2839528 93.013763,3.5986585 92.716292,3.7253523 92.457621,3.5654494 92.19896,3.4056043 91.66578,3.541687 91.272778,3.8678103 c -0.547223,0.45415 -0.714558,0.4562944 -0.714558,0.00928 0,-0.3814141 -0.381121,-0.4629015 -1.099332,-0.2349571 -1.855316,0.5888533 -7.24181,0.5919482 -7.250102,0.00392 -0.0043,-0.3123294 -0.170102,-0.2761645 -0.401012,0.087631 C 81.57815,4.0954509 80.020758,4.4400276 78.06816,4.5611343 76.227806,4.675309 74.497502,4.9932605 74.223047,5.2676861 73.884876,5.6059224 73.412936,5.6001853 72.758593,5.250303 72.064532,4.8788572 71.886906,4.8852904 72.126681,5.2734805 72.329116,5.601169 72.051656,5.813291 71.420879,5.813291 c -0.70086,0 -0.919306,0.1997775 -0.670807,0.6133753 0.250369,0.4167674 0.102374,0.3975259 -0.461746,-0.060106 -0.568152,-0.4608728 -0.83025,-0.4941397 -0.83025,-0.1054232 0,0.4267941 -0.258834,0.4295183 -1.040621,0.011016 -0.731379,-0.3914407 -0.941501,-0.3965411 -0.707088,-0.017383 0.209679,0.3392794 -0.17822,0.5628766 -1.044859,0.6022817 -2.336066,0.106115 -3.285467,0.2941308 -4.813303,0.9530482 -1.623946,0.7003797 -1.996806,0.776217 -5.02897,1.0228868 -1.146619,0.093251 -2.085086,0.2997533 -2.085479,0.4588448 -9.72e-4,0.3613738 -2.396435,1.5337424 -3.588172,1.7561174 -0.600677,0.112087 -0.77209,-0.03362 -0.52903,-0.44905 0.197749,-0.338178 -0.120023,-0.194213 -0.706181,0.319922 -0.586165,0.514135 -1.069131,0.734945 -1.073263,0.490721 -0.0039,-0.24423 -0.191838,-0.153355 -0.417173,0.201921 -0.225279,0.355276 -0.829161,0.724832 -1.341915,0.82118 -0.512746,0.09638 -1.042685,0.225742 -1.177633,0.287466 -0.134929,0.06178 -0.466147,0.163612 -0.736052,0.226321 -0.269905,0.06271 -0.601105,0.157643 -0.736052,0.210963 -0.13493,0.05332 -0.903657,0.203603 -1.708261,0.333948 -0.804598,0.130346 -1.582924,0.431198 -1.729607,0.668503 -0.146689,0.237333 -0.698252,0.368201 -1.225718,0.29077 -0.527465,-0.07743 -1.255421,0.155614 -1.61768,0.517902 -0.36223,0.362231 -1.194914,0.658651 -1.850354,0.658651 -0.65544,0 -1.191703,0.173233 -1.191703,0.384891 0,0.211717 -0.717651,0.818943 -1.594782,1.349427 -1.574184,0.952069 -1.834468,1.041885 -3.342384,1.153278 -0.421404,0.0313 -1.289813,0.544447 -1.92979,1.14065 -0.839204,0.781837 -1.644793,1.042591 -2.8897,0.935337 -1.601186,-0.137938 -1.674606,-0.08542 -1.014419,0.725278 0.63541,0.780307 0.621333,0.840147 -0.131325,0.558182 -0.463661,-0.173697 -0.973531,-0.104613 -1.133045,0.15347 -0.159497,0.258082 -0.718625,0.469276 -1.242467,0.469276 -0.523814,0 -0.952446,0.173813 -0.952446,0.386284 0,0.212468 -0.43601,0.419085 -0.968913,0.45925 -0.532912,0.03999 -1.566781,0.627353 -2.297501,1.304916 -0.73072,0.677567 -1.51887,1.114335 -1.75144,0.970598 -0.23258,-0.143734 -0.749735,0.0099 -1.149267,0.34154 -0.399554,0.33157 -0.857773,0.471536 -1.018318,0.310938 -0.160541,-0.160541 -0.589191,-0.02665 -0.952518,0.298129 -1.533519,1.369636 -2.052269,1.714283 -3.0631928,2.035139 -0.5865104,0.186158 -1.0663825,0.557429 -1.0663825,0.825051 0,0.267645 -0.2494471,0.33244 -0.554358,0.143965 -0.3366125,-0.208008 -0.4648132,-0.07482 -0.3263556,0.339047 0.1254235,0.374923 -0.3990329,1.268101 -1.165448,1.984837 -0.8067769,0.754483 -1.2773056,1.605905 -1.1175525,2.022214 0.1517306,0.395498 -0.067987,1.062975 -0.4883454,1.483324 -0.9130929,0.913094 -1.0238889,2.025506 -0.1509198,1.515039 0.3373671,-0.197285 0.1927064,0.120957 -0.3214282,0.707092 -0.5622399,0.641042 -0.699209,1.06575 -0.3436263,1.06575 0.4188538,0 0.4511358,0.2502 0.1107602,0.858418 -0.3500001,0.625435 -0.2567473,1.11447 0.3436274,1.801809 0.4728118,0.541258 0.5401586,0.776657 0.1581066,0.552212 -0.5179604,-0.304215 -0.5850639,-0.132201 -0.3018981,0.77438 0.2002413,0.641043 0.5295525,1.275938 0.7318564,1.410879 0.2022693,0.134915 0.4616847,0.686986 0.576381,1.226755 0.1147526,0.539751 0.4941981,0.918623 0.8433301,0.841892 0.3491332,-0.07674 1.0243527,0.309665 1.5005212,0.858725 0.4761739,0.549026 1.097123,0.998243 1.3798899,0.998243 0.2827712,0 1.3887794,0.993671 2.4578104,2.208157 1.069037,1.214486 2.191877,2.208157 2.495211,2.208157 0.513324,0 0.762613,0.680575 0.597465,1.631247 -0.03883,0.222496 0.141765,0.27344 0.400888,0.113303 0.501037,-0.309665 3.292743,2.184039 3.108644,2.776778 -0.05987,0.192705 0.191258,0.235189 0.558067,0.09447 0.366809,-0.140717 1.012088,0.08931 1.433997,0.511179 0.421926,0.421926 1.33364,0.813987 2.026074,0.871301 0.692434,0.05737 1.258974,0.276859 1.258974,0.48788 0,0.211021 0.368026,0.383674 0.817841,0.383674 0.449803,0 0.666944,0.150862 0.482548,0.335281 -0.304737,0.304736 1.801034,1.43864 2.793782,1.504363 0.227655,0.01506 1.000492,0.574005 1.717459,1.242062 0.716961,0.668069 1.806585,1.473542 2.421391,1.789951 0.614795,0.316387 0.988193,0.785015 0.829763,1.041353 -0.158454,0.256343 0.122465,0.466088 0.624167,0.466088 0.501732,0 1.177202,0.264979 1.501065,0.588842 0.323863,0.323864 0.592227,0.379037 0.596359,0.122694 0.0039,-0.256401 0.191837,-0.175435 0.417173,0.17984 0.355682,0.560906 1.22416,0.897057 2.67118,1.033911 0.218323,0.02086 0.239419,0.292451 0.04694,0.604066 -0.209515,0.339048 -0.13539,0.43375 0.184708,0.235943 0.29419,-0.18181 1.347949,0.126112 2.341713,0.684285 0.993767,0.558183 1.926161,0.895532 2.071986,0.749708 0.145819,-0.145821 0.561487,-0.01912 0.923664,0.28138 0.496401,0.411956 0.660379,0.380719 0.666041,-0.126931 0.0049,-0.424303 0.140889,-0.484346 0.368027,-0.162164 0.198269,0.281206 1.354183,0.801028 2.56867,1.15518 1.214486,0.354174 2.719058,0.843394 3.343496,1.087222 0.803572,0.313779 1.036548,0.283468 0.797278,-0.103682 -0.235189,-0.380545 0.0168,-0.429402 0.827463,-0.160482 0.641043,0.212586 1.772771,0.401351 2.514961,0.419549 0.742184,0.01797 1.352807,0.254314 1.35694,0.524799 0.0039,0.270485 0.221569,0.160541 0.483185,-0.244287 0.289148,-0.447427 0.478609,-0.505732 0.483187,-0.14866 0.0049,0.368374 0.726467,0.558704 1.93569,0.510483 1.060495,-0.0423 1.84359,-0.213744 1.740213,-0.381007 -0.103391,-0.167263 0.298652,-0.261501 0.89336,-0.209456 0.594723,0.05216 1.357331,-0.12304 1.694692,-0.389122 0.33736,-0.26608 0.613372,-0.340671 0.613372,-0.165756 0,0.174912 0.662451,-0.02434 1.472108,-0.443197 0.809657,-0.418681 1.472108,-0.654977 1.472108,-0.525089 0,0.129874 0.863287,-0.06839 1.918427,-0.440647 1.055161,-0.372256 2.048822,-0.546476 2.208157,-0.387152 0.159324,0.159324 0.28973,0.0088 0.28973,-0.33528 0,-0.360782 0.318993,-0.502544 0.754621,-0.335397 0.415033,0.159266 0.860076,0.01506 0.988947,-0.321022 0.128904,-0.335861 0.905599,-0.638047 1.726045,-0.671576 1.334729,-0.05448 1.475967,0.07518 1.341897,1.232262 -0.08302,0.716312 -0.423487,1.238492 -0.763226,1.170548 -0.337361,-0.06747 -0.613372,0.08549 -0.613372,0.33986 0,0.254374 -0.42419,0.380835 -0.942582,0.280975 -0.518424,-0.09987 -1.063539,0.133651 -1.211361,0.518888 -0.147843,0.38524 -0.606929,0.700402 -1.020222,0.700402 -0.413293,0 -0.751454,0.220816 -0.751454,0.49072 0,0.269906 -0.662451,0.490722 -1.472108,0.490722 -0.809656,0 -1.472097,0.233856 -1.472097,0.519641 0,0.285786 -0.201982,0.39486 -0.448762,0.242261 -0.246845,-0.152543 -0.52411,-0.05158 -0.616085,0.224524 -0.203842,0.611445 -2.438516,0.997409 -7.161184,1.236829 -1.960416,0.0994 -3.76689,0.305838 -4.014378,0.458786 -0.247475,0.152948 -0.594237,0.04464 -0.770541,-0.240579 z M 5.1761772,34.273291 c 0,-0.269905 -0.2338562,-0.490721 -0.5196425,-0.490721 -0.2857841,0 -0.3832108,0.220816 -0.2164094,0.490721 0.1667993,0.269904 0.4006556,0.49072 0.5196404,0.49072 0.1190476,0 0.2164115,-0.220816 0.2164115,-0.49072 z M 119.50962,71.537636 c 0,-0.285785 -0.20303,-0.394165 -0.45115,-0.24081 -0.24811,0.153353 -0.77388,-0.04404 -1.16834,-0.438386 -0.39445,-0.394454 -0.85388,-0.580496 -1.02096,-0.413407 -0.16708,0.16709 -0.30375,0.145995 -0.30375,-0.04694 0,-0.192821 0.57778,-0.886043 1.28399,-1.540521 1.01548,-0.94111 1.47938,-1.085388 2.21831,-0.689936 0.51384,0.275006 1.20576,0.328035 1.53754,0.117884 0.33175,-0.210209 1.15527,-0.440704 1.82999,-0.512222 0.67471,-0.07151 1.66838,-0.207022 2.20815,-0.301086 1.73765,-0.302825 6.83741,-0.965081 7.91729,-1.028127 0.5761,-0.03362 1.44655,-0.385355 1.93432,-0.781589 0.70568,-0.57325 0.80253,-0.580518 0.47416,-0.03535 -0.33257,0.551865 -0.13643,0.61327 1.00988,0.315981 1.3647,-0.353943 2.84676,-0.573367 6.57498,-0.97346 0.9446,-0.10137 2.71111,-0.340729 3.92561,-0.531871 1.21447,-0.191142 2.76019,-0.409987 3.43491,-0.486258 0.67471,-0.07627 1.28197,-0.188244 1.34943,-0.248751 0.0675,-0.06052 0.28826,-0.156136 0.49072,-0.212469 0.64648,-0.179957 3.27839,-1.250686 4.29363,-1.74674 0.93292,-0.455831 2.67835,-0.85647 4.07725,-0.935874 0.35331,-0.02029 0.52469,-0.226845 0.38084,-0.459541 -0.14385,-0.232698 0.22956,-0.391846 0.82973,-0.353712 0.60024,0.03826 1.22171,-0.114006 1.38114,-0.33812 0.15945,-0.224118 0.89808,-0.472348 1.64145,-0.551576 0.74341,-0.07923 1.50742,-0.396191 1.69787,-0.704337 0.19045,-0.308099 0.99745,-0.641397 1.79341,-0.740607 1.70618,-0.212644 4.14609,-1.299087 4.14609,-1.84617 0,-0.21108 0.43816,-0.299406 0.97365,-0.196243 0.53547,0.10311 1.14269,-0.07737 1.34943,-0.40106 0.20667,-0.323691 1.20384,-1.023021 2.21591,-1.554015 1.01207,-0.531002 1.84013,-1.115386 1.84013,-1.298628 0,-0.183261 0.44163,-0.217686 0.9814,-0.07649 0.58654,0.153412 0.98141,0.01506 0.98141,-0.343799 0,-0.350524 0.32907,-0.474147 0.79066,-0.297029 0.56579,0.217107 0.70976,0.09249 0.50609,-0.438212 -0.15654,-0.407901 -0.0707,-0.741617 0.19073,-0.741617 0.26139,0 0.4753,-0.220816 0.4753,-0.490721 0,-0.269904 0.40847,-0.899171 0.9077,-1.398416 0.82199,-0.821964 0.95746,-0.833548 1.43428,-0.122695 0.42574,0.634674 0.4717,0.557719 0.24017,-0.401816 -0.2367,-0.980636 -0.13787,-1.129834 0.56861,-0.858729 0.47027,0.180477 0.94744,0.328094 1.0603,0.328094 0.11287,0 0.20523,0.312734 0.20523,0.69492 0,0.382225 -0.66494,0.989265 -1.47769,1.349016 -0.90609,0.40106 -1.37848,0.912647 -1.22117,1.322517 0.17509,0.456352 0.004,0.571513 -0.53975,0.362868 -0.57986,-0.222496 -0.71628,-0.09708 -0.50191,0.461568 0.16923,0.441052 0.0882,0.639687 -0.19074,0.467307 -0.26677,-0.164888 -0.48503,0.197052 -0.48503,0.804354 0,1.079922 -0.0167,1.083249 -0.76147,0.151615 -0.74003,-0.925699 -0.75288,-0.921439 -0.45764,0.151557 0.2214,0.804599 0.0952,1.104078 -0.46527,1.104078 -0.42302,0 -0.76913,0.213919 -0.76913,0.475305 0,0.261385 -0.30889,0.356783 -0.68638,0.21189 -0.37754,-0.144891 -0.8533,0.0063 -1.05727,0.336555 -0.2527,0.408945 -0.16628,0.473566 0.27152,0.202966 0.42559,-0.263009 0.52394,-0.205341 0.29134,0.170856 -0.24886,0.402742 -0.62441,0.421462 -1.29152,0.06445 -0.74439,-0.398397 -0.88429,-0.356724 -0.67078,0.19972 0.16465,0.428996 -0.12652,0.828886 -0.7471,1.025824 -0.55928,0.177522 -1.01688,0.521727 -1.01688,0.764978 0,0.243245 -0.32068,0.319169 -0.71255,0.168771 -0.3919,-0.150399 -0.99917,-0.09446 -1.34943,0.124259 -0.35029,0.21873 -0.94602,0.444413 -1.32381,0.501559 -0.37776,0.05737 -0.81943,0.284162 -0.98139,0.504515 -0.16201,0.220352 -0.84652,0.47739 -1.52123,0.571222 -0.67472,0.09383 -1.54518,0.425057 -1.93435,0.736052 -0.56855,0.454382 -0.62667,0.420883 -0.29587,-0.170566 0.22643,-0.404829 -0.0822,-0.227366 -0.6855,0.394338 -0.60347,0.621733 -1.33982,1.049564 -1.6363,0.950736 -0.2965,-0.09882 -0.95633,0.237623 -1.46637,0.747649 -0.51001,0.510021 -1.24148,0.806789 -1.62544,0.659445 -0.38396,-0.147327 -0.69813,-0.03014 -0.69813,0.259936 0,0.290307 -0.33122,0.400715 -0.73604,0.245331 -0.40484,-0.155324 -0.73606,-0.07552 -0.73606,0.177465 0,0.252924 -0.33122,0.332789 -0.73605,0.177464 -0.40714,-0.156252 -0.73605,-0.01393 -0.73605,0.317951 0,0.358868 -0.39485,0.497154 -0.9814,0.343801 -0.63784,-0.1668 -0.98142,-0.01506 -0.98142,0.433458 0,0.693315 -0.51608,0.873874 -2.0589,0.720278 -0.45768,-0.04578 -1.49258,0.258661 -2.29975,0.676071 -0.80718,0.417405 -1.84903,0.612553 -2.31523,0.433634 -0.46968,-0.180245 -0.72415,-0.123972 -0.57069,0.12617 0.15231,0.248288 -0.72213,0.501907 -1.94317,0.563573 -1.44107,0.0728 -2.45746,0.417173 -2.8965,0.981401 -0.62394,0.801873 -0.65344,0.80334 -0.38055,0.01912 0.25624,-0.736487 0.10857,-0.791407 -1.10287,-0.410045 -2.73351,0.860521 -4.58795,1.017671 -4.59579,0.389471 -0.005,-0.425752 -0.11273,-0.441516 -0.36803,-0.05389 -0.19827,0.300969 -0.80214,0.683172 -1.34193,0.849304 -1.67259,0.514832 -4.70635,0.790243 -4.46871,0.4057 0.44802,-0.724867 -1.92466,-0.362578 -2.49073,0.380313 -0.44574,0.584964 -0.71629,0.62766 -1.16638,0.18407 -0.38276,-0.377182 -0.97253,-0.430618 -1.70004,-0.153991 -0.6127,0.232928 -1.24711,0.290422 -1.4098,0.127734 -0.16269,-0.162685 -0.29581,-0.06086 -0.29581,0.226322 0,0.287176 -0.77285,0.485736 -1.71746,0.441284 -0.94459,-0.04464 -1.71745,0.114409 -1.71745,0.352956 0,0.238551 -0.44193,0.318185 -0.98209,0.176944 -0.54014,-0.141234 -0.85833,-0.0568 -0.70709,0.188127 0.15122,0.244693 0.0412,0.444936 -0.24468,0.444936 -0.28579,0 -0.51965,-0.233857 -0.51965,-0.519643 z m 68.09595,-24.082114 c -1.13651,-1.196601 -0.64724,-2.222212 1.37907,-2.890953 1.42156,-0.46916 1.59846,-0.687925 1.18333,-1.463579 -0.63993,-1.195748 -0.61608,-1.920985 0.0319,-0.976473 0.39943,0.582044 0.47483,0.47936 0.36048,-0.490722 -0.11086,-0.941312 0.0567,-1.192787 0.72187,-1.080785 0.90799,0.152947 0.98184,-0.824981 0.11488,-1.521779 -0.27554,-0.221453 -0.0604,-0.31627 0.49071,-0.216238 0.53976,0.09801 0.92076,0.457513 0.84657,0.798908 -0.074,0.341423 0.0914,0.480868 0.36802,0.309953 0.69376,-0.428765 0.60115,0.250431 -0.23317,1.709941 -0.45194,0.790561 -0.72486,0.96504 -0.76754,0.490722 -0.0662,-0.735299 -0.29379,-0.283179 -1.18692,2.358584 -0.22911,0.677631 -0.65214,1.028415 -1.05422,0.874128 -0.43219,-0.165874 -0.67158,0.0969 -0.67158,0.737258 0,0.665368 -0.20318,0.872892 -0.61337,0.626455 -0.45978,-0.276224 -0.45386,-0.171552 0.0237,0.418042 0.90307,1.114772 0.0284,1.393237 -0.99413,0.316503 z m 5.37097,-8.909147 c -0.36199,-0.943375 0.91811,-2.542764 1.40483,-1.755223 0.21074,0.341076 0.13499,0.695233 -0.17069,0.797114 -0.30253,0.100851 -0.42835,0.500285 -0.2797,0.887692 0.14866,0.387384 0.0493,0.70435 -0.2204,0.70435 -0.26991,0 -0.60019,-0.285265 -0.73399,-0.633933 z m 0.88352,-3.281541 c -0.84931,-0.938489 -0.83945,-1.003315 0.29199,-1.920568 0.64404,-0.522134 1.27498,-0.845898 1.40206,-0.719512 0.12709,0.126399 -0.0244,0.387848 -0.33712,0.581047 -0.31256,0.19317 -0.50221,0.954033 -0.42136,1.690776 0.17555,1.599418 0.17782,1.598542 -0.93556,0.368257 z"
       style="fill:#000000;stroke-width:0.999997"
       id="path20317" />
  </g>
</svg>
