<?xml version="1.0" encoding="UTF-8" standalone="no"?>
<!-- Created with Inkscape (http://www.inkscape.org/) -->

<svg
   width="413mm"
   height="68mm"
   viewBox="0 0 413 68"
   version="1.1"
   id="svg9300"
   xmlns="http://www.w3.org/2000/svg"
   xmlnsSvg="http://www.w3.org/2000/svg">
  <defs
     id="defs9297" />
  <g
     id="layer1">
    <path
       d="M 42.908443,66.854531 C 41.3476,64.329167 37.475205,47.004697 36.897274,39.961999 35.900182,27.810765 33.806274,15.833061 32.440591,14.467378 31.702182,13.728968 29.24772,14.114599 26.461561,15.406855 20.002708,18.402485 9.4522644,24.430907 7.8310837,26.052136 5.7644641,28.11874 1.8593181,27.621401 0.91937976,25.171925 -0.26738971,22.079342 -0.34464852,22.212942 3.914646,19.99775 c 11.144026,-5.795773 15.723991,-8.62959 15.723991,-9.729034 0,-0.6715488 0.633418,-0.8293668 1.407649,-0.3509618 0.774066,0.4784058 1.769621,-0.07428 2.212121,-1.226884 0.442582,-1.153259 1.595346,-1.793476 2.561548,-1.42267 0.966388,0.370772 2.558053,-0.290873 3.536984,-1.470544 0.978932,-1.179671 2.337634,-1.800079 3.019285,-1.378759 0.681621,0.421289 1.239266,0.135364 1.239266,-0.633911 0,-0.769941 1.25792,-1.157716 2.795388,-0.86156 1.537402,0.296156 2.795369,0.01821 2.795369,-0.616083 0,-1.44561802 6.876907,-2.83310802 9.34578,-1.88572302 2.776088,1.06526802 2.2665,5.84059302 -0.610306,5.71897502 -1.345246,-0.05612 -4.224941,0.614269 -6.399044,1.491676 -3.53713,1.427128 -3.854401,2.072447 -3.014103,6.1304408 0.516374,2.494493 1.823553,5.233736 2.904802,6.087207 1.081282,0.853468 1.965855,2.345656 1.965855,3.315937 0,1.365388 -0.448692,1.3918 -1.984294,0.11721 -1.544336,-1.281692 -1.923083,-1.242071 -1.707848,0.178295 0.151877,1.00386 0.624831,2.454065 1.050246,3.2228 0.836303,1.510822 1.725728,10.225067 1.676105,16.422829 -0.01657,2.113998 0.350796,3.844081 0.816987,3.844626 0.466188,5.44e-4 0.937,1.549948 1.045954,3.443017 0.108944,1.893103 1.166795,4.410328 2.350213,5.593813 1.232001,1.232001 1.935098,3.793171 1.645034,5.991395 -0.278657,2.11175 -0.550216,4.311294 -0.603042,4.88784 -0.125463,1.369349 -3.932385,1.358948 -4.780225,-0.0125 z M 332.88786,62.203218 c -0.86668,-2.484606 -0.89805,-4.318376 -0.0825,-4.82171 0.72306,-0.44671 1.31404,-1.755657 1.31404,-2.908748 0,-1.295063 -0.65205,-1.693239 -1.70711,-1.0415 -2.18978,1.353336 -9.04148,0.837623 -12.34261,-0.929075 -1.98197,-1.060813 -3.01851,-0.710017 -4.60826,1.559852 -3.58407,5.116925 -7.72713,7.349369 -10.05475,5.417737 -2.06006,-1.709715 -2.93731,-6.26269 -0.97233,-5.048499 0.58438,0.361528 2.31164,-0.255051 3.83697,-1.370341 3.71681,-2.717748 1.09616,-4.322041 -7.33422,-4.491267 -11.96788,-0.240193 -15.4899,-8.369801 -6.30182,-14.546152 6.55573,-4.406909 12.13414,-5.78788 14.05075,-3.478394 2.11912,2.553495 -0.96739,6.058531 -6.38356,7.248024 -2.50955,0.551207 -4.52239,1.877009 -4.52239,2.978794 0,1.092012 0.47212,2.027923 1.04827,2.079792 7.47208,0.672375 11.46291,1.795194 14.6191,4.112966 4.75054,3.488747 5.27105,3.475045 4.57854,-0.120503 -0.37146,-1.927293 1.06311,-4.523542 4.27064,-7.731235 3.90236,-3.90234 5.76926,-4.766228 9.72411,-4.499884 3.65457,0.246135 4.8945,0.965394 4.8945,2.839331 0,2.15814 -0.96573,2.644718 -4.92009,2.479289 -1.67442,-0.06932 -8.14065,7.003275 -7.23237,7.91152 0.54477,0.545098 4.65017,0.84175 9.12222,0.659169 10.36233,-0.422938 12.443,1.540043 8.40033,7.925205 -1.56662,2.474932 -3.49346,4.499884 -4.28073,4.499884 -0.8964,0 -0.83366,0.720086 0.16677,1.925823 1.25299,1.510493 1.00699,2.08042 -1.14236,2.642669 -2.0721,0.541962 -3.0824,-0.261652 -4.1389,-3.292594 z M 223.33958,60.717487 c 0.95419,-1.179177 1.38835,-2.49017 0.96575,-2.91324 -0.42261,-0.423103 -1.03342,-9.053172 -1.35699,-19.178001 -0.32355,-10.124849 -0.85181,-18.840741 -1.17538,-19.368655 -0.3219,-0.52793 -0.80723,-2.835074 -1.07632,-5.126995 -0.35823,-3.043026 0.14856,-4.2911398 1.86146,-4.6268168 4.183,-0.817645 5.77585,5.1268978 5.90857,22.0479408 0.0661,8.853606 0.60091,16.829937 1.18364,17.725187 0.58109,0.895237 0.26744,2.001447 -0.69829,2.458227 -1.7198,0.81352 8.11887,0.06109 19.20969,-1.467904 6.45287,-0.889953 14.60457,-0.730483 16.30277,0.318938 0.64215,0.397186 1.16877,-0.535854 1.16877,-2.073256 0,-1.5374 -0.62895,-3.184103 -1.39824,-3.659207 -2.67465,-1.653074 -1.36687,-5.960523 3.4928,-11.504745 5.42424,-6.187939 9.5983,-6.619363 14.24419,-1.472194 2.46828,2.734703 2.39716,2.917101 -2.94472,7.540333 -3.01075,2.605808 -6.31272,4.737833 -7.33785,4.737833 -3.06227,0 -2.11074,3.588456 1.45767,5.498429 2.10625,1.127338 6.28728,1.527167 11.42757,1.092672 l 8.10599,-0.685088 -3.39094,2.606617 c -1.86509,1.433566 -4.33438,2.673014 -5.48745,2.754167 -1.15393,0.0809 -3.66896,0.32455 -5.59081,0.540971 -1.9219,0.216421 -4.96219,-0.155173 -6.75628,-0.825406 -1.7943,-0.670231 -3.88651,-0.832999 -4.64938,-0.361364 -0.76267,0.471638 -7.08692,1.100268 -14.05318,1.397249 -6.96628,0.296982 -13.365,1.087721 -14.21943,1.757488 -0.85514,0.669735 -2.49702,1.23002 -3.65015,1.245208 -3.34735,0.04457 -9.58231,1.464271 -11.50779,2.62159 -1.4164,0.851324 -1.42301,0.635562 -0.0329,-1.080127 z m 137.33492,0.460906 c -6.83585,-3.097667 -7.95891,-4.728175 -6.97205,-10.124054 0.53157,-2.907676 1.86706,-6.187114 2.96751,-7.287628 2.09142,-2.091283 11.34306,-4.104233 10.17461,-2.21374 -0.36813,0.596934 1.08128,1.991095 3.22206,3.098228 10.34449,5.349376 11.55786,13.105539 2.48828,15.905383 -6.17818,1.907251 -8.747,2.041691 -11.8804,0.621861 z m 7.78078,-5.877471 c 3.65341,-1.388993 3.69253,-1.518253 1.27277,-4.193046 -3.35609,-3.708519 -8.59907,-3.59623 -9.80697,0.209982 -0.591,1.863305 -0.23609,3.417662 0.95416,4.171653 2.4427,1.547801 3.05367,1.532614 7.58086,-0.188691 z M 66.705486,57.003916 c -1.290772,-1.4263 -2.019803,-2.920485 -1.620108,-3.320278 0.399663,-0.399827 -0.223852,-2.550111 -1.386022,-4.778492 -2.380686,-4.565239 -2.785464,-8.943492 -0.826562,-8.943492 0.716784,0 1.702252,-1.256435 2.189753,-2.792118 1.509834,-4.757493 6.3518,-4.678817 16.80973,0.273208 l 9.74734,4.615476 -5.168366,0.429374 c -3.079112,0.255877 -6.571522,-0.48996 -8.639396,-1.844798 -3.321467,-2.176383 -3.567602,-2.126545 -5.719916,1.158209 -1.464271,2.234623 -1.941933,4.829387 -1.368854,7.435541 2.115961,9.624783 0.496728,12.755482 -4.017517,7.767354 z m 84.576764,0.695158 c -1.57108,-1.949495 -7.2283,-23.217392 -8.0641,-30.316628 -2.35693,-20.0213538 -2.07039,-24.6924938 1.51413,-24.6924938 1.27228,0 2.37565,1.910288 2.89293,5.008384 0.45993,2.7546128 1.33419,6.8952638 1.94308,9.2014478 0.60882,2.306187 1.13428,5.450983 1.16812,6.988435 0.0577,2.62258 3.8537,24.404575 5.38696,30.909123 0.80081,3.396911 -2.73429,5.51581 -4.84102,2.901732 z m 235.14014,0.609315 c 0.53484,-0.866015 0.38133,-1.57438 -0.34171,-1.57438 -2.11272,0 -4.8542,-12.725503 -3.11608,-14.463644 0.8089,-0.808568 1.47087,-3.388328 1.47087,-5.732944 8.5e-4,-4.508599 0.14857,-4.552195 12.85586,-3.719676 1.30581,0.08584 4.07075,1.727972 6.14433,3.649782 2.07377,1.921826 4.37467,3.494225 5.11339,3.494225 0.73792,0 0.98059,0.943439 0.53816,2.096532 -0.44242,1.153094 -0.27236,2.096534 0.37969,2.096534 0.65209,0 1.8225,2.515837 2.60284,5.590756 2.22793,8.776348 -0.88153,7.265491 -7.90954,-3.843652 -7.12193,-11.257322 -12.24424,-9.041188 -13.40543,5.799897 -0.26577,3.400082 -1.34374,5.964058 -2.86613,6.815744 -1.73665,0.972 -2.15943,0.911745 -1.46758,-0.209158 z M 137.51742,56.314652 c -1.61023,-0.922637 -4.18695,-2.445479 -5.72606,-3.384197 -2.33666,-1.425148 -3.32274,-1.252141 -5.97497,1.048267 -9.26279,8.033596 -17.50019,-3.824835 -9.59709,-13.815719 2.48298,-3.138838 4.55226,-4.260004 7.96779,-4.317254 3.9187,-0.06603 4.90071,0.609315 6.51798,4.479777 2.07975,4.977778 8.20738,12.215138 10.34205,12.215138 1.32164,0 1.37084,3.478543 0.0677,4.781776 -0.3683,0.368297 -1.9871,-0.08584 -3.59723,-1.00782 z M 124.46524,45.209951 c 0,-0.779679 -0.9271,-0.6283 -2.09653,0.342212 -1.1531,0.956977 -2.09654,2.368917 -2.09654,3.137651 0,0.779679 0.9271,0.628299 2.09654,-0.342214 1.1531,-0.956976 2.09653,-2.368932 2.09653,-3.137649 z m -25.118697,6.007107 c -0.800975,-1.496625 -1.589238,-4.327011 -1.751729,-6.289596 -0.161781,-1.962567 -0.728172,-3.568296 -1.257422,-3.568296 -0.529086,0 -0.632923,-1.25792 -0.230949,-2.795388 0.401973,-1.537401 1.20955,-2.79537 1.7945,-2.79537 1.201957,0 5.088557,4.361597 4.550597,5.106723 -0.19215,0.266275 -0.29698,0.641341 -0.23293,0.833495 0.0644,0.192149 0.29236,1.607397 0.50729,3.144799 0.2151,1.5374 0.5517,3.424347 0.74782,4.193063 1.28219,5.02037 -1.74907,6.614577 -4.127376,2.170621 z m -5.630445,-22.05068 c -2.44302,-0.921319 -9.783821,-8.740919 -9.783821,-10.42191 0,-1.958376 5.156364,-1.256927 6.988451,0.950539 0.956978,1.153092 1.191228,2.122087 0.520502,2.15332 -0.670561,0.03137 0.958298,1.918128 3.619753,4.193063 4.438902,3.794178 3.87913,5.094986 -1.344917,3.124939 z"
       style="fill:#000000;stroke-width:0.999997"
       id="path21259" />
  </g>
</svg>
