<svg width="29" height="39" viewBox="0 0 29 39" fill="none" xmlns="http://www.w3.org/2000/svg">
<path d="M25.0805 10.1742H26.2876L25.434 9.32067L19.6869 3.57353L18.8333 2.71998V3.92708V9.67422V10.1742H19.3333H25.0805ZM3.125 35.0492V35.5492H3.625H25.375H25.875V35.0492V13.2992V12.7992H25.375H17.5208C16.7925 12.7992 16.2083 12.215 16.2083 11.4867V3.63255V3.13255H15.7083H3.625H3.125V3.63255V35.0492ZM20.2471 19.8409H20.7471V19.8258H21.4404C21.7029 19.8258 21.8959 20.0701 21.8315 20.3292C21.5067 21.6132 20.7968 24.4149 19.2263 30.5988L19.2263 30.5988L19.2248 30.6049C19.1816 30.7843 19.0231 30.9091 18.8349 30.9091H16.9695C16.7856 30.9091 16.6227 30.7805 16.5791 30.6028L16.5791 30.6028L16.5781 30.599C16.1956 29.0904 15.3157 25.5649 15.233 25.2333L15.2315 25.2277L15.0158 23.9405L14.0249 23.9762C13.9898 24.3485 13.9189 24.762 13.8106 25.2101C13.8104 25.2108 13.8103 25.2114 13.8101 25.2121L12.4593 30.6003L12.4593 30.6003L12.4582 30.6049C12.415 30.7843 12.2564 30.9091 12.0682 30.9091H10.1651C9.96686 30.9091 9.81024 30.7819 9.76763 30.6049L9.76712 30.6028C9.54061 29.6793 9.11308 27.9255 8.65993 26.0667C8.13802 23.9257 7.5821 21.6452 7.26017 20.3334C7.20028 20.081 7.39315 19.8333 7.65781 19.8333H8.92656C9.12357 19.8333 9.28947 19.9718 9.327 20.1618C9.41082 20.5927 9.52481 21.1758 9.6522 21.8275C10.1044 24.1409 10.7254 27.3178 10.7646 27.6092L10.766 27.6193L10.7678 27.6293C10.7834 27.7181 10.7898 27.7906 10.7967 27.8677C10.7977 27.88 10.7988 27.8923 10.8 27.9049L11.7951 27.9127C11.8002 27.865 11.8044 27.824 11.8093 27.7831C11.858 27.3759 11.9732 26.9766 13.6551 20.1525C13.7056 19.9675 13.8732 19.8409 14.0544 19.8409H15.0589C15.2507 19.8409 15.4122 19.9695 15.4563 20.1527C17.1041 27.0266 17.1757 27.2827 17.2177 27.5435C17.2219 27.5693 17.2257 27.5952 17.2308 27.6275L17.2307 27.6275L17.2323 27.6369C17.2462 27.7155 17.2556 27.7756 17.2649 27.8351C17.271 27.8743 17.2771 27.9132 17.2844 27.9569L18.2762 27.9117C18.2802 27.8585 18.2835 27.8123 18.2876 27.7662C18.3268 27.3208 18.4359 26.8815 19.8528 20.1615L19.8528 20.1615L19.8538 20.1564C19.8895 19.9781 20.0516 19.8409 20.2471 19.8409ZM21.2454 1.4184L27.5816 7.7546C28.1677 8.34072 28.5 9.14254 28.5 9.96875V35.0492C28.5 36.7744 27.1002 38.1742 25.375 38.1742H3.625C1.89984 38.1742 0.5 36.7744 0.5 35.0492V3.63255C0.5 1.90806 1.8994 0.507003 3.62598 0.5H19.0388C19.8639 0.5 20.6585 0.831487 21.2454 1.4184Z" fill="rgba(78, 60, 2, 0.727)" stroke="rgba(123, 96, 8, 0.727)"/>
</svg>
