<?xml version="1.0" encoding="UTF-8" standalone="no"?>
<!-- Created with Inkscape (http://www.inkscape.org/) -->

<svg
   width="1218.8mm"
   height="161.681mm"
   viewBox="0 0 1218.8 161.681"
   version="1.1"
   id="svg59784"
   xmlns="http://www.w3.org/2000/svg"
   xmlnsSvg="http://www.w3.org/2000/svg">
  <defs
     id="defs59781" />
  <g
     id="layer1">
    <g
       id="g64734"
       transform="translate(-304.74334,57.93759)"
       style="fill:#febe05;fill-opacity:1">
      <path
         style="color:#000000;fill:#febe05;stroke-width:1;stroke-linecap:square;-inkscape-stroke:none;paint-order:stroke fill markers;fill-opacity:1"
         d="m 319.74021,77.28639 h -2.94494 -9.10742 -2.94451 v 26.45702 h 2.94451 9.10742 2.94494 z"
         id="path64312-3" />
      <path
         style="color:#000000;fill:#febe05;stroke-width:1;stroke-linecap:square;-inkscape-stroke:none;paint-order:stroke fill markers;fill-opacity:1"
         d="m 355.47511,-57.937474 v 19.476169 60.231235 19.47329 h 26.45703 V 21.76993 -38.461305 -57.937474 Z"
         id="path64312-5-1" />
      <path
         id="path63499-5-17"
         style="color:#000000;fill:#febe05;stroke-linecap:round;stroke-linejoin:round;-inkscape-stroke:none;paint-order:stroke fill markers;fill-opacity:1"
         d="m 355.47292,41.24323 c 0,20.1067 -15.88609,36.04327 -35.73219,36.04327 h -5.2e-4 v 26.45679 h 5.2e-4 c 34.23548,0 62.19104,-28.1839 62.19104,-62.50006 z" />
    </g>
    <path
       style="color:#000000;fill:#febe05;stroke-width:0.999999;stroke-linecap:square;-inkscape-stroke:none;paint-order:stroke fill markers;fill-opacity:1"
       d="m 93.5388,61.918475 v 19.62111 60.679525 19.61823 h 26.45705 V 142.21911 81.539605 61.918475 Z"
       id="path64312-5-9" />
    <path
       style="color:#000000;fill:#febe05;stroke-width:1;stroke-linecap:square;-inkscape-stroke:none;paint-order:stroke fill markers;fill-opacity:1"
       d="m 370.72944,62.60405 v 19.47616 60.23126 19.47329 h 26.45703 V 142.31147 82.08022 62.60405 Z"
       id="path64312-5-9-5" />
    <path
       style="color:#000000;fill:#febe05;stroke-width:0.999999;stroke-linecap:square;-inkscape-stroke:none;paint-order:stroke fill markers;fill-opacity:1"
       d="m 462.5175,62.515475 v 19.47616 60.231265 19.47328 h 26.457 V 142.2229 81.991635 62.515475 Z"
       id="path64312-5-9-5-0-8" />
    <path
       style="color:#000000;fill:#febe05;stroke-width:1;stroke-linecap:square;-inkscape-stroke:none;paint-order:stroke fill markers;fill-opacity:1"
       d="m 370.72945,89.06108 h 14.93339 46.18245 14.93119 V 62.60405 h -14.93119 -46.18245 -14.93339 z"
       id="path64312-5-9-5-15" />
    <path
       style="color:#000000;fill:#febe05;stroke-width:1;stroke-linecap:square;-inkscape-stroke:none;paint-order:stroke fill markers;fill-opacity:1"
       d="m 370.72943,161.69618 h 14.93339 46.18247 14.93118 v -26.45703 h -14.93118 -46.18246 -14.9334 z"
       id="path64312-5-9-5-15-97" />
    <path
       id="path64312-5-9-5-8"
       style="color:#000000;fill:#febe05;stroke-width:1;stroke-linecap:square;-inkscape-stroke:none;paint-order:stroke fill markers;fill-opacity:1"
       d="m 230.14579,117.20674 -20.46129,16.7721 12.34705,15.06264 10.42055,12.7124 h 34.2098 l -24.16906,-29.48501 z" />
    <path
       style="color:#000000;fill:#febe05;stroke-width:1;stroke-linecap:square;-inkscape-stroke:none;paint-order:stroke fill markers;fill-opacity:1"
       d="m 185.93571,62.588876 v 19.47616 60.231264 19.47328 h 26.45703 V 142.2963 82.065046 62.588876 Z"
       id="path64312-5-9-5-7" />
    <path
       style="color:#000000;fill:#febe05;stroke-width:1;stroke-linecap:square;-inkscape-stroke:none;paint-order:stroke fill markers;fill-opacity:1"
       d="m 683.82641,62.500292 v 19.476169 60.231259 19.47329 h 26.45703 V 142.20772 81.976471 62.500292 Z"
       id="path64312-5-9-5-7-3" />
    <path
       style="color:#000000;fill:#febe05;stroke-width:1;stroke-linecap:square;-inkscape-stroke:none;paint-order:stroke fill markers;fill-opacity:1"
       d="m 1192.3428,62.499967 v 19.476169 60.231264 19.47329 h 26.457 V 142.2074 81.976146 62.499967 Z"
       id="path64312-5-9-5-7-3-3" />
    <path
       style="color:#000000;fill:#febe05;stroke-width:1;stroke-linecap:square;-inkscape-stroke:none;paint-order:stroke fill markers;fill-opacity:1"
       d="M 1106.7286,1.04726e-8 V 31.749371 129.93631 161.681 h 26.4571 V 129.93631 31.749388 1.04726e-8 Z"
       id="path64312-5-9-5-7-3-9" />
    <path
       style="color:#000000;fill:#febe05;stroke-width:1;stroke-linecap:square;-inkscape-stroke:none;paint-order:stroke fill markers;fill-opacity:1"
       d="m 1149.5357,8.5e-6 v 31.7493715 98.18694 31.74469 h 26.4571 V 129.93632 31.749397 8.5e-6 Z"
       id="path64312-5-9-5-7-3-9-38" />
    <path
       style="color:#000000;fill:#febe05;stroke-width:1;stroke-linecap:square;-inkscape-stroke:none;paint-order:stroke fill markers;fill-opacity:1"
       d="m 974.90065,62.499666 v 19.47617 60.231264 19.47329 h 26.45715 V 142.2071 81.975848 62.499666 Z"
       id="path64312-5-9-5-7-3-0" />
    <path
       style="color:#000000;fill:#febe05;stroke-width:0.999999;stroke-linecap:square;-inkscape-stroke:none;paint-order:stroke fill markers;fill-opacity:1"
       d="m 159.47938,113.58123 h -10.96427 -33.9077 -10.96266 v 16.34999 h 10.96266 33.90769 10.96428 z"
       id="path64312-5-9-5-9" />
    <path
       style="color:#000000;fill:#febe05;stroke-width:0.999997;stroke-linecap:square;-inkscape-stroke:none;paint-order:stroke fill markers;fill-opacity:1"
       d="m 419.66857,103.56453 h -8.82961 -27.30618 -8.82833 v 16.35 h 8.82833 27.30616 8.82963 z"
       id="path64312-5-9-5-9-3" />
    <path
       style="color:#000000;fill:#febe05;stroke-width:0.999998;stroke-linecap:square;-inkscape-stroke:none;paint-order:stroke fill markers;fill-opacity:1"
       d="m 143.12868,106.84565 v 10.81615 33.44967 10.81457 h 26.45703 v -10.81457 -33.44965 -10.81617 z"
       id="path64312-5-9-5-1" />
    <path
       style="color:#000000;fill:#febe05;stroke-width:0.999997;stroke-linecap:square;-inkscape-stroke:none;paint-order:stroke fill markers;fill-opacity:1"
       d="m 24.274741,26.457142 h 10.390765 32.134057 10.38924 V 1.1155586e-4 H 66.799563 34.665512 24.274741 Z"
       id="path64312-5-9-0" />
    <path
       id="path63499-5-93"
       style="color:#000000;fill:#febe05;stroke-width:1;stroke-linecap:round;stroke-linejoin:round;-inkscape-stroke:none;paint-order:stroke fill markers;fill-opacity:1"
       d="m 667.59991,-1.0972071e-5 c -42.48071,0 -77.16962,36.454337972071 -77.16962,80.840523972071 0,44.386187 34.68891,80.840507 77.16962,80.840497 0.26286,0 0.5239,-0.008 0.78613,-0.0103 v -26.45824 c -0.26262,0.005 -0.52239,0 -0.78613,0 -24.62581,0 -50.71127,-28.36496 -50.71127,-54.371928 0,-26.00695 26.08546,-54.381857 50.71127,-54.381877 0.26375,0 0.52351,-0.0047 0.78613,0 V 0.01063403 c -0.26223,-0.0026 -0.52327,-0.0103500021 -0.78613,-0.0103500021 z" />
    <path
       style="color:#000000;fill:#febe05;stroke-linecap:square;-inkscape-stroke:none;paint-order:stroke fill markers;fill-opacity:1"
       d="m 223.95915,61.762016 c -21.01668,0 -38.02344,17.6189 -38.02344,38.625004 -1e-5,21.00611 17.00676,38.625 38.02344,38.625 21.01667,0 38.02344,-17.61889 38.02343,-38.62501 0,-21.006094 -17.00676,-38.624994 -38.02343,-38.624994 z m 0,26.45704 c 6.371,0 11.5664,5.122607 11.5664,12.167964 0,7.04536 -5.1954,12.16602 -11.5664,12.16602 -6.37101,0 -11.56641,-5.12066 -11.56641,-12.16602 0,-7.045357 5.19541,-12.167964 11.56641,-12.167964 z"
       id="path67186" />
    <path
       id="path64312-5-9-5-8-5"
       style="color:#000000;fill:#febe05;stroke-width:1;stroke-linecap:square;-inkscape-stroke:none;paint-order:stroke fill markers;fill-opacity:1"
       d="m 322.54266,117.20674 -20.46129,16.77209 12.34705,15.06265 10.42055,12.7124 h 34.2098 L 334.8897,132.26886 Z" />
    <path
       style="color:#000000;fill:#febe05;stroke-width:1;stroke-linecap:square;-inkscape-stroke:none;paint-order:stroke fill markers;fill-opacity:1"
       d="m 278.33258,62.588875 v 19.47616 60.231265 19.47328 H 304.7896 V 142.2963 82.065045 62.588875 Z"
       id="path64312-5-9-5-7-5" />
    <path
       style="color:#000000;fill:#febe05;stroke-linecap:square;-inkscape-stroke:none;paint-order:stroke fill markers;fill-opacity:1"
       d="m 316.35602,61.762015 c -21.01668,0 -38.02344,17.6189 -38.02344,38.625005 -2e-5,21.00611 17.00676,38.625 38.02344,38.625 21.01666,0 38.02344,-17.61889 38.02343,-38.62501 0,-21.006095 -17.00676,-38.624995 -38.02343,-38.624995 z m 0,26.45704 c 6.37099,0 11.56639,5.122607 11.56639,12.167965 0,7.04536 -5.1954,12.16602 -11.56639,12.16602 -6.37102,0 -11.56642,-5.12066 -11.56642,-12.16602 0,-7.045358 5.19541,-12.167965 11.56642,-12.167965 z"
       id="path67186-74" />
    <path
       id="path78176"
       style="color:#000000;fill:#febe05;stroke-width:1;stroke-linecap:square;-inkscape-stroke:none;paint-order:stroke fill markers;fill-opacity:1"
       d="m 488.9745,62.587645 v 26.45833 c 7.85776,0 26.61286,10.172457 26.61286,23.132045 0,14.41744 -18.7551,23.04472 -26.61286,23.04472 V 161.681 c 25.92124,0 53.07121,-22.53344 53.07119,-49.50298 0,-26.969535 -27.14994,-49.590355 -53.07119,-49.590375 z" />
    <path
       id="path67186-7-7"
       style="color:#000000;fill:#febe05;stroke-linecap:square;-inkscape-stroke:none;paint-order:stroke fill markers;fill-opacity:1"
       d="m 131.56206,68.220615 c -21.01665,0 -38.02352,17.61896 -38.02352,38.625035 h 26.45731 c 0,-7.04535 5.19522,-12.167738 11.56621,-12.167738 6.371,0 11.56674,5.122388 11.56674,12.167738 h 26.45678 c 0,-21.006075 -17.00686,-38.625035 -38.02352,-38.625035 z" />
    <path
       style="color:#000000;fill:#febe05;stroke-width:0.999999;stroke-linecap:square;-inkscape-stroke:none;paint-order:stroke fill markers;fill-opacity:1"
       d="m 726.35642,61.762152 v 19.621109 60.679529 19.61822 h 26.45703 V 142.06279 81.383281 61.762152 Z"
       id="path64312-5-9-8" />
    <path
       style="color:#000000;fill:#febe05;stroke-width:0.999999;stroke-linecap:square;-inkscape-stroke:none;paint-order:stroke fill markers;fill-opacity:1"
       d="m 792.29699,113.4249 h -10.96427 -33.90771 -10.96266 v 16.35 h 10.96266 33.90769 10.96429 z"
       id="path64312-5-9-5-9-65" />
    <path
       style="color:#000000;fill:#febe05;stroke-width:0.999998;stroke-linecap:square;-inkscape-stroke:none;paint-order:stroke fill markers;fill-opacity:1"
       d="m 775.94628,106.68932 v 10.81616 33.44967 10.81457 h 26.45703 v -10.81457 -33.44966 -10.81617 z"
       id="path64312-5-9-5-1-5" />
    <path
       id="path67186-7-7-1"
       style="color:#000000;fill:#febe05;stroke-linecap:square;-inkscape-stroke:none;paint-order:stroke fill markers;fill-opacity:1"
       d="m 764.37966,68.064282 c -21.01666,0 -38.0235,17.61897 -38.0235,38.625038 h 26.45729 c 0,-7.04534 5.19523,-12.167729 11.56621,-12.167729 6.371,0 11.56674,5.122389 11.56674,12.167729 h 26.45679 c 0,-21.006069 -17.00687,-38.625038 -38.02353,-38.625038 z" />
    <path
       style="color:#000000;fill:#febe05;stroke-width:0.999999;stroke-linecap:square;-inkscape-stroke:none;paint-order:stroke fill markers;fill-opacity:1"
       d="m 816.56389,61.762152 v 19.621109 60.679529 19.61822 h 26.4571 V 142.06279 81.383281 61.762152 Z"
       id="path64312-5-9-8-0" />
    <path
       style="color:#000000;fill:#febe05;stroke-width:0.999998;stroke-linecap:square;-inkscape-stroke:none;paint-order:stroke fill markers;fill-opacity:1"
       d="m 866.15379,106.68932 v 10.81616 33.44967 10.81457 h 26.4571 v -10.81457 -33.44966 -10.81617 z"
       id="path64312-5-9-5-1-5-8" />
    <path
       id="path67186-7-7-1-8"
       style="color:#000000;fill:#febe05;stroke-linecap:square;-inkscape-stroke:none;paint-order:stroke fill markers;fill-opacity:1"
       d="m 854.58719,68.064282 c -21.0167,0 -38.0235,17.61897 -38.0235,38.625038 h 26.4573 c 0,-7.04534 5.1952,-12.167729 11.5662,-12.167729 6.371,0 11.5668,5.122389 11.5668,12.167729 h 26.4567 c 0,-21.006069 -17.0068,-38.625038 -38.0235,-38.625038 z" />
    <path
       style="color:#000000;fill:#febe05;stroke-width:0.999999;stroke-linecap:square;-inkscape-stroke:none;paint-order:stroke fill markers;fill-opacity:1"
       d="M 1093.7207,161.68099 V 142.20471 81.973077 62.499663 h -26.4571 v 19.473413 60.231614 19.4763 z"
       id="path64312-5-9-8-0-9" />
    <path
       style="color:#000000;fill:#febe05;stroke-width:0.999998;stroke-linecap:square;-inkscape-stroke:none;paint-order:stroke fill markers;fill-opacity:1"
       d="M 1044.1309,123.05596 V 111.1645 74.389381 62.499668 h -26.4571 v 11.889713 36.775109 11.89147 z"
       id="path64312-5-9-5-1-5-8-4" />
    <path
       id="path67186-7-7-1-8-8"
       style="color:#000000;fill:#febe05;stroke-linecap:square;-inkscape-stroke:none;paint-order:stroke fill markers;fill-opacity:1"
       d="m 1055.6974,161.681 c 21.0167,0 38.0235,-17.61897 38.0235,-38.62504 h -26.4573 c 0,7.04534 -5.1952,12.16773 -11.5662,12.16773 -6.371,0 -11.5667,-5.12239 -11.5667,-12.16773 h -26.4567 c 0,21.00607 17.0068,38.62504 38.0234,38.62504 z" />
    <path
       id="path78454"
       style="color:#000000;fill:#febe05;stroke-linecap:square;-inkscape-stroke:none;paint-order:stroke fill markers;fill-opacity:1"
       d="m 958.55065,62.500911 c -27.23096,2.8e-4 -49.58976,22.358779 -49.58976,49.589739 0,27.23096 22.3588,49.58945 49.58976,49.58974 v -26.45885 c -12.9319,-2.8e-4 -23.1325,-10.19903 -23.1325,-23.13089 0,-12.931873 10.2006,-23.13268 23.1325,-23.13296 z" />
  </g>
</svg>
