<?xml version="1.0" encoding="UTF-8" standalone="no"?>
<!-- Created with Inkscape (http://www.inkscape.org/) -->

<svg
   width="130mm"
   height="88mm"
   viewBox="0 0 130 88"
   version="1.1"
   id="svg9176"
   xmlns="http://www.w3.org/2000/svg"
   xmlnSvg="http://www.w3.org/2000/svg">
  <defs
     id="defs9173" />
  <g
     id="layer1">
    <path
       d="m 123.34868,86.501059 c 0,-0.32593 -0.53437,-0.40028 -1.26457,-0.17591 -0.69547,0.21374 -1.08691,0.20046 -0.86978,-0.0266 0.45738,-0.48392 -0.86972,-1.96999 -1.75971,-1.96999 -0.33124,0 -0.60208,-0.25291 -0.60208,-0.56225 0,-0.30933 -0.19449,-0.49853 -0.43214,-0.42152 -0.23764,0.077 -1.03481,-0.41953 -1.77112,-1.10452 -1.18057,-1.09801 -1.24571,-1.36348 -0.55096,-2.24813 0.71414,-0.9095 0.69749,-0.93247 -0.17921,-0.24561 -0.85992,0.6737 -1.07698,0.51843 -1.96714,-1.40509 -0.55032,-1.18923 -1.25341,-2.35196 -1.56256,-2.58383 -0.36643,-0.27483 -0.33855,-0.56823 0.0804,-0.84304 0.35314,-0.23167 0.54897,-1.18026 0.43547,-2.10761 -0.25425,-2.06798 0.58481,-4.31671 1.92299,-5.15224 2.19443,-1.37044 7.3255,-2.00233 10.35593,-1.27532 3.86359,0.92682 5.30234,2.27403 4.59047,4.29818 -0.56823,1.61585 -4.66448,4.77116 -5.51302,4.24667 -0.27748,-0.17126 -0.97011,0.29341 -1.53905,1.03356 -0.5689,0.73995 -1.04007,1.01942 -1.04698,0.62066 -0.006,-0.47329 -0.42749,-0.33787 -1.20873,0.39034 -0.65783,0.61268 -1.06954,1.44478 -0.91459,1.84851 0.15463,0.40359 0.37703,0.97726 0.49386,1.27465 0.92648,2.36211 6.00207,5.6501 7.82755,5.07073 0.63261,-0.20114 1.09595,-0.087 1.09595,0.2695 0,0.71062 -0.58547,0.93433 -3.5127,1.34211 -1.23157,0.17126 -2.1076,0.0597 -2.1076,-0.27084 z m -0.62597,-13.66326 c 2.27839,-1.17819 2.63162,-2.46885 0.86003,-3.14234 -3.57403,-1.3589 -5.55823,0.0465 -5.35856,3.79772 0.0597,1.09656 0.2403,1.18465 1.47545,0.71499 0.77494,-0.29473 2.13529,-0.91127 3.02308,-1.37037 z m -93.122263,10.52668 c -0.98012,-1.17124 -1.791232,-2.38243 -1.802451,-2.6915 -0.01324,-0.30933 -0.609379,-1.99409 -1.329284,-3.74429 -1.005143,-2.44377 -1.116864,-3.10858 -0.481264,-2.8647 0.669123,0.2569 0.77175,-0.10217 0.536362,-1.87607 -0.159979,-1.2064 -0.554947,-3.20515 -0.876964,-4.44162 -0.321948,-1.23642 -0.733976,-3.49824 -0.914999,-5.0262 -0.18122,-1.52796 -0.447409,-2.896475 -0.59212,-3.041119 -0.445418,-0.445411 -3.641609,-0.389658 -3.641543,0.06634 0,0.234311 -0.45803,0.140109 -1.018288,-0.209776 -0.786285,-0.49122 -1.407414,-0.43479 -2.726476,0.247612 -1.333732,0.689632 -1.867968,0.735635 -2.436391,0.209759 -0.56756,-0.525747 -0.641906,-0.520436 -0.335225,0.01985 0.263533,0.467315 0.10555,0.586149 -0.479273,0.361103 -0.479936,-0.183868 -0.872249,-0.566892 -0.872249,-0.851064 0,-0.284108 -0.77686,-0.114928 -1.726444,0.376373 -1.944903,1.005814 -3.331808,0.388334 -3.331808,-1.484007 0,-1.379475 1.156295,-1.601648 9.401045,-1.806242 3.779482,-0.09362 7.067346,-0.36643 7.306317,-0.60539 0.647218,-0.64789 0.08563,-15.868906 -0.733247,-19.870766 -0.142062,-0.695476 -0.06637,-1.264297 0.173256,-1.263966 0.509144,5.99e-4 0.425503,-5.142488 -0.187196,-11.495969 -0.239636,-2.487306 -0.451392,-5.660527 -0.470643,-7.051547 -0.03319,-2.450795 0.01992,-2.534568 1.792294,-2.705235 1.193401,-0.114847 1.85622,0.07966 1.912178,0.56225 0.04647,0.406252 0.116832,0.991071 0.15533,1.300142 0.03982,0.309337 0.267516,0.878158 0.509807,1.264563 0.241628,0.386339 0.227688,0.70258 -0.03319,0.70258 -0.568887,0 -0.437453,3.366258 0.343191,8.79412 0.343191,2.386008 0.3797,4.707824 0.08962,5.718479 -0.268181,0.935843 -0.345183,1.844203 -0.171264,2.018587 0.36045,0.36045 0.806001,5.941386 0.67669,8.479009 -0.04647,0.927345 -0.05311,2.002252 -0.01992,2.388665 0.118818,1.258978 0.143385,3.183506 0.07435,5.760766 -0.07833,2.935909 0.07302,3.822291 0.900394,5.270933 0.402271,0.703901 0.73358,0.844365 0.994923,0.421521 0.470643,-0.761866 4.059213,-0.851403 4.515784,-0.11283 0.392976,0.63593 -1.705733,1.376941 -2.503437,0.883929 -0.313982,-0.19449 -0.956023,0.03325 -1.426267,0.501841 -0.46998,0.469978 -1.204289,0.720964 -1.631187,0.556933 -0.637923,-0.244948 -0.675893,0.134782 -0.21242,2.13151 0.310001,1.336119 0.637262,3.440926 0.727273,4.677416 0.288095,3.95314 1.413258,9.99503 2.64921,14.22438 1.196389,4.09398 1.196721,4.11164 0.08762,5.22062 -1.108964,1.10902 -1.11879,1.10556 -2.894819,-1.01671 z m -1.633443,-8.03134 c -0.161303,-0.61801 -0.51711,-1.1235 -0.790269,-1.1235 -0.579508,0 -0.634604,0.67284 -0.156654,1.91788 0.480599,1.25223 1.301868,0.56292 0.946861,-0.79438 z m -24.1996808,7.39931 c -0.967771,-0.61402 -1.863055,-3.92551 -1.477115,-5.46324 0.172592,-0.68797 0.03984,-1.41983 -0.293405,-1.62633 -0.83793,-0.51777 -0.766239,-4.9717 0.09493,-5.8995 0.386339,-0.41621 0.435461,-0.60872 0.109537,-0.42817 -0.406254,0.22571 -0.604071,-3.15337 -0.629295,-10.736568 C 1.5321552,47.552915 0.97387916,11.883226 0.73265016,5.2377333 c -0.0697,-1.922534 0.03319,-3.653624 0.224369,-3.84686 C 1.1501892,1.1977043 2.1484972,0.99988727 3.1754142,0.95209227 4.7053022,0.88040227 5.010258,1.0523313 4.864285,1.9047313 c -0.120158,0.700453 0.04647,0.901456 0.508481,0.616017 0.46334,-0.286103 0.54167,-0.189851 0.240299,0.297387 -0.502505,0.813569 -0.554947,39.3225907 -0.05311,40.8966857 0.177237,0.55761 0.08629,1.835442 -0.201136,2.838931 -0.324604,1.131928 -0.323277,1.701144 0.0029,1.499552 0.289423,-0.178574 0.525739,0.08426 0.525739,0.584147 0,0.499856 -0.216402,0.775603 -0.480599,0.61204 -0.264198,-0.163304 -0.392313,0.264205 -0.284776,0.950384 0.455374,2.895943 0.487901,8.272894 0.04647,8.272894 -0.260878,0 -0.291413,0.296052 -0.06838,0.657833 0.223705,0.361781 0.495868,4.597977 0.605398,9.413927 0.268179,11.78546 0.232334,11.28554 0.799894,11.28554 0.785754,0 0.589464,1.67951 -0.300044,2.56922 -0.910817,0.91089 -1.419496,0.98039 -2.4389788,0.33323 z m 0.42285,-74.7015937 c -0.0045,-0.23167 -0.253577,-0.800889 -0.553621,-1.264563 -0.440771,-0.681734 -0.546318,-0.601413 -0.553619,0.421521 -0.0045,0.695478 0.244284,1.264563 0.553619,1.264563 0.309337,0 0.558266,-0.18985 0.553621,-0.421521 z M 43.023067,81.623369 c -0.02655,-0.7138 -0.274155,-1.15558 -0.555612,-0.98178 -0.73962,0.45735 -2.298849,-0.25293 -2.298849,-1.04685 0,-0.37238 -0.559593,-1.27743 -1.243255,-2.01142 -1.047562,-1.12448 -1.226326,-1.90612 -1.135583,-4.96669 0.06904,-2.33238 0.413555,-3.97013 0.962263,-4.57653 0.469978,-0.51911 0.854592,-1.43104 0.854592,-2.02596 0,-2.3035 5.464835,-5.775031 7.882905,-5.007531 0.671779,0.213085 1.765276,0.454708 2.430019,0.536352 7.321319,0.901389 10.234397,4.680749 8.428492,10.935119 -0.93425,3.23549 -3.954862,8.08756 -4.734775,7.60557 -0.242291,-0.15011 -0.781904,0.21375 -1.198513,0.80879 -0.888248,1.26807 -6.101233,2.06784 -7.744965,1.18815 -0.73889,-0.39563 -1.119653,-0.35447 -1.320257,0.14205 -0.155331,0.38368 -0.302035,0.11412 -0.326596,-0.59944 z m 7.261975,-1.98209 c 0,0.41687 3.929636,-4.33422 3.955458,-4.7823 0.01324,-0.20246 0.161303,-1.33432 0.331906,-2.51505 0.502507,-3.46709 -0.05311,-4.61257 -2.751369,-5.64175 -1.329218,-0.50782 -2.829832,-0.92296 -3.334728,-0.92296 -0.505162,0 -1.022271,-0.31332 -1.149856,-0.69594 -0.412228,-1.23575 -2.975074,0.42019 -4.002989,2.58654 -0.521091,1.09775 -1.193202,2.14797 -1.494042,2.33391 -0.300707,0.18587 -0.546982,1.43329 -0.546982,2.77194 0,1.96708 0.350493,2.81185 1.826547,4.40426 2.416477,2.60665 3.633443,3.17953 5.573037,2.62326 0.8761,-0.25092 1.592818,-0.32394 1.592818,-0.16198 z m 18.869062,-0.89003 c -0.80806,-0.89291 -1.11414,-2.31393 -1.31063,-6.08491 -0.14072,-2.70603 -0.5118,-5.23482 -0.82432,-5.61957 -0.31265,-0.38501 -0.43546,-1.20668 -0.27349,-1.82661 0.16197,-0.62 0.12745,-1.12702 -0.077,-1.12702 -0.20445,0 -0.64323,-0.86589 -0.97414,-1.92419 -0.54167,-1.730105 -0.47728,-1.990985 0.63527,-2.58648 1.66643,-0.891902 3.50772,0.108795 3.93448,2.138274 0.17657,0.841106 0.5191,1.908726 0.76033,2.372396 0.24097,0.464 0.39364,1.42846 0.33855,2.14398 l -0.10024,1.30087 1.31381,-1.41684 c 0.72263,-0.77932 1.31382,-1.6744 1.31382,-1.98905 0,-0.85831 2.97388,-2.226486 5.12755,-2.359122 2.28823,-0.140754 4.20014,0.424182 6.19981,1.831862 1.89127,1.33153 3.11893,1.33624 3.53872,0.0129 0.22437,-0.70589 1.29012,-1.25194 3.34004,-1.7107 3.506916,-0.784835 6.955816,-0.01985 8.819006,1.95884 1.24851,1.32516 3.48316,6.9711 2.75914,6.9711 -0.25756,0 -0.0836,0.97992 0.387,2.17762 0.81809,2.08265 0.79942,2.24204 -0.4275,3.65316 -1.52484,1.75374 -2.42026,1.91736 -1.92333,0.35183 0.40294,-1.27047 -0.2476,-1.47087 -1.36911,-0.42152 -0.61667,0.57751 -0.69176,0.45869 -0.41952,-0.66394 0.4401,-1.81447 -1.26876,-7.95281 -2.53019,-9.08812 -0.5503,-0.49521 -0.83607,-1.0641 -0.63593,-1.26457 0.20046,-0.20048 -0.67789,-0.36444 -1.95181,-0.36444 -2.462276,0 -4.725746,1.62562 -5.452756,3.91617 -0.19914,0.62796 -0.59809,1.14208 -0.88665,1.14208 -0.2881,0 -0.52441,0.39298 -0.52441,0.87286 0,0.47993 -0.63195,1.80336 -1.40509,2.94062 -0.77275,1.13724 -1.40503,1.85163 -1.40503,1.58744 0,-0.2642 -0.34717,-0.19184 -0.77195,0.16061 -0.60606,0.50317 -0.9831,0.31862 -1.75591,-0.86104 -0.94368,-1.44013 -0.93837,-1.59593 0.1301,-3.8035 l 1.11401,-2.30177 -1.18464,-1.80006 c -0.81948,-1.24512 -1.53115,-1.73442 -2.30874,-1.58732 -0.61801,0.11687 -1.536,0.23167 -2.03943,0.25425 -0.50317,0.0199 -1.22832,0.79723 -1.61081,1.72066 -0.38236,0.92342 -0.89064,1.5583 -1.12928,1.4108 -0.23831,-0.14737 -0.55959,0.42485 -0.71353,1.27173 -0.60739,3.34562 -3.11978,9.25448 -3.76494,8.85572 -0.26487,-0.16395 -0.57287,-0.0265 -0.68439,0.31134 -0.11351,0.34054 -0.66727,0.0956 -1.25707,-0.55629 z m 16.2577,-11.28595 c 0.19118,-0.30933 0.0797,-0.56224 -0.2476,-0.56224 -0.32726,0 -0.59544,0.25291 -0.59544,0.56224 0,0.30934 0.11152,0.56225 0.2476,0.56225 0.13609,0 0.40426,-0.25291 0.59544,-0.56225 z"
       style="fill:#c19400;stroke-width:0.999998"
       id="path9429" />
  </g>
</svg>
