<svg width="29" height="39" viewBox="0 0 29 39" fill="none" xmlns="http://www.w3.org/2000/svg">
<path d="M25.0805 10.1732H26.2877L25.434 9.31959L19.6869 3.57308L18.8333 2.71964V3.92666V9.67316V10.1732H19.3333H25.0805ZM3.125 35.0454V35.5454H3.625H25.375H25.875V35.0454V13.2978V12.7978H25.375H17.5208C16.7925 12.7978 16.2083 12.2136 16.2083 11.4855V3.63216V3.13216H15.7083H3.625H3.125V3.63216V35.0454ZM17.3963 24.1302L17.5457 24.2214L17.7195 24.1995C18.3706 24.1171 19.3242 24.0176 20.2197 24.0465C20.6674 24.0609 21.084 24.1071 21.4325 24.1963C21.7858 24.2867 22.0264 24.4105 22.1683 24.5493C22.4099 24.7925 22.5463 25.32 22.4 25.8095C22.3312 26.0397 22.2057 26.2359 22.0246 26.3749C21.8464 26.5117 21.5841 26.6166 21.1987 26.6166C20.1943 26.6166 18.609 26.1413 17.2221 25.3928L17.0714 25.3115L16.9024 25.3397C15.5263 25.569 14.004 26.0849 12.5863 26.5653C12.2722 26.6717 11.9633 26.7764 11.6622 26.8759L11.4818 26.9355L11.3865 27.0998C10.4564 28.7037 9.64274 29.6877 8.96757 30.2567C8.29236 30.8257 7.79426 30.9493 7.47192 30.9242C7.15607 30.8996 6.91182 30.7249 6.74775 30.4806C6.57277 30.22 6.53267 29.946 6.56133 29.8089L6.56216 29.8047C6.67766 29.2273 7.14618 28.6438 7.85594 28.0788C8.55236 27.5244 9.40378 27.048 10.1523 26.6625L10.2842 26.5946L10.3577 26.4658C11.1654 25.0505 12.2998 22.6051 13.0581 20.7928L13.1231 20.6376L13.0809 20.4746C12.803 19.4005 12.5944 18.4631 12.4946 17.6514C12.3945 16.8369 12.4088 16.1835 12.5505 15.6648L12.5508 15.6638C12.6513 15.2933 13.1026 14.9874 13.6722 15.0121C13.9381 15.0236 14.1877 15.1111 14.3808 15.2711C14.5686 15.4269 14.7301 15.6735 14.7917 16.0576L14.7972 16.0916L14.8072 16.1244C14.9511 16.5959 14.9374 17.2576 14.8302 18.0017C14.7306 18.6927 14.5607 19.3928 14.4168 19.9858C14.4083 20.0207 14.3999 20.0553 14.3917 20.0894L14.3552 20.2401L14.4103 20.3849C15.0558 22.0822 15.99 23.2718 17.3963 24.1302ZM7.09106 29.8947L7.05964 29.9791V30.0691C7.05964 30.1585 7.08387 30.2631 7.15142 30.3591C7.21701 30.4523 7.30059 30.5049 7.36706 30.533C7.48388 30.5826 7.58652 30.574 7.61763 30.571C7.69619 30.5634 7.75903 30.5393 7.78547 30.5287C7.85275 30.5017 7.92179 30.4629 7.98766 30.4203C8.12453 30.332 8.30237 30.1924 8.51693 29.985C8.94733 29.5691 9.54574 28.8612 10.2791 27.6918L9.51455 27.0604C9.46295 27.1085 9.38906 27.1744 9.29942 27.2543C9.05032 27.4763 8.67964 27.8066 8.32786 28.1654C7.85334 28.6494 7.32338 29.2706 7.09106 29.8947ZM13.3814 18.9082L13.7288 20.0056L14.2937 19.0027C14.433 18.7555 14.5158 18.4052 14.5659 18.0734C14.6185 17.7251 14.644 17.3329 14.6384 16.963C14.6329 16.5991 14.5971 16.226 14.5119 15.9281C14.4702 15.7819 14.4066 15.6175 14.3018 15.4794C14.1919 15.3348 13.9995 15.1764 13.7221 15.1764C13.4625 15.1764 13.3205 15.3524 13.2761 15.4173C13.2241 15.4934 13.1968 15.5713 13.182 15.6194C13.1505 15.7226 13.132 15.8432 13.1198 15.9572C13.0946 16.1935 13.0865 16.5038 13.0949 16.8358C13.1113 17.4919 13.1942 18.317 13.3814 18.9082ZM11.4458 25.7425L10.7459 26.9618L12.0585 26.4583C12.3702 26.3387 12.6843 26.2096 13.0038 26.0784C13.9674 25.6826 14.9794 25.2668 16.1192 25.0312L17.2134 24.8051L16.3156 24.1399C15.5332 23.5601 14.7786 22.7035 14.183 21.62L13.6609 20.6703L13.2772 21.6839C12.7734 23.0145 12.1579 24.502 11.4458 25.7425ZM22.0799 26.0436C22.1002 26.0296 22.1187 26.0153 22.1355 26.001C22.2337 25.9249 22.3261 25.8112 22.3671 25.6565C22.4148 25.4762 22.3755 25.3055 22.3016 25.1736C22.1688 24.9363 21.9168 24.796 21.6776 24.7083C21.1704 24.5224 20.3131 24.4263 18.9641 24.5262L18.8046 25.4847C20.0481 26.0159 20.8165 26.189 21.303 26.2097C21.5497 26.2202 21.7402 26.1923 21.8887 26.1394C21.9635 26.1127 22.0268 26.08 22.0799 26.0436ZM21.2454 1.4183L27.5816 7.75381C28.1677 8.33986 28.5 9.14157 28.5 9.96766V35.0454C28.5 36.7703 27.1002 38.17 25.375 38.17H3.625C1.89979 38.17 0.5 36.7703 0.5 35.0454V3.63216C0.5 1.90793 1.89935 0.507003 3.62598 0.5H19.0388C19.8639 0.5 20.6585 0.831458 21.2454 1.4183ZM14.1383 15.9121C14.139 15.9095 14.139 15.9101 14.1379 15.9134L14.1383 15.9121Z" fill="rgba(78, 60, 2, 0.727)" stroke="rgba(123, 96, 8, 0.727)"/>
</svg>
