<?xml version="1.0" encoding="UTF-8" standalone="no"?>
<!-- Created with Inkscape (http://www.inkscape.org/) -->

<svg
   width="400mm"
   height="55mm"
   viewBox="0 0 400 55"
   version="1.1"
   id="svg83779"
   inkscape:version="1.2.2 (b0a84865, 2022-12-01)"
   sodipodi:docname="logo_name_no_neon.svg"
   xmlns:inkscape="http://www.inkscape.org/namespaces/inkscape"
   xmlns:sodipodi="http://sodipodi.sourceforge.net/DTD/sodipodi-0.dtd"
   xmlns="http://www.w3.org/2000/svg"
   xmlns:svg="http://www.w3.org/2000/svg">
  <sodipodi:namedview
     id="namedview83781"
     pagecolor="#ffffff"
     bordercolor="#000000"
     borderopacity="0.25"
     inkscape:showpageshadow="2"
     inkscape:pageopacity="0.0"
     inkscape:pagecheckerboard="0"
     inkscape:deskcolor="#d1d1d1"
     inkscape:document-units="mm"
     showgrid="false"
     inkscape:zoom="0.18018976"
     inkscape:cx="690.93828"
     inkscape:cy="177.59056"
     inkscape:window-width="1309"
     inkscape:window-height="456"
     inkscape:window-x="0"
     inkscape:window-y="25"
     inkscape:window-maximized="0"
     inkscape:current-layer="layer1" />
  <defs
     id="defs83776" />
  <g
     inkscape:label="Layer 1"
     inkscape:groupmode="layer"
     id="layer1">
    <g
       aria-label="SOundWorks"
       transform="matrix(1.3775056,0,0,1.3791384,-597.50367,-240.49067)"
       id="text236-6-6"
       style="font-size:41.8285px;font-family:clip;-inkscape-font-specification:clip;opacity:1;mix-blend-mode:normal;fill:#f5e03c;fill-opacity:1;stroke:#f8e974;stroke-width:0;stroke-linejoin:round;stroke-dasharray:none;stroke-opacity:1">
      <g
         id="g29272-9-6"
         style="fill:#f5e03c;fill-opacity:1;stroke:#f8e974;stroke-width:0;stroke-dasharray:none;stroke-opacity:1">
        <g
           id="path26427-0-4"
           style="fill:#f5e03c;fill-opacity:1;stroke:#f8e974;stroke-width:0;stroke-dasharray:none;stroke-opacity:1">
          <g
             id="path27230-1-0"
             style="fill:#f5e03c;fill-opacity:1;stroke:#f8e974;stroke-width:0;stroke-dasharray:none;stroke-opacity:1">
            <path
               style="color:#000000;-inkscape-font-specification:Neon;fill:#f5e03c;fill-opacity:1;stroke:#f8e974;stroke-width:0;stroke-linejoin:miter;stroke-dasharray:none;stroke-opacity:1"
               d="m 437.1018,187.55158 q 0,5.18674 3.68091,7.86376 2.76068,2.00777 6.23245,2.00777 1.00388,0 2.00777,0.54377 1.75679,0.96206 1.75679,3.22079 0,2.30057 -1.75679,3.26263 -0.96206,0.54377 -2.0496,0.54377 -1.04571,0 -2.00777,-0.54377 -1.7568,-0.96206 -1.7568,-3.26263 v -1.92411 q 0,-1.38034 -0.83657,-2.21691 -0.83657,-0.83657 -2.21691,-0.83657 -1.38034,0 -2.21691,0.83657 -0.83657,0.83657 -0.83657,2.21691 v 8.78399 q 0,0.79474 -0.87839,0.83657 l -1.08755,0.0418 v 2.17508 h 1.12937 q 1.29669,0 2.17509,-0.8784 0.87839,-0.8784 0.87839,-2.17508 v -8.78399 q 0,-0.8784 0.83657,-0.8784 0.83657,0 0.83657,0.8784 v 1.92411 q 0,2.6352 1.67314,4.35017 1.71497,1.67314 4.35017,1.67314 2.63519,0 4.30833,-1.67314 1.67314,-1.71497 1.67314,-4.35017 0,-2.59336 -1.71497,-4.2665 -1.67314,-1.71497 -4.2665,-1.71497 -2.0496,0 -3.97371,-1.00389 -3.72274,-1.92411 -3.72274,-6.65073 0,-4.76845 3.72274,-6.69256 1.92411,-1.00388 3.97371,-1.00388 2.00777,0 3.93188,1.00388 3.72273,1.92411 3.72273,6.69256 v 0.96206 q 0,0.83657 -0.83657,0.83657 -0.83657,0 -0.83657,-0.83657 v -0.96206 q 0,-2.63519 -1.67314,-4.30833 -1.67314,-1.71497 -4.30833,-1.71497 -2.6352,0 -4.35017,1.71497 -1.67314,1.67314 -1.67314,4.30833 0,5.43771 5.89782,5.98148 2.59337,0.25097 4.05737,1.00388 3.72273,1.92411 3.72273,6.65073 0,4.76845 -3.72273,6.69256 -1.92411,1.00389 -3.93188,1.00389 v 2.21691 h 11.83746 v -2.21691 h -5.39587 q 3.42993,-2.67703 3.42993,-7.69645 0,-5.18673 -3.63908,-7.86375 -2.76068,-2.00777 -6.23244,-2.00777 -1.04571,0 -2.0496,-0.54377 -1.7568,-0.96206 -1.7568,-3.2208 v 0 q 0,-2.30056 1.7568,-3.26262 0.96206,-0.54377 2.0496,-0.54377 1.04571,0 2.00777,0.54377 1.75679,0.96206 1.75679,3.26262 v 0.96206 q 0,1.33851 0.83657,2.21691 0.8784,0.83657 2.21691,0.83657 1.33852,0 2.17509,-0.83657 0.87839,-0.8784 0.87839,-2.21691 v -0.96206 q 0,-5.22856 -3.63908,-7.90558 -2.76068,-2.00777 -6.23244,-2.00777 -3.47177,0 -6.23245,2.00777 -3.68091,2.67702 -3.68091,7.90558 z"
               id="path29143-6-8" />
            <path
               style="color:#000000;-inkscape-font-specification:Neon;fill:#f5e03c;fill-opacity:1;stroke:#f8e974;stroke-width:0;stroke-linejoin:miter;stroke-dasharray:none;stroke-opacity:1"
               d="m 437.1018,187.55158 c 0,3.45782 1.22697,6.07908 3.68091,7.86376 1.84045,1.33851 3.91794,2.00777 6.23245,2.00777 0.66925,0 1.33851,0.18126 2.00777,0.54377 1.17119,0.64137 1.75679,1.71497 1.75679,3.22079 0,1.53371 -0.5856,2.62126 -1.75679,3.26263 -0.64137,0.36251 -1.32457,0.54377 -2.0496,0.54377 -0.69714,0 -1.3664,-0.18126 -2.00777,-0.54377 -1.1712,-0.64137 -1.7568,-1.72892 -1.7568,-3.26263 v -1.92411 c 0,-0.92023 -0.27886,-1.6592 -0.83657,-2.21691 -0.55771,-0.55771 -1.29668,-0.83657 -2.21691,-0.83657 -0.92023,0 -1.6592,0.27886 -2.21691,0.83657 -0.55771,0.55771 -0.83657,1.29668 -0.83657,2.21691 v 8.78399 c 0,0.52983 -0.2928,0.80868 -0.87839,0.83657 l -1.08755,0.0418 v 2.17508 h 1.12937 c 0.86446,0 1.58949,-0.2928 2.17509,-0.8784 0.58559,-0.5856 0.87839,-1.31063 0.87839,-2.17508 v -8.78399 c 0,-0.5856 0.27886,-0.8784 0.83657,-0.8784 0.55771,0 0.83657,0.2928 0.83657,0.8784 v 1.92411 c 0,1.7568 0.55771,3.20686 1.67314,4.35017 1.14331,1.11543 2.59337,1.67314 4.35017,1.67314 1.75679,0 3.1929,-0.55771 4.30833,-1.67314 1.11543,-1.14331 1.67314,-2.59337 1.67314,-4.35017 0,-1.7289 -0.57166,-3.15107 -1.71497,-4.2665 -1.11543,-1.14331 -2.5376,-1.71497 -4.2665,-1.71497 -1.3664,0 -2.69097,-0.33463 -3.97371,-1.00389 -2.48182,-1.28274 -3.72274,-3.49965 -3.72274,-6.65073 0,-3.17896 1.24092,-5.40982 3.72274,-6.69256 1.28274,-0.66925 2.60731,-1.00388 3.97371,-1.00388 1.33851,0 2.64914,0.33463 3.93188,1.00388 2.48182,1.28274 3.72273,3.5136 3.72273,6.69256 v 0.96206 c 0,0.55771 -0.27886,0.83657 -0.83657,0.83657 -0.55771,0 -0.83657,-0.27886 -0.83657,-0.83657 v -0.96206 c 0,-1.75679 -0.55771,-3.1929 -1.67314,-4.30833 -1.11543,-1.14331 -2.55154,-1.71497 -4.30833,-1.71497 -1.7568,0 -3.20686,0.57166 -4.35017,1.71497 -1.11543,1.11543 -1.67314,2.55154 -1.67314,4.30833 0,3.62514 1.96594,5.61897 5.89782,5.98148 1.72891,0.16731 3.08137,0.50194 4.05737,1.00388 2.48182,1.28274 3.72273,3.49965 3.72273,6.65073 0,3.17896 -1.24091,5.40982 -3.72273,6.69256 -1.28274,0.66926 -2.59337,1.00389 -3.93188,1.00389 v 2.21691 h 11.83746 v -2.21691 h -5.39587 c 2.28662,-1.78468 3.42993,-4.35017 3.42993,-7.69645 0,-3.45782 -1.21303,-6.07907 -3.63908,-7.86375 -1.84045,-1.33851 -3.91794,-2.00777 -6.23244,-2.00777 -0.69714,0 -1.38034,-0.18126 -2.0496,-0.54377 -1.1712,-0.64137 -1.7568,-1.71497 -1.7568,-3.2208 v 0 c 0,-1.53371 0.5856,-2.62125 1.7568,-3.26262 0.64137,-0.36251 1.32457,-0.54377 2.0496,-0.54377 0.69714,0 1.3664,0.18126 2.00777,0.54377 1.17119,0.64137 1.75679,1.72891 1.75679,3.26262 v 0.96206 c 0,0.89234 0.27886,1.63131 0.83657,2.21691 0.5856,0.55771 1.32457,0.83657 2.21691,0.83657 0.89235,0 1.61738,-0.27886 2.17509,-0.83657 0.58559,-0.5856 0.87839,-1.32457 0.87839,-2.21691 v -0.96206 c 0,-3.4857 -1.21303,-6.1209 -3.63908,-7.90558 -1.84045,-1.33851 -3.91794,-2.00777 -6.23244,-2.00777 -2.31451,0 -4.392,0.66926 -6.23245,2.00777 -2.45394,1.78468 -3.68091,4.41988 -3.68091,7.90558 z"
               id="path29145-4-2" />
          </g>
          <g
             id="path27232-4-0"
             style="fill:#f5e03c;fill-opacity:1;stroke:#f8e974;stroke-width:0;stroke-dasharray:none;stroke-opacity:1">
            <path
               style="color:#000000;-inkscape-font-specification:Neon;fill:#f5e03c;fill-opacity:1;stroke:#f8e974;stroke-width:0;stroke-linejoin:miter;stroke-dasharray:none;stroke-opacity:1"
               d="m 437.1018,187.55158 c 0,3.45782 1.22697,6.07908 3.68091,7.86376 1.84045,1.33851 3.91794,2.00777 6.23245,2.00777 0.66925,0 1.33851,0.18126 2.00777,0.54377 1.17119,0.64137 1.75679,1.71497 1.75679,3.22079 0,1.53371 -0.5856,2.62126 -1.75679,3.26263 -0.64137,0.36251 -1.32457,0.54377 -2.0496,0.54377 -0.69714,0 -1.3664,-0.18126 -2.00777,-0.54377 -1.1712,-0.64137 -1.7568,-1.72892 -1.7568,-3.26263 v -1.92411 c 0,-0.92023 -0.27886,-1.6592 -0.83657,-2.21691 -0.55771,-0.55771 -1.29668,-0.83657 -2.21691,-0.83657 -0.92023,0 -1.6592,0.27886 -2.21691,0.83657 -0.55771,0.55771 -0.83657,1.29668 -0.83657,2.21691 v 8.78399 c 0,0.52983 -0.2928,0.80868 -0.87839,0.83657 l -1.08755,0.0418 v 2.17508 h 1.12937 c 0.86446,0 1.58949,-0.2928 2.17509,-0.8784 0.58559,-0.5856 0.87839,-1.31063 0.87839,-2.17508 v -8.78399 c 0,-0.5856 0.27886,-0.8784 0.83657,-0.8784 0.55771,0 0.83657,0.2928 0.83657,0.8784 v 1.92411 c 0,1.7568 0.55771,3.20686 1.67314,4.35017 1.14331,1.11543 2.59337,1.67314 4.35017,1.67314 1.75679,0 3.1929,-0.55771 4.30833,-1.67314 1.11543,-1.14331 1.67314,-2.59337 1.67314,-4.35017 0,-1.7289 -0.57166,-3.15107 -1.71497,-4.2665 -1.11543,-1.14331 -2.5376,-1.71497 -4.2665,-1.71497 -1.3664,0 -2.69097,-0.33463 -3.97371,-1.00389 -2.48182,-1.28274 -3.72274,-3.49965 -3.72274,-6.65073 0,-3.17896 1.24092,-5.40982 3.72274,-6.69256 1.28274,-0.66925 2.60731,-1.00388 3.97371,-1.00388 1.33851,0 2.64914,0.33463 3.93188,1.00388 2.48182,1.28274 3.72273,3.5136 3.72273,6.69256 v 0.96206 c 0,0.55771 -0.27886,0.83657 -0.83657,0.83657 -0.55771,0 -0.83657,-0.27886 -0.83657,-0.83657 v -0.96206 c 0,-1.75679 -0.55771,-3.1929 -1.67314,-4.30833 -1.11543,-1.14331 -2.55154,-1.71497 -4.30833,-1.71497 -1.7568,0 -3.20686,0.57166 -4.35017,1.71497 -1.11543,1.11543 -1.67314,2.55154 -1.67314,4.30833 0,3.62514 1.96594,5.61897 5.89782,5.98148 1.72891,0.16731 3.08137,0.50194 4.05737,1.00388 2.48182,1.28274 3.72273,3.49965 3.72273,6.65073 0,3.17896 -1.24091,5.40982 -3.72273,6.69256 -1.28274,0.66926 -2.59337,1.00389 -3.93188,1.00389 v 2.21691 h 11.83746 v -2.21691 h -5.39587 c 2.28662,-1.78468 3.42993,-4.35017 3.42993,-7.69645 0,-3.45782 -1.21303,-6.07907 -3.63908,-7.86375 -1.84045,-1.33851 -3.91794,-2.00777 -6.23244,-2.00777 -0.69714,0 -1.38034,-0.18126 -2.0496,-0.54377 -1.1712,-0.64137 -1.7568,-1.71497 -1.7568,-3.2208 v 0 c 0,-1.53371 0.5856,-2.62125 1.7568,-3.26262 0.64137,-0.36251 1.32457,-0.54377 2.0496,-0.54377 0.69714,0 1.3664,0.18126 2.00777,0.54377 1.17119,0.64137 1.75679,1.72891 1.75679,3.26262 v 0.96206 c 0,0.89234 0.27886,1.63131 0.83657,2.21691 0.5856,0.55771 1.32457,0.83657 2.21691,0.83657 0.89235,0 1.61738,-0.27886 2.17509,-0.83657 0.58559,-0.5856 0.87839,-1.32457 0.87839,-2.21691 v -0.96206 c 0,-3.4857 -1.21303,-6.1209 -3.63908,-7.90558 -1.84045,-1.33851 -3.91794,-2.00777 -6.23244,-2.00777 -2.31451,0 -4.392,0.66926 -6.23245,2.00777 -2.45394,1.78468 -3.68091,4.41988 -3.68091,7.90558 z"
               id="path29149-8-6" />
            <path
               style="color:#000000;-inkscape-font-specification:Neon;fill:#f5e03c;fill-opacity:1;stroke:#f8e974;stroke-width:0;stroke-linejoin:miter;stroke-dasharray:none;stroke-opacity:1"
               d="m 437.1018,187.55158 c 0,3.45782 1.22697,6.07908 3.68091,7.86376 1.84045,1.33851 3.91794,2.00777 6.23245,2.00777 0.66925,0 1.33851,0.18126 2.00777,0.54377 1.17119,0.64137 1.75679,1.71497 1.75679,3.22079 0,1.53371 -0.5856,2.62126 -1.75679,3.26263 -0.64137,0.36251 -1.32457,0.54377 -2.0496,0.54377 -0.69714,0 -1.3664,-0.18126 -2.00777,-0.54377 -1.1712,-0.64137 -1.7568,-1.72892 -1.7568,-3.26263 v -1.92411 c 0,-0.92023 -0.27886,-1.6592 -0.83657,-2.21691 -0.55771,-0.55771 -1.29668,-0.83657 -2.21691,-0.83657 -0.92023,0 -1.6592,0.27886 -2.21691,0.83657 -0.55771,0.55771 -0.83657,1.29668 -0.83657,2.21691 v 8.78399 c 0,0.52983 -0.2928,0.80868 -0.87839,0.83657 l -1.08755,0.0418 v 2.17508 h 1.12937 c 0.86446,0 1.58949,-0.2928 2.17509,-0.8784 0.58559,-0.5856 0.87839,-1.31063 0.87839,-2.17508 v -8.78399 c 0,-0.5856 0.27886,-0.8784 0.83657,-0.8784 0.55771,0 0.83657,0.2928 0.83657,0.8784 v 1.92411 c 0,1.7568 0.55771,3.20686 1.67314,4.35017 1.14331,1.11543 2.59337,1.67314 4.35017,1.67314 1.75679,0 3.1929,-0.55771 4.30833,-1.67314 1.11543,-1.14331 1.67314,-2.59337 1.67314,-4.35017 0,-1.7289 -0.57166,-3.15107 -1.71497,-4.2665 -1.11543,-1.14331 -2.5376,-1.71497 -4.2665,-1.71497 -1.3664,0 -2.69097,-0.33463 -3.97371,-1.00389 -2.48182,-1.28274 -3.72274,-3.49965 -3.72274,-6.65073 0,-3.17896 1.24092,-5.40982 3.72274,-6.69256 1.28274,-0.66925 2.60731,-1.00388 3.97371,-1.00388 1.33851,0 2.64914,0.33463 3.93188,1.00388 2.48182,1.28274 3.72273,3.5136 3.72273,6.69256 v 0.96206 c 0,0.55771 -0.27886,0.83657 -0.83657,0.83657 -0.55771,0 -0.83657,-0.27886 -0.83657,-0.83657 v -0.96206 c 0,-1.75679 -0.55771,-3.1929 -1.67314,-4.30833 -1.11543,-1.14331 -2.55154,-1.71497 -4.30833,-1.71497 -1.7568,0 -3.20686,0.57166 -4.35017,1.71497 -1.11543,1.11543 -1.67314,2.55154 -1.67314,4.30833 0,3.62514 1.96594,5.61897 5.89782,5.98148 1.72891,0.16731 3.08137,0.50194 4.05737,1.00388 2.48182,1.28274 3.72273,3.49965 3.72273,6.65073 0,3.17896 -1.24091,5.40982 -3.72273,6.69256 -1.28274,0.66926 -2.59337,1.00389 -3.93188,1.00389 v 2.21691 h 11.83746 v -2.21691 h -5.39587 c 2.28662,-1.78468 3.42993,-4.35017 3.42993,-7.69645 0,-3.45782 -1.21303,-6.07907 -3.63908,-7.86375 -1.84045,-1.33851 -3.91794,-2.00777 -6.23244,-2.00777 -0.69714,0 -1.38034,-0.18126 -2.0496,-0.54377 -1.1712,-0.64137 -1.7568,-1.71497 -1.7568,-3.2208 v 0 c 0,-1.53371 0.5856,-2.62125 1.7568,-3.26262 0.64137,-0.36251 1.32457,-0.54377 2.0496,-0.54377 0.69714,0 1.3664,0.18126 2.00777,0.54377 1.17119,0.64137 1.75679,1.72891 1.75679,3.26262 v 0.96206 c 0,0.89234 0.27886,1.63131 0.83657,2.21691 0.5856,0.55771 1.32457,0.83657 2.21691,0.83657 0.89235,0 1.61738,-0.27886 2.17509,-0.83657 0.58559,-0.5856 0.87839,-1.32457 0.87839,-2.21691 v -0.96206 c 0,-3.4857 -1.21303,-6.1209 -3.63908,-7.90558 -1.84045,-1.33851 -3.91794,-2.00777 -6.23244,-2.00777 -2.31451,0 -4.392,0.66926 -6.23245,2.00777 -2.45394,1.78468 -3.68091,4.41988 -3.68091,7.90558 z"
               id="path29151-6-0" />
          </g>
        </g>
        <g
           id="path26429-1-7"
           style="fill:#f5e03c;fill-opacity:1;stroke:#f8e974;stroke-width:0;stroke-dasharray:none;stroke-opacity:1">
          <g
             id="path27236-4-2"
             style="fill:#f5e03c;fill-opacity:1;stroke:#f8e974;stroke-width:0;stroke-dasharray:none;stroke-opacity:1">
            <path
               style="color:#000000;-inkscape-font-specification:Neon;fill:#f5e03c;fill-opacity:1;stroke:#f8e974;stroke-width:0;stroke-linejoin:miter;stroke-dasharray:none;stroke-opacity:1"
               d="m 460.81854,192.32003 q 0,5.22856 3.30445,9.32776 3.34628,4.09919 8.49119,5.18673 v 2.0496 H 458.8526 v 2.21691 h 15.97849 v -6.14879 l -0.96206,-0.12549 q -4.64296,-0.5856 -7.73827,-4.18285 -3.09531,-3.63908 -3.09531,-8.32387 0,-5.27039 3.68091,-8.9513 3.68091,-3.72273 8.9513,-3.72273 5.31222,0 8.99312,3.68091 3.68091,3.6809 3.68091,8.99312 0,4.68479 -3.09531,8.32387 -3.09531,3.59725 -7.73827,4.18285 l -0.96205,0.12549 v 6.14879 h 15.97848 v -2.21691 h -13.76157 v -2.0496 q 5.1449,-1.08754 8.44935,-5.18673 3.34628,-4.0992 3.34628,-9.32776 0,-6.23244 -4.35016,-10.54078 -4.30834,-4.35016 -10.54078,-4.35016 -6.19062,0 -10.54079,4.35016 -4.30833,4.30834 -4.30833,10.54078 z"
               id="path29131-0-9" />
            <path
               style="color:#000000;-inkscape-font-specification:Neon;fill:#f5e03c;fill-opacity:1;stroke:#f8e974;stroke-width:0;stroke-linejoin:miter;stroke-dasharray:none;stroke-opacity:1"
               d="m 460.81854,192.32003 c 0,3.4857 1.10149,6.59496 3.30445,9.32776 2.23085,2.73279 5.06125,4.4617 8.49119,5.18673 v 2.0496 H 458.8526 v 2.21691 h 15.97849 v -6.14879 l -0.96206,-0.12549 c -3.0953,-0.3904 -5.67473,-1.78469 -7.73827,-4.18285 -2.06354,-2.42605 -3.09531,-5.20068 -3.09531,-8.32387 0,-3.51359 1.22697,-6.49736 3.68091,-8.9513 2.45394,-2.48182 5.43771,-3.72273 8.9513,-3.72273 3.54148,0 6.53919,1.22697 8.99312,3.68091 2.45394,2.45393 3.68091,5.45164 3.68091,8.99312 0,3.12319 -1.03177,5.89782 -3.09531,8.32387 -2.06354,2.39816 -4.64297,3.79245 -7.73827,4.18285 l -0.96205,0.12549 v 6.14879 h 15.97848 v -2.21691 h -13.76157 v -2.0496 c 3.42993,-0.72503 6.24639,-2.45394 8.44935,-5.18673 2.23085,-2.7328 3.34628,-5.84206 3.34628,-9.32776 0,-4.15496 -1.45006,-7.66856 -4.35016,-10.54078 -2.87222,-2.9001 -6.38582,-4.35016 -10.54078,-4.35016 -4.12708,0 -7.64068,1.45006 -10.54079,4.35016 -2.87222,2.87222 -4.30833,6.38582 -4.30833,10.54078 z"
               id="path29133-8-8" />
          </g>
          <g
             id="path27238-1-1"
             style="fill:#f5e03c;fill-opacity:1;stroke:#f8e974;stroke-width:0;stroke-dasharray:none;stroke-opacity:1">
            <path
               style="color:#000000;-inkscape-font-specification:Neon;fill:#f5e03c;fill-opacity:1;stroke:#f8e974;stroke-width:0;stroke-linejoin:miter;stroke-dasharray:none;stroke-opacity:1"
               d="m 460.81854,192.32003 c 0,3.4857 1.10149,6.59496 3.30445,9.32776 2.23085,2.73279 5.06125,4.4617 8.49119,5.18673 v 2.0496 H 458.8526 v 2.21691 h 15.97849 v -6.14879 l -0.96206,-0.12549 c -3.0953,-0.3904 -5.67473,-1.78469 -7.73827,-4.18285 -2.06354,-2.42605 -3.09531,-5.20068 -3.09531,-8.32387 0,-3.51359 1.22697,-6.49736 3.68091,-8.9513 2.45394,-2.48182 5.43771,-3.72273 8.9513,-3.72273 3.54148,0 6.53919,1.22697 8.99312,3.68091 2.45394,2.45393 3.68091,5.45164 3.68091,8.99312 0,3.12319 -1.03177,5.89782 -3.09531,8.32387 -2.06354,2.39816 -4.64297,3.79245 -7.73827,4.18285 l -0.96205,0.12549 v 6.14879 h 15.97848 v -2.21691 h -13.76157 v -2.0496 c 3.42993,-0.72503 6.24639,-2.45394 8.44935,-5.18673 2.23085,-2.7328 3.34628,-5.84206 3.34628,-9.32776 0,-4.15496 -1.45006,-7.66856 -4.35016,-10.54078 -2.87222,-2.9001 -6.38582,-4.35016 -10.54078,-4.35016 -4.12708,0 -7.64068,1.45006 -10.54079,4.35016 -2.87222,2.87222 -4.30833,6.38582 -4.30833,10.54078 z"
               id="path29137-0-1" />
            <path
               style="color:#000000;-inkscape-font-specification:Neon;fill:#f5e03c;fill-opacity:1;stroke:#f8e974;stroke-width:0;stroke-linejoin:miter;stroke-dasharray:none;stroke-opacity:1"
               d="m 460.81854,192.32003 c 0,3.4857 1.10149,6.59496 3.30445,9.32776 2.23085,2.73279 5.06125,4.4617 8.49119,5.18673 v 2.0496 H 458.8526 v 2.21691 h 15.97849 v -6.14879 l -0.96206,-0.12549 c -3.0953,-0.3904 -5.67473,-1.78469 -7.73827,-4.18285 -2.06354,-2.42605 -3.09531,-5.20068 -3.09531,-8.32387 0,-3.51359 1.22697,-6.49736 3.68091,-8.9513 2.45394,-2.48182 5.43771,-3.72273 8.9513,-3.72273 3.54148,0 6.53919,1.22697 8.99312,3.68091 2.45394,2.45393 3.68091,5.45164 3.68091,8.99312 0,3.12319 -1.03177,5.89782 -3.09531,8.32387 -2.06354,2.39816 -4.64297,3.79245 -7.73827,4.18285 l -0.96205,0.12549 v 6.14879 h 15.97848 v -2.21691 h -13.76157 v -2.0496 c 3.42993,-0.72503 6.24639,-2.45394 8.44935,-5.18673 2.23085,-2.7328 3.34628,-5.84206 3.34628,-9.32776 0,-4.15496 -1.45006,-7.66856 -4.35016,-10.54078 -2.87222,-2.9001 -6.38582,-4.35016 -10.54078,-4.35016 -4.12708,0 -7.64068,1.45006 -10.54079,4.35016 -2.87222,2.87222 -4.30833,6.38582 -4.30833,10.54078 z"
               id="path29139-3-6" />
          </g>
        </g>
        <g
           id="path26431-1-1"
           style="fill:#f5e03c;fill-opacity:1;stroke:#f8e974;stroke-width:0;stroke-dasharray:none;stroke-opacity:1">
          <g
             id="path27242-1-1"
             style="fill:#f5e03c;fill-opacity:1;stroke:#f8e974;stroke-width:0;stroke-dasharray:none;stroke-opacity:1">
            <path
               style="color:#000000;-inkscape-font-specification:Neon;fill:#f5e03c;fill-opacity:1;stroke:#f8e974;stroke-width:0;stroke-linejoin:miter;stroke-dasharray:none;stroke-opacity:1"
               d="m 514.06621,180.69171 v 17.56797 q 0,1.79862 -0.8784,3.51359 -1.67314,3.2208 -5.81416,3.2208 -4.14102,0 -5.81416,-3.2208 -0.92023,-1.79862 -0.92023,-3.51359 v -17.56797 q 0,-1.33851 -0.8784,-2.17508 -0.83657,-0.8784 -2.17508,-0.8784 -1.29668,0 -2.17508,0.8784 -0.8784,0.8784 -0.8784,2.17508 v 27.35584 q 0,0.79474 -0.8784,0.83657 l -1.08754,0.0418 v 2.17508 h 1.12937 q 1.33851,0 2.17508,-0.83657 0.8784,-0.8784 0.8784,-2.21691 v -27.35584 q 0,-0.83657 0.83657,-0.83657 0.83657,0 0.83657,0.83657 v 17.56797 q 0,3.13714 1.84045,5.64685 2.42606,3.30445 7.11085,3.30445 4.68479,0 7.06902,-3.30445 1.84045,-2.55154 1.84045,-5.64685 v -17.56797 q 0,-0.83657 0.83657,-0.83657 0.8784,0 0.8784,0.83657 l -0.0418,27.35584 q 0,1.33851 0.8784,2.21691 0.8784,0.83657 2.21691,0.83657 h 1.12937 l -0.0418,-2.17508 -1.08754,-0.0418 q -0.8784,-0.0418 -0.8784,-0.83657 v -27.35584 q 0,-1.33851 -0.8784,-2.17508 -0.83657,-0.8784 -2.17508,-0.8784 -1.29668,0 -2.17508,0.8784 -0.8784,0.8784 -0.8784,2.17508 z"
               id="path29119-5-8" />
            <path
               style="color:#000000;-inkscape-font-specification:Neon;fill:#f5e03c;fill-opacity:1;stroke:#f8e974;stroke-width:0;stroke-linejoin:miter;stroke-dasharray:none;stroke-opacity:1"
               d="m 514.06621,180.69171 v 17.56797 c 0,1.19908 -0.2928,2.37028 -0.8784,3.51359 -1.11543,2.1472 -3.05348,3.2208 -5.81416,3.2208 -2.76068,0 -4.69873,-1.0736 -5.81416,-3.2208 -0.61349,-1.19908 -0.92023,-2.37028 -0.92023,-3.51359 v -17.56797 c 0,-0.89234 -0.2928,-1.61737 -0.8784,-2.17508 -0.55771,-0.5856 -1.28274,-0.8784 -2.17508,-0.8784 -0.86445,0 -1.58948,0.2928 -2.17508,0.8784 -0.5856,0.5856 -0.8784,1.31063 -0.8784,2.17508 v 27.35584 c 0,0.52983 -0.2928,0.80868 -0.8784,0.83657 l -1.08754,0.0418 v 2.17508 h 1.12937 c 0.89234,0 1.61737,-0.27886 2.17508,-0.83657 0.5856,-0.5856 0.8784,-1.32457 0.8784,-2.21691 v -27.35584 c 0,-0.55771 0.27886,-0.83657 0.83657,-0.83657 0.55771,0 0.83657,0.27886 0.83657,0.83657 v 17.56797 c 0,2.09142 0.61348,3.97371 1.84045,5.64685 1.61737,2.20296 3.98766,3.30445 7.11085,3.30445 3.12319,0 5.47953,-1.10149 7.06902,-3.30445 1.22697,-1.70102 1.84045,-3.58331 1.84045,-5.64685 v -17.56797 c 0,-0.55771 0.27886,-0.83657 0.83657,-0.83657 0.5856,0 0.8784,0.27886 0.8784,0.83657 l -0.0418,27.35584 c 0,0.89234 0.2928,1.63131 0.8784,2.21691 0.5856,0.55771 1.32457,0.83657 2.21691,0.83657 h 1.12937 l -0.0418,-2.17508 -1.08754,-0.0418 c -0.5856,-0.0279 -0.8784,-0.30672 -0.8784,-0.83657 v -27.35584 c 0,-0.89234 -0.2928,-1.61737 -0.8784,-2.17508 -0.55771,-0.5856 -1.28274,-0.8784 -2.17508,-0.8784 -0.86445,0 -1.58948,0.2928 -2.17508,0.8784 -0.5856,0.5856 -0.8784,1.31063 -0.8784,2.17508 z"
               id="path29121-0-1" />
          </g>
          <g
             id="path27244-8-1"
             style="fill:#f5e03c;fill-opacity:1;stroke:#f8e974;stroke-width:0;stroke-dasharray:none;stroke-opacity:1">
            <path
               style="color:#000000;-inkscape-font-specification:Neon;fill:#f5e03c;fill-opacity:1;stroke:#f8e974;stroke-width:0;stroke-linejoin:miter;stroke-dasharray:none;stroke-opacity:1"
               d="m 514.06621,180.69171 v 17.56797 c 0,1.19908 -0.2928,2.37028 -0.8784,3.51359 -1.11543,2.1472 -3.05348,3.2208 -5.81416,3.2208 -2.76068,0 -4.69873,-1.0736 -5.81416,-3.2208 -0.61349,-1.19908 -0.92023,-2.37028 -0.92023,-3.51359 v -17.56797 c 0,-0.89234 -0.2928,-1.61737 -0.8784,-2.17508 -0.55771,-0.5856 -1.28274,-0.8784 -2.17508,-0.8784 -0.86445,0 -1.58948,0.2928 -2.17508,0.8784 -0.5856,0.5856 -0.8784,1.31063 -0.8784,2.17508 v 27.35584 c 0,0.52983 -0.2928,0.80868 -0.8784,0.83657 l -1.08754,0.0418 v 2.17508 h 1.12937 c 0.89234,0 1.61737,-0.27886 2.17508,-0.83657 0.5856,-0.5856 0.8784,-1.32457 0.8784,-2.21691 v -27.35584 c 0,-0.55771 0.27886,-0.83657 0.83657,-0.83657 0.55771,0 0.83657,0.27886 0.83657,0.83657 v 17.56797 c 0,2.09142 0.61348,3.97371 1.84045,5.64685 1.61737,2.20296 3.98766,3.30445 7.11085,3.30445 3.12319,0 5.47953,-1.10149 7.06902,-3.30445 1.22697,-1.70102 1.84045,-3.58331 1.84045,-5.64685 v -17.56797 c 0,-0.55771 0.27886,-0.83657 0.83657,-0.83657 0.5856,0 0.8784,0.27886 0.8784,0.83657 l -0.0418,27.35584 c 0,0.89234 0.2928,1.63131 0.8784,2.21691 0.5856,0.55771 1.32457,0.83657 2.21691,0.83657 h 1.12937 l -0.0418,-2.17508 -1.08754,-0.0418 c -0.5856,-0.0279 -0.8784,-0.30672 -0.8784,-0.83657 v -27.35584 c 0,-0.89234 -0.2928,-1.61737 -0.8784,-2.17508 -0.55771,-0.5856 -1.28274,-0.8784 -2.17508,-0.8784 -0.86445,0 -1.58948,0.2928 -2.17508,0.8784 -0.5856,0.5856 -0.8784,1.31063 -0.8784,2.17508 z"
               id="path29125-4-5" />
            <path
               style="color:#000000;-inkscape-font-specification:Neon;fill:#f5e03c;fill-opacity:1;stroke:#f8e974;stroke-width:0;stroke-linejoin:miter;stroke-dasharray:none;stroke-opacity:1"
               d="m 514.06621,180.69171 v 17.56797 c 0,1.19908 -0.2928,2.37028 -0.8784,3.51359 -1.11543,2.1472 -3.05348,3.2208 -5.81416,3.2208 -2.76068,0 -4.69873,-1.0736 -5.81416,-3.2208 -0.61349,-1.19908 -0.92023,-2.37028 -0.92023,-3.51359 v -17.56797 c 0,-0.89234 -0.2928,-1.61737 -0.8784,-2.17508 -0.55771,-0.5856 -1.28274,-0.8784 -2.17508,-0.8784 -0.86445,0 -1.58948,0.2928 -2.17508,0.8784 -0.5856,0.5856 -0.8784,1.31063 -0.8784,2.17508 v 27.35584 c 0,0.52983 -0.2928,0.80868 -0.8784,0.83657 l -1.08754,0.0418 v 2.17508 h 1.12937 c 0.89234,0 1.61737,-0.27886 2.17508,-0.83657 0.5856,-0.5856 0.8784,-1.32457 0.8784,-2.21691 v -27.35584 c 0,-0.55771 0.27886,-0.83657 0.83657,-0.83657 0.55771,0 0.83657,0.27886 0.83657,0.83657 v 17.56797 c 0,2.09142 0.61348,3.97371 1.84045,5.64685 1.61737,2.20296 3.98766,3.30445 7.11085,3.30445 3.12319,0 5.47953,-1.10149 7.06902,-3.30445 1.22697,-1.70102 1.84045,-3.58331 1.84045,-5.64685 v -17.56797 c 0,-0.55771 0.27886,-0.83657 0.83657,-0.83657 0.5856,0 0.8784,0.27886 0.8784,0.83657 l -0.0418,27.35584 c 0,0.89234 0.2928,1.63131 0.8784,2.21691 0.5856,0.55771 1.32457,0.83657 2.21691,0.83657 h 1.12937 l -0.0418,-2.17508 -1.08754,-0.0418 c -0.5856,-0.0279 -0.8784,-0.30672 -0.8784,-0.83657 v -27.35584 c 0,-0.89234 -0.2928,-1.61737 -0.8784,-2.17508 -0.55771,-0.5856 -1.28274,-0.8784 -2.17508,-0.8784 -0.86445,0 -1.58948,0.2928 -2.17508,0.8784 -0.5856,0.5856 -0.8784,1.31063 -0.8784,2.17508 z"
               id="path29127-9-0" />
          </g>
        </g>
        <g
           id="path26433-3-0"
           style="fill:#f5e03c;fill-opacity:1;stroke:#f8e974;stroke-width:0;stroke-dasharray:none;stroke-opacity:1">
          <g
             id="path27248-0-8"
             style="fill:#f5e03c;fill-opacity:1;stroke:#f8e974;stroke-width:0;stroke-dasharray:none;stroke-opacity:1">
            <path
               style="color:#000000;-inkscape-font-specification:Neon;fill:#f5e03c;fill-opacity:1;stroke:#f8e974;stroke-width:0;stroke-linejoin:miter;stroke-dasharray:none;stroke-opacity:1"
               d="m 539.707,180.77537 v 24.55333 l -13.84523,-27.69047 h -1.71497 v 30.36749 q 0,0.8784 -0.8784,0.8784 h -1.08754 v 2.17508 h 1.12937 q 1.33851,0 2.17508,-0.83657 0.83657,-0.8784 0.83657,-2.21691 v -24.55333 l 13.88707,27.64864 h 1.71496 v -30.32566 q 0,-0.8784 0.83657,-0.8784 0.8784,0 0.8784,0.8784 v 27.23035 q 0,2.71885 3.01165,3.05348 l 1.1712,0.12549 -0.0418,-2.30057 h -1.08754 q -0.8784,0 -0.8784,-0.8784 v -27.23035 q 0,-1.38034 -0.83657,-2.21691 -0.83657,-0.83657 -2.21691,-0.83657 -1.33851,0 -2.21691,0.87839 -0.83657,0.83657 -0.83657,2.17509 z"
               id="path29047-5-3" />
            <path
               style="color:#000000;-inkscape-font-specification:Neon;fill:#f5e03c;fill-opacity:1;stroke:#f8e974;stroke-width:0;stroke-linejoin:miter;stroke-dasharray:none;stroke-opacity:1"
               d="m 539.707,180.77537 v 24.55333 l -13.84523,-27.69047 h -1.71497 v 30.36749 c 0,0.5856 -0.2928,0.8784 -0.8784,0.8784 h -1.08754 v 2.17508 h 1.12937 c 0.89234,0 1.61737,-0.27886 2.17508,-0.83657 0.55771,-0.5856 0.83657,-1.32457 0.83657,-2.21691 v -24.55333 l 13.88707,27.64864 h 1.71496 v -30.32566 c 0,-0.5856 0.27886,-0.8784 0.83657,-0.8784 0.5856,0 0.8784,0.2928 0.8784,0.8784 v 27.23035 c 0,1.81256 1.00389,2.83039 3.01165,3.05348 l 1.1712,0.12549 -0.0418,-2.30057 h -1.08754 c -0.5856,0 -0.8784,-0.2928 -0.8784,-0.8784 v -27.23035 c 0,-0.92023 -0.27886,-1.6592 -0.83657,-2.21691 -0.55771,-0.55771 -1.29668,-0.83657 -2.21691,-0.83657 -0.89234,0 -1.63131,0.2928 -2.21691,0.87839 -0.55771,0.55771 -0.83657,1.28274 -0.83657,2.17509 z"
               id="path29049-2-7" />
          </g>
          <g
             id="path27250-3-0"
             style="fill:#f5e03c;fill-opacity:1;stroke:#f8e974;stroke-width:0;stroke-dasharray:none;stroke-opacity:1">
            <path
               style="color:#000000;-inkscape-font-specification:Neon;fill:#f5e03c;fill-opacity:1;stroke:#f8e974;stroke-width:0;stroke-linejoin:miter;stroke-dasharray:none;stroke-opacity:1"
               d="m 539.707,180.77537 v 24.55333 l -13.84523,-27.69047 h -1.71497 v 30.36749 c 0,0.5856 -0.2928,0.8784 -0.8784,0.8784 h -1.08754 v 2.17508 h 1.12937 c 0.89234,0 1.61737,-0.27886 2.17508,-0.83657 0.55771,-0.5856 0.83657,-1.32457 0.83657,-2.21691 v -24.55333 l 13.88707,27.64864 h 1.71496 v -30.32566 c 0,-0.5856 0.27886,-0.8784 0.83657,-0.8784 0.5856,0 0.8784,0.2928 0.8784,0.8784 v 27.23035 c 0,1.81256 1.00389,2.83039 3.01165,3.05348 l 1.1712,0.12549 -0.0418,-2.30057 h -1.08754 c -0.5856,0 -0.8784,-0.2928 -0.8784,-0.8784 v -27.23035 c 0,-0.92023 -0.27886,-1.6592 -0.83657,-2.21691 -0.55771,-0.55771 -1.29668,-0.83657 -2.21691,-0.83657 -0.89234,0 -1.63131,0.2928 -2.21691,0.87839 -0.55771,0.55771 -0.83657,1.28274 -0.83657,2.17509 z"
               id="path29053-8-1" />
            <path
               style="color:#000000;-inkscape-font-specification:Neon;fill:#f5e03c;fill-opacity:1;stroke:#f8e974;stroke-width:0;stroke-linejoin:miter;stroke-dasharray:none;stroke-opacity:1"
               d="m 539.707,180.77537 v 24.55333 l -13.84523,-27.69047 h -1.71497 v 30.36749 c 0,0.5856 -0.2928,0.8784 -0.8784,0.8784 h -1.08754 v 2.17508 h 1.12937 c 0.89234,0 1.61737,-0.27886 2.17508,-0.83657 0.55771,-0.5856 0.83657,-1.32457 0.83657,-2.21691 v -24.55333 l 13.88707,27.64864 h 1.71496 v -30.32566 c 0,-0.5856 0.27886,-0.8784 0.83657,-0.8784 0.5856,0 0.8784,0.2928 0.8784,0.8784 v 27.23035 c 0,1.81256 1.00389,2.83039 3.01165,3.05348 l 1.1712,0.12549 -0.0418,-2.30057 h -1.08754 c -0.5856,0 -0.8784,-0.2928 -0.8784,-0.8784 v -27.23035 c 0,-0.92023 -0.27886,-1.6592 -0.83657,-2.21691 -0.55771,-0.55771 -1.29668,-0.83657 -2.21691,-0.83657 -0.89234,0 -1.63131,0.2928 -2.21691,0.87839 -0.55771,0.55771 -0.83657,1.28274 -0.83657,2.17509 z"
               id="path29055-7-3" />
          </g>
        </g>
        <g
           id="path26435-8-4"
           style="fill:#f5e03c;fill-opacity:1;stroke:#f8e974;stroke-width:0;stroke-dasharray:none;stroke-opacity:1">
          <g
             id="path27254-0-3"
             style="fill:#f5e03c;fill-opacity:1;stroke:#f8e974;stroke-width:0;stroke-dasharray:none;stroke-opacity:1">
            <path
               style="color:#000000;-inkscape-font-specification:Neon;fill:#f5e03c;fill-opacity:1;stroke:#f8e974;stroke-width:0;stroke-linejoin:miter;stroke-dasharray:none;stroke-opacity:1"
               d="m 549.78763,177.63823 v 30.40932 q 0,0.79474 -0.8784,0.83657 l -1.08754,0.0418 v 2.17508 h 1.12937 q 1.33851,0 2.17508,-0.83657 0.8784,-0.8784 0.8784,-2.21691 v -28.19241 h 8.6585 q 3.30445,0 6.48342,1.63131 6.10696,3.13714 6.10696,10.91724 0,7.7801 -6.10696,10.95907 -3.13714,1.63131 -6.48342,1.63131 h -3.89005 q -1.42217,0 -2.30057,0.83657 -0.87839,0.83657 -0.83657,2.25874 0.0418,1.33851 0.92023,2.17508 0.8784,0.83657 2.21691,0.83657 h 20.62145 v -2.21691 h -20.62145 q -0.92022,0 -0.96205,-0.8784 -0.0418,-0.79474 0.92022,-0.79474 h 3.93188 q 3.68091,0 7.44548,-1.92411 7.31998,-3.72274 7.31998,-12.88318 0,-9.11861 -7.31998,-12.84135 -3.76457,-1.92411 -7.44548,-1.92411 z"
               id="path29059-4-7" />
            <path
               style="color:#000000;-inkscape-font-specification:Neon;fill:#f5e03c;fill-opacity:1;stroke:#f8e974;stroke-width:0;stroke-linejoin:miter;stroke-dasharray:none;stroke-opacity:1"
               d="m 549.78763,177.63823 v 30.40932 c 0,0.52983 -0.2928,0.80868 -0.8784,0.83657 l -1.08754,0.0418 v 2.17508 h 1.12937 c 0.89234,0 1.61737,-0.27886 2.17508,-0.83657 0.5856,-0.5856 0.8784,-1.32457 0.8784,-2.21691 v -28.19241 h 8.6585 c 2.20296,0 4.36411,0.54377 6.48342,1.63131 4.0713,2.09142 6.10696,5.73051 6.10696,10.91724 0,5.18673 -2.03566,8.83976 -6.10696,10.95907 -2.09142,1.08754 -4.25257,1.63131 -6.48342,1.63131 h -3.89005 c -0.94811,0 -1.71497,0.27886 -2.30057,0.83657 -0.58559,0.55771 -0.86445,1.31063 -0.83657,2.25874 0.0279,0.89234 0.33461,1.61737 0.92023,2.17508 0.5856,0.55771 1.32457,0.83657 2.21691,0.83657 h 20.62145 v -2.21691 h -20.62145 c -0.61348,0 -0.93416,-0.2928 -0.96205,-0.8784 -0.0279,-0.52983 0.27887,-0.79474 0.92022,-0.79474 h 3.93188 c 2.45394,0 4.93577,-0.64137 7.44548,-1.92411 4.87998,-2.48182 7.31998,-6.77623 7.31998,-12.88318 0,-6.07907 -2.44,-10.35953 -7.31998,-12.84135 -2.50971,-1.28274 -4.99154,-1.92411 -7.44548,-1.92411 z"
               id="path29061-5-7" />
          </g>
          <g
             id="path27256-7-5"
             style="fill:#f5e03c;fill-opacity:1;stroke:#f8e974;stroke-width:0;stroke-dasharray:none;stroke-opacity:1">
            <path
               style="color:#000000;-inkscape-font-specification:Neon;fill:#f5e03c;fill-opacity:1;stroke:#f8e974;stroke-width:0;stroke-linejoin:miter;stroke-dasharray:none;stroke-opacity:1"
               d="m 549.78763,177.63823 v 30.40932 c 0,0.52983 -0.2928,0.80868 -0.8784,0.83657 l -1.08754,0.0418 v 2.17508 h 1.12937 c 0.89234,0 1.61737,-0.27886 2.17508,-0.83657 0.5856,-0.5856 0.8784,-1.32457 0.8784,-2.21691 v -28.19241 h 8.6585 c 2.20296,0 4.36411,0.54377 6.48342,1.63131 4.0713,2.09142 6.10696,5.73051 6.10696,10.91724 0,5.18673 -2.03566,8.83976 -6.10696,10.95907 -2.09142,1.08754 -4.25257,1.63131 -6.48342,1.63131 h -3.89005 c -0.94811,0 -1.71497,0.27886 -2.30057,0.83657 -0.58559,0.55771 -0.86445,1.31063 -0.83657,2.25874 0.0279,0.89234 0.33461,1.61737 0.92023,2.17508 0.5856,0.55771 1.32457,0.83657 2.21691,0.83657 h 20.62145 v -2.21691 h -20.62145 c -0.61348,0 -0.93416,-0.2928 -0.96205,-0.8784 -0.0279,-0.52983 0.27887,-0.79474 0.92022,-0.79474 h 3.93188 c 2.45394,0 4.93577,-0.64137 7.44548,-1.92411 4.87998,-2.48182 7.31998,-6.77623 7.31998,-12.88318 0,-6.07907 -2.44,-10.35953 -7.31998,-12.84135 -2.50971,-1.28274 -4.99154,-1.92411 -7.44548,-1.92411 z"
               id="path29065-1-1" />
            <path
               style="color:#000000;-inkscape-font-specification:Neon;fill:#f5e03c;fill-opacity:1;stroke:#f8e974;stroke-width:0;stroke-linejoin:miter;stroke-dasharray:none;stroke-opacity:1"
               d="m 549.78763,177.63823 v 30.40932 c 0,0.52983 -0.2928,0.80868 -0.8784,0.83657 l -1.08754,0.0418 v 2.17508 h 1.12937 c 0.89234,0 1.61737,-0.27886 2.17508,-0.83657 0.5856,-0.5856 0.8784,-1.32457 0.8784,-2.21691 v -28.19241 h 8.6585 c 2.20296,0 4.36411,0.54377 6.48342,1.63131 4.0713,2.09142 6.10696,5.73052 6.10696,10.91724 0,5.18672 -2.03566,8.83976 -6.10696,10.95907 -2.09142,1.08754 -4.25257,1.63131 -6.48342,1.63131 h -3.89005 c -0.94811,0 -1.71497,0.27886 -2.30057,0.83657 -0.58559,0.55771 -0.86445,1.31063 -0.83657,2.25874 0.0279,0.89234 0.33461,1.61737 0.92023,2.17508 0.5856,0.55771 1.32457,0.83657 2.21691,0.83657 h 20.62145 v -2.21691 h -20.62145 c -0.61348,0 -0.93416,-0.2928 -0.96205,-0.8784 -0.0279,-0.52983 0.27887,-0.79474 0.92022,-0.79474 h 3.93188 c 2.45394,0 4.93577,-0.64137 7.44548,-1.92411 4.87998,-2.48182 7.31998,-6.77624 7.31998,-12.88318 0,-6.07906 -2.44,-10.35953 -7.31998,-12.84135 -2.50971,-1.28274 -4.99154,-1.92411 -7.44548,-1.92411 z"
               id="path29067-0-2" />
          </g>
        </g>
        <g
           id="path26437-6-6"
           style="fill:#f5e03c;fill-opacity:1;stroke:#f8e974;stroke-width:0;stroke-dasharray:none;stroke-opacity:1">
          <g
             id="path27260-0-6"
             style="fill:#f5e03c;fill-opacity:1;stroke:#f8e974;stroke-width:0;stroke-dasharray:none;stroke-opacity:1">
            <path
               style="color:#000000;-inkscape-font-specification:Neon;fill:#f5e03c;fill-opacity:1;stroke:#f8e974;stroke-width:0;stroke-linejoin:miter;stroke-dasharray:none;stroke-opacity:1"
               d="m 602.74248,180.69171 v 21.49985 q 0,2.80251 -2.80251,2.80251 -1.25485,0 -2.04959,-0.75292 -0.75292,-0.79474 -0.75292,-2.04959 v -13.67792 q 0,-1.38034 -0.83657,-2.21691 -0.83657,-0.83657 -2.21691,-0.83657 -1.33851,0 -2.21691,0.8784 -0.83657,0.83657 -0.83657,2.17508 v 13.67792 q 0,1.25485 -0.79474,2.04959 -0.75291,0.75292 -2.00777,0.75292 -1.25485,0 -2.04959,-0.75292 -0.75291,-0.79474 -0.75291,-2.04959 v -21.49985 q 0,-1.33851 -0.8784,-2.17508 -0.83657,-0.8784 -2.17509,-0.8784 -1.33851,0 -2.21691,0.8784 -0.83657,0.83657 -0.83657,2.17508 v 27.35584 q 0,0.79474 -0.87839,0.83657 l -1.08755,0.0418 v 2.17508 h 1.12937 q 1.29669,0 2.17509,-0.8784 0.87839,-0.8784 0.87839,-2.17508 v -27.35584 q 0,-0.83657 0.83657,-0.83657 0.83657,0 0.83657,0.83657 v 21.49985 q 0,2.17508 1.42217,3.59725 1.42217,1.42217 3.59725,1.42217 2.17509,0 3.59726,-1.42217 1.42216,-1.42217 1.42216,-3.59725 v -13.67792 q 0,-0.83657 0.83657,-0.83657 0.8784,0 0.8784,0.83657 v 13.67792 q 0,2.17508 1.38034,3.59725 1.42217,1.42217 3.59725,1.42217 2.17509,0 3.59726,-1.42217 1.42216,-1.42217 1.42216,-3.59725 v -21.49985 q 0,-0.83657 0.8784,-0.83657 0.83657,0 0.83657,0.83657 v 27.35584 q 0,1.38034 0.83657,2.21691 0.83657,0.83657 2.21691,0.83657 h 1.08754 l 0.0418,-2.17508 -1.12937,-0.0418 q -0.83657,-0.0418 -0.83657,-0.83657 v -27.35584 q 0,-1.29668 -0.8784,-2.17508 -0.87839,-0.8784 -2.17508,-0.8784 -1.29668,0 -2.21691,0.8784 -0.8784,0.8784 -0.8784,2.17508 z"
               id="path29071-3-5" />
            <path
               style="color:#000000;-inkscape-font-specification:Neon;fill:#f5e03c;fill-opacity:1;stroke:#f8e974;stroke-width:0;stroke-linejoin:miter;stroke-dasharray:none;stroke-opacity:1"
               d="m 602.74248,180.69171 v 21.49985 c 0,1.86834 -0.93417,2.80251 -2.80251,2.80251 -0.83657,0 -1.51976,-0.25097 -2.04959,-0.75292 -0.50195,-0.52983 -0.75292,-1.21302 -0.75292,-2.04959 v -13.67792 c 0,-0.92023 -0.27886,-1.6592 -0.83657,-2.21691 -0.55771,-0.55771 -1.29668,-0.83657 -2.21691,-0.83657 -0.89234,0 -1.63131,0.2928 -2.21691,0.8784 -0.55771,0.55771 -0.83657,1.28274 -0.83657,2.17508 v 13.67792 c 0,0.83657 -0.26491,1.51976 -0.79474,2.04959 -0.50194,0.50195 -1.1712,0.75292 -2.00777,0.75292 -0.83657,0 -1.51976,-0.25097 -2.04959,-0.75292 -0.50194,-0.52983 -0.75291,-1.21302 -0.75291,-2.04959 v -21.49985 c 0,-0.89234 -0.2928,-1.61737 -0.8784,-2.17508 -0.55771,-0.5856 -1.28274,-0.8784 -2.17509,-0.8784 -0.89234,0 -1.63131,0.2928 -2.21691,0.8784 -0.55771,0.55771 -0.83657,1.28274 -0.83657,2.17508 v 27.35584 c 0,0.52983 -0.2928,0.80868 -0.87839,0.83657 l -1.08755,0.0418 v 2.17508 h 1.12937 c 0.86446,0 1.58949,-0.2928 2.17509,-0.8784 0.58559,-0.5856 0.87839,-1.31063 0.87839,-2.17508 v -27.35584 c 0,-0.55771 0.27886,-0.83657 0.83657,-0.83657 0.55771,0 0.83657,0.27886 0.83657,0.83657 v 21.49985 c 0,1.45005 0.47406,2.64914 1.42217,3.59725 0.94811,0.94811 2.1472,1.42217 3.59725,1.42217 1.45006,0 2.64915,-0.47406 3.59726,-1.42217 0.94811,-0.94811 1.42216,-2.1472 1.42216,-3.59725 v -13.67792 c 0,-0.55771 0.27886,-0.83657 0.83657,-0.83657 0.5856,0 0.8784,0.27886 0.8784,0.83657 v 13.67792 c 0,1.45005 0.46011,2.64914 1.38034,3.59725 0.94811,0.94811 2.1472,1.42217 3.59725,1.42217 1.45006,0 2.64915,-0.47406 3.59726,-1.42217 0.94811,-0.94811 1.42216,-2.1472 1.42216,-3.59725 v -21.49985 c 0,-0.55771 0.2928,-0.83657 0.8784,-0.83657 0.55771,0 0.83657,0.27886 0.83657,0.83657 v 27.35584 c 0,0.92023 0.27886,1.6592 0.83657,2.21691 0.55771,0.55771 1.29668,0.83657 2.21691,0.83657 h 1.08754 l 0.0418,-2.17508 -1.12937,-0.0418 c -0.55771,-0.0279 -0.83657,-0.30672 -0.83657,-0.83657 v -27.35584 c 0,-0.86445 -0.2928,-1.58948 -0.8784,-2.17508 -0.58559,-0.5856 -1.31062,-0.8784 -2.17508,-0.8784 -0.86445,0 -1.60342,0.2928 -2.21691,0.8784 -0.5856,0.5856 -0.8784,1.31063 -0.8784,2.17508 z"
               id="path29073-3-4" />
          </g>
          <g
             id="path27262-5-1"
             style="fill:#f5e03c;fill-opacity:1;stroke:#f8e974;stroke-width:0;stroke-dasharray:none;stroke-opacity:1">
            <path
               style="color:#000000;-inkscape-font-specification:Neon;fill:#f5e03c;fill-opacity:1;stroke:#f8e974;stroke-width:0;stroke-linejoin:miter;stroke-dasharray:none;stroke-opacity:1"
               d="m 602.74248,180.69171 v 21.49985 c 0,1.86834 -0.93417,2.80251 -2.80251,2.80251 -0.83657,0 -1.51976,-0.25097 -2.04959,-0.75292 -0.50195,-0.52983 -0.75292,-1.21302 -0.75292,-2.04959 v -13.67792 c 0,-0.92023 -0.27886,-1.6592 -0.83657,-2.21691 -0.55771,-0.55771 -1.29668,-0.83657 -2.21691,-0.83657 -0.89234,0 -1.63131,0.2928 -2.21691,0.8784 -0.55771,0.55771 -0.83657,1.28274 -0.83657,2.17508 v 13.67792 c 0,0.83657 -0.26491,1.51976 -0.79474,2.04959 -0.50194,0.50195 -1.1712,0.75292 -2.00777,0.75292 -0.83657,0 -1.51976,-0.25097 -2.04959,-0.75292 -0.50194,-0.52983 -0.75291,-1.21302 -0.75291,-2.04959 v -21.49985 c 0,-0.89234 -0.2928,-1.61737 -0.8784,-2.17508 -0.55771,-0.5856 -1.28274,-0.8784 -2.17509,-0.8784 -0.89234,0 -1.63131,0.2928 -2.21691,0.8784 -0.55771,0.55771 -0.83657,1.28274 -0.83657,2.17508 v 27.35584 c 0,0.52983 -0.2928,0.80868 -0.87839,0.83657 l -1.08755,0.0418 v 2.17508 h 1.12937 c 0.86446,0 1.58949,-0.2928 2.17509,-0.8784 0.58559,-0.5856 0.87839,-1.31063 0.87839,-2.17508 v -27.35584 c 0,-0.55771 0.27886,-0.83657 0.83657,-0.83657 0.55771,0 0.83657,0.27886 0.83657,0.83657 v 21.49985 c 0,1.45005 0.47406,2.64914 1.42217,3.59725 0.94811,0.94811 2.1472,1.42217 3.59725,1.42217 1.45006,0 2.64915,-0.47406 3.59726,-1.42217 0.94811,-0.94811 1.42216,-2.1472 1.42216,-3.59725 v -13.67792 c 0,-0.55771 0.27886,-0.83657 0.83657,-0.83657 0.5856,0 0.8784,0.27886 0.8784,0.83657 v 13.67792 c 0,1.45005 0.46011,2.64914 1.38034,3.59725 0.94811,0.94811 2.1472,1.42217 3.59725,1.42217 1.45006,0 2.64915,-0.47406 3.59726,-1.42217 0.94811,-0.94811 1.42216,-2.1472 1.42216,-3.59725 v -21.49985 c 0,-0.55771 0.2928,-0.83657 0.8784,-0.83657 0.55771,0 0.83657,0.27886 0.83657,0.83657 v 27.35584 c 0,0.92023 0.27886,1.6592 0.83657,2.21691 0.55771,0.55771 1.29668,0.83657 2.21691,0.83657 h 1.08754 l 0.0418,-2.17508 -1.12937,-0.0418 c -0.55771,-0.0279 -0.83657,-0.30672 -0.83657,-0.83657 v -27.35584 c 0,-0.86445 -0.2928,-1.58948 -0.8784,-2.17508 -0.58559,-0.5856 -1.31062,-0.8784 -2.17508,-0.8784 -0.86445,0 -1.60342,0.2928 -2.21691,0.8784 -0.5856,0.5856 -0.8784,1.31063 -0.8784,2.17508 z"
               id="path29077-0-7" />
            <path
               style="color:#000000;-inkscape-font-specification:Neon;fill:#f5e03c;fill-opacity:1;stroke:#f8e974;stroke-width:0;stroke-linejoin:miter;stroke-dasharray:none;stroke-opacity:1"
               d="m 602.74248,180.69171 v 21.49985 c 0,1.86834 -0.93417,2.80251 -2.80251,2.80251 -0.83657,0 -1.51976,-0.25097 -2.04959,-0.75292 -0.50195,-0.52983 -0.75292,-1.21302 -0.75292,-2.04959 v -13.67792 c 0,-0.92023 -0.27886,-1.6592 -0.83657,-2.21691 -0.55771,-0.55771 -1.29668,-0.83657 -2.21691,-0.83657 -0.89234,0 -1.63131,0.2928 -2.21691,0.8784 -0.55771,0.55771 -0.83657,1.28274 -0.83657,2.17508 v 13.67792 c 0,0.83657 -0.26491,1.51976 -0.79474,2.04959 -0.50194,0.50195 -1.1712,0.75292 -2.00777,0.75292 -0.83657,0 -1.51976,-0.25097 -2.04959,-0.75292 -0.50194,-0.52983 -0.75291,-1.21302 -0.75291,-2.04959 v -21.49985 c 0,-0.89234 -0.2928,-1.61737 -0.8784,-2.17508 -0.55771,-0.5856 -1.28274,-0.8784 -2.17509,-0.8784 -0.89234,0 -1.63131,0.2928 -2.21691,0.8784 -0.55771,0.55771 -0.83657,1.28274 -0.83657,2.17508 v 27.35584 c 0,0.52983 -0.2928,0.80868 -0.87839,0.83657 l -1.08755,0.0418 v 2.17508 h 1.12937 c 0.86446,0 1.58949,-0.2928 2.17509,-0.8784 0.58559,-0.5856 0.87839,-1.31063 0.87839,-2.17508 v -27.35584 c 0,-0.55771 0.27886,-0.83657 0.83657,-0.83657 0.55771,0 0.83657,0.27886 0.83657,0.83657 v 21.49985 c 0,1.45005 0.47406,2.64914 1.42217,3.59725 0.94811,0.94811 2.1472,1.42217 3.59725,1.42217 1.45006,0 2.64915,-0.47406 3.59726,-1.42217 0.94811,-0.94811 1.42216,-2.1472 1.42216,-3.59725 v -13.67792 c 0,-0.55771 0.27886,-0.83657 0.83657,-0.83657 0.5856,0 0.8784,0.27886 0.8784,0.83657 v 13.67792 c 0,1.45005 0.46011,2.64914 1.38034,3.59725 0.94811,0.94811 2.1472,1.42217 3.59725,1.42217 1.45006,0 2.64915,-0.47406 3.59726,-1.42217 0.94811,-0.94811 1.42216,-2.1472 1.42216,-3.59725 v -21.49985 c 0,-0.55771 0.2928,-0.83657 0.8784,-0.83657 0.55771,0 0.83657,0.27886 0.83657,0.83657 v 27.35584 c 0,0.92023 0.27886,1.6592 0.83657,2.21691 0.55771,0.55771 1.29668,0.83657 2.21691,0.83657 h 1.08754 l 0.0418,-2.17508 -1.12937,-0.0418 c -0.55771,-0.0279 -0.83657,-0.30672 -0.83657,-0.83657 v -27.35584 c 0,-0.86445 -0.2928,-1.58948 -0.8784,-2.17508 -0.58559,-0.5856 -1.31062,-0.8784 -2.17508,-0.8784 -0.86445,0 -1.60342,0.2928 -2.21691,0.8784 -0.5856,0.5856 -0.8784,1.31063 -0.8784,2.17508 z"
               id="path29079-2-1" />
          </g>
        </g>
        <g
           id="path26439-3-3"
           style="fill:#f5e03c;fill-opacity:1;stroke:#f8e974;stroke-width:0;stroke-dasharray:none;stroke-opacity:1">
          <g
             id="path27266-2-4"
             style="fill:#f5e03c;fill-opacity:1;stroke:#f8e974;stroke-width:0;stroke-dasharray:none;stroke-opacity:1">
            <path
               style="color:#000000;-inkscape-font-specification:Neon;fill:#f5e03c;fill-opacity:1;stroke:#f8e974;stroke-width:0;stroke-linejoin:miter;stroke-dasharray:none;stroke-opacity:1"
               d="m 612.8231,192.32003 q 0,5.22856 3.30445,9.32776 3.34628,4.09919 8.49119,5.18673 v 2.0496 h -13.76158 v 2.21691 h 15.97849 v -6.14879 l -0.96206,-0.12549 q -4.64296,-0.5856 -7.73827,-4.18285 -3.09531,-3.63908 -3.09531,-8.32387 0,-5.27039 3.68091,-8.9513 3.68091,-3.72273 8.9513,-3.72273 5.31222,0 8.99313,3.68091 3.6809,3.6809 3.6809,8.99312 0,4.68479 -3.0953,8.32387 -3.09531,3.59725 -7.73828,4.18285 l -0.96205,0.12549 v 6.14879 h 15.97848 v -2.21691 h -13.76157 v -2.0496 q 5.1449,-1.08754 8.44935,-5.18673 3.34628,-4.0992 3.34628,-9.32776 0,-6.23244 -4.35016,-10.54078 -4.30833,-4.35016 -10.54078,-4.35016 -6.19062,0 -10.54078,4.35016 -4.30834,4.30834 -4.30834,10.54078 z"
               id="path29083-7-8" />
            <path
               style="color:#000000;-inkscape-font-specification:Neon;fill:#f5e03c;fill-opacity:1;stroke:#f8e974;stroke-width:0;stroke-linejoin:miter;stroke-dasharray:none;stroke-opacity:1"
               d="m 612.8231,192.32003 c 0,3.4857 1.10149,6.59496 3.30445,9.32776 2.23085,2.73279 5.06125,4.4617 8.49119,5.18673 v 2.0496 h -13.76158 v 2.21691 h 15.97849 v -6.14879 l -0.96206,-0.12549 c -3.0953,-0.3904 -5.67473,-1.78469 -7.73827,-4.18285 -2.06354,-2.42605 -3.09531,-5.20068 -3.09531,-8.32387 0,-3.51359 1.22697,-6.49736 3.68091,-8.9513 2.45394,-2.48182 5.43771,-3.72273 8.9513,-3.72273 3.54148,0 6.53919,1.22697 8.99313,3.68091 2.45393,2.45393 3.6809,5.45164 3.6809,8.99312 0,3.12319 -1.03177,5.89782 -3.0953,8.32387 -2.06354,2.39816 -4.64297,3.79245 -7.73828,4.18285 l -0.96205,0.12549 v 6.14879 h 15.97848 v -2.21691 h -13.76157 v -2.0496 c 3.42993,-0.72503 6.24639,-2.45394 8.44935,-5.18673 2.23085,-2.7328 3.34628,-5.84206 3.34628,-9.32776 0,-4.15496 -1.45006,-7.66856 -4.35016,-10.54078 -2.87222,-2.9001 -6.38582,-4.35016 -10.54078,-4.35016 -4.12708,0 -7.64068,1.45006 -10.54078,4.35016 -2.87222,2.87222 -4.30834,6.38582 -4.30834,10.54078 z"
               id="path29085-1-6" />
          </g>
          <g
             id="path27268-0-1"
             style="fill:#f5e03c;fill-opacity:1;stroke:#f8e974;stroke-width:0;stroke-dasharray:none;stroke-opacity:1">
            <path
               style="color:#000000;-inkscape-font-specification:Neon;fill:#f5e03c;fill-opacity:1;stroke:#f8e974;stroke-width:0;stroke-linejoin:miter;stroke-dasharray:none;stroke-opacity:1"
               d="m 612.8231,192.32003 c 0,3.4857 1.10149,6.59496 3.30445,9.32776 2.23085,2.73279 5.06125,4.4617 8.49119,5.18673 v 2.0496 h -13.76158 v 2.21691 h 15.97849 v -6.14879 l -0.96206,-0.12549 c -3.0953,-0.3904 -5.67473,-1.78469 -7.73827,-4.18285 -2.06354,-2.42605 -3.09531,-5.20068 -3.09531,-8.32387 0,-3.51359 1.22697,-6.49736 3.68091,-8.9513 2.45394,-2.48182 5.43771,-3.72273 8.9513,-3.72273 3.54148,0 6.53919,1.22697 8.99313,3.68091 2.45393,2.45393 3.6809,5.45164 3.6809,8.99312 0,3.12319 -1.03177,5.89782 -3.0953,8.32387 -2.06354,2.39816 -4.64297,3.79245 -7.73828,4.18285 l -0.96205,0.12549 v 6.14879 h 15.97848 v -2.21691 h -13.76157 v -2.0496 c 3.42993,-0.72503 6.24639,-2.45394 8.44935,-5.18673 2.23085,-2.7328 3.34628,-5.84206 3.34628,-9.32776 0,-4.15496 -1.45006,-7.66856 -4.35016,-10.54078 -2.87222,-2.9001 -6.38582,-4.35016 -10.54078,-4.35016 -4.12708,0 -7.64068,1.45006 -10.54078,4.35016 -2.87222,2.87222 -4.30834,6.38582 -4.30834,10.54078 z"
               id="path29089-0-5" />
            <path
               style="color:#000000;-inkscape-font-specification:Neon;fill:#f5e03c;fill-opacity:1;stroke:#f8e974;stroke-width:0;stroke-linejoin:miter;stroke-dasharray:none;stroke-opacity:1"
               d="m 612.8231,192.32003 c 0,3.4857 1.10149,6.59496 3.30445,9.32776 2.23085,2.73279 5.06125,4.4617 8.49119,5.18673 v 2.0496 h -13.76158 v 2.21691 h 15.97849 v -6.14879 l -0.96206,-0.12549 c -3.0953,-0.3904 -5.67473,-1.78469 -7.73827,-4.18285 -2.06354,-2.42605 -3.09531,-5.20068 -3.09531,-8.32387 0,-3.51359 1.22697,-6.49736 3.68091,-8.9513 2.45394,-2.48182 5.43771,-3.72273 8.9513,-3.72273 3.54148,0 6.53919,1.22697 8.99313,3.68091 2.45393,2.45393 3.6809,5.45164 3.6809,8.99312 0,3.12319 -1.03177,5.89782 -3.0953,8.32387 -2.06354,2.39816 -4.64297,3.79245 -7.73828,4.18285 l -0.96205,0.12549 v 6.14879 h 15.97848 v -2.21691 h -13.76157 v -2.0496 c 3.42993,-0.72503 6.24639,-2.45394 8.44935,-5.18673 2.23085,-2.7328 3.34628,-5.84206 3.34628,-9.32776 0,-4.15496 -1.45006,-7.66856 -4.35016,-10.54078 -2.87222,-2.9001 -6.38582,-4.35016 -10.54078,-4.35016 -4.12708,0 -7.64068,1.45006 -10.54078,4.35016 -2.87222,2.87222 -4.30834,6.38582 -4.30834,10.54078 z"
               id="path29091-9-0" />
          </g>
        </g>
        <g
           id="path26441-7-6"
           style="fill:#f5e03c;fill-opacity:1;stroke:#f8e974;stroke-width:0;stroke-dasharray:none;stroke-opacity:1">
          <g
             id="path27272-1-5"
             style="fill:#f5e03c;fill-opacity:1;stroke:#f8e974;stroke-width:0;stroke-dasharray:none;stroke-opacity:1">
            <path
               style="color:#000000;-inkscape-font-specification:Neon;fill:#f5e03c;fill-opacity:1;stroke:#f8e974;stroke-width:0;stroke-linejoin:miter;stroke-dasharray:none;stroke-opacity:1"
               d="m 667.61843,208.88412 -13.42695,-13.42695 h 5.18673 q 3.13714,0 5.60502,-1.79863 3.30445,-2.42605 3.30445,-7.11084 0,-4.68479 -3.30445,-7.11085 -2.46788,-1.79862 -5.60502,-1.79862 h -12.84135 v 30.40932 q 0,0.79474 -0.8784,0.83657 l -1.08754,0.0418 v 2.17508 h 1.12937 q 1.33851,0 2.17508,-0.83657 0.8784,-0.8784 0.8784,-2.21691 v -28.19241 h 10.62444 q 1.7568,0 3.47177,0.8784 3.22079,1.67314 3.22079,5.81416 0,4.14102 -3.22079,5.81416 -1.79863,0.92023 -3.47177,0.92023 h -8.49118 v 2.00777 l 15.853,15.81117 h 3.51359 v -2.21691 z"
               id="path29095-7-3" />
            <path
               style="color:#000000;-inkscape-font-specification:Neon;fill:#f5e03c;fill-opacity:1;stroke:#f8e974;stroke-width:0;stroke-linejoin:miter;stroke-dasharray:none;stroke-opacity:1"
               d="m 667.61843,208.88412 -13.42695,-13.42695 h 5.18673 c 2.09142,0 3.95977,-0.59954 5.60502,-1.79863 2.20296,-1.61737 3.30445,-3.98765 3.30445,-7.11084 0,-3.12319 -1.10149,-5.49348 -3.30445,-7.11085 -1.64525,-1.19908 -3.5136,-1.79862 -5.60502,-1.79862 h -12.84135 v 30.40932 c 0,0.52983 -0.2928,0.80868 -0.8784,0.83657 l -1.08754,0.0418 v 2.17508 h 1.12937 c 0.89234,0 1.61737,-0.27886 2.17508,-0.83657 0.5856,-0.5856 0.8784,-1.32457 0.8784,-2.21691 v -28.19241 h 10.62444 c 1.1712,0 2.32846,0.2928 3.47177,0.8784 2.14719,1.11543 3.22079,3.05348 3.22079,5.81416 0,2.76068 -1.0736,4.69873 -3.22079,5.81416 -1.19909,0.61349 -2.35634,0.92023 -3.47177,0.92023 h -8.49118 v 2.00777 l 15.853,15.81117 h 3.51359 v -2.21691 z"
               id="path29097-4-1" />
          </g>
          <g
             id="path27274-5-0"
             style="fill:#f5e03c;fill-opacity:1;stroke:#f8e974;stroke-width:0;stroke-dasharray:none;stroke-opacity:1">
            <path
               style="color:#000000;-inkscape-font-specification:Neon;fill:#f5e03c;fill-opacity:1;stroke:#f8e974;stroke-width:0;stroke-linejoin:miter;stroke-dasharray:none;stroke-opacity:1"
               d="m 667.61843,208.88412 -13.42695,-13.42695 h 5.18673 c 2.09142,0 3.95977,-0.59954 5.60502,-1.79863 2.20296,-1.61737 3.30445,-3.98765 3.30445,-7.11084 0,-3.12319 -1.10149,-5.49348 -3.30445,-7.11085 -1.64525,-1.19908 -3.5136,-1.79862 -5.60502,-1.79862 h -12.84135 v 30.40932 c 0,0.52983 -0.2928,0.80868 -0.8784,0.83657 l -1.08754,0.0418 v 2.17508 h 1.12937 c 0.89234,0 1.61737,-0.27886 2.17508,-0.83657 0.5856,-0.5856 0.8784,-1.32457 0.8784,-2.21691 v -28.19241 h 10.62444 c 1.1712,0 2.32846,0.2928 3.47177,0.8784 2.14719,1.11543 3.22079,3.05348 3.22079,5.81416 0,2.76068 -1.0736,4.69873 -3.22079,5.81416 -1.19909,0.61349 -2.35634,0.92023 -3.47177,0.92023 h -8.49118 v 2.00777 l 15.853,15.81117 h 3.51359 v -2.21691 z"
               id="path29101-1-1" />
            <path
               style="color:#000000;-inkscape-font-specification:Neon;fill:#f5e03c;fill-opacity:1;stroke:#f8e974;stroke-width:0;stroke-linejoin:miter;stroke-dasharray:none;stroke-opacity:1"
               d="m 667.61843,208.88412 -13.42695,-13.42695 h 5.18673 c 2.09142,0 3.95977,-0.59954 5.60502,-1.79863 2.20296,-1.61737 3.30445,-3.98765 3.30445,-7.11084 0,-3.12319 -1.10149,-5.49348 -3.30445,-7.11085 -1.64525,-1.19908 -3.5136,-1.79862 -5.60502,-1.79862 h -12.84135 v 30.40932 c 0,0.52983 -0.2928,0.80868 -0.8784,0.83657 l -1.08754,0.0418 v 2.17508 h 1.12937 c 0.89234,0 1.61737,-0.27886 2.17508,-0.83657 0.5856,-0.5856 0.8784,-1.32457 0.8784,-2.21691 v -28.19241 h 10.62444 c 1.1712,0 2.32846,0.2928 3.47177,0.8784 2.14719,1.11543 3.22079,3.05348 3.22079,5.81416 0,2.76068 -1.0736,4.69873 -3.22079,5.81416 -1.19909,0.61349 -2.35634,0.92023 -3.47177,0.92023 h -8.49118 v 2.00777 l 15.853,15.81117 h 3.51359 v -2.21691 z"
               id="path29103-7-9" />
          </g>
        </g>
        <g
           id="path26443-8-5"
           style="fill:#f5e03c;fill-opacity:1;stroke:#f8e974;stroke-width:0;stroke-dasharray:none;stroke-opacity:1">
          <g
             id="path27278-2-7"
             style="fill:#f5e03c;fill-opacity:1;stroke:#f8e974;stroke-width:0;stroke-dasharray:none;stroke-opacity:1">
            <path
               style="color:#000000;-inkscape-font-specification:Neon;fill:#f5e03c;fill-opacity:1;stroke:#f8e974;stroke-width:0;stroke-linejoin:miter;stroke-dasharray:none;stroke-opacity:1"
               d="m 699.61718,208.75863 h -5.35405 l -11.37735,-8.82581 q -1.21303,-0.92023 -1.21303,-2.17508 0,-0.75292 0.66926,-1.7568 l 2.55154,-3.84822 6.52525,-9.74604 q 0.54377,-0.79474 0.54377,-1.7568 0,-1.79862 -1.7568,-2.67702 -0.96206,-0.46012 -1.88228,-0.2928 -1.21303,0.25097 -1.96594,1.33851 l -6.52525,9.74604 q -0.5856,0.8784 -1.54765,2.25874 v -10.33164 q 0,-1.33851 -0.8784,-2.17508 -0.83657,-0.8784 -2.17508,-0.8784 -1.33852,0 -2.21691,0.8784 -0.83657,0.83657 -0.83657,2.17508 v 27.27218 q 0,0.79474 -0.8784,0.83657 l -1.08754,0.0418 v 2.17508 h 1.12937 q 1.29668,0 2.13325,-0.8784 0.8784,-0.8784 0.8784,-2.17508 v -27.27218 q 0,-0.83657 0.8784,-0.83657 0.83657,0 0.83657,0.83657 v 15.60203 h 1.25485 l 4.35016,-6.3161 6.52525,-9.70422 q 0.46011,-0.71108 1.1712,-0.25097 0.71108,0.46012 0.20914,1.1712 l -8.99313,13.51061 q -1.29668,1.96594 -1.08754,3.59725 0.2928,2.04959 2.00777,3.38811 l 12.00478,9.41141 0.0418,-0.0837 h 6.06513 z"
               id="path29107-5-6" />
            <path
               style="color:#000000;-inkscape-font-specification:Neon;fill:#f5e03c;fill-opacity:1;stroke:#f8e974;stroke-width:0;stroke-linejoin:miter;stroke-dasharray:none;stroke-opacity:1"
               d="m 699.61718,208.75863 h -5.35405 l -11.37735,-8.82581 c -0.80869,-0.61349 -1.21303,-1.33851 -1.21303,-2.17508 0,-0.50195 0.22309,-1.08755 0.66926,-1.7568 l 2.55154,-3.84822 6.52525,-9.74604 c 0.36251,-0.52983 0.54377,-1.11543 0.54377,-1.7568 0,-1.19908 -0.5856,-2.09142 -1.7568,-2.67702 -0.64137,-0.30675 -1.2688,-0.40435 -1.88228,-0.2928 -0.80869,0.16731 -1.464,0.61348 -1.96594,1.33851 l -6.52525,9.74604 c -0.3904,0.5856 -0.90628,1.33851 -1.54765,2.25874 v -10.33164 c 0,-0.89234 -0.2928,-1.61737 -0.8784,-2.17508 -0.55771,-0.5856 -1.28274,-0.8784 -2.17508,-0.8784 -0.89235,0 -1.63132,0.2928 -2.21691,0.8784 -0.55771,0.55771 -0.83657,1.28274 -0.83657,2.17508 v 27.27218 c 0,0.52983 -0.2928,0.80868 -0.8784,0.83657 l -1.08754,0.0418 v 2.17508 h 1.12937 c 0.86445,0 1.57554,-0.2928 2.13325,-0.8784 0.5856,-0.5856 0.8784,-1.31063 0.8784,-2.17508 v -27.27218 c 0,-0.55771 0.2928,-0.83657 0.8784,-0.83657 0.55771,0 0.83657,0.27886 0.83657,0.83657 v 15.60203 h 1.25485 l 4.35016,-6.3161 6.52525,-9.70422 c 0.30674,-0.47405 0.69714,-0.55771 1.1712,-0.25097 0.47405,0.30675 0.54377,0.69715 0.20914,1.1712 l -8.99313,13.51061 c -0.86445,1.31063 -1.22697,2.50971 -1.08754,3.59725 0.1952,1.36639 0.86446,2.49576 2.00777,3.38811 l 12.00478,9.41141 0.0418,-0.0837 h 6.06513 z"
               id="path29109-4-8" />
          </g>
          <g
             id="path27280-5-5"
             style="fill:#f5e03c;fill-opacity:1;stroke:#f8e974;stroke-width:0;stroke-dasharray:none;stroke-opacity:1">
            <path
               style="color:#000000;-inkscape-font-specification:Neon;fill:#f5e03c;fill-opacity:1;stroke:#f8e974;stroke-width:0;stroke-linejoin:miter;stroke-dasharray:none;stroke-opacity:1"
               d="m 699.61718,208.75863 h -5.35405 l -11.37735,-8.82581 c -0.80869,-0.61349 -1.21303,-1.33851 -1.21303,-2.17508 0,-0.50195 0.22309,-1.08755 0.66926,-1.7568 l 2.55154,-3.84822 6.52525,-9.74604 c 0.36251,-0.52983 0.54377,-1.11543 0.54377,-1.7568 0,-1.19908 -0.5856,-2.09142 -1.7568,-2.67702 -0.64137,-0.30675 -1.2688,-0.40435 -1.88228,-0.2928 -0.80869,0.16731 -1.464,0.61348 -1.96594,1.33851 l -6.52525,9.74604 c -0.3904,0.5856 -0.90628,1.33851 -1.54765,2.25874 v -10.33164 c 0,-0.89234 -0.2928,-1.61737 -0.8784,-2.17508 -0.55771,-0.5856 -1.28274,-0.8784 -2.17508,-0.8784 -0.89235,0 -1.63132,0.2928 -2.21691,0.8784 -0.55771,0.55771 -0.83657,1.28274 -0.83657,2.17508 v 27.27218 c 0,0.52983 -0.2928,0.80868 -0.8784,0.83657 l -1.08754,0.0418 v 2.17508 h 1.12937 c 0.86445,0 1.57554,-0.2928 2.13325,-0.8784 0.5856,-0.5856 0.8784,-1.31063 0.8784,-2.17508 v -27.27218 c 0,-0.55771 0.2928,-0.83657 0.8784,-0.83657 0.55771,0 0.83657,0.27886 0.83657,0.83657 v 15.60203 h 1.25485 l 4.35016,-6.3161 6.52525,-9.70422 c 0.30674,-0.47405 0.69714,-0.55771 1.1712,-0.25097 0.47405,0.30675 0.54377,0.69715 0.20914,1.1712 l -8.99313,13.51061 c -0.86445,1.31063 -1.22697,2.50971 -1.08754,3.59725 0.1952,1.36639 0.86446,2.49576 2.00777,3.38811 l 12.00478,9.41141 0.0418,-0.0837 h 6.06513 z"
               id="path29113-3-4" />
            <path
               style="color:#000000;-inkscape-font-specification:Neon;fill:#f5e03c;fill-opacity:1;stroke:#f8e974;stroke-width:0;stroke-linejoin:miter;stroke-dasharray:none;stroke-opacity:1"
               d="m 699.61718,208.75863 h -5.35405 l -11.37735,-8.82581 c -0.80869,-0.61349 -1.21303,-1.33851 -1.21303,-2.17508 0,-0.50195 0.22309,-1.08755 0.66926,-1.7568 l 2.55154,-3.84822 6.52525,-9.74604 c 0.36251,-0.52983 0.54377,-1.11543 0.54377,-1.7568 0,-1.19908 -0.5856,-2.09142 -1.7568,-2.67702 -0.64137,-0.30675 -1.2688,-0.40435 -1.88228,-0.2928 -0.80869,0.16731 -1.464,0.61348 -1.96594,1.33851 l -6.52525,9.74604 c -0.3904,0.5856 -0.90628,1.33851 -1.54765,2.25874 v -10.33164 c 0,-0.89234 -0.2928,-1.61737 -0.8784,-2.17508 -0.55771,-0.5856 -1.28274,-0.8784 -2.17508,-0.8784 -0.89235,0 -1.63132,0.2928 -2.21691,0.8784 -0.55771,0.55771 -0.83657,1.28274 -0.83657,2.17508 v 27.27218 c 0,0.52983 -0.2928,0.80868 -0.8784,0.83657 l -1.08754,0.0418 v 2.17508 h 1.12937 c 0.86445,0 1.57554,-0.2928 2.13325,-0.8784 0.5856,-0.5856 0.8784,-1.31063 0.8784,-2.17508 v -27.27218 c 0,-0.55771 0.2928,-0.83657 0.8784,-0.83657 0.55771,0 0.83657,0.27886 0.83657,0.83657 v 15.60203 h 1.25485 l 4.35016,-6.3161 6.52525,-9.70422 c 0.30674,-0.47405 0.69714,-0.55771 1.1712,-0.25097 0.47405,0.30675 0.54377,0.69715 0.20914,1.1712 l -8.99313,13.51061 c -0.86445,1.31063 -1.22697,2.50971 -1.08754,3.59725 0.1952,1.36639 0.86446,2.49576 2.00777,3.38811 l 12.00478,9.41141 0.0418,-0.0837 h 6.06513 z"
               id="path29115-0-7" />
          </g>
        </g>
        <g
           id="path26445-1-9"
           style="fill:#f5e03c;fill-opacity:1;stroke:#f8e974;stroke-width:0;stroke-dasharray:none;stroke-opacity:1">
          <g
             id="path27284-9-6"
             style="fill:#f5e03c;fill-opacity:1;stroke:#f8e974;stroke-width:0;stroke-dasharray:none;stroke-opacity:1">
            <path
               style="color:#000000;-inkscape-font-specification:Neon;fill:#f5e03c;fill-opacity:1;stroke:#f8e974;stroke-width:0;stroke-linejoin:miter;stroke-dasharray:none;stroke-opacity:1"
               d="m 701.5831,187.55158 q 0,5.18674 3.6809,7.86376 2.76069,2.00777 6.23245,2.00777 1.00388,0 2.00777,0.54377 1.7568,0.96206 1.7568,3.22079 0,2.30057 -1.7568,3.26263 -0.96206,0.54377 -2.0496,0.54377 -1.04571,0 -2.00777,-0.54377 -1.75679,-0.96206 -1.75679,-3.26263 v -1.92411 q 0,-1.38034 -0.83657,-2.21691 -0.83657,-0.83657 -2.21691,-0.83657 -1.38034,0 -2.21691,0.83657 -0.83657,0.83657 -0.83657,2.21691 v 8.78399 q 0,0.79474 -0.8784,0.83657 l -1.08754,0.0418 v 2.17508 h 1.12937 q 1.29668,0 2.17508,-0.8784 0.8784,-0.8784 0.8784,-2.17508 v -8.78399 q 0,-0.8784 0.83657,-0.8784 0.83657,0 0.83657,0.8784 v 1.92411 q 0,2.6352 1.67314,4.35017 1.71497,1.67314 4.35016,1.67314 2.6352,0 4.30834,-1.67314 1.67314,-1.71497 1.67314,-4.35017 0,-2.59336 -1.71497,-4.2665 -1.67314,-1.71497 -4.26651,-1.71497 -2.0496,0 -3.97371,-1.00389 -3.72273,-1.92411 -3.72273,-6.65073 0,-4.76845 3.72273,-6.69256 1.92411,-1.00388 3.97371,-1.00388 2.00777,0 3.93188,1.00388 3.72274,1.92411 3.72274,6.69256 v 0.96206 q 0,0.83657 -0.83657,0.83657 -0.83657,0 -0.83657,-0.83657 v -0.96206 q 0,-2.63519 -1.67314,-4.30833 -1.67314,-1.71497 -4.30834,-1.71497 -2.63519,0 -4.35016,1.71497 -1.67314,1.67314 -1.67314,4.30833 0,5.43771 5.89782,5.98148 2.59336,0.25097 4.05736,1.00388 3.72274,1.92411 3.72274,6.65073 0,4.76845 -3.72274,6.69256 -1.92411,1.00389 -3.93188,1.00389 v 2.21691 h 11.83747 v -2.21691 h -5.39588 q 3.42994,-2.67703 3.42994,-7.69645 0,-5.18673 -3.63908,-7.86375 -2.76068,-2.00777 -6.23245,-2.00777 -1.04571,0 -2.0496,-0.54377 -1.75679,-0.96206 -1.75679,-3.2208 v 0 q 0,-2.30056 1.75679,-3.26262 0.96206,-0.54377 2.0496,-0.54377 1.04571,0 2.00777,0.54377 1.7568,0.96206 1.7568,3.26262 v 0.96206 q 0,1.33851 0.83657,2.21691 0.87839,0.83657 2.21691,0.83657 1.33851,0 2.17508,-0.83657 0.8784,-0.8784 0.8784,-2.21691 v -0.96206 q 0,-5.22856 -3.63908,-7.90558 -2.76068,-2.00777 -6.23245,-2.00777 -3.47176,0 -6.23245,2.00777 -3.6809,2.67702 -3.6809,7.90558 z"
               id="path29035-4-6" />
            <path
               style="color:#000000;-inkscape-font-specification:Neon;fill:#f5e03c;fill-opacity:1;stroke:#f8e974;stroke-width:0;stroke-linejoin:miter;stroke-dasharray:none;stroke-opacity:1"
               d="m 701.5831,187.55158 c 0,3.45782 1.22697,6.07908 3.6809,7.86376 1.84046,1.33851 3.91795,2.00777 6.23245,2.00777 0.66925,0 1.33851,0.18126 2.00777,0.54377 1.1712,0.64137 1.7568,1.71497 1.7568,3.22079 0,1.53371 -0.5856,2.62126 -1.7568,3.26263 -0.64137,0.36251 -1.32457,0.54377 -2.0496,0.54377 -0.69714,0 -1.3664,-0.18126 -2.00777,-0.54377 -1.17119,-0.64137 -1.75679,-1.72892 -1.75679,-3.26263 v -1.92411 c 0,-0.92023 -0.27886,-1.6592 -0.83657,-2.21691 -0.55771,-0.55771 -1.29668,-0.83657 -2.21691,-0.83657 -0.92023,0 -1.6592,0.27886 -2.21691,0.83657 -0.55771,0.55771 -0.83657,1.29668 -0.83657,2.21691 v 8.78399 c 0,0.52983 -0.2928,0.80868 -0.8784,0.83657 l -1.08754,0.0418 v 2.17508 h 1.12937 c 0.86445,0 1.58948,-0.2928 2.17508,-0.8784 0.5856,-0.5856 0.8784,-1.31063 0.8784,-2.17508 v -8.78399 c 0,-0.5856 0.27886,-0.8784 0.83657,-0.8784 0.55771,0 0.83657,0.2928 0.83657,0.8784 v 1.92411 c 0,1.7568 0.55771,3.20686 1.67314,4.35017 1.14331,1.11543 2.59337,1.67314 4.35016,1.67314 1.7568,0 3.19291,-0.55771 4.30834,-1.67314 1.11543,-1.14331 1.67314,-2.59337 1.67314,-4.35017 0,-1.7289 -0.57166,-3.15107 -1.71497,-4.2665 -1.11543,-1.14331 -2.5376,-1.71497 -4.26651,-1.71497 -1.3664,0 -2.69097,-0.33463 -3.97371,-1.00389 -2.48182,-1.28274 -3.72273,-3.49965 -3.72273,-6.65073 0,-3.17896 1.24091,-5.40982 3.72273,-6.69256 1.28274,-0.66925 2.60731,-1.00388 3.97371,-1.00388 1.33851,0 2.64914,0.33463 3.93188,1.00388 2.48182,1.28274 3.72274,3.5136 3.72274,6.69256 v 0.96206 c 0,0.55771 -0.27886,0.83657 -0.83657,0.83657 -0.55771,0 -0.83657,-0.27886 -0.83657,-0.83657 v -0.96206 c 0,-1.75679 -0.55771,-3.1929 -1.67314,-4.30833 -1.11543,-1.14331 -2.55154,-1.71497 -4.30834,-1.71497 -1.75679,0 -3.20685,0.57166 -4.35016,1.71497 -1.11543,1.11543 -1.67314,2.55154 -1.67314,4.30833 0,3.62514 1.96594,5.61897 5.89782,5.98148 1.7289,0.16731 3.08136,0.50194 4.05736,1.00388 2.48182,1.28274 3.72274,3.49965 3.72274,6.65073 0,3.17896 -1.24092,5.40982 -3.72274,6.69256 -1.28274,0.66926 -2.59337,1.00389 -3.93188,1.00389 v 2.21691 h 11.83747 v -2.21691 h -5.39588 c 2.28662,-1.78468 3.42994,-4.35017 3.42994,-7.69645 0,-3.45782 -1.21303,-6.07907 -3.63908,-7.86375 -1.84045,-1.33851 -3.91794,-2.00777 -6.23245,-2.00777 -0.69714,0 -1.38034,-0.18126 -2.0496,-0.54377 -1.17119,-0.64137 -1.75679,-1.71497 -1.75679,-3.2208 v 0 c 0,-1.53371 0.5856,-2.62125 1.75679,-3.26262 0.64137,-0.36251 1.32457,-0.54377 2.0496,-0.54377 0.69714,0 1.3664,0.18126 2.00777,0.54377 1.1712,0.64137 1.7568,1.72891 1.7568,3.26262 v 0.96206 c 0,0.89234 0.27886,1.63131 0.83657,2.21691 0.58559,0.55771 1.32456,0.83657 2.21691,0.83657 0.89234,0 1.61737,-0.27886 2.17508,-0.83657 0.5856,-0.5856 0.8784,-1.32457 0.8784,-2.21691 v -0.96206 c 0,-3.4857 -1.21303,-6.1209 -3.63908,-7.90558 -1.84045,-1.33851 -3.91794,-2.00777 -6.23245,-2.00777 -2.3145,0 -4.39199,0.66926 -6.23245,2.00777 -2.45393,1.78468 -3.6809,4.41988 -3.6809,7.90558 z"
               id="path29037-5-6" />
          </g>
          <g
             id="path27286-9-6"
             style="fill:#f5e03c;fill-opacity:1;stroke:#f8e974;stroke-width:0;stroke-dasharray:none;stroke-opacity:1">
            <path
               style="color:#000000;-inkscape-font-specification:Neon;fill:#f5e03c;fill-opacity:1;stroke:#f8e974;stroke-width:0;stroke-linejoin:miter;stroke-dasharray:none;stroke-opacity:1"
               d="m 701.5831,187.55158 c 0,3.45782 1.22697,6.07908 3.6809,7.86376 1.84046,1.33851 3.91795,2.00777 6.23245,2.00777 0.66925,0 1.33851,0.18126 2.00777,0.54377 1.1712,0.64137 1.7568,1.71497 1.7568,3.22079 0,1.53371 -0.5856,2.62126 -1.7568,3.26263 -0.64137,0.36251 -1.32457,0.54377 -2.0496,0.54377 -0.69714,0 -1.3664,-0.18126 -2.00777,-0.54377 -1.17119,-0.64137 -1.75679,-1.72892 -1.75679,-3.26263 v -1.92411 c 0,-0.92023 -0.27886,-1.6592 -0.83657,-2.21691 -0.55771,-0.55771 -1.29668,-0.83657 -2.21691,-0.83657 -0.92023,0 -1.6592,0.27886 -2.21691,0.83657 -0.55771,0.55771 -0.83657,1.29668 -0.83657,2.21691 v 8.78399 c 0,0.52983 -0.2928,0.80868 -0.8784,0.83657 l -1.08754,0.0418 v 2.17508 h 1.12937 c 0.86445,0 1.58948,-0.2928 2.17508,-0.8784 0.5856,-0.5856 0.8784,-1.31063 0.8784,-2.17508 v -8.78399 c 0,-0.5856 0.27886,-0.8784 0.83657,-0.8784 0.55771,0 0.83657,0.2928 0.83657,0.8784 v 1.92411 c 0,1.7568 0.55771,3.20686 1.67314,4.35017 1.14331,1.11543 2.59337,1.67314 4.35016,1.67314 1.7568,0 3.19291,-0.55771 4.30834,-1.67314 1.11543,-1.14331 1.67314,-2.59337 1.67314,-4.35017 0,-1.7289 -0.57166,-3.15107 -1.71497,-4.2665 -1.11543,-1.14331 -2.5376,-1.71497 -4.26651,-1.71497 -1.3664,0 -2.69097,-0.33463 -3.97371,-1.00389 -2.48182,-1.28274 -3.72273,-3.49965 -3.72273,-6.65073 0,-3.17896 1.24091,-5.40982 3.72273,-6.69256 1.28274,-0.66925 2.60731,-1.00388 3.97371,-1.00388 1.33851,0 2.64914,0.33463 3.93188,1.00388 2.48182,1.28274 3.72274,3.5136 3.72274,6.69256 v 0.96206 c 0,0.55771 -0.27886,0.83657 -0.83657,0.83657 -0.55771,0 -0.83657,-0.27886 -0.83657,-0.83657 v -0.96206 c 0,-1.75679 -0.55771,-3.1929 -1.67314,-4.30833 -1.11543,-1.14331 -2.55154,-1.71497 -4.30834,-1.71497 -1.75679,0 -3.20685,0.57166 -4.35016,1.71497 -1.11543,1.11543 -1.67314,2.55154 -1.67314,4.30833 0,3.62514 1.96594,5.61897 5.89782,5.98148 1.7289,0.16731 3.08136,0.50194 4.05736,1.00388 2.48182,1.28274 3.72274,3.49965 3.72274,6.65073 0,3.17896 -1.24092,5.40982 -3.72274,6.69256 -1.28274,0.66926 -2.59337,1.00389 -3.93188,1.00389 v 2.21691 h 11.83747 v -2.21691 h -5.39588 c 2.28662,-1.78468 3.42994,-4.35017 3.42994,-7.69645 0,-3.45782 -1.21303,-6.07907 -3.63908,-7.86375 -1.84045,-1.33851 -3.91794,-2.00777 -6.23245,-2.00777 -0.69714,0 -1.38034,-0.18126 -2.0496,-0.54377 -1.17119,-0.64137 -1.75679,-1.71497 -1.75679,-3.2208 v 0 c 0,-1.53371 0.5856,-2.62125 1.75679,-3.26262 0.64137,-0.36251 1.32457,-0.54377 2.0496,-0.54377 0.69714,0 1.3664,0.18126 2.00777,0.54377 1.1712,0.64137 1.7568,1.72891 1.7568,3.26262 v 0.96206 c 0,0.89234 0.27886,1.63131 0.83657,2.21691 0.58559,0.55771 1.32456,0.83657 2.21691,0.83657 0.89234,0 1.61737,-0.27886 2.17508,-0.83657 0.5856,-0.5856 0.8784,-1.32457 0.8784,-2.21691 v -0.96206 c 0,-3.4857 -1.21303,-6.1209 -3.63908,-7.90558 -1.84045,-1.33851 -3.91794,-2.00777 -6.23245,-2.00777 -2.3145,0 -4.39199,0.66926 -6.23245,2.00777 -2.45393,1.78468 -3.6809,4.41988 -3.6809,7.90558 z"
               id="path29041-3-7" />
            <path
               style="color:#000000;-inkscape-font-specification:Neon;fill:#f5e03c;fill-opacity:1;stroke:#f8e974;stroke-width:0;stroke-linejoin:miter;stroke-dasharray:none;stroke-opacity:1"
               d="m 701.5831,187.55158 c 0,3.45782 1.22697,6.07908 3.6809,7.86376 1.84046,1.33851 3.91795,2.00777 6.23245,2.00777 0.66925,0 1.33851,0.18126 2.00777,0.54377 1.1712,0.64137 1.7568,1.71497 1.7568,3.22079 0,1.53371 -0.5856,2.62126 -1.7568,3.26263 -0.64137,0.36251 -1.32457,0.54377 -2.0496,0.54377 -0.69714,0 -1.3664,-0.18126 -2.00777,-0.54377 -1.17119,-0.64137 -1.75679,-1.72892 -1.75679,-3.26263 v -1.92411 c 0,-0.92023 -0.27886,-1.6592 -0.83657,-2.21691 -0.55771,-0.55771 -1.29668,-0.83657 -2.21691,-0.83657 -0.92023,0 -1.6592,0.27886 -2.21691,0.83657 -0.55771,0.55771 -0.83657,1.29668 -0.83657,2.21691 v 8.78399 c 0,0.52983 -0.2928,0.80868 -0.8784,0.83657 l -1.08754,0.0418 v 2.17508 h 1.12937 c 0.86445,0 1.58948,-0.2928 2.17508,-0.8784 0.5856,-0.5856 0.8784,-1.31063 0.8784,-2.17508 v -8.78399 c 0,-0.5856 0.27886,-0.8784 0.83657,-0.8784 0.55771,0 0.83657,0.2928 0.83657,0.8784 v 1.92411 c 0,1.7568 0.55771,3.20686 1.67314,4.35017 1.14331,1.11543 2.59337,1.67314 4.35016,1.67314 1.7568,0 3.19291,-0.55771 4.30834,-1.67314 1.11543,-1.14331 1.67314,-2.59337 1.67314,-4.35017 0,-1.7289 -0.57166,-3.15107 -1.71497,-4.2665 -1.11543,-1.14331 -2.5376,-1.71497 -4.26651,-1.71497 -1.3664,0 -2.69097,-0.33463 -3.97371,-1.00389 -2.48182,-1.28274 -3.72273,-3.49965 -3.72273,-6.65073 0,-3.17896 1.24091,-5.40982 3.72273,-6.69256 1.28274,-0.66925 2.60731,-1.00388 3.97371,-1.00388 1.33851,0 2.64914,0.33463 3.93188,1.00388 2.48182,1.28274 3.72274,3.5136 3.72274,6.69256 v 0.96206 c 0,0.55771 -0.27886,0.83657 -0.83657,0.83657 -0.55771,0 -0.83657,-0.27886 -0.83657,-0.83657 v -0.96206 c 0,-1.75679 -0.55771,-3.1929 -1.67314,-4.30833 -1.11543,-1.14331 -2.55154,-1.71497 -4.30834,-1.71497 -1.75679,0 -3.20685,0.57166 -4.35016,1.71497 -1.11543,1.11543 -1.67314,2.55154 -1.67314,4.30833 0,3.62514 1.96594,5.61897 5.89782,5.98148 1.7289,0.16731 3.08136,0.50194 4.05736,1.00388 2.48182,1.28274 3.72274,3.49965 3.72274,6.65073 0,3.17896 -1.24092,5.40982 -3.72274,6.69256 -1.28274,0.66926 -2.59337,1.00389 -3.93188,1.00389 v 2.21691 h 11.83747 v -2.21691 h -5.39588 c 2.28662,-1.78468 3.42994,-4.35017 3.42994,-7.69645 0,-3.45782 -1.21303,-6.07907 -3.63908,-7.86375 -1.84045,-1.33851 -3.91794,-2.00777 -6.23245,-2.00777 -0.69714,0 -1.38034,-0.18126 -2.0496,-0.54377 -1.17119,-0.64137 -1.75679,-1.71497 -1.75679,-3.2208 v 0 c 0,-1.53371 0.5856,-2.62125 1.75679,-3.26262 0.64137,-0.36251 1.32457,-0.54377 2.0496,-0.54377 0.69714,0 1.3664,0.18126 2.00777,0.54377 1.1712,0.64137 1.7568,1.72891 1.7568,3.26262 v 0.96206 c 0,0.89234 0.27886,1.63131 0.83657,2.21691 0.58559,0.55771 1.32456,0.83657 2.21691,0.83657 0.89234,0 1.61737,-0.27886 2.17508,-0.83657 0.5856,-0.5856 0.8784,-1.32457 0.8784,-2.21691 v -0.96206 c 0,-3.4857 -1.21303,-6.1209 -3.63908,-7.90558 -1.84045,-1.33851 -3.91794,-2.00777 -6.23245,-2.00777 -2.3145,0 -4.39199,0.66926 -6.23245,2.00777 -2.45393,1.78468 -3.6809,4.41988 -3.6809,7.90558 z"
               id="path29043-9-0" />
          </g>
        </g>
      </g>
    </g>
  </g>
</svg>
