<?xml version="1.0" encoding="UTF-8" standalone="no"?>
<!-- Created with Inkscape (http://www.inkscape.org/) -->

<svg
   width="183.226mm"
   height="161.681mm"
   viewBox="0 0 183.226 161.681"
   version="1.1"
   id="svg84657"
   xmlns="http://www.w3.org/2000/svg"
   xmlnsSvg="http://www.w3.org/2000/svg">
  <defs
     id="defs84654" />
  <g
     id="layer1">
    <g
       id="g86346"
       transform="translate(-2.0751953e-6,0.01028976)">
      <g
         id="g86337"
         transform="translate(-6.3505204,-38.714516)">
        <g
           id="g64734"
           transform="translate(-298.3933,96.652119)"
           style="fill:#f9be05;fill-opacity:1;fill-rule:evenodd">
          <path
             style="color:#000000;fill:#f9be05;fill-opacity:1;fill-rule:evenodd;stroke-width:1;stroke-linecap:square;-inkscape-stroke:none;paint-order:stroke fill markers"
             d="m 319.74021,77.28639 h -2.94494 -9.10742 -2.94451 v 26.45702 h 2.94451 9.10742 2.94494 z"
             id="path64312-3" />
          <path
             style="color:#000000;fill:#f9be05;fill-opacity:1;fill-rule:evenodd;stroke-width:1;stroke-linecap:square;-inkscape-stroke:none;paint-order:stroke fill markers"
             d="m 355.47511,-57.937474 v 19.476169 60.231235 19.47329 h 26.45703 V 21.76993 -38.461305 -57.937474 Z"
             id="path64312-5-1" />
          <path
             id="path63499-5-17"
             style="color:#000000;fill:#f9be05;fill-opacity:1;fill-rule:evenodd;stroke-linecap:round;stroke-linejoin:round;-inkscape-stroke:none;paint-order:stroke fill markers"
             d="m 355.47292,41.24323 c 0,20.1067 -15.88609,36.04327 -35.73219,36.04327 h -5.2e-4 v 26.45679 h 5.2e-4 c 34.23548,0 62.19104,-28.1839 62.19104,-62.50006 z" />
        </g>
        <path
           style="color:#000000;fill:#f9be05;fill-opacity:1;fill-rule:evenodd;stroke-width:0.999997;stroke-linecap:square;-inkscape-stroke:none;paint-order:stroke fill markers"
           d="m 30.624751,65.171669 h 10.390765 32.134057 10.38924 V 38.714642 H 73.149573 41.015522 30.624751 Z"
           id="path64312-5-9-0" />
      </g>
      <path
         id="path63499-5-93"
         style="color:#000000;fill:#f9be05;fill-opacity:1;fill-rule:evenodd;stroke-width:1;stroke-linecap:round;stroke-linejoin:round;-inkscape-stroke:none;paint-order:stroke fill markers"
         d="m 182.43987,-1.312207e-5 c -42.48071,0 -77.16962,36.45433812207 -77.16962,80.84052612207 0,44.386177 34.68891,80.840497 77.16962,80.840497 0.26286,0 0.5239,-0.008 0.78613,-0.0103 v -26.45824 c -0.26262,0.005 -0.52239,0 -0.78613,0 -24.62581,0 -50.71127,-28.36496 -50.71127,-54.371927 0,-26.006953 26.08546,-54.38186 50.71127,-54.38188 0.26375,0 0.52351,-0.0047 0.78613,0 V 0.01063188 c -0.26223,-0.0026 -0.52327,-0.0103500021 -0.78613,-0.0103500021 z" />
    </g>
  </g>
</svg>
